<svg xmlns="http://www.w3.org/2000/svg" xmlns:xlink="http://www.w3.org/1999/xlink" width="375pt" height="374.999991pt" viewBox="0 0 375 374.999991"><g id="surface1"><rect x="0" y="0" width="375" height="374.999991" style="fill:rgb(100%,100%,100%);fill-opacity:1;stroke:none;"></rect><rect x="0" y="0" width="375" height="374.999991" style="fill:rgb(100%,100%,100%);fill-opacity:1;stroke:none;"></rect><path style=" stroke:none;fill-rule:nonzero;fill:rgb(98.429871%,79.60968%,73.329163%);fill-opacity:1;" d="M 364.5 199.351562 C 364.5 191.070312 357.792969 184.367188 349.511719 184.367188 L 29.832031 184.367188 C 21.550781 184.367188 14.847656 191.070312 14.847656 199.351562 L 14.847656 241.167969 C 14.847656 249.449219 21.550781 256.152344 29.832031 256.152344 L 349.511719 256.152344 C 357.792969 256.152344 364.5 249.449219 364.5 241.167969 L 364.5 199.351562 "></path><path style=" stroke:none;fill-rule:nonzero;fill:rgb(97.648621%,69.40918%,59.999084%);fill-opacity:1;" d="M 36.664062 271.488281 L 36.664062 298.847656 C 36.664062 341.136719 70.953125 375.425781 113.246094 375.425781 L 266.101562 375.425781 C 308.40625 375.425781 342.695312 341.136719 342.695312 298.847656 L 342.695312 256.152344 L 36.664062 256.152344 L 36.664062 271.488281 "></path><path style=" stroke:none;fill-rule:nonzero;fill:rgb(12.548828%,69.40918%,41.178894%);fill-opacity:1;" d="M 372.949219 92.605469 C 372.949219 92.605469 370.070312 92.636719 365.042969 92.675781 C 362.515625 92.703125 359.441406 92.734375 355.921875 92.773438 C 354.164062 92.816406 352.277344 92.761719 350.292969 92.886719 C 348.324219 93.082031 346.242188 93.277344 344.066406 93.5 C 339.734375 93.960938 334.988281 94.324219 329.988281 94.980469 C 325.015625 95.945312 319.75 96.964844 314.328125 98.011719 C 308.882812 99.214844 303.40625 101.097656 297.722656 102.703125 C 292.09375 104.492188 286.578125 107.019531 280.921875 109.214844 C 278.15625 110.5 275.488281 111.964844 272.761719 113.347656 C 270.09375 114.8125 267.246094 116 264.761719 117.734375 C 259.664062 121 254.464844 124.074219 249.953125 127.800781 C 247.664062 129.632812 245.277344 131.265625 243.195312 133.179688 C 241.101562 135.09375 239.046875 136.964844 237.035156 138.78125 C 234.96875 140.554688 233.277344 142.59375 231.492188 144.421875 C 229.746094 146.320312 227.972656 148.054688 226.492188 149.96875 C 224.996094 151.8125 223.558594 153.554688 222.1875 155.246094 C 222.3125 154.519531 222.441406 153.792969 222.578125 153.054688 C 223.527344 147.929688 224.730469 142.410156 226.15625 136.617188 C 227.636719 130.832031 229.269531 124.742188 231.351562 118.597656 C 233.335938 112.410156 235.707031 106.15625 238.363281 99.910156 C 241.113281 93.738281 244.019531 87.480469 247.46875 81.601562 C 250.808594 75.625 254.632812 70.007812 258.640625 64.660156 C 262.777344 59.464844 267.050781 54.4375 271.730469 50.191406 C 272.890625 49.101562 274.035156 48.039062 275.164062 46.964844 C 276.378906 46 277.582031 45.050781 278.769531 44.101562 C 279.96875 43.167969 281.117188 42.160156 282.332031 41.308594 C 283.558594 40.484375 284.789062 39.660156 285.988281 38.863281 C 288.351562 37.148438 290.835938 35.777344 293.253906 34.480469 C 294.453125 33.808594 295.640625 33.152344 296.800781 32.523438 C 298.015625 31.980469 299.203125 31.449219 300.375 30.933594 C 304.984375 28.671875 309.539062 27.40625 313.503906 25.996094 C 317.582031 24.984375 321.171875 24.0625 324.160156 23.457031 C 330.222656 22.546875 333.671875 22.027344 333.671875 22.027344 L 334.21875 21.945312 C 337.152344 21.515625 339.359375 18.941406 339.273438 15.902344 C 339.175781 12.621094 336.4375 10.046875 333.15625 10.144531 C 333.15625 10.144531 329.300781 10.261719 322.542969 10.457031 C 319.148438 10.722656 315.042969 11.257812 310.308594 11.875 C 305.65625 12.902344 300.292969 13.761719 294.664062 15.699219 C 293.253906 16.140625 291.800781 16.589844 290.320312 17.046875 C 288.882812 17.625 287.429688 18.207031 285.933594 18.808594 C 282.945312 19.992188 279.859375 21.253906 276.855469 22.894531 C 275.332031 23.679688 273.78125 24.472656 272.21875 25.273438 C 270.667969 26.113281 269.1875 27.101562 267.636719 28.03125 C 266.113281 28.984375 264.550781 29.949219 263 30.933594 C 261.503906 32.007812 260.011719 33.097656 258.503906 34.199219 C 252.414062 38.570312 246.699219 43.792969 241.128906 49.3125 C 235.722656 54.96875 230.5 60.988281 225.847656 67.371094 C 221.058594 73.683594 216.910156 80.359375 212.957031 87.007812 C 209.101562 93.710938 205.59375 100.441406 202.523438 107.089844 C 199.378906 113.722656 196.742188 120.261719 194.324219 126.519531 C 193.472656 128.765625 192.703125 130.957031 191.921875 133.136719 C 191.503906 131.515625 191.125 129.9375 190.652344 128.292969 C 188.890625 121.964844 186.851562 115.332031 184.421875 108.570312 C 182.019531 101.8125 179.238281 94.898438 176.054688 88.027344 C 172.855469 81.15625 169.308594 74.296875 165.273438 67.675781 C 163.371094 64.324219 161.066406 61.15625 158.988281 57.914062 C 156.695312 54.785156 154.460938 51.65625 152.046875 48.667969 C 147.15625 42.746094 142.113281 37.117188 136.613281 32.257812 C 135.242188 31.03125 133.886719 29.824219 132.546875 28.625 C 131.136719 27.515625 129.726562 26.417969 128.328125 25.335938 C 125.621094 23.089844 122.714844 21.210938 119.921875 19.382812 C 117.167969 17.457031 114.292969 15.929688 111.527344 14.433594 C 110.144531 13.691406 108.804688 12.921875 107.449219 12.25 C 106.066406 11.640625 104.710938 11.039062 103.382812 10.453125 C 98.148438 7.929688 93.019531 6.480469 88.621094 4.933594 C 84.09375 3.789062 80.171875 2.777344 76.917969 2.113281 C 70.367188 1.101562 66.621094 0.523438 66.621094 0.523438 C 63.703125 0.0625 60.839844 1.851562 60.003906 4.773438 C 59.109375 7.925781 60.953125 11.210938 64.109375 12.097656 L 64.625 12.246094 C 64.625 12.246094 67.921875 13.179688 73.703125 14.808594 C 76.539062 15.757812 79.890625 17.101562 83.746094 18.570312 C 87.433594 20.421875 91.722656 22.179688 95.953125 24.925781 C 97.027344 25.5625 98.132812 26.210938 99.25 26.878906 C 100.339844 27.59375 101.386719 28.40625 102.492188 29.179688 C 104.683594 30.738281 106.972656 32.316406 109.082031 34.242188 C 111.261719 36.085938 113.511719 37.941406 115.578125 40.136719 C 116.625 41.183594 117.699219 42.246094 118.777344 43.320312 C 119.769531 44.464844 120.789062 45.625 121.808594 46.8125 C 125.925781 51.421875 129.601562 56.742188 133.121094 62.230469 C 134.851562 64.996094 136.429688 67.914062 138.050781 70.792969 C 139.476562 73.808594 141.125 76.6875 142.394531 79.800781 C 145.160156 85.890625 147.492188 92.203125 149.546875 98.5 C 151.570312 104.800781 153.273438 111.140625 154.65625 117.328125 C 156.066406 123.515625 157.15625 129.578125 158.023438 135.359375 C 158.890625 141.113281 159.53125 146.601562 159.980469 151.683594 C 160.230469 154.605469 160.425781 157.355469 160.578125 159.96875 C 159.53125 158.472656 158.441406 156.910156 157.214844 155.316406 C 155.832031 153.613281 154.378906 151.824219 152.855469 149.96875 C 151.390625 148.054688 149.601562 146.320312 147.855469 144.421875 C 146.066406 142.59375 144.363281 140.554688 142.308594 138.78125 C 140.3125 136.964844 138.261719 135.09375 136.152344 133.179688 C 134.070312 131.265625 131.667969 129.632812 129.390625 127.800781 C 124.878906 124.074219 119.683594 121 114.585938 117.734375 C 112.101562 116 109.25 114.8125 106.582031 113.347656 C 103.875 111.964844 101.191406 110.5 98.425781 109.214844 C 92.753906 107.019531 87.253906 104.492188 81.625 102.703125 C 75.9375 101.097656 70.464844 99.214844 65.03125 98.011719 C 59.597656 96.964844 54.347656 95.945312 49.359375 94.980469 C 44.359375 94.324219 39.609375 93.960938 35.28125 93.5 C 33.101562 93.277344 31.027344 93.082031 29.046875 92.886719 C 27.074219 92.761719 25.183594 92.816406 23.421875 92.773438 C 19.90625 92.734375 16.832031 92.703125 14.304688 92.675781 C 9.28125 92.636719 6.40625 92.605469 6.40625 92.605469 C 3.53125 92.578125 0.984375 94.644531 0.492188 97.566406 C -0.046875 100.804688 2.140625 103.863281 5.375 104.410156 L 5.886719 104.492188 C 5.886719 104.492188 8.59375 104.953125 13.328125 105.75 C 15.6875 106.140625 18.550781 106.617188 21.835938 107.160156 C 23.460938 107.46875 25.214844 107.664062 27.023438 108.082031 C 28.820312 108.558594 30.707031 109.046875 32.683594 109.5625 C 36.59375 110.609375 40.855469 111.617188 45.28125 112.914062 C 49.582031 114.464844 54.136719 116.125 58.84375 117.816406 C 63.453125 119.617188 67.976562 122.0625 72.65625 124.183594 C 77.265625 126.476562 81.582031 129.421875 86.050781 131.964844 C 88.1875 133.402344 90.214844 134.996094 92.28125 136.476562 C 94.292969 138.054688 96.484375 139.339844 98.273438 141.097656 C 101.441406 143.960938 104.628906 146.628906 107.421875 149.546875 C 105.703125 148.667969 103.914062 147.800781 102.042969 146.964844 C 97.324219 144.871094 91.832031 143.164062 85.882812 142.175781 C 79.949219 141.15625 73.328125 141.085938 66.902344 142.4375 C 60.503906 143.738281 54.261719 146.265625 49.191406 149.757812 C 46.453125 151.335938 44.316406 153.390625 42 155.246094 C 39.902344 157.257812 37.878906 159.28125 36.0625 161.363281 C 34.371094 163.515625 32.570312 165.582031 31.125 167.730469 C 29.71875 169.910156 28.25 172.007812 27.003906 174.128906 C 25.828125 176.28125 24.679688 178.375 23.546875 180.441406 C 22.484375 182.507812 21.609375 184.574219 20.683594 186.558594 C 18.753906 190.496094 17.53125 194.367188 16.128906 197.828125 C 14.832031 201.335938 13.890625 204.589844 12.949219 207.425781 C 11.972656 210.273438 11.410156 212.816406 10.820312 214.867188 C 9.710938 218.976562 9.078125 221.335938 9.078125 221.335938 C 8.347656 224.058594 9.628906 226.992188 12.261719 228.25 C 15.222656 229.671875 18.785156 228.429688 20.214844 225.457031 L 20.335938 225.203125 C 20.335938 225.203125 21.339844 223.109375 23.101562 219.4375 C 24.007812 217.621094 24.96875 215.34375 26.351562 212.898438 C 27.71875 210.441406 29.128906 207.605469 30.882812 204.6875 C 32.726562 201.824219 34.457031 198.542969 36.746094 195.496094 C 37.863281 193.960938 38.941406 192.300781 40.15625 190.75 C 41.382812 189.242188 42.65625 187.703125 43.925781 186.125 C 45.253906 184.632812 46.679688 183.261719 48.046875 181.796875 C 49.441406 180.359375 51.007812 179.210938 52.445312 177.898438 C 53.96875 176.726562 55.53125 175.691406 57.054688 174.671875 C 58.660156 173.917969 60.15625 172.84375 61.75 172.398438 C 64.835938 171.042969 67.839844 170.664062 70.660156 170.691406 C 73.464844 170.707031 76.191406 171.308594 78.886719 172.398438 C 81.566406 173.488281 84.195312 174.828125 86.652344 176.601562 C 89.109375 178.347656 91.414062 180.175781 93.441406 182.160156 C 94.222656 182.886719 94.933594 183.625 95.644531 184.367188 L 110.96875 184.367188 C 110.5625 185.191406 110.199219 186.027344 109.878906 186.851562 C 108.21875 190.832031 107.226562 194.730469 106.484375 198.472656 C 105.785156 202.203125 105.3125 205.804688 105.128906 209.199219 C 104.835938 212.632812 104.90625 215.847656 104.878906 218.890625 C 104.949219 221.90625 105.128906 224.730469 105.242188 227.328125 C 105.703125 232.496094 106.121094 236.738281 106.582031 239.671875 C 106.988281 242.59375 107.210938 244.28125 107.210938 244.28125 C 107.574219 246.878906 109.628906 249.03125 112.363281 249.40625 C 115.648438 249.828125 118.648438 247.523438 119.082031 244.238281 L 119.109375 243.988281 C 119.109375 243.988281 119.320312 242.394531 119.683594 239.601562 C 119.992188 236.808594 120.660156 232.871094 121.484375 228.234375 C 122.015625 225.929688 122.519531 223.445312 123.160156 220.886719 C 123.886719 218.359375 124.542969 215.664062 125.535156 213.082031 C 126.386719 210.441406 127.503906 207.886719 128.679688 205.46875 C 130.746094 201.210938 133.132812 197.105469 135.621094 193.066406 C 137.421875 190.175781 140.089844 186.976562 142.785156 184.421875 L 236.617188 184.421875 C 239.324219 186.976562 241.980469 190.175781 243.78125 193.066406 C 246.28125 197.105469 248.65625 201.210938 250.722656 205.46875 C 251.910156 207.886719 253.027344 210.441406 253.878906 213.082031 C 254.855469 215.664062 255.515625 218.359375 256.253906 220.886719 C 256.882812 223.445312 257.398438 225.929688 257.917969 228.234375 C 258.738281 232.871094 259.425781 236.808594 259.71875 239.601562 C 260.09375 242.394531 260.289062 243.988281 260.289062 243.988281 L 260.332031 244.238281 C 260.75 247.523438 263.753906 249.828125 267.035156 249.40625 C 269.773438 249.03125 271.828125 246.878906 272.191406 244.28125 C 272.191406 244.28125 272.414062 242.59375 272.820312 239.671875 C 273.28125 236.738281 273.699219 232.496094 274.160156 227.328125 C 274.285156 224.730469 274.453125 221.90625 274.523438 218.890625 C 274.480469 215.847656 274.578125 212.632812 274.273438 209.199219 C 274.105469 205.804688 273.613281 202.203125 272.929688 198.472656 C 272.175781 194.730469 271.199219 190.832031 269.523438 186.851562 C 268.851562 185.078125 267.972656 183.277344 266.953125 181.488281 C 268.808594 179.769531 270.820312 178.152344 273 176.601562 C 275.457031 174.828125 278.070312 173.488281 280.765625 172.398438 C 283.460938 171.308594 286.1875 170.707031 288.992188 170.691406 C 291.8125 170.664062 294.816406 171.042969 297.902344 172.398438 C 299.496094 172.84375 300.976562 173.917969 302.597656 174.671875 C 304.121094 175.691406 305.667969 176.726562 307.207031 177.898438 C 308.644531 179.210938 310.195312 180.359375 311.589844 181.796875 C 312.972656 183.261719 314.398438 184.632812 315.710938 186.125 C 316.996094 187.703125 318.253906 189.242188 319.496094 190.75 C 320.710938 192.300781 321.773438 193.960938 322.890625 195.496094 C 325.183594 198.542969 326.925781 201.824219 328.769531 204.6875 C 330.515625 207.605469 331.929688 210.441406 333.296875 212.898438 C 334.679688 215.34375 335.644531 217.621094 336.550781 219.4375 C 338.3125 223.109375 339.300781 225.203125 339.300781 225.203125 L 339.429688 225.457031 C 340.867188 228.429688 344.414062 229.671875 347.390625 228.25 C 350.015625 226.992188 351.300781 224.058594 350.574219 221.335938 C 350.574219 221.335938 349.929688 218.976562 348.828125 214.867188 C 348.226562 212.816406 347.683594 210.273438 346.703125 207.425781 C 345.753906 204.589844 344.820312 201.335938 343.519531 197.828125 C 342.109375 194.367188 340.894531 190.496094 338.953125 186.558594 C 338.03125 184.574219 337.164062 182.507812 336.105469 180.441406 C 334.972656 178.375 333.8125 176.28125 332.640625 174.128906 C 331.398438 172.007812 329.929688 169.910156 328.519531 167.730469 C 327.082031 165.582031 325.265625 163.515625 323.589844 161.363281 C 321.773438 159.28125 319.734375 157.257812 317.652344 155.246094 C 315.320312 153.390625 313.183594 151.335938 310.460938 149.757812 C 305.375 146.265625 299.148438 143.738281 292.75 142.4375 C 288.699219 141.585938 284.59375 141.351562 280.613281 141.503906 C 280.765625 141.363281 280.921875 141.238281 281.074219 141.097656 C 282.863281 139.339844 285.054688 138.054688 287.066406 136.476562 C 289.132812 134.996094 291.15625 133.402344 293.292969 131.964844 C 297.765625 129.421875 302.078125 126.476562 306.6875 124.183594 C 311.367188 122.0625 315.878906 119.617188 320.515625 117.816406 C 325.210938 116.125 329.761719 114.464844 334.066406 112.914062 C 338.476562 111.617188 342.753906 110.609375 346.675781 109.5625 C 348.644531 109.046875 350.53125 108.558594 352.320312 108.082031 C 354.136719 107.664062 355.882812 107.46875 357.515625 107.160156 C 360.796875 106.617188 363.660156 106.140625 366.019531 105.75 C 370.757812 104.953125 373.453125 104.492188 373.453125 104.492188 L 373.96875 104.410156 C 376.816406 103.933594 378.953125 101.460938 378.941406 98.5 C 378.914062 95.21875 376.21875 92.578125 372.949219 92.605469 "></path></g></svg>