<svg xmlns="http://www.w3.org/2000/svg" xmlns:xlink="http://www.w3.org/1999/xlink" width="375pt" height="374.999991pt" viewBox="0 0 375 374.999991"><defs><clipPath id="clip1"><path d="M 301 115 L 369.546875 115 L 369.546875 370 L 301 370 Z M 301 115 "></path></clipPath><clipPath id="clip2"><path d="M 5.796875 82 L 300 82 L 300 375 L 5.796875 375 Z M 5.796875 82 "></path></clipPath></defs><g id="surface1"><rect x="0" y="0" width="375" height="374.999991" style="fill:rgb(100%,100%,100%);fill-opacity:1;stroke:none;"></rect><rect x="0" y="0" width="375" height="374.999991" style="fill:rgb(100%,100%,100%);fill-opacity:1;stroke:none;"></rect><path style=" stroke:none;fill-rule:nonzero;fill:rgb(28.62854%,35.688782%,70.199585%);fill-opacity:1;" d="M 295.570312 224.9375 C 295.617188 226.378906 295.617188 227.816406 295.617188 229.253906 C 295.617188 308.234375 231.597656 372.246094 152.597656 372.246094 C 73.601562 372.246094 9.582031 308.234375 9.582031 229.253906 C 9.582031 173.699219 41.265625 125.582031 87.527344 101.882812 C 107.035156 91.886719 129.167969 86.261719 152.597656 86.261719 C 179.746094 86.261719 205.144531 93.808594 226.75 106.988281 C 266.902344 131.335938 294.097656 174.925781 295.570312 224.9375 "></path><path style=" stroke:none;fill-rule:nonzero;fill:rgb(32.548523%,74.899292%,23.919678%);fill-opacity:1;" d="M 93.96875 280.28125 C 79.378906 304.308594 78.105469 348.511719 93.671875 359.558594 C 44.085938 337.132812 9.582031 287.226562 9.582031 229.265625 C 9.582031 205.058594 15.617188 182.269531 26.21875 162.308594 C 27.648438 206.003906 41.503906 211.804688 71.359375 211.109375 C 101.230469 210.367188 108.507812 256.253906 93.96875 280.28125 "></path><path style=" stroke:none;fill-rule:nonzero;fill:rgb(32.548523%,74.899292%,23.919678%);fill-opacity:1;" d="M 264.425781 318.398438 C 242.691406 345.632812 211.21875 364.734375 175.277344 370.488281 C 163.566406 366.867188 149.226562 358.980469 145.820312 347.769531 C 140.265625 329.660156 161.46875 328.46875 171.984375 323.777344 C 181.972656 319.425781 182.257812 286.980469 187.726562 277.570312 C 196.632812 262.160156 222.5625 256.40625 229.011719 278.632812 C 241.21875 320.617188 252.929688 304.308594 264.425781 318.398438 "></path><path style=" stroke:none;fill-rule:nonzero;fill:rgb(32.548523%,74.899292%,23.919678%);fill-opacity:1;" d="M 276.796875 158.359375 C 266.644531 148.667969 254.898438 153.550781 242.210938 164.480469 C 229.460938 175.40625 233.777344 220.550781 195.9375 216.898438 C 158.058594 213.277344 158.753906 186.335938 152.597656 173.355469 C 146.394531 160.375 137.632812 161.566406 117.257812 173.355469 C 96.878906 185.101562 83.730469 172.496094 87.515625 153.550781 C 91.371094 134.613281 101.972656 119.382812 62.695312 118.0625 C 70.347656 111.824219 78.683594 106.398438 87.515625 101.871094 C 107.035156 91.898438 129.179688 86.273438 152.597656 86.273438 C 179.757812 86.273438 205.144531 93.832031 226.761719 106.964844 C 247.503906 119.546875 264.757812 137.242188 276.796875 158.359375 "></path><path style=" stroke:none;fill-rule:nonzero;fill:rgb(99.21875%,92.939758%,67.83905%);fill-opacity:1;" d="M 354.226562 306.808594 L 354.226562 136.3125 C 354.226562 127.09375 346.761719 119.628906 337.539062 119.628906 L 333.988281 119.628906 C 324.769531 119.628906 317.304688 127.09375 317.304688 136.3125 L 317.304688 306.644531 C 317.304688 309.769531 315.945312 312.667969 313.800781 314.921875 C 308.375 320.605469 305.132812 328.410156 305.429688 336.96875 C 305.996094 352.757812 319.238281 365.820312 335.039062 366.195312 C 352.148438 366.597656 366.113281 352.851562 366.113281 335.859375 C 366.113281 327.679688 362.867188 320.25 357.609375 314.78125 C 355.523438 312.609375 354.226562 309.816406 354.226562 306.808594 "></path><path style=" stroke:none;fill-rule:nonzero;fill:rgb(92.939758%,18.818665%,28.62854%);fill-opacity:1;" d="M 151.84375 77.089844 C 149.875 77.089844 148.222656 75.582031 148.082031 73.601562 C 147.929688 71.511719 149.484375 69.710938 151.5625 69.554688 C 153.046875 69.425781 166.242188 67.882812 166.242188 52.71875 C 166.242188 48.441406 163.164062 44.429688 159.886719 40.1875 C 153.234375 31.542969 144.132812 19.707031 162.953125 1.3125 C 164.4375 -0.148438 166.832031 -0.113281 168.292969 1.375 C 169.746094 2.871094 169.722656 5.253906 168.234375 6.714844 C 154.203125 20.425781 159.097656 26.78125 165.878906 35.589844 C 169.769531 40.644531 173.789062 45.871094 173.789062 52.71875 C 173.789062 70.722656 159.617188 76.523438 152.117188 77.078125 L 151.84375 77.089844 "></path><path style=" stroke:none;fill-rule:nonzero;fill:rgb(92.939758%,18.818665%,28.62854%);fill-opacity:1;" d="M 207.714844 78.835938 C 205.746094 78.835938 204.097656 77.324219 203.953125 75.34375 C 203.800781 73.257812 205.371094 71.453125 207.445312 71.300781 C 208.871094 71.183594 216.148438 70.097656 216.148438 61.265625 C 216.148438 58.804688 214.285156 56.386719 212.125 53.582031 C 207.65625 47.769531 200.902344 38.984375 214.296875 25.875 C 215.78125 24.421875 218.175781 24.445312 219.636719 25.933594 C 221.089844 27.429688 221.066406 29.8125 219.578125 31.273438 C 210.972656 39.691406 213.660156 43.191406 218.117188 48.980469 C 220.734375 52.378906 223.695312 56.234375 223.695312 61.265625 C 223.695312 74.273438 213.425781 78.445312 207.988281 78.835938 L 207.714844 78.835938 "></path><path style=" stroke:none;fill-rule:nonzero;fill:rgb(92.939758%,18.818665%,28.62854%);fill-opacity:1;" d="M 100.394531 78.835938 C 98.4375 78.835938 96.773438 77.324219 96.632812 75.34375 C 96.480469 73.257812 98.046875 71.453125 100.121094 71.300781 C 101.550781 71.183594 108.824219 70.097656 108.824219 61.265625 C 108.824219 58.804688 106.960938 56.386719 104.804688 53.59375 C 100.324219 47.769531 93.542969 38.984375 106.984375 25.875 C 108.472656 24.421875 110.867188 24.445312 112.316406 25.945312 C 113.777344 27.429688 113.742188 29.824219 112.257812 31.273438 C 103.613281 39.691406 106.3125 43.191406 110.785156 48.980469 C 113.402344 52.378906 116.371094 56.234375 116.371094 61.265625 C 116.371094 74.273438 106.101562 78.445312 100.664062 78.835938 L 100.394531 78.835938 "></path><g clip-path="url(#clip1)" clip-rule="nonzero"><path style=" stroke:none;fill-rule:nonzero;fill:rgb(25.099182%,16.468811%,26.669312%);fill-opacity:1;" d="M 333.988281 123.402344 C 326.867188 123.402344 321.078125 129.191406 321.078125 136.3125 L 321.078125 306.644531 C 321.078125 310.582031 319.460938 314.449219 316.535156 317.527344 C 311.546875 322.75 308.941406 329.601562 309.203125 336.839844 C 309.695312 350.621094 321.324219 362.09375 335.121094 362.425781 C 342.351562 362.613281 349.167969 359.914062 354.332031 354.867188 C 359.496094 349.832031 362.339844 343.078125 362.339844 335.859375 C 362.339844 328.953125 359.695312 322.394531 354.886719 317.398438 C 352.03125 314.425781 350.453125 310.664062 350.453125 306.808594 L 350.453125 136.3125 C 350.453125 129.191406 344.660156 123.402344 337.539062 123.402344 Z M 335.769531 369.980469 C 335.5 369.980469 335.214844 369.96875 334.945312 369.96875 C 317.21875 369.546875 302.292969 354.808594 301.667969 337.097656 C 301.335938 327.820312 304.671875 319.023438 311.066406 312.316406 C 312.65625 310.652344 313.53125 308.648438 313.53125 306.644531 L 313.53125 136.3125 C 313.53125 125.027344 322.703125 115.855469 333.988281 115.855469 L 337.539062 115.855469 C 348.824219 115.855469 358 125.027344 358 136.3125 L 358 306.808594 C 358 308.695312 358.824219 310.605469 360.332031 312.175781 C 366.488281 318.578125 369.886719 326.996094 369.886719 335.859375 C 369.886719 345.128906 366.230469 353.792969 359.601562 360.265625 C 353.175781 366.550781 344.742188 369.980469 335.769531 369.980469 "></path></g><path style=" stroke:none;fill-rule:nonzero;fill:rgb(92.939758%,18.818665%,28.62854%);fill-opacity:1;" d="M 339.53125 321.902344 L 339.53125 142.042969 C 339.53125 139.953125 337.84375 138.269531 335.757812 138.269531 C 333.683594 138.269531 331.984375 139.953125 331.984375 142.042969 L 331.984375 321.902344 C 325.816406 323.574219 321.253906 329.152344 321.253906 335.847656 C 321.253906 343.855469 327.75 350.351562 335.757812 350.351562 C 343.777344 350.351562 350.273438 343.855469 350.273438 335.847656 C 350.273438 329.152344 345.699219 323.574219 339.53125 321.902344 "></path><g clip-path="url(#clip2)" clip-rule="nonzero"><path style=" stroke:none;fill-rule:nonzero;fill:rgb(25.099182%,16.468811%,26.669312%);fill-opacity:1;" d="M 152.597656 90.035156 C 130.265625 90.035156 108.957031 95.152344 89.25 105.234375 C 42.433594 129.214844 13.355469 176.742188 13.355469 229.253906 C 13.355469 306.019531 75.820312 368.472656 152.597656 368.472656 C 229.378906 368.472656 291.84375 306.019531 291.84375 229.253906 C 291.84375 227.851562 291.84375 226.449219 291.808594 225.042969 C 290.40625 177.730469 265.347656 134.816406 224.792969 110.207031 C 203.152344 97.003906 178.1875 90.035156 152.597656 90.035156 Z M 152.597656 376.019531 C 71.667969 376.019531 5.808594 310.179688 5.808594 229.253906 C 5.808594 173.886719 36.46875 123.800781 85.808594 98.523438 C 106.585938 87.878906 129.0625 82.488281 152.597656 82.488281 C 179.578125 82.488281 205.902344 89.847656 228.71875 103.757812 C 271.464844 129.6875 297.871094 174.949219 299.34375 224.820312 C 299.390625 226.292969 299.390625 227.78125 299.390625 229.253906 C 299.390625 310.179688 233.542969 376.019531 152.597656 376.019531 "></path></g><path style=" stroke:none;fill-rule:nonzero;fill:rgb(25.099182%,16.468811%,26.669312%);fill-opacity:1;" d="M 200.203125 220.882812 C 198.71875 220.882812 197.1875 220.8125 195.570312 220.660156 C 162.609375 217.5 156.324219 196.984375 152.164062 183.414062 C 151.195312 180.253906 150.277344 177.269531 149.191406 174.972656 C 146.726562 169.820312 144.472656 168.617188 143 168.15625 C 138.765625 166.859375 131.65625 169.382812 119.144531 176.621094 C 108.578125 182.71875 98.472656 183.296875 91.410156 178.226562 C 84.472656 173.25 81.632812 163.746094 83.8125 152.816406 C 84.390625 149.988281 85.085938 147.324219 85.773438 144.730469 C 87.609375 137.679688 89.214844 131.585938 86.621094 128.09375 C 83.847656 124.378906 75.761719 122.269531 62.574219 121.832031 C 60.511719 121.761719 58.847656 120.066406 58.886719 118 C 58.921875 115.9375 60.558594 114.289062 62.625 114.289062 L 62.695312 114.289062 C 79.074219 114.84375 88.285156 117.707031 92.671875 123.589844 C 97.433594 129.980469 95.3125 138.082031 93.070312 146.652344 C 92.421875 149.140625 91.738281 151.699219 91.207031 154.304688 C 89.628906 162.238281 91.335938 168.898438 95.808594 172.09375 C 100.359375 175.359375 107.492188 174.640625 115.371094 170.089844 C 128.140625 162.699219 137.585938 158.59375 145.230469 160.953125 C 149.734375 162.34375 153.152344 165.777344 156.007812 171.730469 C 157.328125 174.523438 158.316406 177.777344 159.378906 181.207031 C 163.589844 194.921875 168.34375 210.472656 196.300781 213.136719 C 218.765625 215.304688 224.226562 198.421875 229.519531 182.105469 C 232.222656 173.757812 234.78125 165.882812 239.746094 161.625 C 245.710938 156.484375 263.90625 140.828125 279.402344 155.636719 L 274.167969 161.070312 C 268.964844 156.109375 261.382812 152.949219 244.660156 167.34375 C 241.300781 170.230469 239.074219 177.117188 236.703125 184.425781 C 231.667969 199.945312 224.886719 220.882812 200.203125 220.882812 "></path><path style=" stroke:none;fill-rule:nonzero;fill:rgb(25.099182%,16.468811%,26.669312%);fill-opacity:1;" d="M 93.671875 363.332031 C 92.917969 363.332031 92.152344 363.109375 91.492188 362.636719 C 73.484375 349.855469 75.878906 302.8125 90.734375 278.324219 C 99.34375 264.105469 99.6875 241.042969 91.503906 226.929688 C 88.222656 221.285156 81.9375 214.5625 71.46875 214.882812 C 39.464844 215.578125 23.945312 207.972656 22.445312 162.425781 C 22.375 160.339844 24.015625 158.605469 26.089844 158.535156 C 28.164062 158.429688 29.921875 160.105469 29.992188 162.179688 C 31.363281 203.894531 43.613281 208.007812 71.277344 207.335938 C 82.386719 207.066406 91.949219 212.675781 98.023438 223.148438 C 107.609375 239.675781 107.246094 265.625 97.1875 282.226562 C 83.175781 305.324219 82.433594 346.957031 95.867188 356.480469 C 97.5625 357.683594 97.964844 360.042969 96.761719 361.738281 C 96.019531 362.777344 94.863281 363.332031 93.671875 363.332031 "></path><path style=" stroke:none;fill-rule:nonzero;fill:rgb(25.099182%,16.468811%,26.669312%);fill-opacity:1;" d="M 175.6875 374.378906 C 175.300781 374.378906 174.898438 374.320312 174.507812 374.191406 L 174.085938 374.0625 C 161.207031 370.097656 146.007812 361.363281 142.210938 348.863281 C 136.738281 331.003906 152.597656 326.121094 163.082031 322.878906 C 165.828125 322.03125 168.425781 321.242188 170.453125 320.332031 C 174.757812 318.457031 177.375 304.5 179.121094 295.253906 C 180.664062 287.015625 182.007812 279.894531 184.460938 275.671875 C 190.382812 265.4375 202.738281 258.976562 213.777344 260.34375 C 222.90625 261.453125 229.78125 267.738281 232.632812 277.582031 C 240.074219 303.191406 246.65625 305.253906 253.613281 307.445312 C 257.8125 308.765625 262.574219 310.265625 267.199219 315.828125 L 267.457031 316.101562 C 268.730469 317.585938 268.671875 319.824219 267.257812 321.230469 C 265.792969 322.703125 263.398438 322.703125 261.925781 321.230469 L 261.855469 321.148438 L 261.5 320.78125 C 258.269531 316.820312 255.214844 315.851562 251.347656 314.636719 C 241.5 311.550781 233.328125 307.011719 225.394531 279.691406 C 223.351562 272.675781 219.027344 268.585938 212.871094 267.832031 C 204.78125 266.851562 195.394531 271.851562 190.984375 279.457031 C 189.191406 282.558594 187.835938 289.726562 186.539062 296.660156 C 184.027344 309.992188 181.429688 323.777344 173.496094 327.242188 C 171.078125 328.316406 168.28125 329.175781 165.3125 330.09375 C 152.292969 334.105469 146.480469 337.050781 149.425781 346.660156 C 152.375 356.351562 165.792969 363.613281 176.382812 366.878906 L 176.878906 367.035156 C 178.859375 367.683594 179.921875 369.828125 179.261719 371.808594 C 178.742188 373.378906 177.269531 374.378906 175.6875 374.378906 "></path></g></svg>