<svg xmlns="http://www.w3.org/2000/svg" xmlns:xlink="http://www.w3.org/1999/xlink" width="375pt" height="374.999991pt" viewBox="0 0 375 374.999991"><g id="surface1"><rect x="0" y="0" width="375" height="374.999991" style="fill:rgb(100%,100%,100%);fill-opacity:1;stroke:none;"></rect><rect x="0" y="0" width="375" height="374.999991" style="fill:rgb(100%,100%,100%);fill-opacity:1;stroke:none;"></rect><path style=" stroke:none;fill-rule:nonzero;fill:rgb(95.289612%,89.019775%,1.959229%);fill-opacity:1;" d="M 288.726562 0 L 308.695312 28.96875 L 341.851562 17.246094 L 340.96875 52.417969 L 374.675781 62.425781 L 353.273438 90.363281 L 374.675781 118.296875 L 340.96875 128.304688 L 341.851562 163.476562 L 308.695312 151.753906 L 288.726562 180.722656 L 268.785156 151.753906 L 235.628906 163.476562 L 236.511719 128.304688 L 202.804688 118.296875 L 224.183594 90.363281 L 202.804688 62.425781 L 236.511719 52.417969 L 235.628906 17.246094 L 268.785156 28.96875 L 288.726562 0 "></path><path style=" stroke:none;fill-rule:nonzero;fill:rgb(96.859741%,71.369934%,4.309082%);fill-opacity:1;" d="M 273.828125 136.273438 L 249.019531 145.046875 L 249.675781 118.75 L 224.460938 111.238281 L 240.445312 90.363281 L 224.460938 69.484375 L 249.675781 61.972656 L 249.019531 35.675781 L 273.828125 44.449219 L 288.726562 22.765625 L 303.652344 44.449219 L 328.460938 35.675781 L 327.808594 61.972656 L 353.019531 69.484375 L 337.011719 90.363281 L 353.019531 111.238281 L 327.808594 118.75 L 328.460938 145.046875 L 303.652344 136.273438 L 288.726562 157.957031 L 273.828125 136.273438 "></path><path style=" stroke:none;fill-rule:nonzero;fill:rgb(94.509888%,29.798889%,27.449036%);fill-opacity:1;" d="M 321 90.363281 C 321 108.1875 306.554688 122.632812 288.726562 122.632812 C 270.902344 122.632812 256.457031 108.1875 256.457031 90.363281 C 256.457031 72.535156 270.902344 58.089844 288.726562 58.089844 C 306.554688 58.089844 321 72.535156 321 90.363281 "></path><path style=" stroke:none;fill-rule:nonzero;fill:rgb(42.749023%,73.329163%,91.758728%);fill-opacity:1;" d="M 297.222656 148.449219 C 297.222656 66.460938 230.765625 0 148.773438 0 C 66.78125 0 0.324219 66.460938 0.324219 148.449219 C 0.324219 175.101562 7.382812 200.109375 19.6875 221.71875 L 19.6875 335.628906 C 19.6875 346.316406 28.359375 354.992188 39.050781 354.992188 C 49.738281 354.992188 58.414062 346.316406 58.414062 335.628906 L 58.414062 309.8125 C 58.414062 299.121094 67.085938 290.449219 77.773438 290.449219 C 88.464844 290.449219 97.136719 299.121094 97.136719 309.8125 L 97.136719 322.71875 C 97.136719 333.410156 105.8125 342.082031 116.5 342.082031 C 127.191406 342.082031 135.863281 333.410156 135.863281 322.71875 C 135.863281 312.03125 144.539062 303.355469 155.226562 303.355469 C 165.917969 303.355469 174.589844 312.03125 174.589844 322.71875 L 174.589844 354.992188 C 174.589844 365.679688 183.265625 374.355469 193.953125 374.355469 C 204.644531 374.355469 213.316406 365.679688 213.316406 354.992188 L 213.316406 296.902344 C 213.316406 286.210938 221.992188 277.539062 232.679688 277.539062 C 243.371094 277.539062 252.042969 286.210938 252.042969 296.902344 C 252.042969 307.59375 260.71875 316.265625 271.40625 316.265625 C 282.097656 316.265625 290.769531 307.59375 290.769531 296.902344 L 290.769531 191.816406 C 294.957031 178.101562 297.222656 163.554688 297.222656 148.449219 "></path><path style=" stroke:none;fill-rule:nonzero;fill:rgb(34.118652%,56.079102%,82.749939%);fill-opacity:1;" d="M 200.410156 212.996094 C 118.417969 212.996094 51.957031 146.535156 51.957031 64.542969 C 51.957031 53.753906 53.144531 43.265625 55.3125 33.128906 C 21.777344 60.359375 0.324219 101.882812 0.324219 148.449219 C 0.324219 175.101562 7.382812 200.109375 19.6875 221.71875 L 19.6875 335.628906 C 19.6875 346.316406 28.359375 354.992188 39.050781 354.992188 C 49.738281 354.992188 58.414062 346.316406 58.414062 335.628906 L 58.414062 309.8125 C 58.414062 299.121094 67.085938 290.449219 77.773438 290.449219 C 88.464844 290.449219 97.136719 299.121094 97.136719 309.8125 L 97.136719 322.71875 C 97.136719 333.410156 105.8125 342.082031 116.5 342.082031 C 127.191406 342.082031 135.863281 333.410156 135.863281 322.71875 C 135.863281 312.03125 144.539062 303.355469 155.226562 303.355469 C 165.917969 303.355469 174.589844 312.03125 174.589844 322.71875 L 174.589844 354.992188 C 174.589844 365.679688 183.265625 374.355469 193.953125 374.355469 C 204.644531 374.355469 213.316406 365.679688 213.316406 354.992188 L 213.316406 296.902344 C 213.316406 286.210938 221.992188 277.539062 232.679688 277.539062 C 243.371094 277.539062 252.042969 286.210938 252.042969 296.902344 C 252.042969 307.59375 260.71875 316.265625 271.40625 316.265625 C 282.097656 316.265625 290.769531 307.59375 290.769531 296.902344 L 290.769531 191.816406 C 291.957031 187.910156 292.964844 183.925781 293.820312 179.890625 C 268.304688 200.589844 235.808594 212.996094 200.410156 212.996094 "></path><path style=" stroke:none;fill-rule:nonzero;fill:rgb(72.549438%,87.059021%,13.729858%);fill-opacity:1;" d="M 148.773438 129.085938 L 122.957031 135.542969 L 122.957031 96.816406 L 71.320312 103.269531 L 103.59375 64.542969 L 56.671875 32.070312 C 22.359375 59.25 0.324219 101.277344 0.324219 148.449219 C 0.324219 175.101562 7.382812 200.109375 19.6875 221.71875 L 19.6875 334.542969 C 19.6875 345.007812 27.527344 354.410156 38.015625 354.964844 C 49.183594 355.546875 58.414062 346.671875 58.414062 335.628906 L 58.414062 265.5625 C 58.414062 242.972656 75.378906 224.011719 97.820312 221.515625 C 106.871094 220.507812 112.164062 210.800781 108.105469 202.632812 C 103.417969 193.277344 111.054688 182.460938 121.441406 183.75 L 148.773438 187.175781 L 148.773438 129.085938 "></path><path style=" stroke:none;fill-rule:nonzero;fill:rgb(72.549438%,87.059021%,13.729858%);fill-opacity:1;" d="M 231.546875 25.210938 L 187.5 51.636719 L 219.773438 71 L 193.953125 96.816406 L 193.953125 129.085938 L 232.679688 135.542969 L 213.316406 174.269531 L 252.042969 193.632812 L 252.042969 296.902344 C 252.042969 307.59375 260.71875 316.265625 271.40625 316.265625 C 282.097656 316.265625 290.769531 307.59375 290.769531 296.902344 L 290.769531 191.816406 C 294.957031 178.101562 297.222656 163.554688 297.222656 148.449219 C 297.222656 97.117188 271.15625 51.863281 231.546875 25.210938 "></path><path style=" stroke:none;fill-rule:nonzero;fill:rgb(72.549438%,87.059021%,13.729858%);fill-opacity:1;" d="M 155.226562 64.542969 L 188.9375 5.546875 C 176.15625 1.964844 162.691406 0 148.773438 0 C 134.429688 0 120.5625 2.09375 107.425781 5.875 L 129.410156 32.273438 L 129.410156 58.089844 L 155.226562 64.542969 "></path><path style=" stroke:none;fill-rule:nonzero;fill:rgb(42.749023%,73.329163%,91.758728%);fill-opacity:1;" d="M 252.042969 90.363281 L 252.042969 103.269531 C 252.042969 110.40625 246.269531 116.179688 239.136719 116.179688 C 232 116.179688 226.226562 110.40625 226.226562 103.269531 L 226.226562 90.363281 C 226.226562 83.226562 232 77.453125 239.136719 77.453125 C 246.269531 77.453125 252.042969 83.226562 252.042969 90.363281 "></path><path style=" stroke:none;fill-rule:nonzero;fill:rgb(58.428955%,82.348633%,12.939453%);fill-opacity:1;" d="M 51.957031 64.542969 C 51.957031 53.804688 53.117188 43.316406 55.3125 33.230469 C 21.777344 60.433594 0.324219 101.910156 0.324219 148.449219 C 0.324219 175.101562 7.382812 200.109375 19.6875 221.71875 L 19.6875 334.542969 C 19.6875 345.007812 27.527344 354.410156 38.015625 354.964844 C 49.183594 355.546875 58.414062 346.671875 58.414062 335.628906 L 58.414062 265.5625 C 58.414062 242.972656 75.378906 224.011719 97.820312 221.515625 C 106.871094 220.507812 112.164062 210.800781 108.105469 202.632812 C 104.675781 195.800781 107.855469 188.210938 113.878906 185.136719 C 76.390625 158.183594 51.957031 114.238281 51.957031 64.542969 "></path><path style=" stroke:none;fill-rule:nonzero;fill:rgb(42.749023%,73.329163%,91.758728%);fill-opacity:1;" d="M 32.59375 148.449219 L 32.59375 180.042969 C 32.59375 186.472656 36.980469 192.421875 43.335938 193.457031 C 51.429688 194.765625 58.414062 188.5625 58.414062 180.722656 L 58.414062 154.90625 C 58.414062 162.746094 65.394531 168.949219 73.488281 167.636719 C 79.84375 166.605469 84.230469 160.652344 84.230469 154.222656 L 84.230469 148.449219 C 84.230469 141.316406 78.457031 135.542969 71.320312 135.542969 L 45.503906 135.542969 C 38.367188 135.542969 32.59375 141.316406 32.59375 148.449219 "></path><path style=" stroke:none;fill-rule:nonzero;fill:rgb(58.428955%,82.348633%,12.939453%);fill-opacity:1;" d="M 271.40625 271.085938 L 271.40625 216.625 C 271.40625 206.742188 261.5 200.238281 252.246094 203.667969 L 252.042969 203.765625 L 252.042969 295.816406 C 252.042969 306.28125 259.886719 315.683594 270.375 316.238281 C 281.542969 316.820312 290.769531 307.945312 290.769531 296.902344 L 290.769531 295.996094 C 279.652344 293.121094 271.40625 283.109375 271.40625 271.085938 "></path><path style=" stroke:none;fill-rule:nonzero;fill:rgb(24.708557%,42.749023%,74.508667%);fill-opacity:1;" d="M 193.953125 329.171875 L 193.953125 261.804688 C 193.953125 251.921875 184.046875 245.417969 174.792969 248.847656 L 174.589844 248.949219 L 174.589844 353.90625 C 174.589844 364.371094 182.433594 373.773438 192.921875 374.328125 C 204.089844 374.910156 213.316406 366.035156 213.316406 354.992188 L 213.316406 354.082031 C 202.199219 351.210938 193.953125 341.199219 193.953125 329.171875 "></path><path style=" stroke:none;fill-rule:nonzero;fill:rgb(24.708557%,42.749023%,74.508667%);fill-opacity:1;" d="M 116.5 296.902344 L 116.5 255.351562 C 116.5 245.46875 106.59375 238.964844 97.339844 242.390625 L 97.136719 242.492188 L 97.136719 321.636719 C 97.136719 332.097656 104.980469 341.503906 115.46875 342.058594 C 126.636719 342.636719 135.863281 333.761719 135.863281 322.71875 L 135.863281 321.8125 C 124.746094 318.9375 116.5 308.929688 116.5 296.902344 "></path><path style=" stroke:none;fill-rule:nonzero;fill:rgb(42.349243%,75.289917%,18.03894%);fill-opacity:1;" d="M 39.050781 309.8125 L 39.050781 235.988281 C 39.050781 226.105469 29.140625 219.601562 19.886719 223.03125 L 19.6875 223.128906 L 19.6875 334.542969 C 19.6875 345.007812 27.527344 354.410156 38.015625 354.964844 C 49.183594 355.546875 58.414062 346.671875 58.414062 335.628906 L 58.414062 334.71875 C 47.292969 331.847656 39.050781 321.835938 39.050781 309.8125 "></path><path style=" stroke:none;fill-rule:nonzero;fill:rgb(34.118652%,56.079102%,82.749939%);fill-opacity:1;" d="M 84.054688 156.621094 C 78.808594 150.039062 74.144531 142.980469 70.085938 135.542969 L 45.503906 135.542969 C 38.367188 135.542969 32.59375 141.316406 32.59375 148.449219 L 32.59375 180.042969 C 32.59375 186.472656 36.980469 192.421875 43.335938 193.457031 C 51.429688 194.765625 58.414062 188.5625 58.414062 180.722656 L 58.414062 154.90625 C 58.414062 162.039062 64.1875 167.8125 71.320312 167.8125 C 77.851562 167.8125 83.195312 162.921875 84.054688 156.621094 "></path><path style=" stroke:none;fill-rule:nonzero;fill:rgb(24.708557%,42.749023%,74.508667%);fill-opacity:1;" d="M 45.503906 174.269531 L 45.503906 135.542969 C 38.367188 135.542969 32.59375 141.316406 32.59375 148.449219 L 32.59375 179.890625 C 32.59375 186.824219 37.664062 193.101562 44.570312 193.605469 C 49.789062 193.960938 54.351562 191.1875 56.722656 187 C 50.394531 186.167969 45.503906 180.824219 45.503906 174.269531 "></path><path style=" stroke:none;fill-rule:nonzero;fill:rgb(24.708557%,42.749023%,74.508667%);fill-opacity:1;" d="M 226.226562 258.175781 C 222.671875 258.175781 219.773438 255.277344 219.773438 251.722656 L 219.773438 212.996094 C 219.773438 209.441406 222.671875 206.539062 226.226562 206.539062 C 229.78125 206.539062 232.679688 209.441406 232.679688 212.996094 L 232.679688 251.722656 C 232.679688 255.277344 229.78125 258.175781 226.226562 258.175781 "></path><path style=" stroke:none;fill-rule:nonzero;fill:rgb(24.708557%,42.749023%,74.508667%);fill-opacity:1;" d="M 135.863281 277.539062 C 132.308594 277.539062 129.410156 274.640625 129.410156 271.085938 L 129.410156 232.359375 C 129.410156 228.804688 132.308594 225.902344 135.863281 225.902344 C 139.417969 225.902344 142.320312 228.804688 142.320312 232.359375 L 142.320312 271.085938 C 142.320312 274.640625 139.417969 277.539062 135.863281 277.539062 "></path><path style=" stroke:none;fill-rule:nonzero;fill:rgb(34.118652%,56.079102%,82.749939%);fill-opacity:1;" d="M 200.410156 232.359375 C 196.855469 232.359375 193.953125 229.457031 193.953125 225.902344 L 193.953125 200.085938 C 193.953125 196.53125 196.855469 193.632812 200.410156 193.632812 C 203.964844 193.632812 206.863281 196.53125 206.863281 200.085938 L 206.863281 225.902344 C 206.863281 229.457031 203.964844 232.359375 200.410156 232.359375 "></path><path style=" stroke:none;fill-rule:nonzero;fill:rgb(34.118652%,56.079102%,82.749939%);fill-opacity:1;" d="M 174.589844 225.902344 C 171.035156 225.902344 168.136719 223.003906 168.136719 219.449219 L 168.136719 180.722656 C 168.136719 177.167969 171.035156 174.269531 174.589844 174.269531 C 178.144531 174.269531 181.046875 177.167969 181.046875 180.722656 L 181.046875 219.449219 C 181.046875 223.003906 178.144531 225.902344 174.589844 225.902344 "></path><path style=" stroke:none;fill-rule:nonzero;fill:rgb(34.118652%,56.079102%,82.749939%);fill-opacity:1;" d="M 161.683594 116.179688 C 158.128906 116.179688 155.226562 113.28125 155.226562 109.722656 L 155.226562 83.90625 C 155.226562 80.351562 158.128906 77.453125 161.683594 77.453125 C 165.238281 77.453125 168.136719 80.351562 168.136719 83.90625 L 168.136719 109.722656 C 168.136719 113.28125 165.238281 116.179688 161.683594 116.179688 "></path><path style=" stroke:none;fill-rule:nonzero;fill:rgb(42.749023%,73.329163%,91.758728%);fill-opacity:1;" d="M 264.953125 180.722656 C 261.398438 180.722656 258.5 177.824219 258.5 174.269531 L 258.5 141.996094 C 258.5 138.441406 261.398438 135.542969 264.953125 135.542969 C 268.507812 135.542969 271.40625 138.441406 271.40625 141.996094 L 271.40625 174.269531 C 271.40625 177.824219 268.507812 180.722656 264.953125 180.722656 "></path><path style=" stroke:none;fill-rule:nonzero;fill:rgb(24.708557%,42.749023%,74.508667%);fill-opacity:1;" d="M 200.410156 232.359375 C 203.964844 232.359375 206.863281 229.457031 206.863281 225.902344 L 206.863281 212.71875 C 204.71875 212.792969 202.578125 212.996094 200.410156 212.996094 C 198.242188 212.996094 196.097656 212.917969 193.953125 212.816406 L 193.953125 225.902344 C 193.953125 229.457031 196.855469 232.359375 200.410156 232.359375 "></path><path style=" stroke:none;fill-rule:nonzero;fill:rgb(24.708557%,42.749023%,74.508667%);fill-opacity:1;" d="M 174.589844 225.902344 C 178.144531 225.902344 181.046875 223.003906 181.046875 219.449219 L 181.046875 211.683594 C 176.683594 211.128906 172.371094 210.371094 168.136719 209.441406 L 168.136719 219.449219 C 168.136719 223.003906 171.035156 225.902344 174.589844 225.902344 "></path><path style=" stroke:none;fill-rule:nonzero;fill:rgb(34.118652%,56.079102%,82.749939%);fill-opacity:1;" d="M 239.136719 90.363281 C 239.136719 85.597656 236.511719 81.488281 232.679688 79.242188 C 228.847656 81.488281 226.226562 85.597656 226.226562 90.363281 L 226.226562 102.589844 C 226.226562 102.816406 226.277344 103.042969 226.277344 103.269531 L 226.226562 103.269531 C 226.226562 110.40625 232 116.179688 239.136719 116.179688 C 246.269531 116.179688 252.042969 110.40625 252.042969 103.269531 C 244.910156 103.269531 239.136719 97.496094 239.136719 90.363281 "></path></g></svg>