<svg xmlns="http://www.w3.org/2000/svg" xmlns:xlink="http://www.w3.org/1999/xlink" width="375pt" height="374.999991pt" viewBox="0 0 375 374.999991"><defs><clipPath id="clip1"><path d="M 50.171875 97 L 190 97 L 190 237 L 50.171875 237 Z M 50.171875 97 "></path></clipPath><clipPath id="clip2"><path d="M 144 300 L 248 300 L 248 374.960938 L 144 374.960938 Z M 144 300 "></path></clipPath></defs><g id="surface1"><rect x="0" y="0" width="375" height="374.999991" style="fill:rgb(100%,100%,100%);fill-opacity:1;stroke:none;"></rect><rect x="0" y="0" width="375" height="374.999991" style="fill:rgb(100%,100%,100%);fill-opacity:1;stroke:none;"></rect><g clip-path="url(#clip1)" clip-rule="nonzero"><path style=" stroke:none;fill-rule:nonzero;fill:rgb(0%,67.059326%,55.288696%);fill-opacity:1;" d="M 154.027344 121.070312 C 138.535156 104.648438 115.199219 94.453125 93.082031 98.949219 C 73.867188 102.855469 57.398438 118.089844 52 136.953125 C 50.375 142.628906 50.222656 149.867188 55.089844 153.199219 C 58.796875 155.734375 63.769531 154.824219 68.144531 153.8125 C 73.46875 152.582031 78.796875 151.351562 84.125 150.121094 C 87.785156 149.273438 91.886719 148.492188 95.089844 150.457031 C 98.953125 152.828125 99.730469 158.078125 99.601562 162.609375 C 99.257812 174.667969 95.359375 186.40625 94.964844 198.460938 C 94.917969 199.917969 94.945312 201.464844 95.714844 202.699219 C 97.253906 205.175781 100.84375 205.199219 103.660156 204.464844 C 115.707031 201.335938 124.265625 190.363281 135.953125 186.097656 C 137.753906 185.441406 139.796875 184.960938 141.539062 185.761719 C 143.804688 186.800781 144.667969 189.558594 144.984375 192.035156 C 146.484375 203.804688 141.285156 215.808594 143.554688 227.453125 C 143.800781 228.714844 144.28125 230.132812 145.476562 230.597656 C 146.554688 231.011719 147.75 230.464844 148.710938 229.832031 C 152.402344 227.398438 155.027344 223.5 158.949219 221.464844 C 162.871094 219.429688 169.132812 220.753906 169.535156 225.15625 C 169.703125 226.996094 168.898438 229.25 170.300781 230.453125 C 171.144531 231.179688 172.390625 231.085938 173.503906 231.039062 C 179.125 230.792969 184.835938 232.84375 189.042969 236.585938 L 187.960938 235.109375 C 187.960938 235.109375 185.988281 193.574219 183.175781 181.339844 C 178.121094 159.324219 169.519531 137.496094 154.027344 121.070312 Z M 154.027344 121.070312 "></path></g><path style=" stroke:none;fill-rule:nonzero;fill:rgb(0%,67.059326%,55.288696%);fill-opacity:1;" d="M 198.640625 178.1875 C 188.832031 158.28125 186.335938 135.222656 189.402344 113.242188 C 192.46875 91.257812 200.878906 70.269531 211.847656 50.980469 C 222.804688 31.722656 237.140625 13.296875 257.144531 3.792969 C 262.246094 1.367188 269.289062 -0.0078125 272.753906 4.453125 C 274.027344 6.089844 274.496094 8.210938 274.691406 10.277344 C 275.933594 23.386719 267.84375 35.300781 263.628906 47.777344 C 262.957031 49.769531 262.457031 52.210938 263.84375 53.792969 C 264.601562 54.660156 265.761719 55.046875 266.894531 55.246094 C 270.480469 55.875 274.136719 54.964844 277.773438 54.78125 C 281.410156 54.597656 285.519531 55.40625 287.558594 58.425781 C 289.804688 61.746094 288.535156 66.484375 285.816406 69.433594 C 283.097656 72.382812 279.28125 74.003906 275.652344 75.710938 C 267.996094 79.324219 260.691406 83.679688 253.800781 88.601562 C 251.800781 90.027344 249.769531 91.578125 248.636719 93.753906 C 247.503906 95.933594 247.542969 98.917969 249.367188 100.558594 C 251.324219 102.320312 254.742188 102.140625 256.140625 104.371094 C 257.296875 106.21875 256.367188 108.640625 255.253906 110.511719 C 252.273438 115.523438 248.042969 119.777344 243.050781 122.777344 C 239.171875 125.105469 234.742188 126.773438 231.757812 130.171875 C 228.769531 133.574219 228.070312 139.625 231.808594 142.171875 C 227.824219 145.988281 220.445312 145.875 218.132812 150.882812 C 217.433594 152.390625 217.371094 154.105469 216.878906 155.691406 C 216.113281 158.164062 214.261719 160.28125 211.914062 161.371094 C 209.296875 164.414062 207.234375 168.554688 203.519531 170.074219 Z M 198.640625 178.1875 "></path><path style=" stroke:none;fill-rule:nonzero;fill:rgb(0%,67.059326%,55.288696%);fill-opacity:1;" d="M 230.800781 159.972656 C 241.269531 146.621094 252.988281 133.8125 267.757812 125.476562 C 282.53125 117.140625 300.859375 113.769531 316.667969 119.898438 C 320.132812 121.242188 323.777344 123.441406 324.605469 127.066406 C 325.296875 130.074219 323.78125 133.199219 321.695312 135.476562 C 319.613281 137.753906 316.980469 139.449219 314.738281 141.570312 C 314.234375 142.046875 313.71875 142.617188 313.6875 143.3125 C 313.640625 144.457031 314.859375 145.183594 315.890625 145.679688 C 319.6875 147.519531 323.507812 150.179688 324.726562 154.21875 C 326.042969 158.59375 323.78125 163.445312 320.246094 166.332031 C 316.707031 169.21875 312.132812 170.476562 307.636719 171.269531 C 297.226562 173.109375 286.054688 172.980469 276.941406 178.339844 C 275.960938 178.914062 274.949219 179.632812 274.613281 180.71875 C 273.8125 183.3125 277.117188 185.105469 278.628906 187.363281 C 280.394531 190 279.535156 193.757812 277.417969 196.117188 C 275.300781 198.480469 272.222656 199.722656 269.195312 200.660156 C 262.488281 202.734375 255.199219 203.675781 248.46875 201.679688 C 247.253906 201.320312 245.894531 200.875 244.769531 201.464844 C 242.78125 202.5 243.371094 205.449219 242.746094 207.601562 C 241.808594 210.828125 237.886719 212.203125 234.539062 212 C 223.03125 211.304688 208.597656 214.179688 211.054688 197.890625 C 213.175781 183.800781 222.226562 170.914062 230.800781 159.972656 Z M 230.800781 159.972656 "></path><g clip-path="url(#clip2)" clip-rule="nonzero"><path style=" stroke:none;fill-rule:nonzero;fill:rgb(84.309387%,44.709778%,30.198669%);fill-opacity:1;" d="M 247.953125 300.804688 C 247.199219 312.988281 245.730469 325.125 243.558594 337.132812 C 241.191406 350.234375 236.59375 364.941406 224.410156 370.277344 C 220.359375 372.050781 215.882812 372.550781 211.480469 372.972656 C 204.773438 373.617188 198.050781 374.128906 191.320312 374.515625 C 187.019531 374.761719 182.617188 374.941406 178.484375 373.730469 C 171.6875 371.742188 166.476562 366.242188 162.511719 360.367188 C 151.132812 343.515625 147.578125 322.71875 144.710938 302.582031 "></path></g><path style=" stroke:none;fill-rule:nonzero;fill:rgb(32.159424%,27.839661%,59.21936%);fill-opacity:1;" d="M 141.839844 301.3125 C 141.015625 301.3125 140.300781 301.207031 139.683594 300.953125 C 138.25 300.363281 137.296875 299.1875 137.003906 297.644531 C 136.507812 295.019531 138.03125 291.703125 139.789062 290.011719 C 142.238281 287.660156 145.5 286.664062 148.378906 285.785156 C 151.222656 284.917969 153.707031 284.066406 155.375 282.375 C 155.792969 281.953125 156.179688 281.453125 156.59375 280.925781 C 156.964844 280.445312 157.339844 279.964844 157.75 279.515625 C 161.03125 275.886719 166.195312 274.078125 173.175781 274.105469 C 174.894531 274.117188 176.617188 274.222656 178.285156 274.320312 C 181.703125 274.523438 184.933594 274.71875 188.097656 274.175781 C 189.980469 273.851562 191.8125 273.273438 193.75 272.65625 C 195.300781 272.164062 196.902344 271.65625 198.554688 271.285156 C 203.875 270.082031 209.421875 270.355469 214.597656 272.0625 C 216.355469 272.640625 218.039062 273.378906 219.667969 274.089844 C 221.015625 274.679688 222.285156 275.238281 223.601562 275.714844 C 227.226562 277.027344 230.992188 277.671875 234.875 277.644531 L 235.722656 277.632812 C 236.847656 277.617188 238.007812 277.601562 239.175781 277.683594 C 241.199219 277.828125 244.113281 278.296875 246.046875 280.726562 C 246.652344 281.488281 247.046875 282.328125 247.394531 283.0625 C 247.640625 283.582031 247.871094 284.070312 248.136719 284.46875 C 248.738281 285.34375 249.714844 286.042969 250.75 286.785156 C 251.515625 287.335938 252.3125 287.90625 253.046875 288.605469 C 254.4375 289.933594 257.015625 293.925781 256.65625 297.144531 C 256.5 298.5625 255.8125 299.675781 254.664062 300.363281 C 252.503906 301.65625 248.550781 301.105469 243.195312 300.179688 C 241.828125 299.945312 240.539062 299.722656 239.804688 299.671875 C 229.722656 298.984375 219.472656 298.542969 209.34375 298.359375 C 189.136719 297.992188 168.878906 298.628906 149.136719 300.261719 C 148.617188 300.304688 147.757812 300.46875 146.847656 300.644531 C 144.875 301.019531 143.210938 301.3125 141.839844 301.3125 Z M 172.949219 277.851562 C 167.210938 277.851562 163.03125 279.253906 160.523438 282.027344 C 160.179688 282.410156 159.863281 282.816406 159.546875 283.226562 C 159.085938 283.816406 158.613281 284.425781 158.042969 285.003906 C 155.753906 287.324219 152.808594 288.351562 149.472656 289.367188 C 146.875 290.160156 144.1875 290.980469 142.382812 292.710938 C 141.421875 293.632812 140.453125 295.730469 140.683594 296.945312 C 140.746094 297.285156 140.875 297.394531 141.109375 297.492188 C 141.847656 297.792969 144.753906 297.234375 146.148438 296.964844 C 147.203125 296.765625 148.113281 296.589844 148.832031 296.53125 C 168.699219 294.890625 189.085938 294.246094 209.417969 294.613281 C 219.609375 294.800781 229.921875 295.246094 240.066406 295.9375 C 240.988281 296 242.308594 296.230469 243.835938 296.492188 C 246.160156 296.894531 251.609375 297.835938 252.742188 297.15625 C 252.8125 297.113281 252.90625 297.054688 252.945312 296.734375 C 253.109375 295.234375 251.542969 292.339844 250.472656 291.320312 C 249.925781 290.800781 249.269531 290.332031 248.578125 289.832031 C 247.378906 288.976562 246.023438 288.003906 245.050781 286.578125 C 244.613281 285.933594 244.296875 285.257812 244.015625 284.664062 C 243.726562 284.054688 243.460938 283.480469 243.121094 283.058594 C 242.339844 282.078125 241.042969 281.570312 238.914062 281.421875 C 237.90625 281.347656 236.824219 281.363281 235.78125 281.378906 L 234.910156 281.390625 C 230.601562 281.429688 226.371094 280.703125 222.328125 279.234375 C 220.902344 278.71875 219.511719 278.109375 218.171875 277.523438 C 216.550781 276.816406 215.019531 276.144531 213.429688 275.621094 C 208.894531 274.125 204.035156 273.890625 199.378906 274.9375 C 197.886719 275.277344 196.429688 275.738281 194.882812 276.230469 C 192.910156 276.855469 190.871094 277.5 188.734375 277.867188 C 185.144531 278.484375 181.546875 278.269531 178.066406 278.058594 C 176.445312 277.964844 174.773438 277.863281 173.15625 277.855469 C 173.085938 277.851562 173.015625 277.851562 172.949219 277.851562 Z M 172.949219 277.851562 "></path><path style=" stroke:none;fill-rule:nonzero;fill:rgb(89.408875%,52.938843%,39.219666%);fill-opacity:1;" d="M 155.386719 296.382812 C 143.976562 296.933594 136.3125 297.664062 136.160156 298.5625 C 135.800781 300.699219 135.953125 303.738281 137.621094 305.839844 C 139.128906 307.742188 144.449219 307.996094 150.191406 307.96875 C 151.578125 307.964844 152.992188 307.941406 154.382812 307.921875 C 154.667969 307.917969 154.949219 307.914062 155.234375 307.910156 C 155.273438 307.910156 155.316406 307.910156 155.359375 307.910156 C 155.660156 307.90625 155.960938 307.902344 156.253906 307.902344 C 156.277344 307.902344 156.300781 307.902344 156.324219 307.902344 C 156.632812 307.898438 156.941406 307.894531 157.246094 307.894531 C 157.273438 307.894531 157.300781 307.894531 157.328125 307.894531 C 157.640625 307.894531 157.949219 307.894531 158.25 307.894531 L 158.253906 307.894531 C 161.546875 307.90625 164.832031 307.886719 168.105469 307.851562 C 179.070312 307.734375 189.953125 307.421875 200.921875 307.3125 C 206.613281 307.253906 212.332031 307.195312 218.042969 307.121094 C 219.566406 307.101562 221.085938 307.082031 222.609375 307.0625 C 224.285156 307.039062 225.960938 307.011719 227.632812 306.984375 C 230.289062 306.941406 232.941406 306.894531 235.582031 306.84375 C 235.621094 306.839844 235.664062 306.839844 235.703125 306.839844 C 236.050781 306.832031 236.390625 306.824219 236.730469 306.820312 C 238.03125 306.792969 239.28125 306.769531 240.472656 306.742188 C 240.484375 306.742188 240.5 306.738281 240.511719 306.738281 C 241.652344 306.710938 242.742188 306.679688 243.789062 306.636719 C 243.808594 306.636719 243.828125 306.636719 243.851562 306.632812 C 244.191406 306.621094 244.527344 306.605469 244.859375 306.589844 C 250.265625 306.316406 254.371094 305.6875 257.53125 303.800781 C 260.589844 301.980469 259.96875 298.476562 257.9375 296.574219 C 257.257812 295.9375 249.019531 295.523438 237.121094 295.320312 C 214.191406 294.929688 177.652344 295.308594 155.386719 296.382812 Z M 155.386719 296.382812 "></path><path style=" stroke:none;fill-rule:nonzero;fill:rgb(32.159424%,27.839661%,59.21936%);fill-opacity:1;" d="M 197.222656 275.441406 C 196.25 275.441406 195.429688 274.691406 195.359375 273.707031 C 195.027344 269.191406 194.761719 264.386719 194.546875 259.023438 C 192.859375 217.015625 195.628906 180.085938 203.015625 146.128906 C 211.628906 106.507812 226.507812 71.515625 247.246094 42.125 C 247.839844 41.277344 249.007812 41.078125 249.851562 41.675781 C 250.695312 42.269531 250.894531 43.4375 250.300781 44.28125 C 229.855469 73.261719 215.175781 107.792969 206.667969 146.925781 C 199.355469 180.566406 196.609375 217.1875 198.285156 258.871094 C 198.496094 264.195312 198.761719 268.957031 199.089844 273.429688 C 199.164062 274.464844 198.390625 275.359375 197.359375 275.433594 C 197.316406 275.441406 197.269531 275.441406 197.222656 275.441406 Z M 197.222656 275.441406 "></path><path style=" stroke:none;fill-rule:nonzero;fill:rgb(32.159424%,27.839661%,59.21936%);fill-opacity:1;" d="M 196.90625 270.675781 C 195.988281 270.675781 195.183594 269.996094 195.058594 269.058594 C 188.1875 219 148.167969 153.128906 105.847656 122.222656 C 105.015625 121.613281 104.832031 120.441406 105.441406 119.605469 C 106.050781 118.769531 107.222656 118.585938 108.054688 119.199219 C 151.082031 150.621094 191.773438 217.621094 198.761719 268.550781 C 198.902344 269.574219 198.1875 270.519531 197.164062 270.660156 C 197.078125 270.671875 196.992188 270.675781 196.90625 270.675781 Z M 196.90625 270.675781 "></path><path style=" stroke:none;fill-rule:nonzero;fill:rgb(32.159424%,27.839661%,59.21936%);fill-opacity:1;" d="M 196.136719 252.316406 C 196.015625 252.316406 195.886719 252.304688 195.761719 252.28125 C 194.75 252.074219 194.097656 251.082031 194.304688 250.070312 C 199.558594 224.347656 212.503906 200.300781 232.78125 178.601562 C 249.035156 161.207031 269.542969 146.121094 290.523438 136.117188 C 291.460938 135.675781 292.574219 136.070312 293.019531 137.003906 C 293.464844 137.9375 293.066406 139.054688 292.132812 139.496094 C 255.632812 156.894531 209.070312 196.488281 197.96875 250.820312 C 197.789062 251.707031 197.007812 252.316406 196.136719 252.316406 Z M 196.136719 252.316406 "></path></g></svg>