<svg xmlns="http://www.w3.org/2000/svg" xmlns:xlink="http://www.w3.org/1999/xlink" width="375pt" height="374.999991pt" viewBox="0 0 375 374.999991"><defs><clipPath id="clip1"><path d="M 102 38 L 371.25 38 L 371.25 371.25 L 102 371.25 Z M 102 38 "></path></clipPath><clipPath id="clip2"><path d="M 102 167 L 129 167 L 129 371.25 L 102 371.25 Z M 102 167 "></path></clipPath><clipPath id="clip3"><path d="M 25 262 L 65 262 L 65 371.25 L 25 371.25 Z M 25 262 "></path></clipPath><clipPath id="clip4"><path d="M 64 262 L 103 262 L 103 371.25 L 64 371.25 Z M 64 262 "></path></clipPath><clipPath id="clip5"><path d="M 64 345 L 116 345 L 116 371.25 L 64 371.25 Z M 64 345 "></path></clipPath><clipPath id="clip6"><path d="M 12 345 L 65 345 L 65 371.25 L 12 371.25 Z M 12 345 "></path></clipPath></defs><g id="surface1"><rect x="0" y="0" width="375" height="374.999991" style="fill:rgb(100%,100%,100%);fill-opacity:1;stroke:none;"></rect><rect x="0" y="0" width="375" height="374.999991" style="fill:rgb(100%,100%,100%);fill-opacity:1;stroke:none;"></rect><g clip-path="url(#clip1)" clip-rule="nonzero"><path style=" stroke:none;fill-rule:nonzero;fill:rgb(75.289917%,57.649231%,36.079407%);fill-opacity:1;" d="M 371.285156 64.015625 L 371.285156 345.679688 C 371.285156 359.832031 359.832031 371.285156 345.679688 371.285156 L 128.03125 371.285156 C 126.804688 371.285156 125.605469 371.210938 124.378906 371.035156 C 120.976562 370.511719 117.777344 369.359375 114.976562 367.632812 C 108.449219 363.859375 103.824219 357.132812 102.671875 349.328125 C 102.5 348.105469 102.421875 346.90625 102.421875 345.679688 L 102.421875 64.015625 C 102.421875 49.863281 113.875 38.410156 128.03125 38.410156 L 345.679688 38.410156 C 359.832031 38.410156 371.285156 49.863281 371.285156 64.015625 "></path></g><path style=" stroke:none;fill-rule:nonzero;fill:rgb(91.369629%,91.758728%,91.758728%);fill-opacity:1;" d="M 345.679688 76.816406 L 345.679688 332.875 C 345.679688 339.929688 339.929688 345.679688 332.875 345.679688 L 140.832031 345.679688 C 133.78125 345.679688 128.03125 339.929688 128.03125 332.875 L 128.03125 76.816406 C 128.03125 69.789062 133.78125 64.015625 140.832031 64.015625 L 332.875 64.015625 C 339.929688 64.015625 345.679688 69.789062 345.679688 76.816406 "></path><path style=" stroke:none;fill-rule:nonzero;fill:rgb(64.309692%,45.489502%,26.669312%);fill-opacity:1;" d="M 108.175781 128.03125 C 107.222656 132.753906 105.25 137.054688 102.421875 140.757812 L 102.421875 76.816406 C 106.449219 82.144531 108.824219 88.796875 108.824219 96.023438 L 108.824219 102.421875 C 115.875 102.421875 121.628906 108.199219 121.628906 115.226562 C 121.628906 122.253906 115.875 128.03125 108.824219 128.03125 L 108.175781 128.03125 "></path><g clip-path="url(#clip2)" clip-rule="nonzero"><path style=" stroke:none;fill-rule:nonzero;fill:rgb(64.309692%,45.489502%,26.669312%);fill-opacity:1;" d="M 122.203125 174.441406 L 120.976562 173.738281 C 119.128906 172.640625 117.203125 171.6875 115.226562 170.914062 C 114 170.265625 112.726562 169.839844 111.449219 169.390625 C 108.5 168.363281 105.5 167.664062 102.421875 167.136719 L 102.421875 345.679688 C 102.421875 346.90625 102.5 348.105469 102.671875 349.328125 C 103.824219 357.132812 108.449219 363.859375 114.976562 367.632812 C 117.777344 369.359375 120.976562 370.511719 124.378906 371.035156 C 123.351562 369.160156 122.003906 367.507812 120.550781 365.957031 C 119.003906 364.507812 117.351562 363.160156 115.476562 362.132812 C 115.425781 362.007812 115.300781 361.933594 115.226562 361.933594 L 115.226562 275.261719 L 128.03125 275.261719 L 128.03125 178.714844 C 126.230469 177.140625 124.328125 175.664062 122.203125 174.441406 "></path></g><path style=" stroke:none;fill-rule:nonzero;fill:rgb(85.488892%,84.709167%,85.488892%);fill-opacity:1;" d="M 128.03125 178.714844 L 128.03125 275.261719 C 135.082031 275.261719 140.832031 269.488281 140.832031 262.460938 L 140.832031 206.773438 C 140.832031 195.894531 136.03125 185.71875 128.03125 178.714844 "></path><g clip-path="url(#clip3)" clip-rule="nonzero"><path style=" stroke:none;fill-rule:nonzero;fill:rgb(30.979919%,30.979919%,34.118652%);fill-opacity:1;" d="M 25.605469 262.460938 L 25.605469 371.285156 L 64.015625 371.285156 L 64.015625 262.460938 L 25.605469 262.460938 "></path></g><g clip-path="url(#clip4)" clip-rule="nonzero"><path style=" stroke:none;fill-rule:nonzero;fill:rgb(30.979919%,30.979919%,34.118652%);fill-opacity:1;" d="M 64.015625 262.460938 L 64.015625 371.285156 L 102.421875 371.285156 L 102.421875 262.460938 L 64.015625 262.460938 "></path></g><path style=" stroke:none;fill-rule:nonzero;fill:rgb(96.469116%,54.899597%,7.058716%);fill-opacity:1;" d="M 236.855469 25.605469 L 160.035156 25.605469 L 160.035156 64.015625 C 160.035156 71.042969 165.789062 76.816406 172.839844 76.816406 L 300.867188 76.816406 C 307.921875 76.816406 313.671875 71.042969 313.671875 64.015625 L 313.671875 25.605469 L 236.855469 25.605469 "></path><path style=" stroke:none;fill-rule:nonzero;fill:rgb(96.469116%,54.899597%,7.058716%);fill-opacity:1;" d="M 236.855469 0 C 243.90625 0 249.65625 5.777344 249.65625 12.804688 C 249.65625 19.828125 243.90625 25.605469 236.855469 25.605469 C 229.800781 25.605469 224.050781 19.828125 224.050781 12.804688 C 224.050781 5.777344 229.800781 0 236.855469 0 "></path><path style=" stroke:none;fill-rule:nonzero;fill:rgb(85.488892%,84.709167%,85.488892%);fill-opacity:1;" d="M 236.855469 140.832031 C 240.878906 146.160156 243.253906 152.808594 243.253906 160.035156 C 243.253906 177.714844 228.925781 192.042969 211.25 192.042969 C 193.570312 192.042969 179.242188 177.714844 179.242188 160.035156 C 179.242188 142.359375 193.570312 128.03125 211.25 128.03125 C 221.675781 128.03125 231.027344 133.082031 236.855469 140.832031 "></path><path style=" stroke:none;fill-rule:nonzero;fill:rgb(85.488892%,84.709167%,85.488892%);fill-opacity:1;" d="M 236.855469 243.253906 C 240.878906 248.582031 243.253906 255.234375 243.253906 262.460938 C 243.253906 280.140625 228.925781 294.46875 211.25 294.46875 C 193.570312 294.46875 179.242188 280.140625 179.242188 262.460938 C 179.242188 244.78125 193.570312 230.453125 211.25 230.453125 C 221.675781 230.453125 231.027344 235.503906 236.855469 243.253906 "></path><path style=" stroke:none;fill-rule:nonzero;fill:rgb(98.039246%,82.749939%,7.839966%);fill-opacity:1;" d="M 224.050781 128.03125 C 228.078125 133.355469 230.453125 140.007812 230.453125 147.234375 C 230.453125 164.914062 216.125 179.242188 198.445312 179.242188 C 180.765625 179.242188 166.4375 164.914062 166.4375 147.234375 C 166.4375 129.554688 180.765625 115.226562 198.445312 115.226562 C 208.871094 115.226562 218.226562 120.277344 224.050781 128.03125 "></path><path style=" stroke:none;fill-rule:nonzero;fill:rgb(98.039246%,82.749939%,7.839966%);fill-opacity:1;" d="M 224.050781 230.453125 C 228.078125 235.777344 230.453125 242.429688 230.453125 249.65625 C 230.453125 267.335938 216.125 281.664062 198.445312 281.664062 C 180.765625 281.664062 166.4375 267.335938 166.4375 249.65625 C 166.4375 231.976562 180.765625 217.648438 198.445312 217.648438 C 208.871094 217.648438 218.226562 222.699219 224.050781 230.453125 "></path><path style=" stroke:none;fill-rule:nonzero;fill:rgb(98.039246%,74.119568%,37.649536%);fill-opacity:1;" d="M 128.03125 236.855469 L 128.03125 249.65625 C 128.03125 256.683594 122.277344 262.460938 115.226562 262.460938 L 102.421875 262.460938 L 102.421875 236.855469 L 128.03125 236.855469 "></path><g clip-path="url(#clip5)" clip-rule="nonzero"><path style=" stroke:none;fill-rule:nonzero;fill:rgb(21.958923%,21.569824%,23.919678%);fill-opacity:1;" d="M 114.976562 367.632812 C 114.152344 362.058594 111.5 357.007812 107.75 353.15625 C 106.199219 351.707031 104.550781 350.355469 102.671875 349.328125 C 102.625 349.203125 102.5 349.128906 102.421875 349.128906 C 98.648438 346.953125 94.296875 345.679688 89.621094 345.679688 C 75.46875 345.679688 64.015625 357.132812 64.015625 371.285156 L 115.226562 371.285156 C 115.226562 370.058594 115.152344 368.859375 114.976562 367.632812 "></path></g><path style=" stroke:none;fill-rule:nonzero;fill:rgb(91.369629%,91.758728%,91.758728%);fill-opacity:1;" d="M 109.398438 161.636719 L 108.175781 160.9375 C 106.324219 159.835938 104.398438 158.886719 102.421875 158.109375 C 101.199219 157.460938 99.921875 157.035156 98.648438 156.585938 L 89.621094 179.242188 L 75.992188 169.015625 L 70.417969 185.640625 L 76.816406 236.855469 L 64.015625 256.058594 L 64.015625 262.460938 L 102.421875 262.460938 L 102.421875 236.855469 L 128.03125 236.855469 L 128.03125 193.96875 C 128.03125 180.640625 120.925781 168.289062 109.398438 161.636719 "></path><path style=" stroke:none;fill-rule:nonzero;fill:rgb(82.749939%,83.139038%,82.749939%);fill-opacity:1;" d="M 98.648438 156.585938 L 89.621094 179.242188 L 75.992188 169.015625 L 64.015625 160.035156 L 76.816406 153.636719 L 81.042969 153.636719 C 87.070312 153.636719 93.019531 154.660156 98.648438 156.585938 "></path><path style=" stroke:none;fill-rule:nonzero;fill:rgb(44.309998%,43.919373%,49.409485%);fill-opacity:1;" d="M 70.417969 185.640625 L 76.816406 236.855469 L 64.015625 256.058594 L 51.210938 236.855469 L 57.613281 185.640625 L 70.417969 185.640625 "></path><path style=" stroke:none;fill-rule:nonzero;fill:rgb(44.309998%,43.919373%,49.409485%);fill-opacity:1;" d="M 75.992188 169.015625 L 70.417969 185.640625 L 57.613281 185.640625 L 52.035156 169.015625 L 64.015625 160.035156 L 75.992188 169.015625 "></path><path style=" stroke:none;fill-rule:nonzero;fill:rgb(91.369629%,91.758728%,91.758728%);fill-opacity:1;" d="M 25.605469 236.855469 L 0 236.855469 L 0 194.621094 C 0 180.917969 7.300781 168.164062 19.203125 161.3125 L 20.554688 160.5625 C 23.355469 158.886719 26.304688 157.535156 29.332031 156.511719 L 38.410156 179.242188 L 52.035156 169.015625 L 57.613281 185.640625 L 51.210938 236.855469 L 64.015625 256.058594 L 64.015625 262.460938 L 25.605469 262.460938 L 25.605469 236.855469 "></path><path style=" stroke:none;fill-rule:nonzero;fill:rgb(82.749939%,83.139038%,82.749939%);fill-opacity:1;" d="M 64.015625 160.035156 L 52.035156 169.015625 L 38.410156 179.242188 L 29.332031 156.511719 C 34.757812 154.609375 40.460938 153.636719 46.210938 153.636719 L 51.210938 153.636719 L 64.015625 160.035156 "></path><g clip-path="url(#clip6)" clip-rule="nonzero"><path style=" stroke:none;fill-rule:nonzero;fill:rgb(21.958923%,21.569824%,23.919678%);fill-opacity:1;" d="M 56.539062 353.15625 C 51.863281 348.554688 45.460938 345.679688 38.410156 345.679688 C 33.734375 345.679688 29.382812 346.953125 25.605469 349.128906 C 17.929688 353.554688 12.804688 361.808594 12.804688 371.285156 L 64.015625 371.285156 C 64.015625 364.234375 61.140625 357.832031 56.539062 353.15625 "></path></g><path style=" stroke:none;fill-rule:nonzero;fill:rgb(98.039246%,74.119568%,37.649536%);fill-opacity:1;" d="M 25.605469 236.855469 L 25.605469 262.460938 L 12.804688 262.460938 C 5.75 262.460938 0 256.683594 0 249.65625 L 0 236.855469 L 25.605469 236.855469 "></path><path style=" stroke:none;fill-rule:nonzero;fill:rgb(98.039246%,74.119568%,37.649536%);fill-opacity:1;" d="M 76.816406 131.804688 L 76.816406 153.636719 L 64.015625 160.035156 L 51.210938 153.636719 L 51.210938 131.804688 C 55.113281 133.457031 59.464844 134.429688 64.015625 134.429688 C 68.566406 134.429688 72.917969 133.457031 76.816406 131.804688 "></path><path style=" stroke:none;fill-rule:nonzero;fill:rgb(97.648621%,67.449951%,24.308777%);fill-opacity:1;" d="M 96.023438 89.621094 C 103.074219 89.621094 108.824219 95.398438 108.824219 102.421875 C 108.824219 109.449219 103.074219 115.226562 96.023438 115.226562 L 88.96875 115.226562 C 89.421875 113.175781 89.621094 111 89.621094 108.824219 L 89.621094 89.621094 L 96.023438 89.621094 "></path><path style=" stroke:none;fill-rule:nonzero;fill:rgb(30.979919%,30.979919%,34.118652%);fill-opacity:1;" d="M 96.023438 83.21875 L 96.023438 89.621094 L 89.621094 89.621094 C 84.292969 89.621094 79.492188 87.445312 76.042969 83.996094 C 72.589844 80.542969 70.417969 75.742188 70.417969 70.417969 C 70.417969 81.042969 61.839844 89.621094 51.210938 89.621094 L 32.007812 89.621094 L 32.007812 83.21875 C 32.007812 65.539062 46.335938 51.210938 64.015625 51.210938 C 72.839844 51.210938 80.84375 54.789062 86.667969 60.5625 C 92.445312 66.390625 96.023438 74.390625 96.023438 83.21875 "></path><path style=" stroke:none;fill-rule:nonzero;fill:rgb(97.648621%,67.449951%,24.308777%);fill-opacity:1;" d="M 39.058594 115.226562 L 32.007812 115.226562 C 24.957031 115.226562 19.203125 109.449219 19.203125 102.421875 C 19.203125 95.398438 24.957031 89.621094 32.007812 89.621094 L 38.410156 89.621094 L 38.410156 108.824219 C 38.410156 111 38.609375 113.175781 39.058594 115.226562 "></path><path style=" stroke:none;fill-rule:nonzero;fill:rgb(97.648621%,67.449951%,24.308777%);fill-opacity:1;" d="M 76.816406 128.03125 L 76.816406 144.609375 C 72.917969 146.257812 68.566406 147.234375 64.015625 147.234375 C 59.464844 147.234375 55.113281 146.257812 51.210938 144.609375 L 51.210938 128.03125 L 76.816406 128.03125 "></path><path style=" stroke:none;fill-rule:nonzero;fill:rgb(98.039246%,74.119568%,37.649536%);fill-opacity:1;" d="M 96.023438 89.621094 L 96.023438 108.824219 C 96.023438 111 95.820312 113.175781 95.371094 115.226562 C 93.269531 125.527344 86.21875 134.054688 76.816406 138.207031 C 72.917969 139.855469 68.566406 140.832031 64.015625 140.832031 C 59.464844 140.832031 55.113281 139.855469 51.210938 138.207031 C 41.808594 134.054688 34.757812 125.527344 32.65625 115.226562 C 32.207031 113.175781 32.007812 111 32.007812 108.824219 L 32.007812 89.621094 L 51.210938 89.621094 C 61.839844 89.621094 70.417969 81.042969 70.417969 70.417969 C 70.417969 75.742188 72.589844 80.542969 76.042969 83.996094 C 79.492188 87.445312 84.292969 89.621094 89.621094 89.621094 L 96.023438 89.621094 "></path><path style=" stroke:none;fill-rule:nonzero;fill:rgb(82.749939%,83.139038%,82.749939%);fill-opacity:1;" d="M 38.410156 262.460938 L 25.605469 262.460938 L 25.605469 198.445312 L 38.410156 198.445312 L 38.410156 262.460938 "></path><path style=" stroke:none;fill-rule:nonzero;fill:rgb(82.749939%,83.139038%,82.749939%);fill-opacity:1;" d="M 102.421875 262.460938 L 89.621094 262.460938 L 89.621094 198.445312 L 102.421875 198.445312 L 102.421875 262.460938 "></path><path style=" stroke:none;fill-rule:nonzero;fill:rgb(6.269836%,5.879211%,5.099487%);fill-opacity:1;" d="M 96.273438 349.328125 L 96.273438 349.253906 L 109.074219 349.253906 Z M 96.273438 349.328125 "></path><path style=" stroke:none;fill-rule:nonzero;fill:rgb(94.119263%,24.308777%,15.289307%);fill-opacity:1;" d="M 198.445312 160.035156 C 196.796875 160.035156 195.167969 159.410156 193.917969 158.160156 L 181.117188 145.359375 L 190.167969 136.304688 L 198.445312 144.582031 L 225.925781 117.101562 L 234.980469 126.152344 L 202.972656 158.160156 C 201.722656 159.410156 200.097656 160.035156 198.445312 160.035156 "></path><path style=" stroke:none;fill-rule:nonzero;fill:rgb(94.119263%,24.308777%,15.289307%);fill-opacity:1;" d="M 198.445312 262.460938 C 196.796875 262.460938 195.167969 261.835938 193.917969 260.585938 L 181.117188 247.78125 L 190.167969 238.730469 L 198.445312 247.007812 L 225.925781 219.523438 L 234.980469 228.578125 L 202.972656 260.585938 C 201.722656 261.835938 200.097656 262.460938 198.445312 262.460938 "></path><path style=" stroke:none;fill-rule:nonzero;fill:rgb(73.329163%,73.728943%,74.119568%);fill-opacity:1;" d="M 313.671875 172.839844 L 262.460938 172.839844 L 262.460938 160.035156 L 313.671875 160.035156 L 313.671875 172.839844 "></path><path style=" stroke:none;fill-rule:nonzero;fill:rgb(73.329163%,73.728943%,74.119568%);fill-opacity:1;" d="M 313.671875 147.234375 L 262.460938 147.234375 L 262.460938 134.429688 L 313.671875 134.429688 L 313.671875 147.234375 "></path><path style=" stroke:none;fill-rule:nonzero;fill:rgb(73.329163%,73.728943%,74.119568%);fill-opacity:1;" d="M 313.671875 275.261719 L 262.460938 275.261719 L 262.460938 262.460938 L 313.671875 262.460938 L 313.671875 275.261719 "></path><path style=" stroke:none;fill-rule:nonzero;fill:rgb(73.329163%,73.728943%,74.119568%);fill-opacity:1;" d="M 313.671875 249.65625 L 262.460938 249.65625 L 262.460938 236.855469 L 313.671875 236.855469 L 313.671875 249.65625 "></path></g></svg>