<svg xmlns="http://www.w3.org/2000/svg" xmlns:xlink="http://www.w3.org/1999/xlink" width="375pt" height="374.999991pt" viewBox="0 0 375 374.999991"><defs><clipPath id="clip1"><path d="M 20 113 L 285 113 L 285 363.621094 L 20 363.621094 Z M 20 113 "></path></clipPath><clipPath id="clip2"><path d="M 23 11.382812 L 280 11.382812 L 280 156 L 23 156 Z M 23 11.382812 "></path></clipPath><clipPath id="clip3"><path d="M 5.421875 162 L 62 162 L 62 308 L 5.421875 308 Z M 5.421875 162 "></path></clipPath></defs><g id="surface1"><rect x="0" y="0" width="375" height="374.999991" style="fill:rgb(100%,100%,100%);fill-opacity:1;stroke:none;"></rect><rect x="0" y="0" width="375" height="374.999991" style="fill:rgb(100%,100%,100%);fill-opacity:1;stroke:none;"></rect><path style=" stroke:none;fill-rule:nonzero;fill:rgb(96.859741%,57.649231%,11.759949%);fill-opacity:1;" d="M 342.984375 317.25 C 342.984375 317.820312 342.953125 318.386719 342.898438 318.957031 C 342.84375 319.523438 342.757812 320.085938 342.648438 320.644531 C 342.535156 321.203125 342.398438 321.753906 342.230469 322.296875 C 342.066406 322.84375 341.875 323.378906 341.65625 323.90625 C 341.4375 324.429688 341.195312 324.945312 340.925781 325.449219 C 340.65625 325.949219 340.363281 326.4375 340.046875 326.910156 C 339.726562 327.386719 339.386719 327.84375 339.027344 328.28125 C 338.664062 328.722656 338.28125 329.144531 337.878906 329.546875 C 337.472656 329.949219 337.050781 330.332031 336.609375 330.691406 C 336.167969 331.054688 335.710938 331.394531 335.234375 331.710938 C 334.761719 332.027344 334.273438 332.316406 333.769531 332.585938 C 333.265625 332.855469 332.75 333.097656 332.222656 333.316406 C 331.695312 333.535156 331.160156 333.726562 330.613281 333.890625 C 330.066406 334.054688 329.511719 334.195312 328.953125 334.304688 C 328.394531 334.417969 327.828125 334.5 327.261719 334.554688 C 326.691406 334.613281 326.125 334.640625 325.550781 334.640625 C 324.980469 334.640625 324.410156 334.613281 323.84375 334.554688 C 323.277344 334.5 322.710938 334.417969 322.152344 334.304688 C 321.589844 334.195312 321.039062 334.054688 320.492188 333.890625 C 319.945312 333.726562 319.410156 333.535156 318.882812 333.316406 C 318.355469 333.097656 317.839844 332.855469 317.335938 332.585938 C 316.832031 332.316406 316.34375 332.027344 315.867188 331.710938 C 315.394531 331.394531 314.933594 331.054688 314.496094 330.691406 C 314.054688 330.332031 313.628906 329.949219 313.226562 329.546875 C 312.824219 329.144531 312.441406 328.722656 312.078125 328.28125 C 311.714844 327.84375 311.375 327.386719 311.058594 326.910156 C 310.742188 326.4375 310.449219 325.949219 310.179688 325.449219 C 309.910156 324.945312 309.667969 324.429688 309.449219 323.90625 C 309.230469 323.378906 309.039062 322.84375 308.871094 322.296875 C 308.707031 321.753906 308.566406 321.203125 308.457031 320.644531 C 308.34375 320.085938 308.261719 319.523438 308.207031 318.957031 C 308.148438 318.386719 308.121094 317.820312 308.121094 317.25 C 308.121094 316.679688 308.148438 316.113281 308.207031 315.546875 C 308.261719 314.980469 308.34375 314.417969 308.457031 313.859375 C 308.566406 313.300781 308.707031 312.746094 308.871094 312.203125 C 309.039062 311.65625 309.230469 311.121094 309.449219 310.597656 C 309.667969 310.070312 309.910156 309.554688 310.179688 309.054688 C 310.449219 308.550781 310.742188 308.0625 311.058594 307.589844 C 311.375 307.117188 311.714844 306.660156 312.078125 306.21875 C 312.441406 305.777344 312.824219 305.359375 313.226562 304.953125 C 313.628906 304.550781 314.054688 304.171875 314.496094 303.808594 C 314.933594 303.449219 315.394531 303.109375 315.867188 302.792969 C 316.34375 302.476562 316.832031 302.183594 317.335938 301.914062 C 317.839844 301.648438 318.355469 301.402344 318.882812 301.183594 C 319.410156 300.96875 319.945312 300.777344 320.492188 300.609375 C 321.039062 300.445312 321.589844 300.308594 322.152344 300.195312 C 322.710938 300.085938 323.277344 300 323.84375 299.945312 C 324.410156 299.890625 324.980469 299.863281 325.550781 299.863281 C 326.125 299.863281 326.691406 299.890625 327.261719 299.945312 C 327.828125 300 328.394531 300.085938 328.953125 300.195312 C 329.511719 300.308594 330.066406 300.445312 330.613281 300.609375 C 331.160156 300.777344 331.695312 300.96875 332.222656 301.183594 C 332.75 301.402344 333.265625 301.648438 333.769531 301.914062 C 334.273438 302.183594 334.761719 302.476562 335.234375 302.792969 C 335.710938 303.109375 336.167969 303.449219 336.609375 303.808594 C 337.050781 304.171875 337.472656 304.550781 337.878906 304.953125 C 338.28125 305.359375 338.664062 305.777344 339.027344 306.21875 C 339.386719 306.660156 339.726562 307.117188 340.046875 307.589844 C 340.363281 308.0625 340.65625 308.550781 340.925781 309.054688 C 341.195312 309.554688 341.4375 310.070312 341.65625 310.597656 C 341.875 311.121094 342.066406 311.65625 342.230469 312.203125 C 342.398438 312.746094 342.535156 313.300781 342.648438 313.859375 C 342.757812 314.417969 342.84375 314.980469 342.898438 315.546875 C 342.953125 316.113281 342.984375 316.679688 342.984375 317.25 Z M 342.984375 317.25 "></path><path style=" stroke:none;fill-rule:nonzero;fill:rgb(72.549438%,43.139648%,8.628845%);fill-opacity:1;" d="M 342.984375 317.25 C 342.980469 317.820312 342.953125 318.386719 342.894531 318.953125 C 342.835938 319.519531 342.753906 320.082031 342.640625 320.640625 C 342.527344 321.199219 342.386719 321.75 342.222656 322.292969 C 342.054688 322.835938 341.859375 323.371094 341.640625 323.898438 C 341.421875 324.421875 341.179688 324.9375 340.910156 325.4375 C 340.640625 325.9375 340.347656 326.425781 340.03125 326.898438 C 339.710938 327.371094 339.371094 327.828125 339.011719 328.269531 C 338.648438 328.707031 338.265625 329.128906 337.863281 329.53125 C 337.460938 329.933594 337.035156 330.316406 336.597656 330.675781 C 336.15625 331.039062 335.699219 331.375 335.222656 331.691406 C 334.75 332.007812 334.261719 332.300781 333.757812 332.570312 C 333.257812 332.839844 332.742188 333.082031 332.214844 333.300781 C 331.6875 333.519531 331.152344 333.714844 330.605469 333.878906 C 330.0625 334.046875 329.507812 334.183594 328.949219 334.296875 C 328.390625 334.410156 327.828125 334.492188 327.257812 334.550781 C 326.691406 334.609375 326.121094 334.636719 325.550781 334.640625 L 325.550781 299.863281 C 326.121094 299.863281 326.691406 299.894531 327.257812 299.949219 C 327.828125 300.007812 328.390625 300.09375 328.949219 300.203125 C 329.507812 300.316406 330.0625 300.457031 330.605469 300.621094 C 331.152344 300.789062 331.6875 300.980469 332.214844 301.199219 C 332.742188 301.417969 333.257812 301.660156 333.757812 301.929688 C 334.261719 302.199219 334.75 302.492188 335.222656 302.808594 C 335.699219 303.125 336.15625 303.464844 336.597656 303.824219 C 337.035156 304.1875 337.460938 304.566406 337.863281 304.96875 C 338.265625 305.371094 338.648438 305.792969 339.011719 306.234375 C 339.371094 306.671875 339.710938 307.128906 340.03125 307.601562 C 340.347656 308.074219 340.640625 308.5625 340.910156 309.0625 C 341.179688 309.566406 341.421875 310.078125 341.640625 310.605469 C 341.859375 311.128906 342.054688 311.664062 342.222656 312.207031 C 342.386719 312.753906 342.527344 313.304688 342.640625 313.863281 C 342.753906 314.417969 342.835938 314.980469 342.894531 315.546875 C 342.953125 316.113281 342.980469 316.683594 342.984375 317.25 Z M 342.984375 317.25 "></path><path style=" stroke:none;fill-rule:nonzero;fill:rgb(96.859741%,57.649231%,11.759949%);fill-opacity:1;" d="M 325.550781 218.710938 L 348.792969 218.710938 L 348.792969 241.898438 L 325.550781 241.898438 Z M 325.550781 218.710938 "></path><path style=" stroke:none;fill-rule:nonzero;fill:rgb(96.859741%,57.649231%,11.759949%);fill-opacity:1;" d="M 325.550781 195.527344 L 348.792969 195.527344 L 348.792969 218.710938 L 325.550781 218.710938 Z M 325.550781 195.527344 "></path><path style=" stroke:none;fill-rule:nonzero;fill:rgb(96.859741%,57.649231%,11.759949%);fill-opacity:1;" d="M 325.550781 172.34375 L 348.792969 172.34375 L 348.792969 195.527344 L 325.550781 195.527344 Z M 325.550781 172.34375 "></path><path style=" stroke:none;fill-rule:nonzero;fill:rgb(96.859741%,57.649231%,11.759949%);fill-opacity:1;" d="M 325.550781 154.953125 L 348.792969 154.953125 L 348.792969 172.34375 L 325.550781 172.34375 Z M 325.550781 154.953125 "></path><path style=" stroke:none;fill-rule:nonzero;fill:rgb(96.859741%,57.649231%,11.759949%);fill-opacity:1;" d="M 348.792969 143.359375 L 348.792969 149.15625 L 302.3125 149.15625 L 302.3125 143.359375 C 302.3125 142.601562 302.347656 141.84375 302.421875 141.085938 C 302.496094 140.332031 302.609375 139.582031 302.757812 138.835938 C 302.90625 138.09375 303.089844 137.355469 303.3125 136.628906 C 303.53125 135.902344 303.789062 135.1875 304.082031 134.488281 C 304.371094 133.785156 304.695312 133.101562 305.054688 132.429688 C 305.414062 131.761719 305.804688 131.109375 306.226562 130.480469 C 306.652344 129.847656 307.105469 129.238281 307.585938 128.652344 C 308.070312 128.066406 308.582031 127.503906 309.117188 126.964844 C 309.65625 126.429688 310.21875 125.917969 310.808594 125.4375 C 311.398438 124.957031 312.007812 124.503906 312.640625 124.082031 C 313.273438 123.660156 313.925781 123.269531 314.597656 122.914062 C 315.269531 122.554688 315.953125 122.230469 316.660156 121.941406 C 317.363281 121.648438 318.078125 121.394531 318.804688 121.171875 C 319.535156 120.953125 320.273438 120.769531 321.019531 120.621094 C 321.765625 120.472656 322.515625 120.359375 323.273438 120.285156 C 324.03125 120.210938 324.792969 120.175781 325.550781 120.175781 C 326.3125 120.175781 327.074219 120.210938 327.832031 120.285156 C 328.585938 120.359375 329.339844 120.472656 330.085938 120.621094 C 330.832031 120.769531 331.570312 120.953125 332.296875 121.171875 C 333.027344 121.394531 333.742188 121.648438 334.445312 121.941406 C 335.148438 122.230469 335.835938 122.554688 336.507812 122.914062 C 337.179688 123.269531 337.832031 123.660156 338.464844 124.082031 C 339.097656 124.503906 339.707031 124.957031 340.296875 125.4375 C 340.882812 125.917969 341.449219 126.429688 341.984375 126.964844 C 342.523438 127.503906 343.035156 128.066406 343.519531 128.652344 C 344 129.238281 344.453125 129.847656 344.875 130.480469 C 345.300781 131.109375 345.691406 131.761719 346.050781 132.429688 C 346.40625 133.101562 346.734375 133.785156 347.023438 134.488281 C 347.316406 135.1875 347.570312 135.902344 347.792969 136.628906 C 348.011719 137.355469 348.199219 138.09375 348.347656 138.835938 C 348.496094 139.582031 348.605469 140.332031 348.679688 141.085938 C 348.757812 141.84375 348.792969 142.601562 348.792969 143.359375 Z M 348.792969 143.359375 "></path><path style=" stroke:none;fill-rule:nonzero;fill:rgb(92.939758%,98.429871%,100%);fill-opacity:1;" d="M 325.550781 299.863281 C 324.980469 299.863281 324.410156 299.890625 323.84375 299.945312 C 323.277344 300 322.710938 300.085938 322.152344 300.195312 C 321.589844 300.308594 321.039062 300.445312 320.492188 300.609375 C 319.945312 300.777344 319.410156 300.96875 318.882812 301.183594 C 318.355469 301.402344 317.839844 301.648438 317.335938 301.914062 C 316.832031 302.183594 316.34375 302.476562 315.867188 302.792969 C 315.394531 303.109375 314.933594 303.449219 314.496094 303.808594 C 314.054688 304.171875 313.628906 304.550781 313.226562 304.953125 C 312.824219 305.359375 312.441406 305.777344 312.078125 306.21875 C 311.714844 306.660156 311.375 307.117188 311.058594 307.589844 C 310.742188 308.0625 310.449219 308.550781 310.179688 309.054688 C 309.910156 309.554688 309.667969 310.070312 309.449219 310.597656 C 309.230469 311.121094 309.039062 311.65625 308.871094 312.203125 C 308.707031 312.746094 308.566406 313.300781 308.457031 313.859375 C 308.34375 314.417969 308.261719 314.980469 308.207031 315.546875 C 308.148438 316.113281 308.121094 316.679688 308.121094 317.25 C 308.121094 317.820312 308.148438 318.386719 308.207031 318.957031 C 308.261719 319.523438 308.34375 320.085938 308.457031 320.644531 C 308.566406 321.203125 308.707031 321.753906 308.871094 322.296875 C 309.039062 322.84375 309.230469 323.378906 309.449219 323.90625 C 309.667969 324.429688 309.910156 324.945312 310.179688 325.449219 C 310.449219 325.949219 310.742188 326.4375 311.058594 326.910156 C 311.375 327.386719 311.714844 327.84375 312.078125 328.28125 C 312.441406 328.722656 312.824219 329.144531 313.226562 329.546875 C 313.628906 329.949219 314.054688 330.332031 314.496094 330.691406 C 314.933594 331.054688 315.394531 331.394531 315.867188 331.710938 C 316.34375 332.027344 316.832031 332.316406 317.335938 332.585938 C 317.839844 332.855469 318.355469 333.097656 318.882812 333.316406 C 319.410156 333.535156 319.945312 333.726562 320.492188 333.890625 C 321.039062 334.054688 321.589844 334.195312 322.152344 334.304688 C 322.710938 334.417969 323.277344 334.5 323.84375 334.554688 C 324.410156 334.613281 324.980469 334.640625 325.550781 334.640625 C 326.125 334.640625 326.691406 334.613281 327.261719 334.554688 C 327.828125 334.5 328.394531 334.417969 328.953125 334.304688 C 329.511719 334.195312 330.066406 334.054688 330.613281 333.890625 C 331.160156 333.726562 331.695312 333.535156 332.222656 333.316406 C 332.75 333.097656 333.265625 332.855469 333.769531 332.585938 C 334.273438 332.316406 334.761719 332.027344 335.234375 331.710938 C 335.710938 331.394531 336.167969 331.054688 336.609375 330.691406 C 337.050781 330.332031 337.472656 329.949219 337.878906 329.546875 C 338.28125 329.144531 338.664062 328.722656 339.027344 328.28125 C 339.386719 327.84375 339.726562 327.386719 340.046875 326.910156 C 340.363281 326.4375 340.65625 325.949219 340.925781 325.449219 C 341.195312 324.945312 341.4375 324.429688 341.65625 323.90625 C 341.875 323.378906 342.066406 322.84375 342.230469 322.296875 C 342.398438 321.753906 342.535156 321.203125 342.648438 320.644531 C 342.757812 320.085938 342.84375 319.523438 342.898438 318.957031 C 342.953125 318.386719 342.984375 317.820312 342.984375 317.25 C 342.980469 316.683594 342.953125 316.113281 342.894531 315.546875 C 342.835938 314.980469 342.753906 314.417969 342.640625 313.863281 C 342.527344 313.304688 342.386719 312.753906 342.222656 312.207031 C 342.054688 311.664062 341.859375 311.128906 341.640625 310.605469 C 341.421875 310.078125 341.179688 309.566406 340.910156 309.0625 C 340.640625 308.5625 340.347656 308.074219 340.03125 307.601562 C 339.710938 307.128906 339.371094 306.671875 339.011719 306.234375 C 338.648438 305.792969 338.265625 305.371094 337.863281 304.96875 C 337.460938 304.566406 337.035156 304.1875 336.597656 303.824219 C 336.15625 303.464844 335.699219 303.125 335.222656 302.808594 C 334.75 302.492188 334.261719 302.199219 333.757812 301.929688 C 333.257812 301.660156 332.742188 301.417969 332.214844 301.199219 C 331.6875 300.980469 331.152344 300.789062 330.605469 300.621094 C 330.0625 300.457031 329.507812 300.316406 328.949219 300.203125 C 328.390625 300.09375 327.828125 300.007812 327.257812 299.949219 C 326.691406 299.894531 326.121094 299.863281 325.550781 299.863281 Z M 325.550781 236.101562 L 348.792969 236.101562 L 348.792969 283.980469 C 349.96875 284.796875 351.097656 285.671875 352.179688 286.609375 C 353.261719 287.542969 354.292969 288.535156 355.269531 289.578125 C 356.25 290.621094 357.167969 291.714844 358.03125 292.855469 C 358.894531 293.996094 359.691406 295.179688 360.429688 296.40625 C 361.167969 297.628906 361.835938 298.890625 362.441406 300.1875 C 363.042969 301.484375 363.578125 302.808594 364.039062 304.160156 C 364.503906 305.511719 364.894531 306.882812 365.210938 308.277344 C 365.527344 309.671875 365.773438 311.078125 365.941406 312.496094 C 366.109375 313.914062 366.203125 315.339844 366.222656 316.769531 C 366.238281 318.195312 366.179688 319.621094 366.046875 321.046875 C 365.914062 322.46875 365.707031 323.878906 365.425781 325.28125 C 365.140625 326.683594 364.785156 328.0625 364.359375 329.425781 C 363.929688 330.789062 363.429688 332.128906 362.859375 333.4375 C 362.289062 334.75 361.648438 336.027344 360.945312 337.269531 C 360.238281 338.511719 359.46875 339.714844 358.636719 340.878906 C 357.800781 342.039062 356.910156 343.15625 355.957031 344.222656 C 355.007812 345.292969 354.003906 346.308594 352.945312 347.269531 C 351.882812 348.234375 350.777344 349.136719 349.625 349.984375 C 348.46875 350.828125 347.273438 351.609375 346.035156 352.332031 C 344.796875 353.050781 343.527344 353.703125 342.21875 354.289062 C 340.914062 354.875 339.578125 355.390625 338.21875 355.835938 C 336.855469 356.277344 335.476562 356.652344 334.074219 356.949219 C 332.675781 357.25 331.261719 357.476562 329.835938 357.625 C 328.414062 357.777344 326.984375 357.851562 325.550781 357.851562 C 324.121094 357.851562 322.691406 357.777344 321.265625 357.625 C 319.84375 357.476562 318.429688 357.25 317.03125 356.949219 C 315.628906 356.652344 314.25 356.277344 312.886719 355.835938 C 311.527344 355.390625 310.191406 354.875 308.886719 354.289062 C 307.578125 353.703125 306.304688 353.050781 305.070312 352.332031 C 303.832031 351.609375 302.636719 350.828125 301.480469 349.984375 C 300.328125 349.136719 299.21875 348.234375 298.160156 347.269531 C 297.101562 346.308594 296.097656 345.292969 295.144531 344.222656 C 294.195312 343.15625 293.300781 342.039062 292.46875 340.878906 C 291.636719 339.714844 290.867188 338.511719 290.160156 337.269531 C 289.453125 336.027344 288.816406 334.75 288.246094 333.4375 C 287.675781 332.128906 287.175781 330.789062 286.746094 329.425781 C 286.316406 328.0625 285.960938 326.683594 285.679688 325.28125 C 285.398438 323.878906 285.1875 322.46875 285.054688 321.046875 C 284.921875 319.621094 284.867188 318.195312 284.882812 316.769531 C 284.902344 315.339844 284.996094 313.914062 285.164062 312.496094 C 285.332031 311.078125 285.574219 309.671875 285.894531 308.277344 C 286.210938 306.882812 286.601562 305.511719 287.066406 304.160156 C 287.527344 302.808594 288.0625 301.484375 288.664062 300.1875 C 289.269531 298.890625 289.9375 297.628906 290.675781 296.40625 C 291.410156 295.179688 292.210938 293.996094 293.074219 292.855469 C 293.933594 291.714844 294.855469 290.621094 295.832031 289.578125 C 296.8125 288.535156 297.839844 287.542969 298.925781 286.609375 C 300.007812 285.671875 301.136719 284.796875 302.3125 283.980469 L 302.3125 149.15625 L 325.550781 149.15625 Z M 325.550781 236.101562 "></path><path style=" stroke:none;fill-rule:nonzero;fill:rgb(70.979309%,70.979309%,71.369934%);fill-opacity:1;" d="M 366.222656 317.25 C 366.222656 318.578125 366.160156 319.90625 366.027344 321.226562 C 365.898438 322.550781 365.703125 323.863281 365.441406 325.167969 C 365.183594 326.46875 364.859375 327.757812 364.472656 329.027344 C 364.085938 330.300781 363.636719 331.550781 363.128906 332.777344 C 362.617188 334.003906 362.050781 335.207031 361.421875 336.378906 C 360.792969 337.550781 360.109375 338.6875 359.371094 339.792969 C 358.628906 340.898438 357.835938 341.964844 356.992188 342.992188 C 356.148438 344.019531 355.253906 345 354.3125 345.941406 C 353.371094 346.882812 352.382812 347.773438 351.355469 348.613281 C 350.324219 349.457031 349.253906 350.25 348.148438 350.988281 C 347.039062 351.726562 345.898438 352.40625 344.726562 353.035156 C 343.550781 353.660156 342.347656 354.226562 341.117188 354.738281 C 339.886719 355.246094 338.632812 355.691406 337.359375 356.078125 C 336.082031 356.464844 334.792969 356.785156 333.488281 357.046875 C 332.179688 357.304688 330.863281 357.5 329.539062 357.628906 C 328.214844 357.761719 326.882812 357.824219 325.550781 357.824219 L 325.550781 334.640625 C 326.125 334.640625 326.691406 334.613281 327.261719 334.554688 C 327.828125 334.5 328.394531 334.417969 328.953125 334.304688 C 329.511719 334.195312 330.066406 334.054688 330.613281 333.890625 C 331.160156 333.726562 331.695312 333.535156 332.222656 333.316406 C 332.75 333.097656 333.265625 332.855469 333.769531 332.585938 C 334.273438 332.316406 334.761719 332.027344 335.234375 331.710938 C 335.710938 331.394531 336.167969 331.054688 336.609375 330.691406 C 337.050781 330.332031 337.472656 329.949219 337.878906 329.546875 C 338.28125 329.144531 338.664062 328.722656 339.027344 328.28125 C 339.386719 327.84375 339.726562 327.386719 340.046875 326.910156 C 340.363281 326.4375 340.65625 325.949219 340.925781 325.449219 C 341.195312 324.945312 341.4375 324.429688 341.65625 323.90625 C 341.875 323.378906 342.066406 322.84375 342.230469 322.296875 C 342.398438 321.753906 342.535156 321.203125 342.648438 320.644531 C 342.757812 320.085938 342.84375 319.523438 342.898438 318.957031 C 342.953125 318.386719 342.984375 317.820312 342.984375 317.25 C 342.984375 316.679688 342.953125 316.113281 342.898438 315.546875 C 342.84375 314.980469 342.757812 314.417969 342.648438 313.859375 C 342.535156 313.300781 342.398438 312.746094 342.230469 312.203125 C 342.066406 311.65625 341.875 311.121094 341.65625 310.597656 C 341.4375 310.070312 341.195312 309.554688 340.925781 309.054688 C 340.65625 308.550781 340.363281 308.0625 340.046875 307.589844 C 339.726562 307.117188 339.386719 306.660156 339.027344 306.21875 C 338.664062 305.777344 338.28125 305.359375 337.878906 304.953125 C 337.472656 304.550781 337.050781 304.171875 336.609375 303.808594 C 336.167969 303.449219 335.710938 303.109375 335.234375 302.792969 C 334.761719 302.476562 334.273438 302.183594 333.769531 301.914062 C 333.265625 301.648438 332.75 301.402344 332.222656 301.183594 C 331.695312 300.96875 331.160156 300.777344 330.613281 300.609375 C 330.066406 300.445312 329.511719 300.308594 328.953125 300.195312 C 328.394531 300.085938 327.828125 300 327.261719 299.945312 C 326.691406 299.890625 326.125 299.863281 325.550781 299.863281 L 325.550781 236.101562 L 348.792969 236.101562 L 348.792969 283.980469 C 350.136719 284.90625 351.417969 285.910156 352.640625 286.992188 C 353.859375 288.074219 355.011719 289.226562 356.09375 290.445312 C 357.175781 291.667969 358.175781 292.949219 359.101562 294.289062 C 360.027344 295.632812 360.871094 297.023438 361.625 298.46875 C 362.382812 299.910156 363.050781 301.394531 363.625 302.921875 C 364.199219 304.445312 364.683594 306 365.070312 307.582031 C 365.457031 309.164062 365.746094 310.761719 365.941406 312.378906 C 366.132812 314 366.226562 315.621094 366.222656 317.25 Z M 366.222656 317.25 "></path><g clip-path="url(#clip1)" clip-rule="nonzero"><path style=" stroke:none;fill-rule:nonzero;fill:rgb(71.369934%,94.509888%,100%);fill-opacity:1;" d="M 284.878906 224.507812 C 284.890625 238.808594 282.742188 252.777344 278.429688 266.417969 L 277.90625 266.242188 L 243.046875 280.152344 L 229.101562 294.066406 L 194.242188 314.933594 L 167.339844 361.882812 C 160.085938 363.050781 152.78125 363.628906 145.433594 363.621094 C 140.039062 363.625 134.664062 363.316406 129.304688 362.699219 C 123.945312 362.078125 118.640625 361.152344 113.390625 359.917969 C 108.140625 358.683594 102.980469 357.148438 97.90625 355.316406 C 92.835938 353.484375 87.886719 351.363281 83.0625 348.957031 C 78.234375 346.550781 73.566406 343.875 69.054688 340.925781 C 64.539062 337.976562 60.214844 334.777344 56.074219 331.328125 C 51.933594 327.878906 48.007812 324.199219 44.296875 320.296875 C 40.582031 316.390625 37.109375 312.285156 33.878906 307.976562 L 40.851562 266.242188 L 61.765625 238.421875 L 40.851562 224.507812 L 47.824219 189.730469 L 20.628906 162.605469 C 21.75 160.175781 23.011719 157.816406 24.40625 155.53125 C 29.117188 147.28125 34.617188 139.589844 40.910156 132.464844 C 47.203125 125.335938 54.15625 118.921875 61.765625 113.21875 L 68.738281 154.953125 L 96.628906 168.863281 L 117.546875 196.6875 L 138.460938 168.863281 L 159.378906 175.820312 L 152.40625 217.554688 L 180.296875 224.507812 L 180.296875 252.332031 L 215.15625 259.289062 L 208.183594 217.554688 L 194.242188 189.730469 L 215.15625 154.953125 L 250.019531 134.085938 L 250.773438 133.449219 C 256.769531 140.269531 261.996094 147.628906 266.460938 155.53125 C 269.476562 160.753906 272.132812 166.152344 274.4375 171.722656 C 276.742188 177.292969 278.671875 182.988281 280.226562 188.808594 C 281.78125 194.632812 282.949219 200.53125 283.726562 206.507812 C 284.507812 212.484375 284.890625 218.484375 284.878906 224.507812 Z M 284.878906 224.507812 "></path></g><path style=" stroke:none;fill-rule:nonzero;fill:rgb(20.388794%,70.199585%,90.589905%);fill-opacity:1;" d="M 145.433594 352.027344 C 140.691406 352.046875 135.960938 351.800781 131.246094 351.289062 C 126.53125 350.78125 121.859375 350.007812 117.230469 348.972656 C 112.601562 347.9375 108.046875 346.648438 103.5625 345.105469 C 99.078125 343.5625 94.695312 341.773438 90.414062 339.738281 C 86.132812 337.703125 81.976562 335.433594 77.953125 332.933594 C 73.925781 330.4375 70.050781 327.71875 66.328125 324.785156 C 62.605469 321.851562 59.0625 318.71875 55.691406 315.386719 C 52.324219 312.058594 49.152344 308.550781 46.179688 304.863281 L 51.847656 270.9375 L 71.0625 245.375 C 71.539062 244.746094 71.945312 244.074219 72.28125 243.359375 C 72.617188 242.648438 72.878906 241.90625 73.066406 241.140625 C 73.25 240.375 73.359375 239.597656 73.382812 238.808594 C 73.410156 238.019531 73.359375 237.238281 73.226562 236.460938 C 73.089844 235.683594 72.882812 234.929688 72.59375 234.195312 C 72.304688 233.460938 71.945312 232.761719 71.515625 232.101562 C 71.085938 231.4375 70.59375 230.828125 70.035156 230.265625 C 69.480469 229.707031 68.875 229.207031 68.214844 228.769531 L 53.773438 219.171875 L 59.214844 192.007812 C 59.402344 191.074219 59.476562 190.128906 59.429688 189.175781 C 59.382812 188.222656 59.222656 187.289062 58.945312 186.375 C 58.667969 185.460938 58.28125 184.59375 57.789062 183.777344 C 57.300781 182.957031 56.714844 182.210938 56.039062 181.535156 L 34.945312 160.496094 C 40.207031 151.476562 46.472656 143.214844 53.742188 135.714844 L 57.277344 156.859375 C 57.425781 157.761719 57.679688 158.632812 58.039062 159.476562 C 58.394531 160.316406 58.84375 161.105469 59.390625 161.839844 C 59.933594 162.578125 60.558594 163.238281 61.257812 163.828125 C 61.960938 164.414062 62.71875 164.914062 63.539062 165.324219 L 88.976562 178.015625 L 108.25 203.640625 C 108.519531 204 108.808594 204.34375 109.117188 204.667969 C 109.425781 204.992188 109.753906 205.300781 110.097656 205.585938 C 110.445312 205.875 110.804688 206.140625 111.179688 206.386719 C 111.558594 206.632812 111.945312 206.855469 112.347656 207.054688 C 112.75 207.257812 113.164062 207.433594 113.585938 207.585938 C 114.007812 207.738281 114.4375 207.867188 114.875 207.96875 C 115.3125 208.074219 115.753906 208.148438 116.203125 208.203125 C 116.648438 208.253906 117.097656 208.28125 117.546875 208.28125 C 117.996094 208.28125 118.441406 208.253906 118.890625 208.203125 C 119.335938 208.148438 119.777344 208.074219 120.214844 207.96875 C 120.652344 207.867188 121.082031 207.738281 121.503906 207.585938 C 121.929688 207.433594 122.339844 207.257812 122.742188 207.054688 C 123.144531 206.855469 123.535156 206.632812 123.910156 206.386719 C 124.285156 206.140625 124.644531 205.875 124.992188 205.585938 C 125.335938 205.300781 125.664062 204.992188 125.972656 204.667969 C 126.28125 204.34375 126.570312 204 126.839844 203.640625 L 142.734375 182.503906 L 146.28125 183.664062 L 140.949219 215.625 C 140.828125 216.335938 140.777344 217.054688 140.792969 217.773438 C 140.808594 218.496094 140.890625 219.210938 141.039062 219.917969 C 141.1875 220.625 141.402344 221.3125 141.679688 221.976562 C 141.957031 222.644531 142.296875 223.28125 142.691406 223.882812 C 143.089844 224.488281 143.539062 225.050781 144.039062 225.570312 C 144.542969 226.089844 145.089844 226.558594 145.679688 226.976562 C 146.269531 227.398438 146.890625 227.757812 147.550781 228.058594 C 148.207031 228.359375 148.886719 228.601562 149.589844 228.773438 L 168.675781 233.5625 L 168.675781 252.332031 C 168.675781 252.996094 168.730469 253.65625 168.847656 254.3125 C 168.960938 254.964844 169.128906 255.605469 169.351562 256.234375 C 169.578125 256.859375 169.855469 257.460938 170.183594 258.039062 C 170.511719 258.617188 170.886719 259.164062 171.308594 259.679688 C 171.730469 260.195312 172.195312 260.667969 172.699219 261.101562 C 173.203125 261.539062 173.738281 261.925781 174.3125 262.269531 C 174.882812 262.609375 175.480469 262.902344 176.101562 263.140625 C 176.722656 263.382812 177.359375 263.566406 178.011719 263.699219 L 212.875 270.652344 C 213.332031 270.746094 213.796875 270.808594 214.265625 270.847656 C 214.730469 270.882812 215.199219 270.890625 215.667969 270.867188 C 216.136719 270.847656 216.601562 270.800781 217.0625 270.722656 C 217.527344 270.648438 217.984375 270.542969 218.433594 270.410156 C 218.882812 270.277344 219.324219 270.121094 219.753906 269.9375 C 220.183594 269.75 220.601562 269.539062 221.007812 269.304688 C 221.410156 269.070312 221.800781 268.8125 222.175781 268.527344 C 222.546875 268.246094 222.902344 267.941406 223.242188 267.617188 C 223.578125 267.292969 223.894531 266.949219 224.1875 266.585938 C 224.484375 266.222656 224.753906 265.839844 225.003906 265.445312 C 225.253906 265.050781 225.476562 264.640625 225.675781 264.214844 C 225.875 263.792969 226.050781 263.359375 226.195312 262.914062 C 226.34375 262.46875 226.460938 262.019531 226.554688 261.558594 C 226.644531 261.101562 226.710938 260.640625 226.746094 260.171875 C 226.78125 259.707031 226.789062 259.238281 226.769531 258.773438 C 226.746094 258.304688 226.699219 257.839844 226.621094 257.378906 L 219.648438 215.648438 C 219.460938 214.5 219.105469 213.40625 218.585938 212.367188 L 207.488281 190.242188 L 223.628906 163.402344 L 248.195312 148.699219 C 251.15625 152.71875 253.871094 156.902344 256.328125 161.246094 C 258.394531 164.84375 260.28125 168.53125 261.988281 172.308594 C 263.691406 176.089844 265.210938 179.941406 266.539062 183.871094 C 267.867188 187.796875 269.003906 191.777344 269.941406 195.816406 C 270.882812 199.851562 271.621094 203.925781 272.164062 208.035156 C 272.703125 212.144531 273.042969 216.269531 273.183594 220.414062 C 273.320312 224.554688 273.253906 228.695312 272.988281 232.832031 C 272.722656 236.96875 272.253906 241.082031 271.585938 245.171875 C 270.914062 249.261719 270.046875 253.308594 268.984375 257.316406 L 238.734375 269.382812 C 237.257812 269.976562 235.957031 270.832031 234.832031 271.957031 L 221.898438 284.859375 L 188.261719 304.992188 C 186.527344 306.03125 185.160156 307.425781 184.152344 309.175781 L 160.082031 351.1875 C 155.214844 351.75 150.332031 352.03125 145.433594 352.027344 Z M 145.433594 352.027344 "></path><path style=" stroke:none;fill-rule:nonzero;fill:rgb(94.509888%,69.018555%,5.488586%);fill-opacity:1;" d="M 250.773438 133.449219 L 250.019531 134.085938 L 215.15625 154.953125 L 194.242188 189.730469 L 208.183594 217.554688 L 215.15625 259.289062 L 180.296875 252.332031 L 180.296875 224.507812 L 152.40625 217.554688 L 159.378906 175.820312 L 138.460938 168.863281 L 117.546875 196.6875 L 96.628906 168.863281 L 68.738281 154.953125 L 61.765625 113.21875 C 63.511719 111.914062 65.28125 110.652344 67.085938 109.429688 C 68.886719 108.207031 70.71875 107.027344 72.578125 105.890625 C 74.433594 104.753906 76.320312 103.664062 78.230469 102.613281 C 80.136719 101.566406 82.070312 100.5625 84.027344 99.605469 C 85.984375 98.648438 87.960938 97.738281 89.960938 96.871094 C 91.960938 96.007812 93.980469 95.191406 96.019531 94.417969 C 98.054688 93.648438 100.113281 92.925781 102.183594 92.253906 C 104.253906 91.578125 106.34375 90.953125 108.445312 90.375 C 110.546875 89.800781 112.660156 89.273438 114.785156 88.792969 C 116.910156 88.316406 119.046875 87.890625 121.195312 87.511719 C 123.339844 87.132812 125.496094 86.804688 127.65625 86.53125 C 129.816406 86.253906 131.984375 86.027344 134.15625 85.851562 C 136.328125 85.675781 138.503906 85.550781 140.683594 85.476562 C 142.859375 85.402344 145.039062 85.382812 147.21875 85.410156 C 149.398438 85.4375 151.574219 85.515625 153.75 85.648438 C 155.925781 85.777344 158.097656 85.957031 160.265625 86.191406 C 162.433594 86.421875 164.59375 86.707031 166.746094 87.039062 C 168.898438 87.371094 171.042969 87.753906 173.179688 88.1875 C 175.316406 88.621094 177.441406 89.105469 179.554688 89.636719 C 181.667969 90.171875 183.765625 90.753906 185.851562 91.382812 C 187.9375 92.015625 190.007812 92.695312 192.058594 93.421875 C 194.113281 94.152344 196.148438 94.925781 198.167969 95.75 C 200.183594 96.574219 202.179688 97.441406 204.15625 98.359375 C 206.132812 99.277344 208.085938 100.238281 210.015625 101.246094 C 211.949219 102.253906 213.855469 103.308594 215.734375 104.40625 C 217.617188 105.503906 219.472656 106.644531 221.300781 107.828125 C 223.128906 109.011719 224.925781 110.238281 226.695312 111.507812 C 228.464844 112.777344 230.207031 114.085938 231.914062 115.433594 C 233.621094 116.785156 235.300781 118.171875 236.941406 119.601562 C 238.585938 121.03125 240.195312 122.496094 241.769531 124 C 243.34375 125.503906 244.878906 127.042969 246.382812 128.617188 C 247.882812 130.195312 249.347656 131.804688 250.773438 133.449219 Z M 250.773438 133.449219 "></path><path style=" stroke:none;fill-rule:nonzero;fill:rgb(100%,86.268616%,4.309082%);fill-opacity:1;" d="M 191.917969 234.183594 L 191.917969 232.738281 C 191.914062 231.515625 191.8125 230.300781 191.609375 229.09375 C 191.402344 227.886719 191.101562 226.703125 190.699219 225.546875 C 190.300781 224.386719 189.804688 223.269531 189.21875 222.195312 C 188.632812 221.121094 187.960938 220.101562 187.207031 219.136719 C 186.449219 218.171875 185.621094 217.273438 184.714844 216.449219 C 183.808594 215.621094 182.84375 214.875 181.8125 214.207031 C 180.785156 213.539062 179.707031 212.960938 178.582031 212.472656 C 177.457031 211.984375 176.296875 211.589844 175.109375 211.292969 C 174.46875 211.132812 173.847656 210.917969 173.25 210.640625 C 172.652344 210.367188 172.085938 210.039062 171.546875 209.660156 C 171.011719 209.277344 170.511719 208.851562 170.054688 208.378906 C 169.597656 207.90625 169.1875 207.394531 168.828125 206.84375 C 168.464844 206.292969 168.160156 205.714844 167.90625 205.109375 C 167.652344 204.5 167.460938 203.875 167.324219 203.234375 C 167.1875 202.589844 167.113281 201.941406 167.097656 201.28125 C 167.085938 200.625 167.132812 199.972656 167.242188 199.324219 L 169.355469 186.648438 C 169.570312 185.355469 169.671875 184.058594 169.65625 182.75 C 169.640625 181.441406 169.511719 180.144531 169.265625 178.859375 C 169.019531 177.574219 168.664062 176.320312 168.195312 175.097656 C 167.726562 173.875 167.152344 172.703125 166.476562 171.582031 C 165.800781 170.464844 165.03125 169.410156 164.164062 168.425781 C 163.300781 167.441406 162.359375 166.539062 161.335938 165.722656 C 160.308594 164.90625 159.222656 164.183594 158.070312 163.558594 C 156.917969 162.933594 155.71875 162.414062 154.476562 162 L 142.132812 157.851562 C 141.558594 157.660156 140.972656 157.515625 140.375 157.417969 C 139.777344 157.316406 139.175781 157.265625 138.570312 157.261719 C 137.960938 157.253906 137.359375 157.296875 136.761719 157.386719 C 136.160156 157.476562 135.570312 157.609375 134.992188 157.792969 C 134.414062 157.972656 133.855469 158.195312 133.3125 158.464844 C 132.769531 158.734375 132.25 159.042969 131.753906 159.390625 C 131.261719 159.742188 130.796875 160.128906 130.363281 160.550781 C 129.925781 160.972656 129.527344 161.425781 129.164062 161.910156 L 126.003906 166.117188 C 125.757812 166.441406 125.496094 166.753906 125.214844 167.050781 C 124.933594 167.347656 124.636719 167.625 124.320312 167.886719 C 124.007812 168.148438 123.679688 168.390625 123.335938 168.613281 C 122.996094 168.835938 122.640625 169.039062 122.273438 169.222656 C 121.910156 169.40625 121.535156 169.566406 121.148438 169.707031 C 120.765625 169.84375 120.371094 169.960938 119.976562 170.054688 C 119.578125 170.148438 119.175781 170.21875 118.769531 170.265625 C 118.363281 170.3125 117.953125 170.335938 117.546875 170.335938 C 117.136719 170.335938 116.730469 170.3125 116.324219 170.265625 C 115.917969 170.21875 115.515625 170.148438 115.117188 170.054688 C 114.71875 169.960938 114.328125 169.84375 113.941406 169.707031 C 113.558594 169.566406 113.183594 169.40625 112.816406 169.222656 C 112.449219 169.039062 112.097656 168.835938 111.753906 168.613281 C 111.410156 168.390625 111.082031 168.148438 110.769531 167.886719 C 110.457031 167.625 110.15625 167.347656 109.875 167.050781 C 109.59375 166.753906 109.332031 166.441406 109.085938 166.117188 L 107.417969 163.902344 C 105.320312 161.113281 102.707031 158.9375 99.578125 157.375 L 84.042969 149.625 C 83.296875 149.253906 82.605469 148.800781 81.96875 148.265625 C 81.332031 147.730469 80.765625 147.128906 80.269531 146.457031 C 79.773438 145.789062 79.363281 145.074219 79.039062 144.308594 C 78.710938 143.542969 78.480469 142.75 78.34375 141.929688 L 75.582031 125.421875 C 75.410156 124.355469 75.402344 123.285156 75.554688 122.21875 C 75.710938 121.148438 76.019531 120.128906 76.480469 119.152344 C 76.945312 118.175781 77.546875 117.292969 78.277344 116.496094 C 79.011719 115.703125 79.847656 115.035156 80.785156 114.496094 C 83.441406 112.941406 86.148438 111.488281 88.910156 110.128906 C 91.667969 108.773438 94.476562 107.515625 97.328125 106.359375 C 100.179688 105.207031 103.070312 104.15625 106 103.207031 C 108.925781 102.261719 111.882812 101.421875 114.875 100.6875 C 117.863281 99.953125 120.875 99.328125 123.910156 98.8125 C 126.941406 98.296875 129.992188 97.890625 133.054688 97.59375 C 136.117188 97.296875 139.1875 97.109375 142.265625 97.03125 C 145.34375 96.957031 148.417969 96.992188 151.492188 97.140625 C 154.566406 97.285156 157.632812 97.542969 160.6875 97.910156 C 163.746094 98.277344 166.785156 98.753906 169.804688 99.339844 C 172.828125 99.925781 175.824219 100.617188 178.792969 101.417969 C 181.765625 102.222656 184.703125 103.128906 187.609375 104.144531 C 190.515625 105.15625 193.378906 106.273438 196.203125 107.492188 C 199.03125 108.714844 201.804688 110.035156 204.535156 111.453125 C 207.265625 112.875 209.9375 114.390625 212.558594 116.003906 C 215.175781 117.617188 217.734375 119.324219 220.230469 121.121094 C 220.585938 121.375 220.925781 121.648438 221.246094 121.945312 C 221.570312 122.242188 221.871094 122.558594 222.152344 122.890625 C 222.4375 123.226562 222.699219 123.574219 222.9375 123.941406 C 223.175781 124.304688 223.394531 124.683594 223.585938 125.078125 C 223.777344 125.46875 223.945312 125.875 224.089844 126.285156 C 224.230469 126.699219 224.347656 127.121094 224.4375 127.546875 C 224.527344 127.976562 224.59375 128.40625 224.628906 128.84375 C 224.667969 129.277344 224.675781 129.714844 224.660156 130.152344 C 224.640625 130.585938 224.597656 131.019531 224.527344 131.453125 C 224.457031 131.882812 224.359375 132.308594 224.234375 132.726562 C 224.113281 133.148438 223.964844 133.558594 223.789062 133.957031 C 223.613281 134.359375 223.414062 134.75 223.195312 135.125 C 222.972656 135.5 222.726562 135.863281 222.457031 136.207031 C 222.191406 136.554688 221.902344 136.882812 221.59375 137.195312 C 221.285156 137.503906 220.960938 137.796875 220.617188 138.066406 C 220.273438 138.335938 219.914062 138.585938 219.539062 138.808594 L 211.445312 143.65625 C 208.273438 145.554688 205.734375 148.085938 203.832031 151.25 L 187.269531 178.800781 C 186.308594 180.398438 185.5625 182.089844 185.027344 183.875 C 184.496094 185.660156 184.195312 187.484375 184.121094 189.34375 C 184.050781 191.207031 184.210938 193.046875 184.605469 194.871094 C 185 196.691406 185.613281 198.433594 186.449219 200.101562 L 196.328125 219.757812 C 196.800781 220.703125 197.121094 221.699219 197.296875 222.742188 L 200.957031 244.628906 L 200.445312 244.523438 C 199.851562 244.40625 199.269531 244.238281 198.699219 244.023438 C 198.132812 243.804688 197.589844 243.542969 197.066406 243.230469 C 196.546875 242.921875 196.054688 242.566406 195.59375 242.171875 C 195.132812 241.777344 194.710938 241.347656 194.324219 240.878906 C 193.9375 240.410156 193.59375 239.914062 193.296875 239.386719 C 192.996094 238.859375 192.742188 238.308594 192.539062 237.738281 C 192.332031 237.167969 192.175781 236.585938 192.074219 235.988281 C 191.96875 235.390625 191.917969 234.789062 191.917969 234.183594 Z M 191.917969 234.183594 "></path><g clip-path="url(#clip2)" clip-rule="nonzero"><path style=" stroke:none;fill-rule:nonzero;fill:rgb(92.939758%,23.919678%,14.118958%);fill-opacity:1;" d="M 279.070312 100.523438 L 279.070312 149.15625 L 267.449219 154.953125 L 266.460938 155.53125 C 261.996094 147.628906 256.769531 140.269531 250.773438 133.449219 C 248.960938 131.355469 247.085938 129.316406 245.152344 127.335938 C 243.214844 125.355469 241.222656 123.433594 239.171875 121.570312 C 237.121094 119.707031 235.019531 117.910156 232.859375 116.171875 C 230.703125 114.433594 228.492188 112.761719 226.234375 111.15625 C 223.976562 109.550781 221.671875 108.015625 219.320312 106.546875 C 216.972656 105.078125 214.578125 103.683594 212.144531 102.355469 C 209.710938 101.03125 207.238281 99.777344 204.730469 98.601562 C 202.222656 97.421875 199.679688 96.320312 197.105469 95.292969 C 194.53125 94.265625 191.925781 93.316406 189.296875 92.445312 C 186.664062 91.574219 184.007812 90.78125 181.328125 90.066406 C 178.648438 89.351562 175.949219 88.71875 173.234375 88.167969 C 170.515625 87.613281 167.785156 87.144531 165.039062 86.753906 C 162.292969 86.363281 159.539062 86.054688 156.777344 85.828125 C 154.011719 85.605469 151.242188 85.460938 148.472656 85.398438 C 145.699219 85.339844 142.925781 85.363281 140.15625 85.464844 C 137.386719 85.570312 134.621094 85.757812 131.859375 86.027344 C 129.101562 86.296875 126.351562 86.648438 123.613281 87.078125 C 120.871094 87.511719 118.148438 88.027344 115.441406 88.621094 C 112.734375 89.21875 110.042969 89.894531 107.378906 90.648438 C 104.710938 91.40625 102.066406 92.238281 99.449219 93.152344 C 96.832031 94.066406 94.242188 95.054688 91.683594 96.121094 C 89.125 97.191406 86.601562 98.332031 84.113281 99.550781 C 81.621094 100.769531 79.171875 102.058594 76.757812 103.421875 C 74.347656 104.785156 71.976562 106.222656 69.648438 107.726562 C 67.324219 109.230469 65.042969 110.804688 62.808594 112.445312 C 60.578125 114.085938 58.394531 115.792969 56.265625 117.5625 C 54.136719 119.335938 52.058594 121.167969 50.039062 123.0625 C 48.019531 124.957031 46.054688 126.910156 44.152344 128.921875 C 42.25 130.933594 40.40625 133 38.628906 135.121094 C 36.847656 137.242188 35.132812 139.414062 33.480469 141.636719 C 31.832031 143.863281 30.25 146.132812 28.738281 148.449219 C 27.222656 150.769531 25.78125 153.128906 24.40625 155.53125 L 23.417969 154.953125 L 23.417969 91.191406 L 64.671875 29.4375 C 64.808594 29.234375 64.957031 29.039062 65.121094 28.855469 C 65.28125 28.667969 65.453125 28.492188 65.636719 28.328125 C 65.824219 28.167969 66.015625 28.015625 66.21875 27.875 C 66.421875 27.738281 66.632812 27.609375 66.855469 27.5 C 67.074219 27.386719 67.296875 27.289062 67.53125 27.207031 C 67.761719 27.121094 68 27.054688 68.238281 27 C 68.480469 26.945312 68.722656 26.90625 68.96875 26.886719 C 69.214844 26.863281 69.460938 26.855469 69.707031 26.863281 C 69.953125 26.871094 70.199219 26.894531 70.441406 26.9375 C 70.683594 26.976562 70.925781 27.03125 71.160156 27.101562 C 71.398438 27.171875 71.628906 27.253906 71.851562 27.355469 C 72.078125 27.453125 72.296875 27.566406 72.507812 27.695312 C 72.71875 27.820312 72.921875 27.960938 73.113281 28.113281 C 73.308594 28.265625 73.488281 28.429688 73.664062 28.609375 C 73.835938 28.785156 73.996094 28.96875 74.144531 29.167969 C 74.292969 29.363281 74.425781 29.566406 74.550781 29.78125 L 93.140625 62.210938 L 110.574219 27.433594 L 120.675781 13.992188 C 121.007812 13.550781 121.390625 13.167969 121.828125 12.835938 C 122.265625 12.507812 122.742188 12.246094 123.257812 12.050781 C 123.769531 11.851562 124.300781 11.734375 124.847656 11.6875 C 125.394531 11.640625 125.9375 11.671875 126.476562 11.78125 C 127.015625 11.890625 127.527344 12.070312 128.015625 12.324219 C 128.503906 12.578125 128.945312 12.894531 129.34375 13.273438 C 129.742188 13.652344 130.078125 14.078125 130.351562 14.550781 C 130.628906 15.027344 130.832031 15.527344 130.96875 16.0625 L 139.625 50.617188 L 179.132812 21.058594 C 179.324219 20.914062 179.523438 20.785156 179.730469 20.664062 C 179.9375 20.546875 180.152344 20.441406 180.371094 20.351562 C 180.589844 20.257812 180.816406 20.179688 181.046875 20.113281 C 181.277344 20.050781 181.507812 20 181.746094 19.964844 C 181.980469 19.929688 182.21875 19.90625 182.457031 19.902344 C 182.695312 19.894531 182.933594 19.902344 183.171875 19.925781 C 183.40625 19.945312 183.644531 19.984375 183.875 20.035156 C 184.109375 20.085938 184.335938 20.152344 184.5625 20.230469 C 184.789062 20.3125 185.007812 20.40625 185.21875 20.511719 C 185.433594 20.617188 185.640625 20.738281 185.839844 20.867188 C 186.035156 21 186.226562 21.144531 186.40625 21.300781 C 186.589844 21.453125 186.757812 21.621094 186.917969 21.796875 C 187.082031 21.972656 187.230469 22.15625 187.367188 22.351562 C 187.503906 22.546875 187.628906 22.75 187.742188 22.957031 C 187.855469 23.167969 187.953125 23.382812 188.039062 23.605469 C 188.125 23.828125 188.199219 24.054688 188.257812 24.285156 L 191.917969 39.027344 L 174.484375 56.414062 L 226.777344 56.414062 L 233.90625 31.492188 C 234.070312 30.914062 234.320312 30.378906 234.652344 29.878906 C 234.984375 29.378906 235.382812 28.941406 235.851562 28.566406 C 236.316406 28.191406 236.832031 27.894531 237.390625 27.679688 C 237.949219 27.460938 238.527344 27.335938 239.128906 27.296875 C 239.726562 27.257812 240.316406 27.3125 240.898438 27.457031 C 241.480469 27.601562 242.027344 27.832031 242.539062 28.144531 C 243.050781 28.457031 243.503906 28.84375 243.894531 29.296875 C 244.285156 29.75 244.601562 30.25 244.835938 30.800781 L 255.828125 56.414062 L 244.207031 91.191406 L 261.640625 108.582031 L 268.28125 97.570312 C 268.605469 97.027344 269.011719 96.550781 269.496094 96.140625 C 269.976562 95.730469 270.511719 95.410156 271.101562 95.175781 C 271.691406 94.941406 272.300781 94.804688 272.933594 94.769531 C 273.566406 94.734375 274.1875 94.800781 274.796875 94.964844 C 275.410156 95.132812 275.976562 95.394531 276.503906 95.746094 C 277.03125 96.101562 277.484375 96.527344 277.871094 97.03125 C 278.257812 97.53125 278.550781 98.082031 278.757812 98.679688 C 278.960938 99.277344 279.066406 99.894531 279.070312 100.523438 Z M 279.070312 100.523438 "></path></g><path style=" stroke:none;fill-rule:nonzero;fill:rgb(96.859741%,57.649231%,11.759949%);fill-opacity:1;" d="M 267.449219 135.691406 C 264.921875 132.238281 262.269531 128.933594 259.496094 125.785156 C 257.769531 123.792969 255.992188 121.851562 254.164062 119.953125 C 252.339844 118.054688 250.460938 116.203125 248.535156 114.40625 C 246.613281 112.605469 244.640625 110.855469 242.625 109.160156 C 240.605469 107.464844 238.546875 105.820312 236.445312 104.230469 C 234.339844 102.644531 232.195312 101.109375 230.011719 99.632812 C 227.828125 98.15625 225.605469 96.738281 223.347656 95.378906 C 221.089844 94.019531 218.796875 92.71875 216.46875 91.476562 C 214.140625 90.238281 211.785156 89.058594 209.394531 87.941406 C 207.007812 86.824219 204.589844 85.773438 202.144531 84.78125 C 199.699219 83.792969 197.230469 82.867188 194.738281 82.007812 C 192.246094 81.144531 189.730469 80.351562 187.195312 79.621094 C 184.660156 78.890625 182.109375 78.230469 179.539062 77.632812 C 176.96875 77.039062 174.382812 76.511719 171.785156 76.050781 C 169.1875 75.589844 166.582031 75.199219 163.960938 74.875 C 161.34375 74.550781 158.71875 74.296875 156.085938 74.113281 C 153.457031 73.925781 150.820312 73.808594 148.183594 73.761719 C 145.546875 73.710938 142.90625 73.734375 140.269531 73.824219 C 137.632812 73.914062 135 74.070312 132.375 74.300781 C 129.746094 74.527344 127.125 74.824219 124.511719 75.1875 C 121.898438 75.554688 119.296875 75.988281 116.707031 76.488281 C 114.117188 76.992188 111.542969 77.558594 108.980469 78.195312 C 106.421875 78.832031 103.878906 79.535156 101.359375 80.304688 C 98.835938 81.074219 96.332031 81.90625 93.855469 82.808594 C 91.375 83.707031 88.921875 84.671875 86.492188 85.703125 C 84.0625 86.730469 81.664062 87.824219 79.292969 88.976562 C 76.921875 90.132812 74.582031 91.347656 72.277344 92.625 C 69.96875 93.902344 67.699219 95.238281 65.460938 96.632812 C 63.222656 98.03125 61.027344 99.484375 58.867188 100.992188 C 56.707031 102.503906 54.585938 104.070312 52.507812 105.695312 C 50.429688 107.316406 48.398438 108.992188 46.40625 110.71875 C 44.417969 112.449219 42.476562 114.226562 40.578125 116.058594 C 38.683594 117.886719 36.835938 119.765625 35.039062 121.695312 L 35.039062 94.699219 L 69.140625 43.691406 L 83.054688 67.980469 C 83.566406 68.863281 84.179688 69.667969 84.902344 70.390625 C 85.625 71.117188 86.429688 71.734375 87.3125 72.246094 C 88.199219 72.753906 89.136719 73.144531 90.125 73.40625 C 91.113281 73.671875 92.117188 73.804688 93.140625 73.804688 L 93.46875 73.804688 C 94.515625 73.777344 95.542969 73.609375 96.546875 73.304688 C 97.554688 72.996094 98.5 72.5625 99.382812 72.003906 C 100.269531 71.441406 101.066406 70.773438 101.773438 69.996094 C 102.476562 69.21875 103.066406 68.363281 103.535156 67.429688 L 120.496094 33.582031 L 122.652344 30.71875 L 128.351562 53.457031 C 128.46875 53.921875 128.613281 54.371094 128.785156 54.816406 C 128.957031 55.261719 129.15625 55.691406 129.382812 56.109375 C 129.609375 56.53125 129.859375 56.933594 130.136719 57.320312 C 130.410156 57.710938 130.710938 58.078125 131.03125 58.429688 C 131.351562 58.78125 131.695312 59.113281 132.054688 59.421875 C 132.417969 59.734375 132.796875 60.019531 133.195312 60.28125 C 133.59375 60.546875 134.003906 60.78125 134.433594 60.996094 C 134.859375 61.207031 135.296875 61.394531 135.746094 61.550781 C 136.195312 61.710938 136.652344 61.839844 137.121094 61.945312 C 137.585938 62.046875 138.054688 62.121094 138.53125 62.164062 C 139.003906 62.207031 139.480469 62.222656 139.957031 62.210938 C 140.433594 62.195312 140.910156 62.152344 141.378906 62.082031 C 141.851562 62.007812 142.316406 61.910156 142.777344 61.777344 C 143.234375 61.648438 143.683594 61.492188 144.125 61.308594 C 144.5625 61.125 144.992188 60.914062 145.402344 60.675781 C 145.816406 60.441406 146.214844 60.179688 146.597656 59.894531 L 178.476562 36.039062 L 166.277344 48.214844 C 165.460938 49.023438 164.785156 49.933594 164.242188 50.945312 C 163.699219 51.957031 163.316406 53.023438 163.09375 54.148438 C 162.867188 55.273438 162.8125 56.40625 162.921875 57.546875 C 163.035156 58.6875 163.3125 59.789062 163.75 60.847656 C 164.191406 61.90625 164.773438 62.878906 165.503906 63.765625 C 166.234375 64.652344 167.074219 65.414062 168.03125 66.054688 C 168.984375 66.691406 170.011719 67.175781 171.113281 67.507812 C 172.210938 67.839844 173.335938 68.007812 174.484375 68.007812 L 226.777344 68.007812 C 227.40625 68.007812 228.027344 67.957031 228.648438 67.855469 C 229.265625 67.757812 229.871094 67.605469 230.46875 67.410156 C 231.0625 67.210938 231.636719 66.964844 232.191406 66.671875 C 232.746094 66.382812 233.273438 66.046875 233.773438 65.671875 C 234.277344 65.292969 234.742188 64.878906 235.175781 64.429688 C 235.609375 63.976562 236.003906 63.492188 236.359375 62.976562 C 236.714844 62.460938 237.023438 61.921875 237.292969 61.355469 C 237.558594 60.789062 237.777344 60.203125 237.949219 59.601562 L 240.59375 50.375 L 243.40625 56.929688 L 233.167969 87.523438 C 232.828125 88.546875 232.632812 89.59375 232.585938 90.667969 C 232.535156 91.746094 232.636719 92.804688 232.882812 93.855469 C 233.128906 94.902344 233.515625 95.894531 234.042969 96.835938 C 234.566406 97.777344 235.210938 98.628906 235.976562 99.390625 L 253.40625 116.777344 C 253.855469 117.226562 254.339844 117.636719 254.855469 118.007812 C 255.371094 118.375 255.917969 118.703125 256.488281 118.984375 C 257.058594 119.265625 257.644531 119.496094 258.253906 119.679688 C 258.863281 119.863281 259.484375 120 260.113281 120.082031 C 260.746094 120.164062 261.378906 120.195312 262.011719 120.175781 C 262.648438 120.152344 263.277344 120.082031 263.902344 119.957031 C 264.527344 119.832031 265.136719 119.65625 265.730469 119.433594 C 266.328125 119.210938 266.898438 118.9375 267.449219 118.621094 Z M 267.449219 135.691406 "></path><path style=" stroke:none;fill-rule:nonzero;fill:rgb(79.60968%,83.529663%,5.488586%);fill-opacity:1;" d="M 277.90625 266.242188 L 278.429688 266.417969 C 277.460938 269.476562 276.382812 272.5 275.203125 275.484375 C 274.019531 278.46875 272.738281 281.410156 271.351562 284.308594 C 269.96875 287.207031 268.484375 290.050781 266.902344 292.847656 C 265.320312 295.640625 263.640625 298.378906 261.871094 301.058594 C 260.097656 303.734375 258.234375 306.351562 256.28125 308.902344 C 254.328125 311.453125 252.289062 313.933594 250.164062 316.339844 C 248.039062 318.75 245.835938 321.085938 243.546875 323.34375 C 241.261719 325.601562 238.898438 327.777344 236.460938 329.871094 C 234.023438 331.964844 231.515625 333.976562 228.9375 335.898438 C 226.363281 337.820312 223.722656 339.648438 221.019531 341.390625 C 218.3125 343.128906 215.554688 344.773438 212.734375 346.324219 C 209.917969 347.871094 207.050781 349.320312 204.132812 350.671875 C 201.214844 352.023438 198.253906 353.273438 195.246094 354.421875 C 192.242188 355.570312 189.203125 356.609375 186.125 357.546875 C 183.046875 358.484375 179.941406 359.316406 176.808594 360.039062 C 173.671875 360.761719 170.515625 361.378906 167.339844 361.882812 L 194.242188 314.933594 L 229.101562 294.066406 L 243.046875 280.152344 Z M 277.90625 266.242188 "></path><g clip-path="url(#clip3)" clip-rule="nonzero"><path style=" stroke:none;fill-rule:nonzero;fill:rgb(79.60968%,83.529663%,5.488586%);fill-opacity:1;" d="M 61.765625 238.421875 L 40.851562 266.242188 L 33.878906 307.976562 C 29.375 302 25.382812 295.699219 21.902344 289.078125 C 18.421875 282.457031 15.496094 275.597656 13.125 268.507812 C 10.757812 261.414062 8.972656 254.175781 7.773438 246.796875 C 6.578125 239.414062 5.980469 231.984375 5.988281 224.507812 C 5.964844 213.761719 7.1875 203.160156 9.664062 192.699219 C 12.136719 182.238281 15.792969 172.207031 20.628906 162.605469 L 47.824219 189.730469 L 40.851562 224.507812 Z M 61.765625 238.421875 "></path></g><path style=" stroke:none;fill-rule:nonzero;fill:rgb(62.348938%,82.749939%,17.649841%);fill-opacity:1;" d="M 27.71875 274.3125 C 25.054688 268.011719 22.910156 261.539062 21.28125 254.898438 C 19.65625 248.253906 18.566406 241.527344 18.019531 234.710938 C 17.472656 227.894531 17.472656 221.078125 18.015625 214.261719 C 18.5625 207.445312 19.644531 200.714844 21.269531 194.074219 C 21.417969 193.496094 21.644531 192.945312 21.9375 192.425781 C 22.234375 191.90625 22.59375 191.433594 23.015625 191.011719 C 23.433594 190.585938 23.902344 190.222656 24.421875 189.921875 C 24.9375 189.621094 25.484375 189.390625 26.0625 189.234375 C 26.640625 189.078125 27.230469 189 27.828125 189 C 28.425781 188.996094 29.015625 189.074219 29.59375 189.226562 C 30.171875 189.382812 30.722656 189.609375 31.238281 189.90625 C 31.757812 190.207031 32.230469 190.566406 32.652344 190.988281 C 33.449219 191.785156 34.011719 192.726562 34.339844 193.804688 C 34.667969 194.882812 34.71875 195.976562 34.5 197.082031 L 30.34375 217.804688 C 30.167969 218.691406 30.054688 219.585938 30.007812 220.488281 C 29.960938 221.390625 29.984375 222.292969 30.070312 223.195312 C 30.160156 224.09375 30.3125 224.984375 30.53125 225.859375 C 30.753906 226.738281 31.035156 227.59375 31.382812 228.429688 C 31.730469 229.265625 32.136719 230.070312 32.601562 230.847656 C 33.070312 231.625 33.589844 232.359375 34.164062 233.058594 C 34.742188 233.757812 35.363281 234.410156 36.035156 235.019531 C 36.710938 235.625 37.421875 236.179688 38.175781 236.679688 L 39.152344 237.332031 C 39.535156 237.585938 39.890625 237.875 40.210938 238.203125 C 40.535156 238.527344 40.820312 238.882812 41.074219 239.269531 C 41.324219 239.652344 41.53125 240.058594 41.699219 240.488281 C 41.867188 240.914062 41.988281 241.355469 42.066406 241.804688 C 42.144531 242.257812 42.175781 242.714844 42.160156 243.171875 C 42.144531 243.628906 42.082031 244.082031 41.972656 244.527344 C 41.867188 244.976562 41.714844 245.40625 41.515625 245.820312 C 41.320312 246.234375 41.085938 246.625 40.808594 246.992188 L 32.542969 258.007812 C 30.75 260.386719 29.609375 263.050781 29.117188 265.988281 Z M 27.71875 274.3125 "></path><path style=" stroke:none;fill-rule:nonzero;fill:rgb(100%,100%,100%);fill-opacity:1;" d="M 164.8125 123.144531 C 167.039062 122.800781 169.273438 122.753906 171.511719 122.996094 C 173.75 123.238281 175.921875 123.765625 178.023438 124.574219 C 178.574219 124.722656 179.136719 124.8125 179.707031 124.851562 C 180.277344 124.890625 180.84375 124.871094 181.414062 124.796875 C 181.980469 124.726562 182.53125 124.597656 183.074219 124.417969 C 183.617188 124.238281 184.136719 124.007812 184.632812 123.726562 C 185.128906 123.445312 185.59375 123.117188 186.027344 122.746094 C 186.460938 122.375 186.855469 121.964844 187.207031 121.515625 C 187.558594 121.070312 187.867188 120.589844 188.125 120.082031 C 188.386719 119.574219 188.59375 119.046875 188.75 118.5 C 188.890625 117.949219 188.976562 117.390625 189.007812 116.824219 C 189.042969 116.257812 189.019531 115.691406 188.941406 115.128906 C 188.867188 114.566406 188.738281 114.015625 188.554688 113.476562 C 188.375 112.941406 188.144531 112.425781 187.863281 111.929688 C 187.582031 111.4375 187.253906 110.972656 186.886719 110.542969 C 186.515625 110.113281 186.105469 109.71875 185.660156 109.367188 C 185.214844 109.011719 184.742188 108.703125 184.234375 108.441406 C 183.730469 108.179688 183.207031 107.96875 182.660156 107.804688 C 179.8125 106.753906 176.878906 106.050781 173.859375 105.707031 C 170.84375 105.359375 167.824219 105.375 164.8125 105.753906 C 164.246094 105.769531 163.683594 105.839844 163.128906 105.964844 C 162.578125 106.089844 162.039062 106.261719 161.519531 106.488281 C 160.996094 106.710938 160.503906 106.984375 160.035156 107.300781 C 159.5625 107.621094 159.128906 107.980469 158.726562 108.378906 C 158.328125 108.777344 157.964844 109.214844 157.648438 109.679688 C 157.328125 110.148438 157.058594 110.644531 156.832031 111.164062 C 156.605469 111.683594 156.433594 112.21875 156.308594 112.769531 C 156.183594 113.324219 156.113281 113.882812 156.097656 114.449219 C 156.097656 115.019531 156.15625 115.582031 156.269531 116.140625 C 156.386719 116.699219 156.550781 117.242188 156.773438 117.769531 C 156.992188 118.292969 157.261719 118.792969 157.578125 119.269531 C 157.898438 119.742188 158.257812 120.179688 158.664062 120.582031 C 159.066406 120.984375 159.507812 121.347656 159.980469 121.664062 C 160.457031 121.980469 160.957031 122.25 161.484375 122.46875 C 162.011719 122.6875 162.554688 122.855469 163.113281 122.96875 C 163.675781 123.082031 164.242188 123.140625 164.8125 123.144531 Z M 164.8125 123.144531 "></path><path style=" stroke:none;fill-rule:nonzero;fill:rgb(100%,100%,100%);fill-opacity:1;" d="M 202.566406 133.699219 C 202.949219 133.699219 203.324219 133.660156 203.699219 133.585938 C 204.074219 133.511719 204.4375 133.402344 204.789062 133.257812 C 205.144531 133.109375 205.476562 132.933594 205.792969 132.722656 C 206.113281 132.507812 206.40625 132.269531 206.675781 132 C 206.945312 131.730469 207.1875 131.4375 207.398438 131.121094 C 207.609375 130.804688 207.789062 130.472656 207.933594 130.121094 C 208.082031 129.769531 208.191406 129.40625 208.265625 129.03125 C 208.339844 128.660156 208.375 128.28125 208.375 127.902344 C 208.375 127.519531 208.339844 127.144531 208.265625 126.769531 C 208.191406 126.398438 208.082031 126.035156 207.933594 125.683594 C 207.789062 125.332031 207.609375 124.996094 207.398438 124.679688 C 207.1875 124.363281 206.945312 124.070312 206.675781 123.804688 C 206.40625 123.535156 206.113281 123.292969 205.792969 123.082031 C 205.476562 122.871094 205.144531 122.691406 204.789062 122.546875 C 204.4375 122.402344 204.074219 122.289062 203.699219 122.214844 C 203.324219 122.140625 202.949219 122.105469 202.566406 122.105469 C 202.183594 122.105469 201.808594 122.140625 201.433594 122.214844 C 201.058594 122.289062 200.695312 122.402344 200.34375 122.546875 C 199.992188 122.691406 199.65625 122.871094 199.339844 123.082031 C 199.019531 123.292969 198.726562 123.535156 198.457031 123.804688 C 198.1875 124.070312 197.949219 124.363281 197.734375 124.679688 C 197.523438 124.996094 197.34375 125.332031 197.199219 125.683594 C 197.050781 126.035156 196.941406 126.398438 196.867188 126.769531 C 196.792969 127.144531 196.757812 127.519531 196.757812 127.902344 C 196.757812 128.28125 196.792969 128.660156 196.867188 129.03125 C 196.941406 129.40625 197.050781 129.769531 197.199219 130.121094 C 197.34375 130.472656 197.523438 130.804688 197.734375 131.121094 C 197.949219 131.4375 198.1875 131.730469 198.457031 132 C 198.726562 132.269531 199.019531 132.507812 199.339844 132.722656 C 199.65625 132.933594 199.992188 133.109375 200.34375 133.257812 C 200.695312 133.402344 201.058594 133.511719 201.433594 133.585938 C 201.808594 133.660156 202.183594 133.699219 202.566406 133.699219 Z M 202.566406 133.699219 "></path><path style=" stroke:none;fill-rule:nonzero;fill:rgb(83.918762%,83.918762%,83.918762%);fill-opacity:1;" d="M 331.363281 166.546875 L 348.792969 166.546875 L 348.792969 178.136719 L 331.363281 178.136719 Z M 331.363281 166.546875 "></path><path style=" stroke:none;fill-rule:nonzero;fill:rgb(83.918762%,83.918762%,83.918762%);fill-opacity:1;" d="M 331.363281 189.730469 L 348.792969 189.730469 L 348.792969 201.324219 L 331.363281 201.324219 Z M 331.363281 189.730469 "></path><path style=" stroke:none;fill-rule:nonzero;fill:rgb(83.918762%,83.918762%,83.918762%);fill-opacity:1;" d="M 325.550781 212.917969 L 348.792969 212.917969 L 348.792969 224.507812 L 325.550781 224.507812 Z M 325.550781 212.917969 "></path><path style=" stroke:none;fill-rule:nonzero;fill:rgb(83.918762%,83.918762%,83.918762%);fill-opacity:1;" d="M 331.363281 236.101562 L 348.792969 236.101562 L 348.792969 247.695312 L 331.363281 247.695312 Z M 331.363281 236.101562 "></path><path style=" stroke:none;fill-rule:nonzero;fill:rgb(83.918762%,83.918762%,83.918762%);fill-opacity:1;" d="M 302.3125 143.359375 L 348.792969 143.359375 L 348.792969 154.953125 L 302.3125 154.953125 Z M 302.3125 143.359375 "></path><path style=" stroke:none;fill-rule:nonzero;fill:rgb(92.939758%,10.978699%,14.118958%);fill-opacity:1;" d="M 331.363281 294.886719 L 331.363281 149.15625 L 319.742188 149.15625 L 319.742188 294.886719 C 318.839844 295.121094 317.953125 295.40625 317.082031 295.746094 C 316.210938 296.085938 315.367188 296.476562 314.542969 296.917969 C 313.722656 297.359375 312.929688 297.847656 312.167969 298.382812 C 311.402344 298.921875 310.675781 299.5 309.980469 300.125 C 309.289062 300.75 308.636719 301.414062 308.023438 302.113281 C 307.410156 302.816406 306.839844 303.554688 306.316406 304.324219 C 305.792969 305.097656 305.316406 305.894531 304.890625 306.722656 C 304.460938 307.550781 304.085938 308.402344 303.761719 309.277344 C 303.4375 310.148438 303.164062 311.039062 302.949219 311.945312 C 302.730469 312.851562 302.570312 313.765625 302.464844 314.691406 C 302.355469 315.617188 302.304688 316.542969 302.3125 317.476562 C 302.316406 318.40625 302.378906 319.335938 302.496094 320.257812 C 302.613281 321.183594 302.785156 322.097656 303.015625 323 C 303.242188 323.902344 303.523438 324.789062 303.859375 325.660156 C 304.195312 326.527344 304.582031 327.375 305.019531 328.195312 C 305.457031 329.019531 305.941406 329.8125 306.472656 330.578125 C 307.007812 331.34375 307.585938 332.074219 308.207031 332.769531 C 308.828125 333.464844 309.488281 334.117188 310.1875 334.734375 C 310.890625 335.351562 311.625 335.921875 312.394531 336.449219 C 313.164062 336.976562 313.960938 337.457031 314.789062 337.886719 C 315.617188 338.316406 316.46875 338.699219 317.339844 339.027344 C 318.214844 339.355469 319.105469 339.632812 320.011719 339.855469 C 320.917969 340.078125 321.835938 340.242188 322.761719 340.355469 C 323.6875 340.46875 324.617188 340.523438 325.550781 340.523438 C 326.484375 340.523438 327.417969 340.46875 328.34375 340.355469 C 329.269531 340.242188 330.1875 340.078125 331.09375 339.855469 C 332 339.632812 332.890625 339.355469 333.765625 339.027344 C 334.636719 338.699219 335.488281 338.316406 336.316406 337.886719 C 337.140625 337.457031 337.941406 336.976562 338.710938 336.449219 C 339.480469 335.921875 340.214844 335.351562 340.914062 334.734375 C 341.617188 334.117188 342.277344 333.464844 342.898438 332.769531 C 343.519531 332.074219 344.097656 331.34375 344.628906 330.578125 C 345.164062 329.8125 345.648438 329.019531 346.085938 328.195312 C 346.523438 327.375 346.910156 326.527344 347.246094 325.660156 C 347.578125 324.789062 347.863281 323.902344 348.089844 323 C 348.316406 322.097656 348.492188 321.183594 348.609375 320.257812 C 348.726562 319.335938 348.789062 318.40625 348.792969 317.476562 C 348.796875 316.542969 348.746094 315.617188 348.640625 314.691406 C 348.535156 313.765625 348.371094 312.851562 348.15625 311.945312 C 347.9375 311.039062 347.667969 310.148438 347.34375 309.277344 C 347.019531 308.402344 346.640625 307.550781 346.214844 306.722656 C 345.789062 305.894531 345.3125 305.097656 344.789062 304.324219 C 344.261719 303.554688 343.695312 302.816406 343.082031 302.113281 C 342.46875 301.414062 341.816406 300.75 341.121094 300.125 C 340.429688 299.5 339.703125 298.921875 338.9375 298.382812 C 338.175781 297.847656 337.382812 297.359375 336.558594 296.917969 C 335.738281 296.476562 334.890625 296.085938 334.023438 295.746094 C 333.152344 295.40625 332.265625 295.121094 331.363281 294.886719 Z M 325.550781 328.84375 C 324.789062 328.84375 324.035156 328.769531 323.285156 328.621094 C 322.535156 328.472656 321.808594 328.253906 321.105469 327.960938 C 320.398438 327.667969 319.730469 327.3125 319.097656 326.890625 C 318.460938 326.46875 317.875 325.984375 317.335938 325.449219 C 316.796875 324.910156 316.3125 324.324219 315.890625 323.691406 C 315.464844 323.058594 315.109375 322.390625 314.816406 321.6875 C 314.523438 320.984375 314.304688 320.257812 314.15625 319.511719 C 314.007812 318.765625 313.933594 318.011719 313.933594 317.25 C 313.933594 316.488281 314.007812 315.734375 314.15625 314.988281 C 314.304688 314.242188 314.523438 313.519531 314.816406 312.8125 C 315.109375 312.109375 315.464844 311.441406 315.890625 310.808594 C 316.3125 310.175781 316.796875 309.589844 317.335938 309.054688 C 317.875 308.515625 318.460938 308.035156 319.097656 307.613281 C 319.730469 307.1875 320.398438 306.832031 321.105469 306.539062 C 321.808594 306.25 322.535156 306.027344 323.285156 305.878906 C 324.035156 305.730469 324.789062 305.65625 325.550781 305.65625 C 326.316406 305.65625 327.070312 305.730469 327.820312 305.878906 C 328.566406 306.03125 329.292969 306.25 330 306.539062 C 330.703125 306.832031 331.375 307.1875 332.007812 307.613281 C 332.644531 308.035156 333.230469 308.515625 333.769531 309.054688 C 334.308594 309.589844 334.789062 310.175781 335.214844 310.808594 C 335.636719 311.441406 335.996094 312.109375 336.289062 312.8125 C 336.582031 313.519531 336.800781 314.242188 336.949219 314.988281 C 337.097656 315.734375 337.171875 316.488281 337.171875 317.25 C 337.171875 318.011719 337.097656 318.765625 336.949219 319.511719 C 336.800781 320.257812 336.582031 320.984375 336.289062 321.6875 C 335.996094 322.390625 335.636719 323.058594 335.214844 323.691406 C 334.789062 324.324219 334.308594 324.910156 333.769531 325.449219 C 333.230469 325.984375 332.644531 326.46875 332.007812 326.890625 C 331.375 327.3125 330.703125 327.667969 330 327.960938 C 329.292969 328.253906 328.566406 328.472656 327.820312 328.621094 C 327.070312 328.769531 326.316406 328.84375 325.550781 328.84375 Z M 325.550781 328.84375 "></path></g></svg>