<svg xmlns="http://www.w3.org/2000/svg" xmlns:xlink="http://www.w3.org/1999/xlink" width="375pt" height="374.999991pt" viewBox="0 0 375 374.999991"><g id="surface1"><path style=" stroke:none;fill-rule:nonzero;fill:rgb(100%,84.309387%,50.979614%);fill-opacity:1;" d="M 137.808594 197.175781 L 137.808594 82.953125 C 188.503906 95.667969 207.515625 76.632812 220.1875 63.945312 C 232.863281 82.976562 251.871094 89.320312 251.871094 89.320312 L 251.871094 197.175781 L 137.808594 197.175781 "></path><path style=" stroke:none;fill-rule:nonzero;fill:rgb(97.648621%,73.329163%,29.40979%);fill-opacity:1;" d="M 251.871094 152.738281 C 265.882812 152.738281 277.21875 141.390625 277.21875 127.363281 C 277.21875 113.335938 265.882812 101.984375 251.871094 101.984375 L 251.871094 152.738281 "></path><path style=" stroke:none;fill-rule:nonzero;fill:rgb(97.648621%,73.329163%,29.40979%);fill-opacity:1;" d="M 137.808594 101.984375 C 123.800781 101.984375 112.460938 113.335938 112.460938 127.363281 C 112.460938 141.390625 123.800781 152.738281 137.808594 152.738281 L 137.808594 101.984375 "></path><path style=" stroke:none;fill-rule:nonzero;fill:rgb(22.349548%,30.198669%,36.079407%);fill-opacity:1;" d="M 118.800781 89.320312 L 125.136719 51.257812 C 156.820312 0.5 201.179688 19.535156 201.179688 19.535156 L 213.851562 6.847656 L 232.863281 25.878906 L 264.546875 13.191406 L 258.210938 32.222656 C 258.210938 32.222656 277.21875 51.257812 270.882812 70.289062 C 264.546875 89.320312 251.871094 102.011719 251.871094 102.011719 L 251.871094 89.320312 C 251.871094 89.320312 232.863281 82.976562 220.1875 63.945312 C 207.515625 76.632812 188.503906 95.667969 137.808594 82.953125 L 118.800781 89.320312 "></path><path style=" stroke:none;fill-rule:nonzero;fill:rgb(9.799194%,36.079407%,52.159119%);fill-opacity:1;" d="M 245.535156 292.339844 L 144.148438 292.339844 L 144.148438 222.550781 L 245.535156 222.550781 L 245.535156 292.339844 "></path><path style=" stroke:none;fill-rule:nonzero;fill:rgb(17.649841%,45.878601%,73.329163%);fill-opacity:1;" d="M 245.535156 222.550781 L 258.210938 222.550781 C 267.46875 222.550781 277.542969 228.203125 283.558594 235.242188 L 308.902344 266.960938 L 283.558594 292.339844 L 245.535156 292.339844 L 245.535156 222.550781 "></path><path style=" stroke:none;fill-rule:nonzero;fill:rgb(82.749939%,51.759338%,23.919678%);fill-opacity:1;" d="M 277.21875 292.339844 L 125.136719 292.339844 L 125.136719 374.816406 L 277.21875 374.816406 L 277.21875 292.339844 "></path><path style=" stroke:none;fill-rule:nonzero;fill:rgb(100%,84.309387%,50.979614%);fill-opacity:1;" d="M 308.902344 266.960938 L 340.589844 311.371094 C 348.3125 322.425781 341.058594 333.703125 327.914062 336.75 L 270.882812 349.4375 C 261.847656 352.015625 253.703125 345.992188 251.871094 336.75 C 250.214844 328.523438 256.476562 320.023438 264.546875 317.71875 L 302.566406 311.371094 L 283.558594 292.339844 L 308.902344 266.960938 "></path><path style=" stroke:none;fill-rule:nonzero;fill:rgb(100%,84.309387%,50.979614%);fill-opacity:1;" d="M 175.832031 228.898438 C 175.832031 239.40625 184.347656 247.929688 194.839844 247.929688 C 205.335938 247.929688 213.851562 239.40625 213.851562 228.898438 L 213.851562 222.550781 L 175.832031 222.550781 L 175.832031 228.898438 "></path><path style=" stroke:none;fill-rule:nonzero;fill:rgb(17.649841%,45.878601%,73.329163%);fill-opacity:1;" d="M 144.148438 266.960938 L 93.453125 273.308594 L 93.453125 222.550781 L 144.148438 222.550781 L 144.148438 266.960938 "></path><path style=" stroke:none;fill-rule:nonzero;fill:rgb(100%,84.309387%,50.979614%);fill-opacity:1;" d="M 68.105469 222.550781 L 68.105469 102.011719 C 68.105469 91.503906 59.589844 82.976562 49.09375 82.976562 C 38.597656 82.976562 30.085938 91.503906 30.085938 102.011719 L 30.085938 235.242188 C 30.085938 249.269531 41.445312 260.617188 55.429688 260.617188 L 93.453125 260.617188 L 93.453125 222.550781 L 68.105469 222.550781 "></path><path style=" stroke:none;fill-rule:nonzero;fill:rgb(0%,0%,0%);fill-opacity:1;" d="M 118.800781 127.363281 C 118.800781 119.085938 124.097656 112.046875 131.472656 109.421875 L 131.472656 145.304688 C 124.097656 142.679688 118.800781 135.640625 118.800781 127.363281 Z M 126.796875 79.953125 L 131.175781 53.5625 C 159.394531 9.546875 197.09375 24.714844 198.679688 25.359375 C 201.054688 26.398438 203.828125 25.855469 205.660156 24.019531 L 213.851562 15.816406 L 228.382812 30.363281 C 230.164062 32.148438 232.863281 32.71875 235.214844 31.777344 L 254.222656 24.167969 L 252.195312 30.214844 C 251.425781 32.496094 252.019531 35.023438 253.730469 36.707031 C 253.902344 36.855469 269.84375 53.386719 264.867188 68.28125 C 262.691406 74.847656 259.671875 80.625 256.75 85.257812 C 256.007812 84.390625 255.015625 83.695312 253.902344 83.300781 C 253.730469 83.25 236.699219 77.277344 225.460938 60.425781 C 224.398438 58.839844 222.714844 57.824219 220.808594 57.625 C 220.609375 57.625 220.386719 57.601562 220.1875 57.601562 C 218.503906 57.601562 216.894531 58.269531 215.707031 59.457031 C 205.386719 69.792969 191.773438 83.273438 159.742188 80.351562 C 171.300781 74.203125 184.273438 65.035156 188.183594 53.261719 L 176.152344 49.25 C 172.292969 60.894531 149.371094 72.394531 135.804688 76.929688 C 135.804688 76.929688 126.796875 79.953125 126.796875 79.953125 Z M 270.882812 127.363281 C 270.882812 135.640625 265.585938 142.679688 258.210938 145.304688 L 258.210938 109.421875 C 265.585938 112.046875 270.882812 119.085938 270.882812 127.363281 Z M 245.535156 190.832031 L 144.148438 190.832031 L 144.148438 90.832031 C 186.203125 99.234375 206.796875 85.332031 219.445312 73.535156 C 228.777344 84.738281 239.644531 90.832031 245.535156 93.558594 Z M 137.808594 203.519531 L 251.871094 203.519531 C 255.363281 203.519531 258.210938 200.667969 258.210938 197.175781 L 258.210938 158.441406 C 272.664062 155.492188 283.558594 142.679688 283.558594 127.363281 C 283.558594 113.980469 275.191406 102.554688 263.457031 97.898438 C 267.863281 91.898438 273.285156 83.125 276.898438 72.296875 C 282.839844 54.476562 270.980469 37.476562 265.386719 30.734375 L 270.5625 15.199219 C 271.328125 12.867188 270.683594 10.265625 268.902344 8.582031 C 267.097656 6.871094 264.472656 6.375 262.195312 7.292969 L 234.398438 18.445312 L 218.332031 2.359375 C 215.855469 -0.117188 211.847656 -0.117188 209.371094 2.359375 L 199.445312 12.296875 C 186.746094 8.730469 148.082031 2.558594 119.765625 47.886719 C 119.320312 48.605469 119.023438 49.398438 118.898438 50.214844 L 112.5625 88.28125 C 112.191406 90.460938 113.007812 92.691406 114.691406 94.15625 C 116.375 95.589844 118.699219 96.0625 120.804688 95.34375 L 131.472656 91.773438 L 131.472656 96.285156 C 117.015625 99.234375 106.125 112.046875 106.125 127.363281 C 106.125 142.679688 117.015625 155.492188 131.472656 158.441406 L 131.472656 197.175781 C 131.472656 200.667969 134.320312 203.519531 137.808594 203.519531 "></path><path style=" stroke:none;fill-rule:nonzero;fill:rgb(0%,0%,0%);fill-opacity:1;" d="M 213.851562 114.699219 L 226.527344 114.699219 L 226.527344 102.011719 L 213.851562 102.011719 L 213.851562 114.699219 "></path><path style=" stroke:none;fill-rule:nonzero;fill:rgb(0%,0%,0%);fill-opacity:1;" d="M 201.179688 114.699219 L 188.503906 114.699219 L 188.503906 140.078125 L 201.179688 140.078125 L 201.179688 114.699219 "></path><path style=" stroke:none;fill-rule:nonzero;fill:rgb(0%,0%,0%);fill-opacity:1;" d="M 175.832031 102.011719 L 163.15625 102.011719 L 163.15625 114.699219 L 175.832031 114.699219 L 175.832031 102.011719 "></path><path style=" stroke:none;fill-rule:nonzero;fill:rgb(0%,0%,0%);fill-opacity:1;" d="M 194.839844 165.453125 C 184.347656 165.453125 175.832031 156.929688 175.832031 146.421875 L 163.15625 146.421875 C 163.15625 163.917969 177.367188 178.140625 194.839844 178.140625 C 212.316406 178.140625 226.527344 163.917969 226.527344 146.421875 L 213.851562 146.421875 C 213.851562 156.929688 205.335938 165.453125 194.839844 165.453125 "></path><path style=" stroke:none;fill-rule:nonzero;fill:rgb(0%,0%,0%);fill-opacity:1;" d="M 270.882812 298.683594 L 270.882812 310.234375 L 263.507812 311.472656 C 263.257812 311.496094 263.035156 311.546875 262.8125 311.621094 C 251.105469 314.964844 243.40625 326.789062 245.660156 338.015625 C 246.972656 344.554688 250.757812 350.15625 256.054688 353.378906 C 259.347656 355.386719 263.0625 356.402344 266.722656 356.402344 C 268.136719 356.402344 269.523438 356.230469 270.882812 355.929688 L 270.882812 368.472656 L 131.472656 368.472656 L 131.472656 298.683594 Z M 99.789062 266.121094 L 99.789062 228.898438 L 137.808594 228.898438 L 137.808594 261.363281 Z M 87.117188 254.273438 L 55.429688 254.273438 C 44.9375 254.273438 36.421875 245.75 36.421875 235.242188 L 36.421875 102.011719 C 36.421875 95.023438 42.113281 89.320312 49.09375 89.320312 C 56.074219 89.320312 61.769531 95.023438 61.769531 102.011719 L 61.769531 228.898438 L 87.117188 228.898438 Z M 150.484375 228.898438 L 169.496094 228.898438 C 169.496094 242.898438 180.855469 254.273438 194.839844 254.273438 C 208.828125 254.273438 220.1875 242.898438 220.1875 228.898438 L 239.199219 228.898438 L 239.199219 285.996094 L 150.484375 285.996094 Z M 207.515625 228.898438 C 207.515625 235.886719 201.820312 241.585938 194.839844 241.585938 C 187.859375 241.585938 182.167969 235.886719 182.167969 228.898438 Z M 251.871094 228.898438 L 258.210938 228.898438 C 265.015625 228.898438 273.457031 233.207031 278.605469 239.207031 L 300.414062 266.492188 L 283.558594 283.367188 L 269.027344 268.820312 L 260.066406 277.792969 L 268.257812 285.996094 L 251.871094 285.996094 Z M 283.558594 308.101562 L 283.558594 301.3125 L 289.375 307.136719 Z M 335.390625 315.015625 C 337.394531 317.867188 337.914062 320.566406 336.949219 323.09375 C 335.636719 326.515625 331.628906 329.390625 326.527344 330.554688 L 269.152344 343.34375 C 266.824219 344.011719 264.570312 343.738281 262.664062 342.550781 C 260.363281 341.160156 258.703125 338.582031 258.085938 335.511719 C 257.167969 330.976562 260.90625 325.523438 265.980469 323.914062 L 303.605469 317.617188 C 305.957031 317.246094 307.890625 315.5625 308.605469 313.304688 C 309.324219 311.050781 308.730469 308.570312 307.046875 306.886719 L 292.515625 292.339844 L 308.085938 276.75 Z M 118.800781 285.996094 L 118.800781 381.160156 L 283.558594 381.160156 L 283.558594 353.132812 L 329.351562 342.945312 C 338.65625 340.789062 345.933594 335.066406 348.78125 327.628906 C 351.28125 321.136719 350.21875 314.074219 345.738281 307.679688 L 288.359375 231.101562 C 280.609375 222.058594 268.777344 216.207031 258.210938 216.207031 L 74.441406 216.207031 L 74.441406 102.011719 C 74.441406 88.007812 63.082031 76.632812 49.09375 76.632812 C 35.109375 76.632812 23.746094 88.007812 23.746094 102.011719 L 23.746094 235.242188 C 23.746094 252.738281 37.957031 266.960938 55.429688 266.960938 L 87.117188 266.960938 L 87.117188 280.492188 L 137.808594 274.148438 L 137.808594 285.996094 L 118.800781 285.996094 "></path><path style=" stroke:none;fill-rule:nonzero;fill:rgb(0%,0%,0%);fill-opacity:1;" d="M 239.199219 311.371094 L 150.484375 311.371094 L 150.484375 324.0625 L 239.199219 324.0625 L 239.199219 311.371094 "></path></g></svg>