<svg xmlns="http://www.w3.org/2000/svg" xmlns:xlink="http://www.w3.org/1999/xlink" width="375pt" height="374.999991pt" viewBox="0 0 375 374.999991"><defs><clipPath id="clip1"><path d="M 42 243 L 92 243 L 92 343.5 L 42 343.5 Z M 42 243 "></path></clipPath><clipPath id="clip2"><path d="M 188 217 L 293 217 L 293 343.5 L 188 343.5 Z M 188 217 "></path></clipPath><clipPath id="clip3"><path d="M 163 335 L 179 335 L 179 343.5 L 163 343.5 Z M 163 335 "></path></clipPath><clipPath id="clip4"><path d="M 23 335 L 36 335 L 36 343.5 L 23 343.5 Z M 23 335 "></path></clipPath><clipPath id="clip5"><path d="M 9 90 L 169 90 L 169 343.5 L 9 343.5 Z M 9 90 "></path></clipPath><clipPath id="clip6"><path d="M 188 46 L 374 46 L 374 343.5 L 188 343.5 Z M 188 46 "></path></clipPath></defs><g id="surface1"><rect x="0" y="0" width="375" height="374.999991" style="fill:rgb(100%,100%,100%);fill-opacity:1;stroke:none;"></rect><rect x="0" y="0" width="375" height="374.999991" style="fill:rgb(100%,100%,100%);fill-opacity:1;stroke:none;"></rect><path style=" stroke:none;fill-rule:nonzero;fill:rgb(53.729248%,39.99939%,44.309998%);fill-opacity:1;" d="M 188.46875 251.398438 C 188.46875 251.398438 184.5 257.390625 182.40625 267.800781 C 181.078125 274.414062 186.105469 280.605469 192.84375 280.605469 L 238.96875 280.605469 C 245.410156 280.605469 250.464844 274.914062 249.527344 268.535156 C 248.4375 261.105469 244.480469 252.355469 232.542969 248.828125 C 232.542969 248.828125 234.710938 234.121094 223.75 226.15625 C 211.296875 217.105469 193.457031 223.875 189.542969 238.777344 C 188.621094 242.277344 188.171875 246.445312 188.46875 251.398438 "></path><path style=" stroke:none;fill-rule:nonzero;fill:rgb(65.879822%,56.079102%,57.249451%);fill-opacity:1;" d="M 199.820312 263.78125 C 215.644531 263.78125 228.792969 252.335938 231.484375 237.269531 C 230.292969 233.386719 228.019531 229.257812 223.75 226.15625 C 211.296875 217.105469 193.457031 223.875 189.542969 238.777344 C 188.621094 242.277344 188.171875 246.445312 188.46875 251.398438 C 188.46875 251.398438 186.460938 254.4375 184.550781 259.929688 C 189.097656 262.386719 194.296875 263.78125 199.820312 263.78125 "></path><path style=" stroke:none;fill-rule:nonzero;fill:rgb(33.329773%,57.649231%,43.139648%);fill-opacity:1;" d="M 182.613281 225.433594 C 182.785156 227.0625 182.875 228.769531 182.875 230.558594 C 182.875 230.558594 188.640625 232.480469 193.742188 238.863281 C 201.769531 248.890625 194.507812 263.78125 181.671875 263.78125 L 105.972656 263.78125 C 90.222656 263.78125 82.765625 244.078125 94.757812 233.851562 C 98.933594 230.289062 105.027344 227.125 113.796875 224.875 C 113.796875 224.875 117.230469 202.652344 137.460938 196.121094 C 160.304688 188.75 180.097656 201.539062 182.613281 225.433594 "></path><path style=" stroke:none;fill-rule:nonzero;fill:rgb(44.709778%,74.508667%,55.688477%);fill-opacity:1;" d="M 137.460938 196.121094 C 117.230469 202.652344 113.796875 224.875 113.796875 224.875 C 105.027344 227.125 98.933594 230.289062 94.757812 233.851562 C 90.800781 237.226562 88.972656 241.632812 88.851562 246.023438 C 96.59375 249.433594 105.148438 251.335938 114.152344 251.335938 C 142.988281 251.335938 167.28125 231.914062 174.730469 205.425781 C 166.414062 195.21875 152.613281 191.230469 137.460938 196.121094 "></path><path style=" stroke:none;fill-rule:nonzero;fill:rgb(79.998779%,54.508972%,70.588684%);fill-opacity:1;" d="M 97.554688 314.460938 L 97.554688 221.386719 L 70.421875 221.386719 L 70.421875 314.460938 C 70.421875 326.707031 61.964844 337.425781 50.003906 340.015625 C 49.15625 340.199219 48.65625 340.261719 48.65625 340.261719 L 119.3125 340.261719 C 119.3125 340.261719 118.816406 340.199219 117.96875 340.015625 C 106.011719 337.425781 97.554688 326.707031 97.554688 314.460938 "></path><path style=" stroke:none;fill-rule:nonzero;fill:rgb(58.428955%,32.939148%,48.629761%);fill-opacity:1;" d="M 97.554688 314.460938 L 97.554688 221.386719 L 70.421875 221.386719 L 70.421875 248.367188 L 73.386719 248.367188 C 79.242188 248.367188 83.988281 253.117188 83.988281 258.976562 L 83.988281 321.613281 C 83.988281 321.613281 84.761719 334.050781 71.722656 340.261719 L 119.3125 340.261719 C 119.3125 340.261719 118.816406 340.199219 117.96875 340.015625 C 106.011719 337.425781 97.554688 326.707031 97.554688 314.460938 "></path><path style=" stroke:none;fill-rule:nonzero;fill:rgb(79.998779%,54.508972%,70.588684%);fill-opacity:1;" d="M 295.542969 313.773438 L 295.542969 194.039062 L 271.5 194.039062 L 271.5 313.773438 C 271.5 326.023438 264.007812 336.742188 253.410156 339.332031 C 252.660156 339.515625 252.214844 339.578125 252.214844 339.578125 L 314.824219 339.578125 C 314.824219 339.578125 314.382812 339.515625 313.632812 339.332031 C 303.035156 336.742188 295.542969 326.023438 295.542969 313.773438 "></path><path style=" stroke:none;fill-rule:nonzero;fill:rgb(58.428955%,32.939148%,48.629761%);fill-opacity:1;" d="M 313.632812 339.332031 C 303.035156 336.742188 295.542969 326.023438 295.542969 313.773438 L 295.542969 194.039062 L 271.5 194.039062 L 271.5 222.070312 L 274.058594 222.070312 C 280.234375 222.070312 285.242188 227.082031 285.242188 233.265625 L 285.242188 324.378906 C 285.242188 324.378906 285.574219 332.90625 280.351562 339.578125 L 314.824219 339.578125 C 314.824219 339.578125 314.382812 339.515625 313.632812 339.332031 "></path><path style=" stroke:none;fill-rule:nonzero;fill:rgb(67.83905%,72.158813%,54.899597%);fill-opacity:1;" d="M 17.921875 173.339844 C 17.921875 173.339844 -0.0195312 140.902344 38.261719 121.554688 C 38.261719 121.554688 45.507812 100.863281 72.234375 95.5 C 82.773438 93.382812 93.886719 95.023438 102.804688 100.769531 C 107.851562 104.023438 112.730469 108.824219 115.421875 115.863281 C 115.421875 115.863281 165.066406 129.523438 163.871094 176.753906 C 163.871094 176.753906 160.28125 233.089844 93.289062 233.089844 L 67.535156 233.089844 C 58.902344 233.089844 50.308594 231.550781 42.402344 228.253906 C 26.996094 221.820312 9.25 207.03125 17.921875 173.339844 "></path><path style=" stroke:none;fill-rule:nonzero;fill:rgb(55.688477%,56.079102%,41.958618%);fill-opacity:1;" d="M 129.28125 121.699219 C 136.441406 145.160156 139.4375 177.203125 113.105469 196.773438 C 102.148438 204.917969 88.464844 208.710938 74.285156 209.894531 C 62.882812 210.851562 54.082031 220.324219 54.082031 231.773438 C 58.496094 232.652344 63.007812 233.089844 67.535156 233.089844 L 93.289062 233.089844 C 160.28125 233.089844 163.871094 176.753906 163.871094 176.753906 C 164.648438 146 143.871094 129.480469 129.28125 121.699219 "></path><path style=" stroke:none;fill-rule:nonzero;fill:rgb(91.369629%,84.309387%,76.858521%);fill-opacity:1;" d="M 78.054688 109.117188 C 78.054688 104.191406 77.378906 99.425781 76.136719 94.890625 C 74.832031 95.039062 73.527344 95.238281 72.234375 95.5 C 45.507812 100.863281 38.261719 121.554688 38.261719 121.554688 C 14.5625 133.535156 12.414062 150.523438 14.214844 161.734375 C 17.542969 162.382812 20.984375 162.734375 24.507812 162.734375 C 54.082031 162.734375 78.054688 138.726562 78.054688 109.117188 "></path><path style=" stroke:none;fill-rule:nonzero;fill:rgb(44.709778%,74.508667%,55.688477%);fill-opacity:1;" d="M 271.273438 204.273438 L 229.941406 204.273438 C 198.261719 204.273438 181.617188 166.300781 203.359375 143.234375 C 204.136719 142.414062 204.613281 141.980469 204.613281 141.980469 C 196.015625 130.589844 197.203125 114.875 199.824219 103.445312 C 202.488281 91.804688 208.4375 81.082031 217.402344 73.203125 C 240.667969 52.753906 267.273438 62.785156 267.273438 62.785156 C 267.273438 62.785156 292.171875 39.78125 320.648438 57.03125 C 330.539062 63.023438 337.796875 72.488281 341.757812 83.359375 C 344.761719 91.609375 347.011719 102.269531 344.15625 112.171875 C 344.15625 112.171875 356.425781 116.832031 363.710938 132.566406 C 374.984375 156.914062 365.730469 186.285156 341.796875 198.363281 C 334.769531 201.910156 326.046875 204.273438 315.269531 204.273438 L 271.273438 204.273438 "></path><path style=" stroke:none;fill-rule:nonzero;fill:rgb(33.329773%,57.649231%,43.139648%);fill-opacity:1;" d="M 363.710938 132.566406 C 356.425781 116.832031 344.15625 112.171875 344.15625 112.171875 C 347.011719 102.269531 344.761719 91.609375 341.757812 83.359375 C 338.421875 74.210938 332.746094 66.066406 325.140625 60.140625 C 329.714844 72.3125 332.632812 89.589844 325.472656 109.46875 C 322.515625 117.671875 322.832031 126.738281 326.429688 134.683594 C 331.171875 145.15625 334.566406 160.265625 322.308594 170.917969 C 322.308594 170.917969 314.433594 178.558594 295.542969 178.558594 L 254.019531 178.558594 C 239.320312 178.558594 227.21875 189.703125 225.679688 204.011719 C 227.070312 204.167969 228.484375 204.273438 229.941406 204.273438 L 315.269531 204.273438 C 326.046875 204.273438 334.769531 201.910156 341.796875 198.363281 C 365.730469 186.285156 374.984375 156.914062 363.710938 132.566406 "></path><path style=" stroke:none;fill-rule:nonzero;fill:rgb(67.83905%,87.449646%,76.469421%);fill-opacity:1;" d="M 278.707031 72.832031 C 278.707031 67.171875 277.945312 61.691406 276.546875 56.472656 C 270.734375 59.589844 267.273438 62.785156 267.273438 62.785156 C 267.273438 62.785156 240.667969 52.753906 217.402344 73.203125 C 208.4375 81.082031 202.488281 91.804688 199.824219 103.445312 C 197.792969 112.300781 196.644531 123.71875 200.21875 133.714844 C 205.238281 135.007812 210.496094 135.695312 215.914062 135.695312 C 250.59375 135.695312 278.707031 107.550781 278.707031 72.832031 "></path><path style=" stroke:none;fill-rule:nonzero;fill:rgb(27.449036%,27.449036%,28.239441%);fill-opacity:1;" d="M 237.226562 245.707031 C 237.21875 240.046875 235.828125 229.351562 226.402344 222.5 C 219.066406 217.171875 209.597656 216.070312 201.066406 219.5625 C 198.761719 220.503906 197.652344 223.144531 198.597656 225.453125 C 199.539062 227.761719 202.175781 228.871094 204.480469 227.925781 C 210.101562 225.625 216.3125 226.332031 221.097656 229.8125 C 229.652344 236.027344 228.089844 248.070312 228.078125 248.167969 C 227.75 250.398438 229.109375 252.523438 231.265625 253.164062 C 239.207031 255.507812 243.847656 260.898438 245.066406 269.191406 C 245.316406 270.910156 244.820312 272.597656 243.664062 273.933594 C 242.484375 275.300781 240.773438 276.089844 238.96875 276.089844 L 192.84375 276.089844 C 190.996094 276.089844 189.265625 275.265625 188.097656 273.828125 C 186.523438 271.894531 183.679688 271.605469 181.75 273.183594 C 179.816406 274.757812 179.527344 277.605469 181.101562 279.539062 C 183.992188 283.085938 188.269531 285.121094 192.84375 285.121094 L 238.96875 285.121094 C 243.398438 285.121094 247.597656 283.199219 250.496094 279.839844 C 253.347656 276.535156 254.621094 272.171875 253.992188 267.875 C 252.449219 257.359375 246.546875 249.605469 237.226562 245.707031 "></path><path style=" stroke:none;fill-rule:nonzero;fill:rgb(27.449036%,27.449036%,28.239441%);fill-opacity:1;" d="M 169.542969 206.378906 C 174.324219 211.222656 177.289062 217.976562 178.125 225.910156 C 178.28125 227.40625 178.363281 228.96875 178.363281 230.558594 C 178.363281 232.472656 179.609375 234.195312 181.410156 234.832031 C 181.457031 234.847656 186.097656 236.53125 190.222656 241.6875 C 192.855469 244.980469 193.332031 249.230469 191.496094 253.058594 C 189.632812 256.945312 185.960938 259.265625 181.671875 259.265625 L 130.519531 259.265625 C 128.027344 259.265625 126.007812 261.285156 126.007812 263.78125 C 126.007812 266.273438 128.027344 268.296875 130.519531 268.296875 L 181.671875 268.296875 C 189.398438 268.296875 196.277344 263.957031 199.628906 256.96875 C 202.953125 250.039062 202.050781 242.015625 197.265625 236.039062 C 193.710938 231.59375 189.890625 229.011719 187.308594 227.625 C 187.261719 226.722656 187.191406 225.835938 187.101562 224.960938 C 186.046875 214.96875 182.195312 206.34375 175.960938 200.027344 C 174.210938 198.253906 171.351562 198.238281 169.578125 199.988281 C 167.808594 201.742188 167.789062 204.605469 169.542969 206.378906 "></path><path style=" stroke:none;fill-rule:nonzero;fill:rgb(27.449036%,27.449036%,28.239441%);fill-opacity:1;" d="M 142.96875 274.011719 C 140.476562 274.011719 138.457031 276.035156 138.457031 278.53125 L 138.457031 321.613281 C 138.457031 324.109375 140.476562 326.132812 142.96875 326.132812 C 145.460938 326.132812 147.480469 324.109375 147.480469 321.613281 L 147.480469 307.195312 C 147.480469 302.183594 150.164062 297.503906 154.484375 294.976562 L 154.753906 294.816406 C 160.050781 291.71875 163.84375 286.746094 165.433594 280.816406 C 166.082031 278.40625 164.65625 275.929688 162.25 275.28125 C 159.84375 274.632812 157.367188 276.0625 156.71875 278.472656 C 155.746094 282.089844 153.433594 285.125 150.203125 287.015625 L 149.929688 287.171875 C 149.074219 287.675781 148.257812 288.230469 147.480469 288.832031 L 147.480469 278.53125 C 147.480469 276.035156 145.460938 274.011719 142.96875 274.011719 "></path><g clip-path="url(#clip1)" clip-rule="nonzero"><path style=" stroke:none;fill-rule:nonzero;fill:rgb(27.449036%,27.449036%,28.239441%);fill-opacity:1;" d="M 86.785156 335.0625 L 66.367188 335.0625 C 71.695312 329.480469 74.929688 321.90625 74.929688 313.773438 L 74.929688 247.769531 C 74.929688 245.277344 72.910156 243.253906 70.421875 243.253906 C 67.929688 243.253906 65.90625 245.277344 65.90625 247.769531 L 65.90625 268.328125 C 65.671875 268.136719 65.4375 267.9375 65.195312 267.753906 L 57.269531 261.726562 C 53.40625 258.789062 51.097656 254.136719 51.097656 249.277344 C 51.097656 246.78125 49.078125 244.761719 46.585938 244.761719 C 44.09375 244.761719 42.074219 246.78125 42.074219 249.277344 C 42.074219 256.941406 45.714844 264.285156 51.8125 268.921875 L 59.738281 274.949219 C 63.601562 277.886719 65.90625 282.539062 65.90625 287.398438 L 65.90625 313.773438 C 65.90625 323.910156 58.816406 332.800781 49.050781 334.917969 C 48.496094 335.035156 48.144531 335.089844 48.089844 335.097656 C 45.726562 335.398438 44.003906 337.484375 44.15625 339.863281 C 44.304688 342.246094 46.277344 344.097656 48.65625 344.097656 L 86.785156 344.097656 C 89.277344 344.097656 91.296875 342.074219 91.296875 339.578125 C 91.296875 337.085938 89.277344 335.0625 86.785156 335.0625 "></path></g><g clip-path="url(#clip2)" clip-rule="nonzero"><path style=" stroke:none;fill-rule:nonzero;fill:rgb(27.449036%,27.449036%,28.239441%);fill-opacity:1;" d="M 276.011719 222.070312 C 276.011719 219.574219 273.992188 217.550781 271.5 217.550781 C 269.007812 217.550781 266.988281 219.574219 266.988281 222.070312 L 266.988281 313.773438 C 266.988281 323.96875 260.828125 332.871094 252.339844 334.945312 C 252.125 334.996094 251.945312 335.035156 251.816406 335.0625 L 217.703125 335.0625 L 217.703125 316.988281 C 217.703125 314.796875 219.078125 312.808594 221.128906 312.042969 L 226.683594 309.960938 C 232.238281 307.882812 235.972656 302.492188 235.972656 296.550781 C 235.972656 294.058594 233.953125 292.035156 231.460938 292.035156 C 228.96875 292.035156 226.949219 294.058594 226.949219 296.550781 C 226.949219 298.742188 225.570312 300.734375 223.519531 301.5 L 217.96875 303.578125 C 217.878906 303.613281 217.789062 303.65625 217.703125 303.691406 L 217.703125 296.550781 C 217.703125 294.058594 215.683594 292.035156 213.191406 292.035156 C 210.699219 292.035156 208.675781 294.058594 208.675781 296.550781 L 208.675781 314.203125 C 208.65625 314.191406 208.636719 314.179688 208.613281 314.167969 L 202.140625 310.90625 C 199.601562 309.625 198.019531 307.058594 198.019531 304.210938 L 198.019531 297.453125 C 198.019531 294.957031 196 292.933594 193.507812 292.933594 C 191.015625 292.933594 188.996094 294.957031 188.996094 297.453125 L 188.996094 304.210938 C 188.996094 310.496094 192.476562 316.152344 198.085938 318.976562 L 204.558594 322.238281 C 207.097656 323.519531 208.675781 326.085938 208.675781 328.933594 L 208.675781 335.0625 L 193.507812 335.0625 C 191.015625 335.0625 188.996094 337.085938 188.996094 339.578125 C 188.996094 342.074219 191.015625 344.097656 193.507812 344.097656 L 252.207031 344.097656 C 252.207031 344.097656 252.210938 344.097656 252.210938 344.097656 C 252.214844 344.097656 252.214844 344.097656 252.222656 344.097656 L 287.894531 344.097656 C 290.382812 344.097656 292.402344 342.074219 292.402344 339.578125 C 292.402344 337.085938 290.382812 335.0625 287.894531 335.0625 L 268.265625 335.0625 C 273.082031 329.476562 276.011719 321.902344 276.011719 313.773438 L 276.011719 222.070312 "></path></g><path style=" stroke:none;fill-rule:nonzero;fill:rgb(27.449036%,27.449036%,28.239441%);fill-opacity:1;" d="M 329.222656 244.761719 C 326.730469 244.761719 324.710938 246.78125 324.710938 249.277344 L 324.710938 324.378906 C 324.710938 326.875 326.730469 328.898438 329.222656 328.898438 C 331.714844 328.898438 333.738281 326.875 333.738281 324.378906 L 333.738281 297.429688 C 333.738281 292.863281 336.199219 288.625 340.167969 286.367188 L 341.289062 285.730469 C 348.070312 281.867188 352.28125 274.621094 352.28125 266.808594 C 352.28125 264.316406 350.261719 262.292969 347.769531 262.292969 C 345.277344 262.292969 343.257812 264.316406 343.257812 266.808594 C 343.257812 271.375 340.796875 275.617188 336.832031 277.875 L 335.707031 278.511719 C 335.019531 278.902344 334.367188 279.335938 333.738281 279.792969 L 333.738281 249.277344 C 333.738281 246.78125 331.714844 244.761719 329.222656 244.761719 "></path><g clip-path="url(#clip3)" clip-rule="nonzero"><path style=" stroke:none;fill-rule:nonzero;fill:rgb(27.449036%,27.449036%,28.239441%);fill-opacity:1;" d="M 174.164062 335.0625 L 168.355469 335.0625 C 165.863281 335.0625 163.84375 337.085938 163.84375 339.578125 C 163.84375 342.074219 165.863281 344.097656 168.355469 344.097656 L 174.164062 344.097656 C 176.65625 344.097656 178.671875 342.074219 178.671875 339.578125 C 178.671875 337.085938 176.65625 335.0625 174.164062 335.0625 "></path></g><g clip-path="url(#clip4)" clip-rule="nonzero"><path style=" stroke:none;fill-rule:nonzero;fill:rgb(27.449036%,27.449036%,28.239441%);fill-opacity:1;" d="M 31.089844 344.097656 C 33.582031 344.097656 35.601562 342.074219 35.601562 339.578125 C 35.601562 337.085938 33.582031 335.0625 31.089844 335.0625 L 27.511719 335.0625 C 25.019531 335.0625 23 337.085938 23 339.578125 C 23 342.074219 25.019531 344.097656 27.511719 344.097656 L 31.089844 344.097656 "></path></g><g clip-path="url(#clip5)" clip-rule="nonzero"><path style=" stroke:none;fill-rule:nonzero;fill:rgb(27.449036%,27.449036%,28.239441%);fill-opacity:1;" d="M 13.980469 175.53125 C 14.257812 176.035156 19.453125 185.21875 29.878906 188.128906 C 30.28125 188.242188 30.691406 188.296875 31.089844 188.296875 C 33.066406 188.296875 34.878906 186.988281 35.433594 184.992188 C 36.105469 182.589844 34.703125 180.097656 32.300781 179.425781 C 25.585938 177.554688 21.957031 171.296875 21.867188 171.144531 C 21.746094 170.921875 15.667969 159.613281 19.484375 147.203125 C 22.167969 138.484375 29.167969 131.210938 40.292969 125.585938 C 41.335938 125.0625 42.132812 124.152344 42.519531 123.050781 C 42.582031 122.867188 49.195312 104.730469 73.121094 99.925781 C 82.828125 97.984375 92.757812 99.671875 100.363281 104.570312 C 105.566406 107.921875 109.214844 112.261719 111.207031 117.480469 C 111.71875 118.820312 112.839844 119.839844 114.226562 120.21875 C 114.6875 120.347656 160.382812 133.421875 159.363281 176.535156 C 159.136719 179.515625 154.660156 226.371094 97.382812 228.496094 C 94.894531 228.589844 92.949219 230.6875 93.042969 233.179688 C 93.054688 233.515625 93.109375 233.839844 93.191406 234.15625 C 93.101562 234.511719 93.042969 234.878906 93.042969 235.261719 L 93.042969 313.773438 C 93.042969 328.136719 103.121094 340.742188 117.011719 343.746094 C 118.003906 343.960938 118.628906 344.046875 118.742188 344.0625 C 118.9375 344.085938 119.128906 344.097656 119.316406 344.097656 C 119.320312 344.097656 119.320312 344.097656 119.324219 344.097656 L 148.960938 344.097656 C 151.453125 344.097656 153.472656 342.074219 153.472656 339.578125 C 153.472656 337.085938 151.453125 335.0625 148.960938 335.0625 L 119.660156 335.0625 C 119.492188 335.03125 119.246094 334.988281 118.921875 334.917969 C 109.15625 332.800781 102.0625 323.910156 102.0625 313.773438 L 102.0625 275.664062 C 102.0625 270.339844 105.242188 265.582031 110.15625 263.550781 C 117.1875 260.640625 122.167969 254.429688 123.488281 246.9375 C 123.921875 244.480469 122.285156 242.136719 119.828125 241.703125 C 117.378906 241.269531 115.035156 242.910156 114.601562 245.367188 C 113.820312 249.800781 110.871094 253.476562 106.710938 255.199219 C 105.03125 255.894531 103.480469 256.785156 102.0625 257.824219 L 102.0625 237.269531 C 133.636719 234.835938 149.9375 219.324219 158.101562 206.425781 C 167.335938 191.84375 168.335938 177.636719 168.375 177.039062 C 168.378906 176.984375 168.378906 176.925781 168.382812 176.867188 C 168.90625 156.042969 160.070312 138.105469 142.824219 125 C 132.9375 117.488281 123.027344 113.625 118.769531 112.183594 C 115.957031 106.058594 111.417969 100.945312 105.246094 96.972656 C 95.6875 90.8125 83.332031 88.664062 71.347656 91.070312 C 46.8125 95.996094 37.261719 112.757812 34.734375 118.296875 C 22.191406 124.984375 14.164062 133.808594 10.859375 144.542969 C 5.90625 160.652344 13.644531 174.929688 13.976562 175.527344 C 13.976562 175.527344 13.980469 175.53125 13.980469 175.53125 "></path></g><path style=" stroke:none;fill-rule:nonzero;fill:rgb(27.449036%,27.449036%,28.239441%);fill-opacity:1;" d="M 78.070312 228.574219 L 67.539062 228.574219 C 59.148438 228.574219 51.277344 227.0625 44.140625 224.082031 C 28.796875 217.679688 20.734375 206.761719 20.183594 191.628906 C 20.089844 189.136719 17.964844 187.191406 15.507812 187.28125 C 13.019531 187.371094 11.074219 189.464844 11.164062 191.960938 C 12.027344 215.585938 27.683594 227.003906 40.667969 232.421875 C 48.910156 235.859375 57.949219 237.605469 67.539062 237.605469 L 78.070312 237.605469 C 80.558594 237.605469 82.582031 235.582031 82.582031 233.089844 C 82.582031 230.59375 80.558594 228.574219 78.070312 228.574219 "></path><g clip-path="url(#clip6)" clip-rule="nonzero"><path style=" stroke:none;fill-rule:nonzero;fill:rgb(27.449036%,27.449036%,28.239441%);fill-opacity:1;" d="M 349.347656 109.746094 C 350.855469 101.449219 349.734375 92.074219 345.996094 81.8125 C 341.5625 69.644531 333.390625 59.472656 322.984375 53.164062 C 296.902344 37.363281 273.320312 52.414062 266.316406 57.75 C 258.667969 55.632812 235.414062 51.359375 214.421875 69.808594 C 204.984375 78.105469 198.414062 89.386719 195.425781 102.433594 C 192.855469 113.640625 191.550781 129.09375 198.859375 141.484375 C 188.621094 153.320312 186.125 169.449219 192.398438 184.019531 C 198.980469 199.296875 213.363281 208.792969 229.941406 208.792969 L 277.878906 208.792969 C 280.371094 208.792969 282.394531 206.769531 282.394531 204.273438 C 282.394531 201.777344 280.371094 199.753906 277.878906 199.753906 L 229.941406 199.753906 C 217.027344 199.753906 205.816406 192.355469 200.6875 180.441406 C 195.617188 168.675781 197.898438 155.605469 206.640625 146.335938 C 207.210938 145.734375 207.578125 145.390625 207.628906 145.34375 C 209.371094 143.777344 209.625 141.132812 208.214844 139.257812 C 200.625 129.203125 201.855469 114.78125 204.21875 104.457031 C 206.785156 93.269531 212.371094 83.636719 220.378906 76.597656 C 241.230469 58.269531 264.707031 66.648438 265.683594 67.011719 C 267.277344 67.609375 269.070312 67.257812 270.324219 66.109375 C 271.246094 65.269531 293.167969 45.660156 318.3125 60.898438 C 326.96875 66.140625 333.785156 74.667969 337.519531 84.90625 C 340.015625 91.761719 342.4375 101.839844 339.820312 110.917969 C 339.175781 113.15625 340.363281 115.53125 342.527344 116.386719 C 342.964844 116.554688 353.269531 120.753906 359.617188 134.46875 C 370.109375 157.121094 361.386719 183.417969 339.765625 194.328125 C 332.632812 197.929688 324.390625 199.753906 315.269531 199.753906 L 295.542969 199.753906 C 293.050781 199.753906 291.03125 201.777344 291.03125 204.273438 C 291.03125 204.640625 291.085938 204.996094 291.167969 205.34375 C 291.085938 205.6875 291.03125 206.039062 291.03125 206.410156 L 291.03125 313.773438 C 291.03125 328.078125 300.085938 340.671875 312.5625 343.71875 C 313.480469 343.945312 314.074219 344.035156 314.183594 344.050781 C 314.402344 344.082031 314.617188 344.097656 314.828125 344.097656 C 314.832031 344.097656 314.832031 344.097656 314.835938 344.097656 L 343.625 344.097656 C 346.117188 344.097656 348.132812 342.074219 348.132812 339.578125 C 348.132812 337.085938 346.117188 335.0625 343.625 335.0625 L 315.226562 335.0625 C 315.09375 335.035156 314.917969 334.996094 314.703125 334.945312 C 306.214844 332.871094 300.054688 323.96875 300.054688 313.773438 L 300.054688 266.113281 C 300.054688 260.136719 302.589844 254.40625 307.019531 250.394531 L 313.960938 244.097656 C 320.269531 238.375 323.890625 230.203125 323.890625 221.679688 C 323.890625 219.183594 321.871094 217.160156 319.378906 217.160156 C 316.886719 217.160156 314.867188 219.183594 314.867188 221.679688 C 314.867188 227.65625 312.328125 233.386719 307.902344 237.398438 L 300.957031 243.699219 C 300.648438 243.976562 300.351562 244.269531 300.054688 244.5625 L 300.054688 208.792969 L 315.269531 208.792969 C 325.816406 208.792969 335.421875 206.640625 343.828125 202.398438 C 356.410156 196.046875 365.792969 185.066406 370.246094 171.476562 C 374.640625 158.050781 373.777344 143.558594 367.804688 130.664062 C 362.261719 118.695312 354.035156 112.488281 349.347656 109.746094 "></path></g></g></svg>