<svg xmlns="http://www.w3.org/2000/svg" xmlns:xlink="http://www.w3.org/1999/xlink" width="375pt" height="374.999991pt" viewBox="0 0 375 374.999991"><g id="surface1"><rect x="0" y="0" width="375" height="374.999991" style="fill:rgb(100%,100%,100%);fill-opacity:1;stroke:none;"></rect><rect x="0" y="0" width="375" height="374.999991" style="fill:rgb(100%,100%,100%);fill-opacity:1;stroke:none;"></rect><path style=" stroke:none;fill-rule:nonzero;fill:rgb(58.428955%,75.689697%,15.289307%);fill-opacity:1;" d="M 120.335938 73.476562 C 144.832031 98.300781 144.609375 138.296875 144.609375 138.296875 C 144.609375 138.296875 104.679688 138.058594 80.203125 113.234375 C 55.710938 88.410156 49.789062 54.496094 55.933594 48.417969 C 62.074219 42.335938 95.84375 48.667969 120.335938 73.476562 Z M 120.335938 73.476562 "></path><path style=" stroke:none;fill-rule:nonzero;fill:rgb(40.779114%,64.709473%,17.248535%);fill-opacity:1;" d="M 131.613281 122.355469 C 111.636719 102.113281 91.65625 81.855469 71.679688 61.613281 C 69.917969 59.820312 67.148438 62.59375 68.925781 64.371094 C 88.90625 84.613281 108.882812 104.871094 128.863281 125.113281 C 130.625 126.90625 133.375 124.148438 131.613281 122.355469 Z M 131.613281 122.355469 "></path><path style=" stroke:none;fill-rule:nonzero;fill:rgb(40.779114%,64.709473%,17.248535%);fill-opacity:1;" d="M 120.691406 110.269531 C 116.683594 102.898438 115.941406 95.277344 119.242188 87.476562 C 120.203125 85.191406 116.859375 83.191406 115.882812 85.503906 C 112.019531 94.636719 112.582031 103.535156 117.332031 112.242188 C 118.53125 114.449219 121.890625 112.476562 120.691406 110.269531 Z M 120.691406 110.269531 "></path><path style=" stroke:none;fill-rule:nonzero;fill:rgb(40.779114%,64.709473%,17.248535%);fill-opacity:1;" d="M 98.109375 88.070312 C 94.558594 82.183594 93.625 75.597656 95.417969 68.96875 C 96.066406 66.539062 92.308594 65.5 91.65625 67.933594 C 89.601562 75.539062 90.679688 83.292969 94.75 90.042969 C 96.039062 92.191406 99.410156 90.234375 98.109375 88.070312 Z M 98.109375 88.070312 "></path><path style=" stroke:none;fill-rule:nonzero;fill:rgb(40.779114%,64.709473%,17.248535%);fill-opacity:1;" d="M 115.394531 105.242188 C 107.019531 100.527344 98.152344 99.621094 89.199219 103.3125 C 86.90625 104.261719 87.914062 108.027344 90.234375 107.082031 C 98.242188 103.789062 105.863281 104.367188 113.425781 108.609375 C 115.617188 109.839844 117.585938 106.472656 115.394531 105.242188 Z M 115.394531 105.242188 "></path><path style=" stroke:none;fill-rule:nonzero;fill:rgb(40.779114%,64.709473%,17.248535%);fill-opacity:1;" d="M 93.507812 82.359375 C 86.816406 78.207031 79.078125 77.050781 71.472656 79.023438 C 69.042969 79.648438 70.078125 83.414062 72.507812 82.789062 C 79.152344 81.070312 85.722656 82.109375 91.539062 85.726562 C 93.683594 87.0625 95.636719 83.679688 93.507812 82.359375 Z M 93.507812 82.359375 "></path><path style=" stroke:none;fill-rule:nonzero;fill:rgb(58.428955%,75.689697%,15.289307%);fill-opacity:1;" d="M 209.058594 113.53125 C 184.285156 138.074219 144.371094 137.851562 144.371094 137.851562 C 144.371094 137.851562 144.609375 97.839844 169.382812 73.316406 C 194.15625 48.789062 228 42.839844 234.070312 48.996094 C 240.136719 55.132812 233.832031 88.988281 209.058594 113.53125 Z M 209.058594 113.53125 "></path><path style=" stroke:none;fill-rule:nonzero;fill:rgb(40.779114%,64.709473%,17.248535%);fill-opacity:1;" d="M 160.28125 124.816406 C 180.480469 104.796875 200.699219 84.777344 220.898438 64.757812 C 222.6875 62.992188 219.921875 60.21875 218.144531 62 C 197.945312 82.019531 177.730469 102.039062 157.527344 122.058594 C 155.738281 123.820312 158.488281 126.59375 160.28125 124.816406 Z M 160.28125 124.816406 "></path><path style=" stroke:none;fill-rule:nonzero;fill:rgb(40.779114%,64.709473%,17.248535%);fill-opacity:1;" d="M 172.34375 113.886719 C 179.699219 109.867188 187.304688 109.125 195.089844 112.433594 C 197.367188 113.398438 199.367188 110.046875 197.058594 109.066406 C 187.941406 105.195312 179.0625 105.761719 170.375 110.519531 C 168.183594 111.722656 170.136719 115.085938 172.34375 113.886719 Z M 172.34375 113.886719 "></path><path style=" stroke:none;fill-rule:nonzero;fill:rgb(40.779114%,64.709473%,17.248535%);fill-opacity:1;" d="M 194.496094 91.242188 C 200.371094 87.683594 206.941406 86.75 213.558594 88.542969 C 215.984375 89.195312 217.019531 85.429688 214.59375 84.777344 C 207 82.714844 199.261719 83.796875 192.527344 87.875 C 190.382812 89.179688 192.351562 92.546875 194.496094 91.242188 Z M 194.496094 91.242188 "></path><path style=" stroke:none;fill-rule:nonzero;fill:rgb(40.779114%,64.709473%,17.248535%);fill-opacity:1;" d="M 177.359375 108.578125 C 182.066406 100.183594 182.96875 91.300781 179.28125 82.332031 C 178.335938 80.03125 174.578125 81.039062 175.523438 83.367188 C 178.808594 91.390625 178.230469 99.027344 174 106.605469 C 172.769531 108.800781 176.128906 110.773438 177.359375 108.578125 Z M 177.359375 108.578125 "></path><path style=" stroke:none;fill-rule:nonzero;fill:rgb(40.779114%,64.709473%,17.248535%);fill-opacity:1;" d="M 200.195312 86.644531 C 204.339844 79.941406 205.492188 72.1875 203.523438 64.566406 C 202.902344 62.132812 199.144531 63.171875 199.765625 65.605469 C 201.480469 72.261719 200.445312 78.847656 196.835938 84.671875 C 195.519531 86.808594 198.878906 88.78125 200.195312 86.644531 Z M 200.195312 86.644531 "></path><path style=" stroke:none;fill-rule:nonzero;fill:rgb(69.799805%,79.998779%,9.01947%);fill-opacity:1;" d="M 144.609375 229.183594 C 139.429688 229.183594 135.226562 224.96875 135.226562 219.78125 L 135.226562 118.914062 C 135.226562 113.722656 139.429688 109.511719 144.609375 109.511719 C 149.789062 109.511719 153.992188 113.722656 153.992188 118.914062 L 153.992188 219.78125 C 153.976562 224.96875 149.789062 229.183594 144.609375 229.183594 Z M 144.609375 229.183594 "></path><path style=" stroke:none;fill-rule:nonzero;fill:rgb(69.799805%,79.998779%,9.01947%);fill-opacity:1;" d="M 172.832031 63.15625 C 172.636719 98.0625 144.253906 126.195312 144.253906 126.195312 C 144.253906 126.195312 116.195312 97.738281 116.386719 62.832031 C 116.578125 27.921875 136.335938 -0.25 144.964844 -0.207031 C 153.605469 -0.148438 173.023438 28.25 172.832031 63.15625 Z M 172.832031 63.15625 "></path><path style=" stroke:none;fill-rule:nonzero;fill:rgb(45.098877%,71.759033%,19.219971%);fill-opacity:1;" d="M 146.308594 105.699219 C 146.472656 77.230469 146.636719 48.757812 146.796875 20.285156 C 146.8125 17.78125 142.921875 17.765625 142.90625 20.285156 C 142.742188 48.757812 142.582031 77.230469 142.417969 105.699219 C 142.402344 108.222656 146.296875 108.222656 146.308594 105.699219 Z M 146.308594 105.699219 "></path><path style=" stroke:none;fill-rule:nonzero;fill:rgb(45.098877%,71.759033%,19.219971%);fill-opacity:1;" d="M 147.125 89.433594 C 149.359375 81.441406 154.421875 75.316406 162.21875 72.261719 C 164.527344 71.355469 163.523438 67.574219 161.183594 68.496094 C 152.082031 72.054688 146 78.980469 143.367188 88.394531 C 142.683594 90.828125 146.445312 91.867188 147.125 89.433594 Z M 147.125 89.433594 "></path><path style=" stroke:none;fill-rule:nonzero;fill:rgb(45.098877%,71.759033%,19.219971%);fill-opacity:1;" d="M 146.8125 57.746094 C 148.398438 51.101562 152.46875 45.644531 158.417969 42.292969 C 160.605469 41.0625 158.636719 37.679688 156.449219 38.925781 C 149.667969 42.753906 144.859375 49.128906 143.054688 56.722656 C 142.476562 59.152344 146.222656 60.191406 146.8125 57.746094 Z M 146.8125 57.746094 "></path><path style=" stroke:none;fill-rule:nonzero;fill:rgb(45.098877%,71.759033%,19.219971%);fill-opacity:1;" d="M 146.917969 82.09375 C 144.386719 72.648438 138.378906 65.675781 129.320312 62.015625 C 126.996094 61.082031 125.992188 64.847656 128.285156 65.78125 C 136.039062 68.925781 141.011719 75.125 143.15625 83.132812 C 143.808594 85.546875 147.566406 84.523438 146.917969 82.09375 Z M 146.917969 82.09375 "></path><path style=" stroke:none;fill-rule:nonzero;fill:rgb(45.098877%,71.759033%,19.219971%);fill-opacity:1;" d="M 147.597656 50.402344 C 145.882812 42.796875 141.128906 36.375 134.398438 32.476562 C 132.222656 31.214844 130.253906 34.582031 132.429688 35.84375 C 138.332031 39.265625 142.34375 44.769531 143.839844 51.441406 C 144.386719 53.890625 148.144531 52.851562 147.597656 50.402344 Z M 147.597656 50.402344 "></path><path style=" stroke:none;fill-rule:nonzero;fill:rgb(86.268616%,49.01886%,24.708557%);fill-opacity:1;" d="M 238.746094 185.347656 C 238.066406 185.304688 237.398438 185.304688 236.75 185.332031 C 233.167969 176.804688 225.058594 170.546875 215.214844 169.835938 C 212.816406 169.660156 210.480469 169.851562 208.230469 170.324219 C 205.09375 160.878906 196.539062 153.777344 186 153.003906 C 180.570312 152.621094 175.433594 153.984375 171.113281 156.59375 C 165.417969 151.65625 158.164062 148.410156 150.070312 147.832031 C 149.550781 147.785156 149.046875 147.816406 148.53125 147.800781 C 148.011719 147.742188 147.523438 147.652344 147.007812 147.609375 C 138.910156 147.03125 131.273438 149.179688 124.925781 153.257812 C 121.019531 150.039062 116.121094 147.949219 110.703125 147.5625 C 100.167969 146.808594 90.695312 152.605469 86.226562 161.503906 C 84.066406 160.714844 81.785156 160.199219 79.386719 160.019531 C 69.546875 159.308594 60.636719 164.335938 55.859375 172.269531 C 55.207031 172.136719 54.554688 172.03125 53.875 171.988281 C 44.996094 171.347656 37.269531 178.035156 36.632812 186.933594 C 35.996094 195.832031 42.671875 203.570312 51.550781 204.210938 C 54.289062 204.402344 56.910156 203.914062 59.246094 202.859375 C 63.433594 207.265625 69.191406 210.199219 75.734375 210.675781 C 78.78125 210.898438 81.726562 210.542969 84.496094 209.742188 C 88.402344 217.394531 96.050781 222.878906 105.226562 223.546875 C 110.1875 223.902344 114.890625 222.789062 118.960938 220.597656 C 123.757812 227.714844 131.628906 232.636719 140.835938 233.304688 C 150.675781 234.015625 159.71875 229.6875 165.476562 222.523438 C 169.515625 226.171875 174.710938 228.574219 180.554688 229.003906 C 189.730469 229.671875 198.09375 225.339844 203.050781 218.328125 C 205.683594 219.511719 208.539062 220.285156 211.589844 220.507812 C 218.128906 220.980469 224.242188 218.90625 229.023438 215.140625 C 231.183594 216.503906 233.714844 217.378906 236.4375 217.570312 C 245.316406 218.207031 253.042969 211.519531 253.679688 202.625 C 254.300781 193.726562 247.625 186 238.746094 185.347656 Z M 238.746094 185.347656 "></path><path style=" stroke:none;fill-rule:nonzero;fill:rgb(65.879822%,38.42926%,18.818665%);fill-opacity:1;" d="M 108.453125 187.007812 C 108.453125 187.535156 108.402344 188.058594 108.300781 188.578125 C 108.195312 189.09375 108.046875 189.597656 107.84375 190.082031 C 107.640625 190.570312 107.394531 191.035156 107.101562 191.472656 C 106.808594 191.914062 106.476562 192.316406 106.105469 192.691406 C 105.730469 193.066406 105.328125 193.398438 104.890625 193.691406 C 104.453125 193.984375 103.988281 194.230469 103.503906 194.433594 C 103.015625 194.636719 102.515625 194.789062 101.996094 194.890625 C 101.480469 194.992188 100.960938 195.046875 100.433594 195.046875 C 99.90625 195.046875 99.382812 194.992188 98.867188 194.890625 C 98.351562 194.789062 97.851562 194.636719 97.363281 194.433594 C 96.875 194.230469 96.414062 193.984375 95.976562 193.691406 C 95.539062 193.398438 95.132812 193.066406 94.761719 192.691406 C 94.390625 192.316406 94.054688 191.914062 93.761719 191.472656 C 93.472656 191.035156 93.222656 190.570312 93.023438 190.082031 C 92.820312 189.597656 92.667969 189.09375 92.566406 188.578125 C 92.464844 188.058594 92.410156 187.535156 92.410156 187.007812 C 92.410156 186.480469 92.464844 185.957031 92.566406 185.441406 C 92.667969 184.921875 92.820312 184.421875 93.023438 183.933594 C 93.222656 183.445312 93.472656 182.980469 93.761719 182.542969 C 94.054688 182.105469 94.390625 181.699219 94.761719 181.324219 C 95.132812 180.953125 95.539062 180.617188 95.976562 180.324219 C 96.414062 180.03125 96.875 179.785156 97.363281 179.582031 C 97.851562 179.378906 98.351562 179.226562 98.867188 179.125 C 99.382812 179.023438 99.90625 178.972656 100.433594 178.972656 C 100.960938 178.972656 101.480469 179.023438 101.996094 179.125 C 102.515625 179.226562 103.015625 179.378906 103.503906 179.582031 C 103.988281 179.785156 104.453125 180.03125 104.890625 180.324219 C 105.328125 180.617188 105.730469 180.953125 106.105469 181.324219 C 106.476562 181.699219 106.808594 182.105469 107.101562 182.542969 C 107.394531 182.980469 107.640625 183.445312 107.84375 183.933594 C 108.046875 184.421875 108.195312 184.921875 108.300781 185.441406 C 108.402344 185.957031 108.453125 186.480469 108.453125 187.007812 Z M 108.453125 187.007812 "></path><path style=" stroke:none;fill-rule:nonzero;fill:rgb(65.879822%,38.42926%,18.818665%);fill-opacity:1;" d="M 105.332031 166.960938 C 105.332031 167.257812 105.300781 167.554688 105.242188 167.851562 C 105.183594 168.144531 105.097656 168.429688 104.984375 168.707031 C 104.871094 168.984375 104.730469 169.246094 104.5625 169.496094 C 104.398438 169.746094 104.207031 169.976562 103.996094 170.1875 C 103.785156 170.402344 103.554688 170.589844 103.304688 170.757812 C 103.058594 170.921875 102.792969 171.0625 102.519531 171.179688 C 102.242188 171.292969 101.957031 171.378906 101.664062 171.4375 C 101.367188 171.496094 101.074219 171.527344 100.773438 171.527344 C 100.472656 171.527344 100.175781 171.496094 99.882812 171.4375 C 99.589844 171.378906 99.304688 171.292969 99.027344 171.179688 C 98.753906 171.0625 98.488281 170.921875 98.242188 170.757812 C 97.992188 170.589844 97.761719 170.402344 97.550781 170.1875 C 97.339844 169.976562 97.148438 169.746094 96.984375 169.496094 C 96.816406 169.246094 96.675781 168.984375 96.5625 168.707031 C 96.449219 168.429688 96.359375 168.144531 96.304688 167.851562 C 96.246094 167.554688 96.214844 167.257812 96.214844 166.960938 C 96.214844 166.660156 96.246094 166.363281 96.304688 166.070312 C 96.359375 165.773438 96.449219 165.488281 96.5625 165.210938 C 96.675781 164.933594 96.816406 164.671875 96.984375 164.421875 C 97.148438 164.171875 97.339844 163.941406 97.550781 163.730469 C 97.761719 163.519531 97.992188 163.328125 98.242188 163.160156 C 98.488281 162.996094 98.753906 162.855469 99.027344 162.738281 C 99.304688 162.625 99.589844 162.539062 99.882812 162.480469 C 100.175781 162.421875 100.472656 162.390625 100.773438 162.390625 C 101.074219 162.390625 101.367188 162.421875 101.664062 162.480469 C 101.957031 162.539062 102.242188 162.625 102.519531 162.738281 C 102.792969 162.855469 103.058594 162.996094 103.304688 163.160156 C 103.554688 163.328125 103.785156 163.519531 103.996094 163.730469 C 104.207031 163.941406 104.398438 164.171875 104.5625 164.421875 C 104.730469 164.671875 104.871094 164.933594 104.984375 165.210938 C 105.097656 165.488281 105.183594 165.773438 105.242188 166.070312 C 105.300781 166.363281 105.332031 166.660156 105.332031 166.960938 Z M 105.332031 166.960938 "></path><path style=" stroke:none;fill-rule:nonzero;fill:rgb(65.879822%,38.42926%,18.818665%);fill-opacity:1;" d="M 86.179688 180.277344 C 86.179688 180.574219 86.152344 180.871094 86.09375 181.167969 C 86.035156 181.460938 85.949219 181.746094 85.835938 182.023438 C 85.71875 182.300781 85.578125 182.5625 85.414062 182.8125 C 85.246094 183.0625 85.058594 183.292969 84.847656 183.503906 C 84.632812 183.71875 84.40625 183.90625 84.15625 184.074219 C 83.90625 184.238281 83.644531 184.378906 83.367188 184.496094 C 83.089844 184.609375 82.804688 184.695312 82.511719 184.753906 C 82.21875 184.8125 81.921875 184.84375 81.625 184.84375 C 81.324219 184.84375 81.027344 184.8125 80.734375 184.753906 C 80.441406 184.695312 80.15625 184.609375 79.878906 184.496094 C 79.601562 184.378906 79.339844 184.238281 79.089844 184.074219 C 78.84375 183.90625 78.613281 183.71875 78.398438 183.503906 C 78.1875 183.292969 78 183.0625 77.832031 182.8125 C 77.667969 182.5625 77.527344 182.300781 77.410156 182.023438 C 77.296875 181.746094 77.210938 181.460938 77.152344 181.167969 C 77.09375 180.871094 77.066406 180.574219 77.066406 180.277344 C 77.066406 179.976562 77.09375 179.679688 77.152344 179.386719 C 77.210938 179.089844 77.296875 178.804688 77.410156 178.527344 C 77.527344 178.25 77.667969 177.988281 77.832031 177.738281 C 78 177.488281 78.1875 177.257812 78.398438 177.046875 C 78.613281 176.835938 78.84375 176.644531 79.089844 176.476562 C 79.339844 176.3125 79.601562 176.171875 79.878906 176.054688 C 80.15625 175.941406 80.441406 175.855469 80.734375 175.796875 C 81.027344 175.738281 81.324219 175.707031 81.625 175.707031 C 81.921875 175.707031 82.21875 175.738281 82.511719 175.796875 C 82.804688 175.855469 83.089844 175.941406 83.367188 176.054688 C 83.644531 176.171875 83.90625 176.3125 84.15625 176.476562 C 84.40625 176.644531 84.632812 176.835938 84.847656 177.046875 C 85.058594 177.257812 85.246094 177.488281 85.414062 177.738281 C 85.578125 177.988281 85.71875 178.25 85.835938 178.527344 C 85.949219 178.804688 86.035156 179.089844 86.09375 179.386719 C 86.152344 179.679688 86.179688 179.976562 86.179688 180.277344 Z M 86.179688 180.277344 "></path><path style=" stroke:none;fill-rule:nonzero;fill:rgb(65.879822%,38.42926%,18.818665%);fill-opacity:1;" d="M 198.566406 193.753906 C 198.566406 194.28125 198.515625 194.804688 198.414062 195.324219 C 198.308594 195.839844 198.15625 196.34375 197.957031 196.832031 C 197.753906 197.320312 197.507812 197.78125 197.214844 198.21875 C 196.921875 198.660156 196.589844 199.066406 196.21875 199.4375 C 195.84375 199.8125 195.4375 200.144531 195 200.4375 C 194.5625 200.730469 194.101562 200.980469 193.613281 201.179688 C 193.128906 201.382812 192.625 201.535156 192.109375 201.636719 C 191.59375 201.742188 191.070312 201.792969 190.546875 201.792969 C 190.019531 201.792969 189.496094 201.742188 188.980469 201.636719 C 188.464844 201.535156 187.960938 201.382812 187.476562 201.179688 C 186.988281 200.980469 186.527344 200.730469 186.089844 200.4375 C 185.652344 200.144531 185.246094 199.8125 184.875 199.4375 C 184.5 199.066406 184.167969 198.660156 183.875 198.21875 C 183.582031 197.78125 183.335938 197.320312 183.132812 196.832031 C 182.933594 196.34375 182.78125 195.839844 182.679688 195.324219 C 182.574219 194.804688 182.523438 194.28125 182.523438 193.753906 C 182.523438 193.226562 182.574219 192.703125 182.679688 192.1875 C 182.78125 191.667969 182.933594 191.167969 183.132812 190.679688 C 183.335938 190.191406 183.582031 189.730469 183.875 189.289062 C 184.167969 188.851562 184.5 188.445312 184.875 188.070312 C 185.246094 187.699219 185.652344 187.367188 186.089844 187.074219 C 186.527344 186.78125 186.988281 186.53125 187.476562 186.328125 C 187.960938 186.128906 188.464844 185.976562 188.980469 185.871094 C 189.496094 185.769531 190.019531 185.71875 190.546875 185.71875 C 191.070312 185.71875 191.59375 185.769531 192.109375 185.871094 C 192.625 185.976562 193.128906 186.128906 193.613281 186.328125 C 194.101562 186.53125 194.5625 186.78125 195 187.074219 C 195.4375 187.367188 195.84375 187.699219 196.21875 188.070312 C 196.589844 188.445312 196.921875 188.851562 197.214844 189.289062 C 197.507812 189.730469 197.753906 190.191406 197.957031 190.679688 C 198.15625 191.167969 198.308594 191.667969 198.414062 192.1875 C 198.515625 192.703125 198.566406 193.226562 198.566406 193.753906 Z M 198.566406 193.753906 "></path><path style=" stroke:none;fill-rule:nonzero;fill:rgb(65.879822%,38.42926%,18.818665%);fill-opacity:1;" d="M 197.648438 173.882812 C 197.648438 174.183594 197.621094 174.480469 197.5625 174.777344 C 197.503906 175.070312 197.417969 175.355469 197.300781 175.632812 C 197.1875 175.910156 197.046875 176.171875 196.878906 176.421875 C 196.714844 176.671875 196.523438 176.902344 196.3125 177.113281 C 196.101562 177.328125 195.871094 177.515625 195.621094 177.683594 C 195.375 177.847656 195.113281 177.988281 194.835938 178.105469 C 194.558594 178.21875 194.273438 178.304688 193.980469 178.363281 C 193.6875 178.421875 193.390625 178.453125 193.089844 178.453125 C 192.792969 178.453125 192.496094 178.421875 192.203125 178.363281 C 191.90625 178.304688 191.621094 178.21875 191.347656 178.105469 C 191.070312 177.988281 190.808594 177.847656 190.558594 177.683594 C 190.308594 177.515625 190.078125 177.328125 189.867188 177.113281 C 189.65625 176.902344 189.46875 176.671875 189.300781 176.421875 C 189.132812 176.171875 188.992188 175.910156 188.878906 175.632812 C 188.765625 175.355469 188.679688 175.070312 188.621094 174.777344 C 188.5625 174.480469 188.53125 174.183594 188.53125 173.882812 C 188.53125 173.585938 188.5625 173.289062 188.621094 172.992188 C 188.679688 172.699219 188.765625 172.414062 188.878906 172.136719 C 188.992188 171.859375 189.132812 171.597656 189.300781 171.347656 C 189.46875 171.097656 189.65625 170.867188 189.867188 170.65625 C 190.078125 170.441406 190.308594 170.253906 190.558594 170.085938 C 190.808594 169.921875 191.070312 169.78125 191.347656 169.664062 C 191.621094 169.550781 191.90625 169.464844 192.203125 169.40625 C 192.496094 169.347656 192.792969 169.316406 193.089844 169.316406 C 193.390625 169.316406 193.6875 169.347656 193.980469 169.40625 C 194.273438 169.464844 194.558594 169.550781 194.835938 169.664062 C 195.113281 169.78125 195.375 169.921875 195.621094 170.085938 C 195.871094 170.253906 196.101562 170.441406 196.3125 170.65625 C 196.523438 170.867188 196.714844 171.097656 196.878906 171.347656 C 197.046875 171.597656 197.1875 171.859375 197.300781 172.136719 C 197.417969 172.414062 197.503906 172.699219 197.5625 172.992188 C 197.621094 173.289062 197.648438 173.585938 197.648438 173.882812 Z M 197.648438 173.882812 "></path><path style=" stroke:none;fill-rule:nonzero;fill:rgb(65.879822%,38.42926%,18.818665%);fill-opacity:1;" d="M 214.683594 189.796875 C 214.683594 190.097656 214.652344 190.394531 214.59375 190.6875 C 214.535156 190.980469 214.449219 191.265625 214.335938 191.542969 C 214.222656 191.820312 214.082031 192.085938 213.914062 192.332031 C 213.75 192.582031 213.558594 192.8125 213.347656 193.027344 C 213.136719 193.238281 212.90625 193.425781 212.65625 193.59375 C 212.40625 193.761719 212.144531 193.902344 211.867188 194.015625 C 211.59375 194.128906 211.308594 194.21875 211.011719 194.277344 C 210.71875 194.335938 210.421875 194.363281 210.125 194.363281 C 209.824219 194.363281 209.527344 194.335938 209.234375 194.277344 C 208.941406 194.21875 208.65625 194.128906 208.378906 194.015625 C 208.105469 193.902344 207.839844 193.761719 207.59375 193.59375 C 207.34375 193.425781 207.113281 193.238281 206.902344 193.027344 C 206.691406 192.8125 206.5 192.582031 206.335938 192.332031 C 206.167969 192.085938 206.027344 191.820312 205.914062 191.542969 C 205.796875 191.265625 205.710938 190.980469 205.652344 190.6875 C 205.59375 190.394531 205.566406 190.097656 205.566406 189.796875 C 205.566406 189.496094 205.59375 189.199219 205.652344 188.90625 C 205.710938 188.609375 205.796875 188.324219 205.914062 188.046875 C 206.027344 187.769531 206.167969 187.507812 206.335938 187.257812 C 206.5 187.007812 206.691406 186.777344 206.902344 186.566406 C 207.113281 186.355469 207.34375 186.164062 207.59375 186 C 207.839844 185.832031 208.105469 185.691406 208.378906 185.578125 C 208.65625 185.460938 208.941406 185.375 209.234375 185.316406 C 209.527344 185.257812 209.824219 185.230469 210.125 185.230469 C 210.421875 185.230469 210.71875 185.257812 211.015625 185.316406 C 211.308594 185.375 211.59375 185.460938 211.867188 185.578125 C 212.144531 185.691406 212.40625 185.832031 212.65625 186 C 212.90625 186.164062 213.136719 186.355469 213.347656 186.566406 C 213.558594 186.777344 213.75 187.007812 213.914062 187.257812 C 214.082031 187.507812 214.222656 187.769531 214.335938 188.046875 C 214.449219 188.324219 214.535156 188.609375 214.59375 188.90625 C 214.652344 189.199219 214.683594 189.496094 214.683594 189.796875 Z M 214.683594 189.796875 "></path><path style=" stroke:none;fill-rule:nonzero;fill:rgb(25.489807%,26.269531%,26.269531%);fill-opacity:1;" d="M 110.835938 328.550781 C 110.835938 330.09375 110.761719 331.632812 110.609375 333.167969 C 110.460938 334.707031 110.234375 336.230469 109.933594 337.746094 C 109.632812 339.257812 109.257812 340.753906 108.8125 342.230469 C 108.363281 343.707031 107.847656 345.160156 107.257812 346.585938 C 106.667969 348.011719 106.007812 349.40625 105.285156 350.765625 C 104.558594 352.128906 103.765625 353.449219 102.910156 354.734375 C 102.054688 356.015625 101.136719 357.253906 100.160156 358.449219 C 99.183594 359.640625 98.152344 360.78125 97.0625 361.875 C 95.972656 362.964844 94.832031 364 93.640625 364.980469 C 92.449219 365.957031 91.214844 366.878906 89.933594 367.734375 C 88.652344 368.59375 87.335938 369.386719 85.976562 370.113281 C 84.617188 370.839844 83.226562 371.5 81.804688 372.089844 C 80.378906 372.679688 78.929688 373.199219 77.457031 373.648438 C 75.984375 374.097656 74.492188 374.46875 72.980469 374.769531 C 71.46875 375.074219 69.949219 375.296875 68.414062 375.449219 C 66.882812 375.601562 65.34375 375.675781 63.804688 375.675781 C 62.265625 375.675781 60.726562 375.601562 59.195312 375.449219 C 57.664062 375.300781 56.140625 375.074219 54.628906 374.773438 C 53.117188 374.46875 51.625 374.097656 50.152344 373.648438 C 48.679688 373.199219 47.230469 372.679688 45.808594 372.089844 C 44.382812 371.5 42.992188 370.839844 41.632812 370.113281 C 40.277344 369.386719 38.957031 368.59375 37.675781 367.734375 C 36.394531 366.878906 35.160156 365.960938 33.96875 364.980469 C 32.777344 364 31.636719 362.964844 30.546875 361.875 C 29.460938 360.78125 28.425781 359.640625 27.449219 358.449219 C 26.472656 357.253906 25.554688 356.015625 24.699219 354.734375 C 23.84375 353.449219 23.054688 352.128906 22.328125 350.765625 C 21.601562 349.40625 20.941406 348.011719 20.351562 346.585938 C 19.765625 345.160156 19.246094 343.707031 18.796875 342.230469 C 18.351562 340.753906 17.976562 339.257812 17.675781 337.746094 C 17.375 336.230469 17.152344 334.707031 17 333.167969 C 16.847656 331.632812 16.773438 330.09375 16.773438 328.550781 C 16.773438 327.007812 16.847656 325.46875 17 323.929688 C 17.152344 322.394531 17.375 320.871094 17.675781 319.355469 C 17.976562 317.84375 18.351562 316.347656 18.796875 314.871094 C 19.246094 313.394531 19.765625 311.941406 20.351562 310.515625 C 20.941406 309.089844 21.601562 307.695312 22.328125 306.335938 C 23.054688 304.972656 23.84375 303.652344 24.699219 302.367188 C 25.554688 301.085938 26.472656 299.847656 27.449219 298.652344 C 28.425781 297.460938 29.460938 296.320312 30.546875 295.226562 C 31.636719 294.136719 32.777344 293.101562 33.96875 292.121094 C 35.160156 291.140625 36.394531 290.222656 37.675781 289.367188 C 38.957031 288.507812 40.277344 287.714844 41.632812 286.988281 C 42.992188 286.261719 44.382812 285.601562 45.808594 285.011719 C 47.230469 284.421875 48.679688 283.902344 50.152344 283.453125 C 51.625 283.003906 53.117188 282.632812 54.628906 282.328125 C 56.140625 282.027344 57.664062 281.800781 59.195312 281.652344 C 60.726562 281.5 62.265625 281.425781 63.804688 281.425781 C 65.34375 281.425781 66.882812 281.5 68.414062 281.652344 C 69.949219 281.800781 71.46875 282.027344 72.980469 282.328125 C 74.492188 282.632812 75.984375 283.003906 77.457031 283.453125 C 78.929688 283.902344 80.378906 284.421875 81.804688 285.011719 C 83.226562 285.601562 84.617188 286.261719 85.976562 286.988281 C 87.335938 287.714844 88.652344 288.507812 89.933594 289.367188 C 91.214844 290.222656 92.449219 291.140625 93.640625 292.121094 C 94.832031 293.101562 95.972656 294.136719 97.0625 295.226562 C 98.152344 296.320312 99.183594 297.460938 100.160156 298.652344 C 101.136719 299.847656 102.054688 301.085938 102.910156 302.367188 C 103.765625 303.652344 104.558594 304.972656 105.285156 306.335938 C 106.007812 307.695312 106.667969 309.089844 107.257812 310.515625 C 107.847656 311.941406 108.363281 313.394531 108.8125 314.871094 C 109.257812 316.347656 109.632812 317.84375 109.933594 319.355469 C 110.234375 320.871094 110.460938 322.394531 110.609375 323.929688 C 110.761719 325.46875 110.835938 327.007812 110.835938 328.550781 Z M 110.835938 328.550781 "></path><path style=" stroke:none;fill-rule:nonzero;fill:rgb(100%,85.099792%,11.369324%);fill-opacity:1;" d="M 85.988281 328.550781 C 85.988281 329.277344 85.953125 330.003906 85.882812 330.730469 C 85.8125 331.453125 85.703125 332.171875 85.5625 332.886719 C 85.421875 333.601562 85.246094 334.304688 85.035156 335.003906 C 84.824219 335.699219 84.578125 336.382812 84.300781 337.058594 C 84.023438 337.730469 83.710938 338.386719 83.371094 339.027344 C 83.027344 339.671875 82.652344 340.292969 82.25 340.898438 C 81.847656 341.503906 81.414062 342.089844 80.953125 342.652344 C 80.492188 343.214844 80.003906 343.753906 79.492188 344.269531 C 78.976562 344.785156 78.441406 345.273438 77.878906 345.734375 C 77.316406 346.195312 76.734375 346.628906 76.128906 347.03125 C 75.527344 347.4375 74.902344 347.8125 74.261719 348.15625 C 73.621094 348.496094 72.964844 348.808594 72.292969 349.085938 C 71.625 349.367188 70.941406 349.609375 70.246094 349.820312 C 69.550781 350.035156 68.84375 350.210938 68.132812 350.351562 C 67.421875 350.496094 66.703125 350.601562 65.980469 350.671875 C 65.257812 350.742188 64.53125 350.777344 63.804688 350.777344 C 63.078125 350.777344 62.355469 350.742188 61.628906 350.671875 C 60.90625 350.601562 60.191406 350.496094 59.476562 350.351562 C 58.765625 350.210938 58.0625 350.035156 57.367188 349.820312 C 56.671875 349.609375 55.988281 349.367188 55.316406 349.085938 C 54.644531 348.808594 53.988281 348.496094 53.347656 348.15625 C 52.707031 347.8125 52.085938 347.4375 51.480469 347.03125 C 50.875 346.628906 50.292969 346.195312 49.730469 345.734375 C 49.171875 345.273438 48.632812 344.785156 48.117188 344.269531 C 47.605469 343.753906 47.117188 343.214844 46.65625 342.652344 C 46.195312 342.089844 45.761719 341.503906 45.359375 340.898438 C 44.957031 340.292969 44.582031 339.671875 44.242188 339.027344 C 43.898438 338.386719 43.585938 337.730469 43.308594 337.058594 C 43.03125 336.382812 42.789062 335.699219 42.578125 335.003906 C 42.367188 334.304688 42.1875 333.601562 42.046875 332.886719 C 41.90625 332.171875 41.800781 331.453125 41.726562 330.730469 C 41.65625 330.003906 41.621094 329.277344 41.621094 328.550781 C 41.621094 327.824219 41.65625 327.097656 41.726562 326.371094 C 41.800781 325.648438 41.90625 324.929688 42.046875 324.214844 C 42.1875 323.5 42.367188 322.792969 42.578125 322.097656 C 42.789062 321.402344 43.03125 320.714844 43.308594 320.042969 C 43.585938 319.371094 43.898438 318.714844 44.242188 318.070312 C 44.582031 317.429688 44.957031 316.804688 45.359375 316.199219 C 45.761719 315.597656 46.195312 315.011719 46.65625 314.449219 C 47.117188 313.886719 47.605469 313.347656 48.117188 312.832031 C 48.632812 312.316406 49.171875 311.828125 49.730469 311.367188 C 50.292969 310.90625 50.875 310.472656 51.480469 310.066406 C 52.085938 309.664062 52.707031 309.289062 53.347656 308.945312 C 53.988281 308.605469 54.644531 308.292969 55.316406 308.015625 C 55.988281 307.734375 56.671875 307.492188 57.367188 307.277344 C 58.0625 307.066406 58.765625 306.890625 59.476562 306.75 C 60.191406 306.605469 60.90625 306.5 61.628906 306.429688 C 62.355469 306.359375 63.078125 306.320312 63.804688 306.320312 C 64.53125 306.320312 65.257812 306.359375 65.980469 306.429688 C 66.703125 306.5 67.421875 306.605469 68.132812 306.75 C 68.84375 306.890625 69.550781 307.066406 70.246094 307.277344 C 70.941406 307.492188 71.625 307.734375 72.292969 308.015625 C 72.964844 308.292969 73.621094 308.605469 74.261719 308.945312 C 74.902344 309.289062 75.527344 309.664062 76.128906 310.066406 C 76.734375 310.472656 77.316406 310.90625 77.878906 311.367188 C 78.441406 311.828125 78.976562 312.316406 79.492188 312.832031 C 80.003906 313.347656 80.492188 313.886719 80.953125 314.449219 C 81.414062 315.011719 81.847656 315.597656 82.25 316.199219 C 82.652344 316.804688 83.027344 317.429688 83.371094 318.070312 C 83.710938 318.714844 84.023438 319.371094 84.300781 320.042969 C 84.578125 320.714844 84.824219 321.402344 85.035156 322.097656 C 85.246094 322.792969 85.421875 323.5 85.5625 324.214844 C 85.703125 324.929688 85.8125 325.648438 85.882812 326.371094 C 85.953125 327.097656 85.988281 327.824219 85.988281 328.550781 Z M 85.988281 328.550781 "></path><path style=" stroke:none;fill-rule:nonzero;fill:rgb(98.039246%,71.759033%,14.509583%);fill-opacity:1;" d="M 61.464844 335.800781 C 61.082031 335.800781 60.683594 335.742188 60.28125 335.640625 C 57.898438 334.988281 56.496094 332.523438 57.144531 330.136719 L 82.464844 237.546875 C 83.117188 235.15625 85.574219 233.765625 87.957031 234.402344 C 90.339844 235.054688 91.746094 237.515625 91.09375 239.902344 L 65.773438 332.496094 C 65.242188 334.496094 63.433594 335.800781 61.464844 335.800781 Z M 61.464844 335.800781 "></path><path style=" stroke:none;fill-rule:nonzero;fill:rgb(100%,85.099792%,11.369324%);fill-opacity:1;" d="M 244.207031 309.125 L 123.625 309.125 C 120.058594 309.125 116.667969 307.625 114.253906 304.988281 L 24.261719 206.285156 C 23.59375 205.542969 22.972656 204.757812 22.53125 203.867188 C 19.113281 197.03125 23.683594 188.507812 31.675781 188.015625 C 55.472656 186.546875 98.125 185.140625 143.675781 189.558594 C 195.738281 194.617188 238.316406 205.988281 256.179688 211.3125 C 261.550781 212.914062 265.238281 217.867188 265.238281 223.488281 L 265.238281 288.050781 C 265.222656 299.695312 255.808594 309.125 244.207031 309.125 Z M 244.207031 309.125 "></path><path style=" stroke:none;fill-rule:nonzero;fill:rgb(98.039246%,71.759033%,14.509583%);fill-opacity:1;" d="M 145.808594 189.558594 C 100.253906 185.140625 57.425781 185.585938 33.644531 187.230469 C 16.609375 188.402344 14.449219 192.953125 15.679688 199.863281 C 17.46875 209.949219 31.660156 207.144531 33.820312 207.011719 C 57.617188 205.542969 100.269531 204.136719 145.820312 208.554688 C 199.039062 213.730469 246.960938 226.855469 266.214844 232.636719 C 271.125 234.105469 276.277344 231.214844 277.59375 226.246094 C 278.835938 221.515625 276.128906 216.652344 271.453125 215.226562 C 251.769531 209.265625 200.121094 194.839844 145.808594 189.558594 Z M 145.808594 189.558594 "></path><path style=" stroke:none;fill-rule:nonzero;fill:rgb(98.039246%,71.759033%,14.509583%);fill-opacity:1;" d="M 47.761719 340.429688 C 45.898438 340.429688 44.152344 339.242188 43.53125 337.375 C 42.746094 335.03125 44.003906 332.480469 46.34375 331.695312 L 109.742188 310.296875 C 118.398438 306.542969 127.574219 304.632812 137 304.632812 L 229.539062 304.632812 C 229.703125 304.632812 246.308594 304.453125 255.097656 294.828125 C 258.546875 291.046875 261.390625 287.371094 263.90625 284.125 C 266.273438 281.070312 268.328125 278.414062 270.492188 276.128906 L 318.441406 207.21875 C 319.003906 206.417969 319.800781 205.8125 320.734375 205.515625 L 358.058594 193.488281 C 360.410156 192.730469 362.925781 194.023438 363.679688 196.378906 C 364.433594 198.738281 363.148438 201.257812 360.792969 202.015625 L 324.90625 213.582031 L 277.625 281.542969 C 277.488281 281.734375 277.34375 281.914062 277.179688 282.089844 C 275.253906 284.09375 273.273438 286.660156 270.980469 289.625 C 268.359375 293.003906 265.398438 296.832031 261.714844 300.878906 C 250.246094 313.453125 230.398438 313.601562 229.554688 313.601562 L 137.015625 313.601562 C 128.757812 313.601562 120.722656 315.277344 113.144531 318.585938 C 113.027344 318.628906 112.910156 318.6875 112.789062 318.71875 L 49.214844 340.175781 C 48.710938 340.355469 48.234375 340.429688 47.761719 340.429688 Z M 47.761719 340.429688 "></path><path style=" stroke:none;fill-rule:nonzero;fill:rgb(25.489807%,26.269531%,26.269531%);fill-opacity:1;" d="M 363.695312 196.394531 C 362.941406 194.039062 360.425781 192.746094 358.070312 193.503906 L 321.652344 205.234375 C 322.449219 208.15625 323.53125 210.988281 324.816406 213.730469 L 324.921875 213.582031 L 360.808594 202.015625 C 363.148438 201.273438 364.449219 198.753906 363.695312 196.394531 Z M 363.695312 196.394531 "></path><path style=" stroke:none;fill-rule:nonzero;fill:rgb(98.039246%,71.759033%,14.509583%);fill-opacity:1;" d="M 240.34375 357.792969 C 236.71875 357.792969 233.0625 357.109375 229.585938 355.746094 L 126.347656 315.011719 C 124.050781 314.105469 122.914062 311.496094 123.832031 309.199219 C 124.734375 306.898438 127.335938 305.757812 129.632812 306.679688 L 232.871094 347.414062 C 239.265625 349.933594 246.175781 349.164062 251.84375 345.292969 C 257.511719 341.421875 260.765625 335.253906 260.765625 328.371094 L 260.765625 294.976562 C 260.765625 292.5 262.765625 290.5 265.238281 290.5 C 267.707031 290.5 269.707031 292.5 269.707031 294.976562 L 269.707031 328.371094 C 269.707031 338.117188 264.910156 347.207031 256.875 352.691406 C 251.917969 356.074219 246.144531 357.792969 240.34375 357.792969 Z M 240.34375 357.792969 "></path></g></svg>