<svg xmlns="http://www.w3.org/2000/svg" width="500.000000pt" height="500.000000pt" viewBox="0 0 500.000000 500.000000" preserveAspectRatio="xMidYMid meet"><g transform="translate(0.000000,500.000000) scale(0.100000,-0.100000)" fill="#000000" stroke="none"><path d="M2463 4990 c-35 -14 -43 -42 -43 -148 l0 -100 -43 -26 c-166 -97 -167 -326 -3 -430 l46 -29 0 -427 0 -428 -29 -12 c-37 -15 -97 -74 -113 -111 l-13 -29 -217 0 -218 0 0 308 c0 294 -1 309 -20 330 -11 11 -35 24 -52 27 -18 3 -410 4 -871 3 l-839 -3 -24 -28 -24 -28 0 -695 0 -695 25 -24 24 -25 870 0 870 0 20 26 c20 26 21 38 21 330 l0 304 218 0 c218 0 219 0 229 -23 18 -40 64 -87 104 -108 l39 -19 0 -429 0 -430 -42 -23 c-83 -46 -136 -146 -125 -240 10 -83 71 -171 138 -198 l29 -12 0 -429 0 -428 -45 -26 c-44 -26 -105 -97 -105 -122 0 -10 -46 -13 -220 -13 l-220 0 0 475 0 476 -25 24 -24 25 -866 0 -866 0 -24 -25 -25 -24 0 -695 0 -695 24 -28 24 -28 865 0 865 0 26 24 c26 24 26 27 26 168 l0 143 218 0 217 0 24 -45 c16 -30 42 -57 77 -80 l54 -36 0 -105 c0 -98 2 -107 25 -129 32 -33 78 -33 110 0 23 22 25 31 25 129 l0 104 49 31 c56 36 96 91 113 156 25 95 -28 219 -117 271 l-45 26 0 428 0 429 21 6 c32 10 105 81 119 115 l12 30 219 0 219 0 0 -308 c0 -294 1 -309 20 -330 11 -11 35 -24 52 -27 18 -3 410 -4 871 -3 l839 3 24 28 24 28 0 685 c0 725 0 730 -45 748 -9 3 -403 6 -874 6 -853 0 -858 0 -885 -21 l-26 -20 0 -310 0 -309 -217 0 -218 1 -27 45 c-17 27 -47 57 -78 76 l-50 31 0 428 0 427 45 26 c113 66 155 208 96 323 -24 48 -73 97 -112 113 l-29 12 0 429 0 429 39 25 c49 30 87 70 102 107 l11 28 219 0 219 0 0 -478 0 -479 23 -21 23 -22 868 0 867 0 24 25 25 24 0 695 0 695 -24 28 -24 28 -839 3 c-461 1 -853 0 -871 -3 -66 -12 -72 -28 -72 -190 l0 -145 -220 0 c-143 0 -220 4 -220 10 0 25 -56 92 -101 121 l-49 31 0 103 c0 83 -3 107 -17 124 -21 24 -68 35 -100 21z m2367 -825 l0 -585 -745 0 -745 0 0 585 0 585 745 0 745 0 0 -585z m-3170 -1000 l0 -585 -745 0 -745 0 0 585 0 585 745 0 745 0 0 -585z m3170 -1330 l0 -585 -745 0 -745 0 0 585 0 585 745 0 745 0 0 -585z m-3170 -1000 l0 -585 -745 0 -745 0 0 585 0 585 745 0 745 0 0 -585z"></path></g></svg>