<svg xmlns="http://www.w3.org/2000/svg" xmlns:xlink="http://www.w3.org/1999/xlink" width="375pt" height="374.999991pt" viewBox="0 0 375 374.999991"><defs><clipPath id="clip1"><path d="M 0 103 L 375 103 L 375 306.433594 L 0 306.433594 Z M 0 103 "></path></clipPath><clipPath id="clip2"><path d="M 85 201 L 315 201 L 315 306.433594 L 85 306.433594 Z M 85 201 "></path></clipPath><clipPath id="clip3"><path d="M 186 236 L 197 236 L 197 306.433594 L 186 306.433594 Z M 186 236 "></path></clipPath><clipPath id="clip4"><path d="M 5 68.183594 L 95 68.183594 L 95 104 L 5 104 Z M 5 68.183594 "></path></clipPath><clipPath id="clip5"><path d="M 51 68.183594 L 61 68.183594 L 61 88 L 51 88 Z M 51 68.183594 "></path></clipPath></defs><g id="surface1"><rect x="0" y="0" width="375" height="374.999991" style="fill:rgb(100%,100%,100%);fill-opacity:1;stroke:none;"></rect><rect x="0" y="0" width="375" height="374.999991" style="fill:rgb(100%,100%,100%);fill-opacity:1;stroke:none;"></rect><g clip-path="url(#clip1)" clip-rule="nonzero"><path style=" stroke:none;fill-rule:nonzero;fill:rgb(94.119263%,95.289612%,50.19989%);fill-opacity:1;" d="M 374.957031 306.417969 L -0.0390625 306.417969 L -0.0390625 103.796875 L 374.957031 103.796875 L 374.957031 306.417969 "></path></g><path style=" stroke:none;fill-rule:nonzero;fill:rgb(89.019775%,29.798889%,19.219971%);fill-opacity:1;" d="M 137.894531 233.398438 L 131.894531 172.539062 L 27.964844 172.539062 C 27.964844 172.539062 31.183594 209.9375 8.890625 227.953125 C 6.636719 229.78125 7.867188 233.398438 10.769531 233.398438 L 137.894531 233.398438 "></path><path style=" stroke:none;fill-rule:nonzero;fill:rgb(52.549744%,76.078796%,20.779419%);fill-opacity:1;" d="M 275.867188 228.082031 C 275.867188 228.082031 333.144531 254.234375 347.613281 190.566406 C 347.613281 190.566406 289.417969 173.535156 275.867188 228.082031 "></path><path style=" stroke:none;fill-rule:nonzero;fill:rgb(87.059021%,87.449646%,41.178894%);fill-opacity:1;" d="M -0.0390625 137.898438 L 374.957031 137.898438 L 374.957031 103.796875 L -0.0390625 103.796875 L -0.0390625 137.898438 "></path><g clip-path="url(#clip2)" clip-rule="nonzero"><path style=" stroke:none;fill-rule:nonzero;fill:rgb(95.689392%,44.709778%,31.759644%);fill-opacity:1;" d="M 312.945312 201.972656 C 284 211.402344 265.417969 231.148438 257.265625 241.492188 C 256.449219 228.589844 258.195312 219.011719 258.195312 219.011719 L 121.253906 219.011719 C 122.519531 272.855469 101.097656 293.734375 86.585938 301.6875 C 84.289062 302.945312 85.167969 306.417969 87.789062 306.417969 L 293.324219 306.417969 C 296.027344 306.417969 296.84375 302.726562 294.382812 301.617188 C 287.898438 298.683594 282.511719 295.007812 278.042969 290.84375 C 265.847656 279.480469 263.4375 260.878906 272.082031 246.628906 C 285.179688 225.035156 304.160156 210.402344 313.871094 203.84375 C 314.878906 203.164062 314.101562 201.597656 312.945312 201.972656 "></path></g><path style=" stroke:none;fill-rule:nonzero;fill:rgb(82.749939%,25.099182%,14.509583%);fill-opacity:1;" d="M 227.128906 267.402344 C 229.722656 267.402344 231.824219 265.304688 231.824219 262.714844 L 231.824219 219.011719 L 222.433594 219.011719 L 222.433594 262.714844 C 222.433594 265.304688 224.535156 267.402344 227.128906 267.402344 "></path><g clip-path="url(#clip3)" clip-rule="nonzero"><path style=" stroke:none;fill-rule:nonzero;fill:rgb(82.749939%,25.099182%,14.509583%);fill-opacity:1;" d="M 196.003906 240.863281 C 196.003906 238.277344 193.902344 236.175781 191.308594 236.175781 C 188.714844 236.175781 186.617188 238.277344 186.617188 240.863281 L 186.617188 306.417969 L 196.003906 306.417969 L 196.003906 240.863281 "></path></g><path style=" stroke:none;fill-rule:nonzero;fill:rgb(82.749939%,25.099182%,14.509583%);fill-opacity:1;" d="M 142.175781 290.148438 C 140.9375 290.148438 139.703125 289.664062 138.78125 288.699219 C 136.988281 286.824219 137.058594 283.859375 138.933594 282.074219 C 152.597656 269.054688 152.695312 241.15625 152.695312 240.871094 C 152.691406 238.28125 154.789062 236.179688 157.382812 236.175781 C 157.386719 236.175781 157.390625 236.175781 157.394531 236.175781 C 159.980469 236.175781 162.082031 238.269531 162.085938 240.851562 C 162.089844 242.160156 161.964844 273.089844 145.417969 288.855469 C 144.507812 289.722656 143.34375 290.148438 142.175781 290.148438 "></path><path style=" stroke:none;fill-rule:nonzero;fill:rgb(69.40918%,21.179199%,12.939453%);fill-opacity:1;" d="M 49.171875 172.539062 L 49.171875 194.296875 C 49.171875 196.882812 51.273438 198.984375 53.867188 198.984375 C 56.460938 198.984375 58.5625 196.882812 58.5625 194.296875 L 58.5625 172.539062 L 49.171875 172.539062 "></path><path style=" stroke:none;fill-rule:nonzero;fill:rgb(69.40918%,21.179199%,12.939453%);fill-opacity:1;" d="M 84.191406 189.609375 C 81.597656 189.609375 79.496094 191.710938 79.496094 194.296875 L 79.496094 233.398438 L 88.886719 233.398438 L 88.886719 194.296875 C 88.886719 191.710938 86.785156 189.609375 84.191406 189.609375 "></path><path style=" stroke:none;fill-rule:nonzero;fill:rgb(89.019775%,29.798889%,19.219971%);fill-opacity:1;" d="M 257.660156 80.777344 L 335.011719 80.777344 C 335.011719 80.777344 333.382812 118.257812 359.113281 134.507812 C 360.664062 135.488281 359.933594 137.898438 358.097656 137.898438 L 229.433594 137.898438 C 227.597656 137.898438 226.875 135.527344 228.402344 134.515625 C 238.339844 127.945312 257.460938 111.339844 257.660156 80.777344 "></path><g clip-path="url(#clip4)" clip-rule="nonzero"><path style=" stroke:none;fill-rule:nonzero;fill:rgb(89.019775%,29.798889%,19.219971%);fill-opacity:1;" d="M 23.859375 68.164062 L 73.707031 68.164062 C 73.707031 68.164062 74 88.613281 93.269531 99.890625 C 95.117188 100.976562 94.359375 103.796875 92.21875 103.796875 L 7.179688 103.796875 C 5.167969 103.796875 4.296875 101.242188 5.90625 100.039062 C 12.566406 95.039062 22.605469 84.839844 23.859375 68.164062 "></path></g><g clip-path="url(#clip5)" clip-rule="nonzero"><path style=" stroke:none;fill-rule:nonzero;fill:rgb(69.40918%,21.179199%,12.939453%);fill-opacity:1;" d="M 55.761719 87.355469 C 58.355469 87.355469 60.457031 85.257812 60.457031 82.667969 L 60.457031 68.164062 L 51.066406 68.164062 L 51.066406 82.667969 C 51.066406 85.257812 53.167969 87.355469 55.761719 87.355469 "></path></g><path style=" stroke:none;fill-rule:nonzero;fill:rgb(69.40918%,21.179199%,12.939453%);fill-opacity:1;" d="M 40.199219 103.796875 L 40.199219 87.253906 C 40.199219 84.664062 38.097656 82.566406 35.503906 82.566406 C 32.910156 82.566406 30.808594 84.664062 30.808594 87.253906 L 30.808594 103.796875 L 40.199219 103.796875 "></path><path style=" stroke:none;fill-rule:nonzero;fill:rgb(69.40918%,21.179199%,12.939453%);fill-opacity:1;" d="M 311.742188 111.320312 C 314.335938 111.320312 316.4375 109.222656 316.4375 106.632812 L 316.4375 80.773438 L 307.050781 80.773438 L 307.050781 106.632812 C 307.050781 109.222656 309.148438 111.320312 311.742188 111.320312 "></path><path style=" stroke:none;fill-rule:nonzero;fill:rgb(69.40918%,21.179199%,12.939453%);fill-opacity:1;" d="M 276.21875 137.898438 C 284.289062 125.429688 284.425781 108.863281 284.425781 107.894531 C 284.425781 105.308594 282.324219 103.210938 279.730469 103.210938 C 277.140625 103.210938 275.035156 105.308594 275.035156 107.894531 C 275.035156 108.128906 274.882812 128.777344 263.902344 137.898438 L 276.21875 137.898438 "></path></g></svg>