<svg xmlns="http://www.w3.org/2000/svg" xmlns:xlink="http://www.w3.org/1999/xlink" width="375pt" height="374.999991pt" viewBox="0 0 375 374.999991"><g id="surface1"><rect x="0" y="0" width="375" height="374.999991" style="fill:rgb(100%,100%,100%);fill-opacity:1;stroke:none;"></rect><rect x="0" y="0" width="375" height="374.999991" style="fill:rgb(100%,100%,100%);fill-opacity:1;stroke:none;"></rect><path style=" stroke:none;fill-rule:nonzero;fill:rgb(93.728638%,36.468506%,29.40979%);fill-opacity:1;" d="M 200 37.5 C 200 44.410156 194.410156 50 187.5 50 C 180.589844 50 175 44.410156 175 37.5 C 175 30.589844 180.589844 25 187.5 25 C 194.410156 25 200 30.589844 200 37.5 "></path><path style=" stroke:none;fill-rule:nonzero;fill:rgb(93.728638%,36.468506%,29.40979%);fill-opacity:1;" d="M 200 237.5 C 200 244.410156 194.410156 250 187.5 250 C 180.589844 250 175 244.410156 175 237.5 C 175 230.589844 180.589844 225 187.5 225 C 194.410156 225 200 230.589844 200 237.5 "></path><path style=" stroke:none;fill-rule:nonzero;fill:rgb(93.728638%,36.468506%,29.40979%);fill-opacity:1;" d="M 175 137.5 C 175 144.410156 180.589844 150 187.5 150 C 194.410156 150 200 144.410156 200 137.5 C 200 130.589844 194.410156 125 187.5 125 C 180.589844 125 175 130.589844 175 137.5 "></path><path style=" stroke:none;fill-rule:nonzero;fill:rgb(93.728638%,36.468506%,29.40979%);fill-opacity:1;" d="M 175 337.5 C 175 344.410156 180.589844 350 187.5 350 C 194.410156 350 200 344.410156 200 337.5 C 200 330.589844 194.410156 325 187.5 325 C 180.589844 325 175 330.589844 175 337.5 "></path><path style=" stroke:none;fill-rule:nonzero;fill:rgb(52.549744%,71.369934%,50.588989%);fill-opacity:1;" d="M 368.75 112.5 L 243.75 112.5 L 243.75 12.5 L 368.75 12.5 L 368.75 112.5 "></path><path style=" stroke:none;fill-rule:nonzero;fill:rgb(52.549744%,71.369934%,50.588989%);fill-opacity:1;" d="M 368.75 287.5 L 243.75 287.5 L 243.75 187.5 L 368.75 187.5 L 368.75 287.5 "></path><path style=" stroke:none;fill-rule:nonzero;fill:rgb(52.549744%,71.369934%,50.588989%);fill-opacity:1;" d="M 6.25 187.5 L 131.25 187.5 L 131.25 87.5 L 6.25 87.5 L 6.25 187.5 "></path><path style=" stroke:none;fill-rule:nonzero;fill:rgb(52.549744%,71.369934%,50.588989%);fill-opacity:1;" d="M 6.25 362.5 L 131.25 362.5 L 131.25 262.5 L 6.25 262.5 L 6.25 362.5 "></path><path style=" stroke:none;fill-rule:nonzero;fill:rgb(6.269836%,5.879211%,5.099487%);fill-opacity:1;" d="M 362.5 106.25 L 250 106.25 L 250 18.75 L 362.5 18.75 Z M 187.5 43.75 C 184.058594 43.75 181.25 40.941406 181.25 37.5 C 181.25 34.058594 184.058594 31.25 187.5 31.25 C 190.941406 31.25 193.75 34.058594 193.75 37.5 C 193.75 40.941406 190.941406 43.75 187.5 43.75 Z M 187.5 143.75 C 184.058594 143.75 181.25 140.941406 181.25 137.5 C 181.25 134.058594 184.058594 131.25 187.5 131.25 C 190.941406 131.25 193.75 134.058594 193.75 137.5 C 193.75 140.941406 190.941406 143.75 187.5 143.75 Z M 187.5 243.75 C 184.058594 243.75 181.25 240.941406 181.25 237.5 C 181.25 234.058594 184.058594 231.25 187.5 231.25 C 190.941406 231.25 193.75 234.058594 193.75 237.5 C 193.75 240.941406 190.941406 243.75 187.5 243.75 Z M 187.5 343.75 C 184.058594 343.75 181.25 340.941406 181.25 337.5 C 181.25 334.058594 184.058594 331.25 187.5 331.25 C 190.941406 331.25 193.75 334.058594 193.75 337.5 C 193.75 340.941406 190.941406 343.75 187.5 343.75 Z M 250 193.75 L 362.5 193.75 L 362.5 281.25 L 250 281.25 Z M 125 356.25 L 12.5 356.25 L 12.5 268.75 L 125 268.75 Z M 125 181.25 L 12.5 181.25 L 12.5 93.75 L 125 93.75 Z M 368.75 6.25 L 243.75 6.25 C 240.308594 6.25 237.5 9.058594 237.5 12.5 L 237.5 31.25 L 205.101562 31.25 C 203.222656 25.953125 199.046875 21.777344 193.75 19.898438 L 193.75 6.25 C 193.75 2.808594 190.941406 0 187.5 0 C 184.058594 0 181.25 2.808594 181.25 6.25 L 181.25 19.898438 C 174 22.484375 168.75 29.371094 168.75 37.5 C 168.75 45.628906 174 52.515625 181.25 55.101562 L 181.25 119.898438 C 175.953125 121.777344 171.777344 125.953125 169.898438 131.25 L 137.5 131.25 L 137.5 87.5 C 137.5 84.058594 134.691406 81.25 131.25 81.25 L 6.25 81.25 C 2.808594 81.25 0 84.058594 0 87.5 L 0 187.5 C 0 190.941406 2.808594 193.75 6.25 193.75 L 131.25 193.75 C 134.691406 193.75 137.5 190.941406 137.5 187.5 L 137.5 143.75 L 169.898438 143.75 C 171.777344 149.046875 175.953125 153.222656 181.25 155.101562 L 181.25 219.898438 C 174 222.484375 168.75 229.371094 168.75 237.5 C 168.75 245.628906 174 252.515625 181.25 255.101562 L 181.25 319.898438 C 175.953125 321.777344 171.777344 325.953125 169.898438 331.25 L 137.5 331.25 L 137.5 262.5 C 137.5 259.058594 134.691406 256.25 131.25 256.25 L 6.25 256.25 C 2.808594 256.25 0 259.058594 0 262.5 L 0 362.5 C 0 365.941406 2.808594 368.75 6.25 368.75 L 131.25 368.75 C 134.691406 368.75 137.5 365.941406 137.5 362.5 L 137.5 343.75 L 169.898438 343.75 C 171.777344 349.046875 175.953125 353.199219 181.25 355.101562 L 181.25 368.75 C 181.25 372.191406 184.058594 375 187.5 375 C 190.941406 375 193.75 372.191406 193.75 368.75 L 193.75 355.101562 C 201 352.515625 206.25 345.628906 206.25 337.5 C 206.25 329.371094 201 322.484375 193.75 319.898438 L 193.75 255.101562 C 199.046875 253.222656 203.222656 249.046875 205.101562 243.75 L 237.5 243.75 L 237.5 287.5 C 237.5 290.941406 240.308594 293.75 243.75 293.75 L 368.75 293.75 C 372.191406 293.75 375 290.941406 375 287.5 L 375 187.5 C 375 184.058594 372.191406 181.25 368.75 181.25 L 243.75 181.25 C 240.308594 181.25 237.5 184.058594 237.5 187.5 L 237.5 231.25 L 205.101562 231.25 C 203.222656 225.953125 199.046875 221.777344 193.75 219.898438 L 193.75 155.101562 C 201 152.515625 206.25 145.628906 206.25 137.5 C 206.25 129.371094 201 122.484375 193.75 119.898438 L 193.75 55.101562 C 199.046875 53.222656 203.222656 49.046875 205.101562 43.75 L 237.5 43.75 L 237.5 112.5 C 237.5 115.941406 240.308594 118.75 243.75 118.75 L 368.75 118.75 C 372.191406 118.75 375 115.941406 375 112.5 L 375 12.5 C 375 9.058594 372.191406 6.25 368.75 6.25 "></path></g></svg>