<svg xmlns="http://www.w3.org/2000/svg" xmlns:xlink="http://www.w3.org/1999/xlink" width="375pt" height="374.999991pt" viewBox="0 0 375 374.999991"><defs><clipPath id="clip1"><path d="M 69.886719 66 L 305.292969 66 L 305.292969 163 L 69.886719 163 Z M 69.886719 66 "></path></clipPath></defs><g id="surface1"><path style=" stroke:none;fill-rule:nonzero;fill:rgb(96.078491%,68.238831%,51.759338%);fill-opacity:1;" d="M 94.929688 373.808594 C 107.949219 321.792969 128.964844 276.835938 129.25 276.230469 L 110.117188 267.222656 C 108.882812 269.851562 86.339844 318.050781 73.125 373.808594 L 94.929688 373.808594 "></path><path style=" stroke:none;fill-rule:nonzero;fill:rgb(1.568604%,2.349854%,2.349854%);fill-opacity:1;" d="M 94.929688 373.808594 L 95.9375 374.0625 C 108.925781 322.160156 129.925781 277.234375 130.195312 276.679688 C 130.3125 276.425781 130.328125 276.144531 130.234375 275.882812 C 130.140625 275.617188 129.949219 275.40625 129.699219 275.289062 L 110.5625 266.28125 C 110.308594 266.164062 110.023438 266.152344 109.765625 266.246094 C 109.503906 266.339844 109.292969 266.527344 109.175781 266.78125 C 107.925781 269.445312 85.355469 317.6875 72.109375 373.570312 C 72.035156 373.882812 72.105469 374.203125 72.304688 374.453125 C 72.503906 374.703125 72.800781 374.847656 73.125 374.847656 L 94.929688 374.847656 C 95.40625 374.847656 95.820312 374.523438 95.9375 374.0625 L 94.929688 373.808594 L 94.929688 372.769531 L 73.125 372.769531 L 73.125 373.808594 L 74.136719 374.046875 C 87.316406 318.414062 109.835938 270.257812 111.0625 267.664062 L 110.117188 267.222656 L 109.675781 268.160156 L 128.808594 277.175781 L 129.25 276.230469 L 128.3125 275.785156 C 128.007812 276.4375 106.972656 321.421875 93.917969 373.558594 L 94.929688 373.808594 L 94.929688 372.769531 L 94.929688 373.808594 "></path><path style=" stroke:none;fill-rule:nonzero;fill:rgb(96.078491%,68.238831%,51.759338%);fill-opacity:1;" d="M 300.070312 373.808594 C 286.835938 318.351562 264.472656 270.550781 263.242188 267.933594 L 244.117188 276.949219 C 244.398438 277.546875 265.226562 322.0625 278.257812 373.808594 L 300.070312 373.808594 "></path><path style=" stroke:none;fill-rule:nonzero;fill:rgb(1.568604%,2.349854%,2.349854%);fill-opacity:1;" d="M 300.070312 373.808594 L 301.082031 373.566406 C 287.8125 317.988281 265.429688 270.144531 264.179688 267.492188 C 264.0625 267.238281 263.855469 267.050781 263.589844 266.957031 C 263.332031 266.863281 263.046875 266.875 262.792969 266.992188 L 243.667969 276.007812 C 243.148438 276.253906 242.929688 276.871094 243.171875 277.390625 C 243.4375 277.953125 264.246094 322.429688 277.25 374.0625 C 277.363281 374.523438 277.777344 374.847656 278.257812 374.847656 L 300.070312 374.847656 C 300.386719 374.847656 300.6875 374.703125 300.886719 374.453125 C 301.082031 374.203125 301.15625 373.878906 301.082031 373.566406 L 300.070312 373.808594 L 300.070312 372.769531 L 278.257812 372.769531 L 278.257812 373.808594 L 279.265625 373.554688 C 266.199219 321.695312 245.351562 277.140625 245.054688 276.507812 L 244.117188 276.949219 L 244.558594 277.890625 L 263.683594 268.871094 L 263.242188 267.933594 L 262.296875 268.378906 C 263.515625 270.957031 285.851562 318.714844 299.058594 374.046875 L 300.070312 373.808594 L 300.070312 372.769531 L 300.070312 373.808594 "></path><path style=" stroke:none;fill-rule:nonzero;fill:rgb(79.60968%,87.838745%,76.078796%);fill-opacity:1;" d="M 239.449219 373.808594 C 251.828125 311.90625 243.394531 237.808594 243.394531 237.808594 C 187.304688 230.761719 128.898438 237.808594 128.898438 237.808594 C 123.347656 299.8125 127.28125 344.332031 132.832031 373.808594 L 239.449219 373.808594 "></path><path style=" stroke:none;fill-rule:nonzero;fill:rgb(1.568604%,2.349854%,2.349854%);fill-opacity:1;" d="M 239.449219 373.808594 L 240.46875 374.011719 C 245.730469 347.714844 247.238281 319.273438 247.242188 295.203125 C 247.238281 262.402344 244.429688 237.714844 244.425781 237.691406 C 244.371094 237.210938 244 236.839844 243.523438 236.777344 C 224.765625 234.421875 205.777344 233.636719 188.78125 233.636719 C 154.792969 233.636719 128.800781 236.773438 128.769531 236.777344 C 128.285156 236.835938 127.902344 237.226562 127.859375 237.714844 C 125.964844 258.871094 125.175781 278.003906 125.175781 295.199219 C 125.175781 328.46875 128.136719 354.503906 131.8125 374 C 131.90625 374.492188 132.335938 374.847656 132.832031 374.847656 L 239.449219 374.847656 C 239.945312 374.847656 240.371094 374.5 240.46875 374.011719 L 239.449219 373.808594 L 239.449219 372.769531 L 132.832031 372.769531 L 132.832031 373.808594 L 133.855469 373.617188 C 130.207031 354.25 127.253906 328.347656 127.253906 295.199219 C 127.253906 278.066406 128.042969 259 129.933594 237.902344 L 128.898438 237.808594 L 129.019531 238.839844 C 129.023438 238.839844 129.417969 238.792969 130.191406 238.707031 C 135.601562 238.109375 159.152344 235.71875 188.78125 235.71875 C 205.710938 235.71875 224.625 236.496094 243.261719 238.839844 L 243.394531 237.808594 L 242.359375 237.925781 C 242.359375 237.925781 242.402344 238.304688 242.476562 239.039062 C 243.015625 244.183594 245.160156 266.605469 245.160156 295.203125 C 245.160156 319.183594 243.648438 347.511719 238.429688 373.605469 L 239.449219 373.808594 L 239.449219 372.769531 L 239.449219 373.808594 "></path><path style=" stroke:none;fill-rule:nonzero;fill:rgb(26.669312%,14.118958%,8.239746%);fill-opacity:1;" d="M 178.667969 277.664062 L 172.027344 335.816406 L 184.792969 347.695312 L 197.570312 336.25 L 193.167969 276.175781 L 178.667969 277.664062 "></path><path style=" stroke:none;fill-rule:nonzero;fill:rgb(1.568604%,2.349854%,2.349854%);fill-opacity:1;" d="M 178.667969 277.664062 L 177.636719 277.546875 L 170.992188 335.703125 C 170.953125 336.027344 171.074219 336.351562 171.320312 336.582031 L 184.082031 348.457031 C 184.480469 348.824219 185.085938 348.828125 185.488281 348.46875 L 198.265625 337.027344 C 198.503906 336.808594 198.628906 336.496094 198.605469 336.175781 L 194.207031 276.101562 C 194.183594 275.816406 194.054688 275.558594 193.839844 275.378906 C 193.617188 275.195312 193.34375 275.109375 193.0625 275.144531 L 178.5625 276.628906 C 178.074219 276.683594 177.691406 277.0625 177.636719 277.546875 L 178.667969 277.664062 L 178.777344 278.703125 L 192.207031 277.320312 L 196.492188 335.816406 L 184.804688 346.289062 L 173.121094 335.414062 L 179.703125 277.785156 L 178.667969 277.664062 L 178.777344 278.703125 L 178.667969 277.664062 "></path><path style=" stroke:none;fill-rule:nonzero;fill:rgb(30.979919%,17.248535%,8.239746%);fill-opacity:1;" d="M 173.34375 262.75 L 177.605469 277.421875 C 177.605469 277.421875 186.148438 279.769531 194.488281 277.421875 L 197.570312 262.75 L 189.789062 248.65625 L 177.605469 250.273438 L 173.34375 262.75 "></path><path style=" stroke:none;fill-rule:nonzero;fill:rgb(1.568604%,2.349854%,2.349854%);fill-opacity:1;" d="M 173.34375 262.75 L 172.34375 263.039062 L 176.609375 277.710938 C 176.707031 278.058594 176.984375 278.328125 177.332031 278.425781 C 177.390625 278.4375 181.257812 279.5 186.402344 279.507812 C 188.976562 279.507812 191.871094 279.238281 194.769531 278.421875 C 195.144531 278.316406 195.425781 278.015625 195.507812 277.632812 L 198.589844 262.960938 C 198.636719 262.71875 198.601562 262.464844 198.480469 262.246094 L 190.699219 248.15625 C 190.496094 247.78125 190.078125 247.570312 189.65625 247.625 L 177.472656 249.242188 C 177.078125 249.296875 176.753906 249.5625 176.625 249.9375 L 172.359375 262.414062 C 172.289062 262.613281 172.28125 262.835938 172.34375 263.039062 L 173.34375 262.75 L 174.328125 263.085938 L 178.382812 251.21875 L 189.222656 249.78125 L 196.472656 262.914062 L 193.46875 277.207031 L 194.488281 277.421875 L 194.207031 276.417969 C 191.542969 277.171875 188.835938 277.425781 186.402344 277.425781 C 183.976562 277.425781 181.832031 277.171875 180.300781 276.917969 C 179.539062 276.792969 178.925781 276.664062 178.507812 276.570312 C 178.300781 276.523438 178.140625 276.484375 178.035156 276.460938 L 177.914062 276.425781 L 177.882812 276.417969 L 177.605469 277.421875 L 178.605469 277.132812 L 174.34375 262.460938 L 173.34375 262.75 L 174.328125 263.085938 L 173.34375 262.75 "></path><path style=" stroke:none;fill-rule:nonzero;fill:rgb(37.649536%,57.649231%,32.159424%);fill-opacity:1;" d="M 218.859375 233.257812 C 193.785156 231.808594 168.144531 231.839844 151.609375 232.871094 C 152.589844 238.144531 158.027344 263.238281 170.871094 275.074219 L 186.847656 252.1875 L 202.828125 275.074219 C 202.828125 275.074219 216.949219 256.144531 218.859375 233.257812 "></path><path style=" stroke:none;fill-rule:nonzero;fill:rgb(1.568604%,2.349854%,2.349854%);fill-opacity:1;" d="M 218.859375 233.257812 L 218.921875 232.214844 C 205.457031 231.441406 191.828125 231.085938 179.53125 231.085938 C 168.890625 231.085938 159.246094 231.351562 151.546875 231.835938 C 151.25 231.855469 150.96875 231.996094 150.789062 232.234375 C 150.609375 232.46875 150.53125 232.769531 150.585938 233.0625 C 151.085938 235.742188 152.699219 243.378906 155.816406 251.871094 C 158.9375 260.363281 163.535156 269.71875 170.164062 275.84375 C 170.382812 276.046875 170.683594 276.144531 170.980469 276.109375 C 171.28125 276.078125 171.550781 275.917969 171.726562 275.671875 L 186.847656 254.003906 L 201.976562 275.671875 C 202.167969 275.945312 202.480469 276.109375 202.8125 276.113281 C 203.144531 276.121094 203.464844 275.964844 203.664062 275.699219 C 203.691406 275.664062 207.253906 270.882812 211.0625 263.210938 C 214.871094 255.539062 218.925781 244.972656 219.898438 233.339844 C 219.921875 233.0625 219.832031 232.785156 219.648438 232.574219 C 219.460938 232.363281 219.203125 232.234375 218.921875 232.214844 L 218.859375 233.257812 L 217.824219 233.171875 C 216.890625 244.425781 212.929688 254.769531 209.199219 262.289062 C 207.332031 266.046875 205.523438 269.097656 204.1875 271.203125 C 203.519531 272.257812 202.96875 273.078125 202.585938 273.625 C 202.394531 273.902344 202.242188 274.113281 202.148438 274.25 L 202.03125 274.410156 L 201.996094 274.457031 L 202.828125 275.074219 L 203.683594 274.480469 L 187.699219 251.589844 C 187.503906 251.3125 187.1875 251.148438 186.847656 251.148438 C 186.503906 251.148438 186.1875 251.3125 185.992188 251.589844 L 170.019531 274.480469 L 170.871094 275.074219 L 171.574219 274.3125 C 165.359375 268.597656 160.820312 259.488281 157.769531 251.15625 C 154.714844 242.824219 153.117188 235.273438 152.632812 232.683594 L 151.609375 232.871094 L 151.675781 233.910156 C 159.316406 233.429688 168.925781 233.167969 179.53125 233.167969 C 191.789062 233.167969 205.378906 233.519531 218.804688 234.296875 L 218.859375 233.257812 L 217.824219 233.171875 L 218.859375 233.257812 "></path><path style=" stroke:none;fill-rule:nonzero;fill:rgb(84.309387%,61.959839%,47.44873%);fill-opacity:1;" d="M 202.828125 238.984375 L 202.828125 207.285156 L 170.871094 207.285156 L 170.871094 238.984375 C 170.871094 238.984375 186.457031 248.65625 202.828125 238.984375 "></path><path style=" stroke:none;fill-rule:nonzero;fill:rgb(1.568604%,2.349854%,2.349854%);fill-opacity:1;" d="M 202.828125 238.984375 L 203.871094 238.984375 L 203.871094 207.285156 C 203.871094 207.007812 203.761719 206.746094 203.566406 206.550781 C 203.371094 206.355469 203.105469 206.246094 202.828125 206.246094 L 170.871094 206.246094 C 170.59375 206.246094 170.328125 206.355469 170.136719 206.550781 C 169.941406 206.746094 169.832031 207.007812 169.832031 207.285156 L 169.832031 238.984375 C 169.832031 239.34375 170.019531 239.675781 170.324219 239.867188 C 170.410156 239.917969 177.476562 244.316406 187.265625 244.324219 C 192.160156 244.328125 197.730469 243.207031 203.359375 239.878906 C 203.675781 239.695312 203.871094 239.351562 203.871094 238.984375 L 202.828125 238.984375 L 202.300781 238.089844 C 197.011719 241.210938 191.847656 242.242188 187.265625 242.246094 C 182.691406 242.246094 178.707031 241.199219 175.878906 240.15625 C 174.460938 239.636719 173.335938 239.117188 172.570312 238.726562 C 172.1875 238.535156 171.890625 238.375 171.695312 238.265625 C 171.597656 238.207031 171.53125 238.167969 171.480469 238.136719 L 171.429688 238.109375 L 171.421875 238.101562 L 170.871094 238.984375 L 171.910156 238.984375 L 171.910156 208.324219 L 201.789062 208.324219 L 201.789062 238.984375 L 202.828125 238.984375 L 202.300781 238.089844 L 202.828125 238.984375 "></path><path style=" stroke:none;fill-rule:nonzero;fill:rgb(20.388794%,44.309998%,18.818665%);fill-opacity:1;" d="M 126.984375 80.550781 C 126.984375 80.550781 134.691406 44.71875 144.71875 28.917969 C 144.71875 28.917969 148.640625 19.609375 161.746094 24.617188 C 161.746094 24.617188 168.964844 27.605469 174.074219 13.90625 C 179.210938 0.117188 200.492188 1.835938 202.570312 14.933594 C 204.65625 28.035156 213.839844 24.292969 214.855469 24.292969 C 214.855469 24.292969 228.414062 22.367188 232.257812 31.230469 C 232.257812 31.230469 240.890625 61.285156 244.664062 86.332031 L 126.984375 80.550781 "></path><path style=" stroke:none;fill-rule:nonzero;fill:rgb(1.568604%,2.349854%,2.349854%);fill-opacity:1;" d="M 126.984375 80.550781 L 128.003906 80.769531 C 128.003906 80.765625 128.121094 80.21875 128.347656 79.210938 C 129.148438 75.6875 131.300781 66.652344 134.335938 56.785156 C 137.363281 46.929688 141.308594 36.222656 145.597656 29.476562 L 145.675781 29.324219 C 145.714844 29.238281 146.316406 27.921875 147.710938 26.664062 C 149.117188 25.410156 151.257812 24.183594 154.59375 24.179688 C 156.453125 24.179688 158.691406 24.566406 161.371094 25.59375 L 161.746094 24.617188 L 161.347656 25.582031 C 161.4375 25.617188 162.230469 25.933594 163.480469 25.933594 C 164.914062 25.941406 166.949219 25.492188 169.027344 23.78125 C 171.105469 22.074219 173.226562 19.160156 175.050781 14.269531 C 176.1875 11.214844 178.148438 9.011719 180.535156 7.539062 C 182.914062 6.066406 185.726562 5.347656 188.515625 5.347656 C 191.605469 5.347656 194.648438 6.234375 197 7.890625 C 199.355469 9.554688 201.035156 11.941406 201.539062 15.097656 C 202.226562 19.414062 203.691406 22.140625 205.535156 23.765625 C 207.378906 25.398438 209.515625 25.832031 211.242188 25.828125 C 212.234375 25.828125 213.113281 25.691406 213.785156 25.558594 C 214.117188 25.496094 214.402344 25.429688 214.609375 25.386719 C 214.710938 25.363281 214.792969 25.347656 214.84375 25.339844 L 214.894531 25.332031 L 214.855469 25.007812 L 214.855469 25.332031 L 214.894531 25.332031 L 214.855469 25.007812 L 214.855469 25.332031 L 215.003906 25.324219 L 215.046875 25.316406 C 215.277344 25.289062 216.390625 25.15625 217.941406 25.15625 C 219.984375 25.152344 222.785156 25.390625 225.320312 26.332031 C 226.59375 26.804688 227.792969 27.445312 228.816406 28.304688 C 229.84375 29.171875 230.703125 30.25 231.308594 31.640625 L 232.257812 31.230469 L 231.257812 31.515625 C 231.257812 31.519531 231.394531 31.976562 231.636719 32.847656 C 233.335938 38.921875 240.347656 64.660156 243.636719 86.484375 L 244.664062 86.332031 L 244.71875 85.292969 L 127.035156 79.511719 L 126.984375 80.550781 L 128.003906 80.769531 L 126.984375 80.550781 L 126.933594 81.589844 L 244.617188 87.371094 C 244.925781 87.386719 245.230469 87.261719 245.4375 87.027344 C 245.648438 86.796875 245.742188 86.484375 245.695312 86.175781 C 241.902344 61.03125 233.265625 30.960938 233.261719 30.941406 L 233.214844 30.8125 C 232.480469 29.117188 231.40625 27.765625 230.15625 26.71875 C 228.285156 25.140625 226.035156 24.242188 223.871094 23.726562 C 221.695312 23.210938 219.589844 23.078125 217.941406 23.078125 C 216.035156 23.078125 214.746094 23.261719 214.710938 23.265625 L 214.855469 24.292969 L 214.855469 23.253906 C 214.699219 23.257812 214.601562 23.273438 214.492188 23.289062 C 214.136719 23.355469 213.714844 23.464844 213.152344 23.5625 C 212.601562 23.664062 211.945312 23.75 211.242188 23.75 C 209.828125 23.746094 208.292969 23.417969 206.914062 22.210938 C 205.539062 20.996094 204.238281 18.789062 203.597656 14.773438 C 203.011719 11.042969 200.953125 8.121094 198.195312 6.191406 C 195.441406 4.257812 192 3.273438 188.515625 3.269531 C 185.375 3.269531 182.1875 4.078125 179.441406 5.765625 C 176.691406 7.457031 174.394531 10.050781 173.097656 13.546875 C 171.363281 18.195312 169.417969 20.773438 167.703125 22.171875 C 165.988281 23.574219 164.503906 23.851562 163.480469 23.855469 C 163.035156 23.855469 162.675781 23.796875 162.445312 23.746094 C 162.328125 23.714844 162.238281 23.691406 162.1875 23.675781 L 162.136719 23.65625 L 162.132812 23.65625 L 161.921875 24.191406 L 162.140625 23.660156 L 162.132812 23.65625 L 161.921875 24.191406 L 162.140625 23.660156 L 162.117188 23.648438 C 159.238281 22.546875 156.746094 22.097656 154.59375 22.097656 C 150.601562 22.089844 147.835938 23.679688 146.152344 25.273438 C 144.460938 26.863281 143.796875 28.429688 143.757812 28.515625 L 144.71875 28.917969 L 143.839844 28.363281 C 141.269531 32.410156 138.894531 37.664062 136.742188 43.28125 C 130.308594 60.132812 125.976562 80.308594 125.964844 80.332031 C 125.902344 80.628906 125.972656 80.941406 126.15625 81.183594 C 126.34375 81.421875 126.628906 81.574219 126.933594 81.589844 L 126.984375 80.550781 "></path><path style=" stroke:none;fill-rule:nonzero;fill:rgb(30.979919%,17.248535%,8.239746%);fill-opacity:1;" d="M 240.699219 65.082031 C 184.3125 51.792969 144.492188 61.03125 130.789062 65.261719 C 128.394531 73.996094 126.984375 80.550781 126.984375 80.550781 L 178.507812 83.085938 L 243.78125 80.871094 C 242.875 75.613281 241.8125 70.25 240.699219 65.082031 "></path><path style=" stroke:none;fill-rule:nonzero;fill:rgb(1.568604%,2.349854%,2.349854%);fill-opacity:1;" d="M 240.699219 65.082031 L 240.933594 64.074219 C 219.085938 58.921875 199.703125 57.140625 183.347656 57.140625 C 157.335938 57.140625 138.972656 61.644531 130.484375 64.269531 C 130.140625 64.371094 129.878906 64.644531 129.785156 64.984375 C 127.382812 73.746094 125.972656 80.320312 125.964844 80.332031 C 125.902344 80.628906 125.972656 80.941406 126.15625 81.183594 C 126.34375 81.421875 126.628906 81.574219 126.933594 81.589844 L 178.457031 84.125 L 178.542969 84.125 L 243.820312 81.90625 C 244.121094 81.898438 244.402344 81.757812 244.59375 81.523438 C 244.777344 81.289062 244.859375 80.988281 244.808594 80.691406 C 243.898438 75.417969 242.832031 70.039062 241.714844 64.863281 C 241.628906 64.46875 241.328125 64.160156 240.933594 64.074219 L 240.699219 65.082031 L 239.675781 65.304688 C 240.792969 70.453125 241.851562 75.804688 242.757812 81.046875 L 243.78125 80.871094 L 243.746094 79.832031 L 178.519531 82.046875 L 127.035156 79.511719 L 126.984375 80.550781 L 128.003906 80.769531 C 128.003906 80.765625 128.089844 80.367188 128.253906 79.621094 C 128.761719 77.378906 130.003906 72.070312 131.792969 65.539062 L 130.789062 65.261719 L 131.097656 66.257812 C 139.425781 63.683594 157.578125 59.21875 183.347656 59.21875 C 199.554688 59.21875 218.773438 60.980469 240.457031 66.09375 L 240.699219 65.082031 L 239.675781 65.304688 L 240.699219 65.082031 "></path><path style=" stroke:none;fill-rule:nonzero;fill:rgb(20.388794%,44.309998%,18.818665%);fill-opacity:1;" d="M 304.324219 114.140625 C 304.324219 140.128906 252.0625 161.203125 187.589844 161.203125 C 123.113281 161.203125 70.851562 140.128906 70.851562 114.140625 C 70.851562 88.148438 123.113281 67.078125 187.589844 67.078125 C 252.0625 67.078125 304.324219 88.148438 304.324219 114.140625 "></path><g clip-path="url(#clip1)" clip-rule="nonzero"><path style=" stroke:none;fill-rule:nonzero;fill:rgb(1.568604%,2.349854%,2.349854%);fill-opacity:1;" d="M 304.324219 114.140625 L 303.285156 114.140625 C 303.285156 120.273438 300.207031 126.195312 294.429688 131.707031 C 285.78125 139.964844 271.109375 147.121094 252.582031 152.160156 C 234.058594 157.207031 211.683594 160.164062 187.589844 160.160156 C 155.464844 160.164062 126.390625 154.902344 105.429688 146.449219 C 94.957031 142.230469 86.511719 137.207031 80.746094 131.707031 C 74.96875 126.195312 71.894531 120.273438 71.890625 114.140625 C 71.894531 108.007812 74.96875 102.085938 80.746094 96.574219 C 89.394531 88.316406 104.066406 81.160156 122.59375 76.121094 C 141.117188 71.074219 163.492188 68.117188 187.589844 68.117188 C 219.710938 68.117188 248.785156 73.375 269.746094 81.824219 C 280.226562 86.050781 288.664062 91.070312 294.429688 96.574219 C 300.207031 102.085938 303.285156 108.007812 303.285156 114.140625 L 305.367188 114.140625 C 305.367188 107.277344 301.90625 100.816406 295.871094 95.066406 C 286.800781 86.4375 271.867188 79.222656 253.132812 74.113281 C 234.394531 69.011719 211.847656 66.039062 187.589844 66.039062 C 155.238281 66.042969 125.945312 71.320312 104.65625 79.898438 C 94.007812 84.191406 85.355469 89.308594 79.308594 95.066406 C 73.269531 100.816406 69.808594 107.277344 69.808594 114.140625 C 69.808594 121 73.269531 127.457031 79.304688 133.210938 C 88.378906 141.84375 103.308594 149.058594 122.042969 154.167969 C 140.777344 159.269531 163.324219 162.238281 187.589844 162.242188 C 219.941406 162.238281 249.230469 156.960938 270.527344 148.378906 C 281.171875 144.085938 289.824219 138.96875 295.871094 133.210938 C 301.90625 127.457031 305.367188 121 305.367188 114.140625 L 304.324219 114.140625 "></path></g><path style=" stroke:none;fill-rule:nonzero;fill:rgb(13.729858%,29.40979%,13.729858%);fill-opacity:1;" d="M 278.117188 111.503906 C 278.117188 133.121094 237.585938 150.636719 187.589844 150.636719 C 137.59375 150.636719 97.054688 133.121094 97.054688 111.503906 C 97.054688 89.890625 137.59375 72.382812 187.589844 72.382812 C 237.585938 72.382812 278.117188 89.890625 278.117188 111.503906 "></path><path style=" stroke:none;fill-rule:nonzero;fill:rgb(1.568604%,2.349854%,2.349854%);fill-opacity:1;" d="M 278.117188 111.503906 L 277.078125 111.503906 C 277.078125 116.570312 274.710938 121.457031 270.261719 126.011719 C 263.589844 132.839844 252.25 138.773438 237.914062 142.957031 C 223.574219 147.144531 206.242188 149.597656 187.589844 149.597656 C 162.714844 149.601562 140.195312 145.230469 123.984375 138.222656 C 115.882812 134.71875 109.359375 130.5625 104.910156 126.011719 C 100.460938 121.457031 98.09375 116.570312 98.09375 111.503906 C 98.09375 106.4375 100.460938 101.558594 104.910156 97 C 111.582031 90.175781 122.921875 84.238281 137.261719 80.058594 C 151.601562 75.871094 168.933594 73.417969 187.589844 73.421875 C 212.464844 73.417969 234.984375 77.785156 251.1875 84.789062 C 259.292969 88.292969 265.8125 92.457031 270.261719 97 C 274.710938 101.558594 277.078125 106.4375 277.078125 111.503906 L 279.160156 111.503906 C 279.160156 105.761719 276.457031 100.351562 271.75 95.546875 C 264.671875 88.328125 253.054688 82.316406 238.496094 78.066406 C 223.933594 73.8125 206.425781 71.34375 187.589844 71.339844 C 162.46875 71.34375 139.71875 75.734375 123.15625 82.882812 C 114.878906 86.464844 108.136719 90.734375 103.421875 95.546875 C 98.710938 100.351562 96.007812 105.761719 96.011719 111.503906 C 96.007812 117.246094 98.710938 122.65625 103.421875 127.464844 C 110.5 134.683594 122.117188 140.695312 136.675781 144.953125 C 151.242188 149.203125 168.746094 151.679688 187.589844 151.679688 C 212.707031 151.675781 235.457031 147.289062 252.015625 140.128906 C 260.292969 136.550781 267.03125 132.28125 271.75 127.464844 C 276.457031 122.65625 279.160156 117.246094 279.160156 111.503906 L 278.117188 111.503906 "></path><path style=" stroke:none;fill-rule:nonzero;fill:rgb(96.078491%,68.238831%,51.759338%);fill-opacity:1;" d="M 133.789062 150.019531 C 135.523438 161.199219 131.308594 171.125 124.371094 172.207031 C 117.421875 173.28125 110.390625 165.09375 108.648438 153.921875 C 106.914062 142.746094 111.128906 132.8125 118.074219 131.734375 C 125.015625 130.660156 132.050781 138.84375 133.789062 150.019531 "></path><path style=" stroke:none;fill-rule:nonzero;fill:rgb(1.568604%,2.349854%,2.349854%);fill-opacity:1;" d="M 133.789062 150.019531 L 132.757812 150.183594 C 133.015625 151.828125 133.136719 153.445312 133.136719 155.007812 C 133.140625 159.359375 132.183594 163.269531 130.570312 166.128906 C 129.769531 167.5625 128.808594 168.734375 127.738281 169.582031 C 126.664062 170.433594 125.492188 170.976562 124.210938 171.171875 C 123.851562 171.230469 123.492188 171.257812 123.132812 171.257812 C 121.710938 171.257812 120.277344 170.832031 118.875 170.007812 C 116.769531 168.773438 114.753906 166.632812 113.132812 163.832031 C 111.507812 161.03125 110.273438 157.578125 109.679688 153.757812 C 109.421875 152.113281 109.300781 150.496094 109.300781 148.9375 C 109.296875 144.582031 110.257812 140.671875 111.867188 137.808594 C 112.671875 136.378906 113.632812 135.207031 114.707031 134.355469 C 115.78125 133.503906 116.953125 132.960938 118.234375 132.761719 C 118.59375 132.707031 118.949219 132.683594 119.308594 132.683594 C 120.726562 132.683594 122.160156 133.105469 123.5625 133.929688 C 125.667969 135.164062 127.6875 137.304688 129.308594 140.105469 C 130.933594 142.90625 132.164062 146.355469 132.757812 150.183594 L 133.789062 150.019531 L 134.816406 149.863281 C 133.96875 144.441406 131.929688 139.691406 129.199219 136.242188 C 127.832031 134.515625 126.289062 133.117188 124.621094 132.136719 C 122.953125 131.160156 121.152344 130.597656 119.308594 130.597656 C 118.84375 130.597656 118.378906 130.632812 117.914062 130.707031 C 116.25 130.964844 114.726562 131.679688 113.410156 132.730469 C 111.425781 134.304688 109.890625 136.628906 108.839844 139.40625 C 107.789062 142.195312 107.21875 145.449219 107.21875 148.9375 C 107.21875 150.605469 107.347656 152.328125 107.621094 154.078125 C 108.46875 159.496094 110.511719 164.246094 113.238281 167.695312 C 114.609375 169.417969 116.148438 170.820312 117.820312 171.800781 C 119.488281 172.78125 121.289062 173.339844 123.132812 173.339844 C 123.597656 173.339844 124.0625 173.300781 124.53125 173.234375 C 126.195312 172.972656 127.714844 172.261719 129.03125 171.210938 C 131.011719 169.628906 132.546875 167.3125 133.601562 164.53125 C 134.648438 161.75 135.21875 158.496094 135.21875 155.007812 C 135.21875 153.339844 135.089844 151.613281 134.816406 149.863281 L 133.789062 150.019531 "></path><path style=" stroke:none;fill-rule:nonzero;fill:rgb(86.268616%,55.288696%,38.038635%);fill-opacity:1;" d="M 112.695312 139.609375 C 112.695312 139.609375 122.058594 130.25 127.511719 146.449219 C 127.511719 146.449219 133.105469 167.683594 121.78125 168.097656 C 121.78125 168.097656 127.511719 165.3125 125.550781 158.464844 C 125.550781 158.464844 118.421875 154.695312 122.617188 148.6875 C 122.617188 148.6875 119.683594 144.5 115.488281 147.152344 C 115.488281 147.152344 117.167969 142.402344 122.339844 143.660156 C 122.339844 143.660156 120.527344 137.371094 112.695312 139.609375 "></path><path style=" stroke:none;fill-rule:nonzero;fill:rgb(96.078491%,68.238831%,51.759338%);fill-opacity:1;" d="M 237.277344 150.019531 C 235.546875 161.199219 239.761719 171.125 246.707031 172.207031 C 253.648438 173.28125 260.6875 165.09375 262.425781 153.921875 C 264.160156 142.746094 259.941406 132.8125 253 131.734375 C 246.058594 130.660156 239.019531 138.84375 237.277344 150.019531 "></path><path style=" stroke:none;fill-rule:nonzero;fill:rgb(1.568604%,2.349854%,2.349854%);fill-opacity:1;" d="M 237.277344 150.019531 L 236.25 149.863281 C 235.976562 151.613281 235.847656 153.332031 235.847656 154.996094 C 235.851562 159.652344 236.855469 163.886719 238.679688 167.144531 C 239.597656 168.773438 240.71875 170.160156 242.039062 171.210938 C 243.359375 172.257812 244.878906 172.972656 246.546875 173.234375 C 247.011719 173.300781 247.476562 173.339844 247.941406 173.339844 C 249.78125 173.339844 251.585938 172.78125 253.253906 171.800781 C 255.757812 170.328125 257.976562 167.917969 259.746094 164.875 C 261.511719 161.828125 262.820312 158.140625 263.453125 154.078125 C 263.726562 152.328125 263.855469 150.601562 263.855469 148.9375 C 263.851562 144.28125 262.847656 140.050781 261.023438 136.792969 C 260.109375 135.164062 258.984375 133.777344 257.664062 132.730469 C 256.34375 131.679688 254.824219 130.964844 253.15625 130.707031 C 252.691406 130.632812 252.230469 130.597656 251.761719 130.597656 C 249.921875 130.597656 248.121094 131.160156 246.453125 132.136719 C 243.949219 133.609375 241.730469 136.019531 239.960938 139.0625 C 238.195312 142.109375 236.886719 145.796875 236.25 149.863281 L 237.277344 150.019531 L 238.308594 150.183594 C 239.101562 145.085938 241.035156 140.648438 243.507812 137.53125 C 244.738281 135.976562 246.105469 134.753906 247.507812 133.929688 C 248.914062 133.105469 250.34375 132.683594 251.761719 132.683594 C 252.121094 132.683594 252.480469 132.707031 252.839844 132.761719 C 254.121094 132.960938 255.292969 133.503906 256.367188 134.355469 C 257.972656 135.628906 259.339844 137.628906 260.285156 140.144531 C 261.238281 142.652344 261.773438 145.671875 261.773438 148.9375 C 261.773438 150.496094 261.652344 152.113281 261.394531 153.757812 C 260.609375 158.851562 258.671875 163.289062 256.203125 166.40625 C 254.964844 167.960938 253.605469 169.183594 252.203125 170.007812 C 250.796875 170.832031 249.359375 171.257812 247.941406 171.257812 C 247.582031 171.257812 247.226562 171.230469 246.863281 171.171875 C 245.582031 170.976562 244.410156 170.433594 243.335938 169.582031 C 241.730469 168.304688 240.363281 166.308594 239.417969 163.792969 C 238.464844 161.28125 237.929688 158.261719 237.929688 154.996094 C 237.929688 153.441406 238.050781 151.824219 238.308594 150.179688 L 237.277344 150.019531 "></path><path style=" stroke:none;fill-rule:nonzero;fill:rgb(86.268616%,55.288696%,38.038635%);fill-opacity:1;" d="M 258.378906 139.609375 C 258.378906 139.609375 249.015625 130.25 243.5625 146.449219 C 243.5625 146.449219 237.96875 167.683594 249.289062 168.097656 C 249.289062 168.097656 243.5625 165.3125 245.519531 158.464844 C 245.519531 158.464844 252.648438 154.695312 248.453125 148.6875 C 248.453125 148.6875 251.390625 144.5 255.585938 147.152344 C 255.585938 147.152344 253.910156 142.402344 248.734375 143.660156 C 248.734375 143.660156 250.550781 137.371094 258.378906 139.609375 "></path><path style=" stroke:none;fill-rule:nonzero;fill:rgb(96.078491%,68.238831%,51.759338%);fill-opacity:1;" d="M 243.394531 145.296875 C 243.394531 185.328125 217.351562 217.773438 185.246094 217.773438 C 167.4375 217.773438 151.5 207.800781 140.835938 192.089844 C 132.261719 179.460938 127.097656 163.132812 127.097656 145.296875 C 127.097656 105.265625 153.128906 72.8125 185.246094 72.8125 C 217.351562 72.8125 243.394531 105.265625 243.394531 145.296875 "></path><path style=" stroke:none;fill-rule:nonzero;fill:rgb(1.568604%,2.349854%,2.349854%);fill-opacity:1;" d="M 243.394531 145.296875 L 242.351562 145.296875 C 242.351562 165.085938 235.910156 182.980469 225.546875 195.894531 C 215.179688 208.8125 200.9375 216.730469 185.246094 216.734375 C 167.84375 216.734375 152.21875 206.992188 141.699219 191.507812 C 133.25 179.0625 128.132812 162.933594 128.136719 145.296875 C 128.132812 125.503906 134.574219 107.609375 144.9375 94.691406 C 155.308594 81.777344 169.550781 73.855469 185.246094 73.851562 C 200.9375 73.855469 215.179688 81.777344 225.546875 94.691406 C 235.910156 107.609375 242.351562 125.503906 242.351562 145.296875 L 244.433594 145.296875 C 244.433594 125.054688 237.855469 106.710938 227.175781 93.394531 C 216.496094 80.078125 201.664062 71.773438 185.246094 71.773438 C 168.824219 71.773438 153.988281 80.078125 143.316406 93.394531 C 132.632812 106.710938 126.054688 125.054688 126.054688 145.296875 C 126.054688 163.332031 131.28125 179.863281 139.972656 192.671875 C 150.78125 208.609375 167.035156 218.8125 185.246094 218.8125 C 201.664062 218.8125 216.496094 210.507812 227.175781 197.195312 C 237.855469 183.878906 244.433594 165.535156 244.433594 145.296875 L 243.394531 145.296875 "></path><path style=" stroke:none;fill-rule:nonzero;fill:rgb(12.548828%,8.628845%,7.058716%);fill-opacity:1;" d="M 146.621094 130.007812 C 146.621094 130.007812 163.140625 123.628906 174.589844 130.007812 C 174.589844 130.007812 161.59375 110.644531 146.621094 130.007812 "></path><path style=" stroke:none;fill-rule:nonzero;fill:rgb(1.568604%,2.349854%,2.349854%);fill-opacity:1;" d="M 146.621094 130.007812 L 146.996094 130.980469 L 147.066406 130.953125 C 147.839844 130.660156 154.695312 128.207031 162.25 128.214844 C 166.277344 128.210938 170.480469 128.910156 174.085938 130.917969 C 174.503906 131.152344 175.03125 131.070312 175.359375 130.714844 C 175.683594 130.363281 175.726562 129.832031 175.457031 129.433594 C 175.425781 129.382812 173.9375 127.164062 171.351562 124.917969 C 170.054688 123.800781 168.484375 122.664062 166.664062 121.808594 C 164.851562 120.949219 162.78125 120.363281 160.527344 120.363281 C 158.273438 120.359375 155.847656 120.957031 153.371094 122.386719 C 150.890625 123.8125 148.355469 126.066406 145.796875 129.375 C 145.511719 129.746094 145.507812 130.257812 145.785156 130.628906 C 146.0625 131.007812 146.558594 131.144531 146.996094 130.980469 L 146.621094 130.007812 L 147.441406 130.648438 C 149.875 127.5 152.222656 125.449219 154.414062 124.183594 C 156.605469 122.925781 158.636719 122.441406 160.527344 122.441406 C 162.417969 122.441406 164.175781 122.929688 165.777344 123.683594 C 168.171875 124.816406 170.179688 126.550781 171.578125 128.007812 C 172.273438 128.734375 172.820312 129.386719 173.183594 129.855469 C 173.367188 130.089844 173.503906 130.277344 173.597656 130.402344 L 173.699219 130.550781 L 173.726562 130.582031 L 173.730469 130.589844 L 174.589844 130.007812 L 175.097656 129.101562 C 171.066406 126.855469 166.507812 126.132812 162.25 126.132812 C 153.730469 126.140625 146.3125 129.019531 146.242188 129.042969 L 146.621094 130.007812 L 147.441406 130.648438 L 146.621094 130.007812 "></path><path style=" stroke:none;fill-rule:nonzero;fill:rgb(12.548828%,8.628845%,7.058716%);fill-opacity:1;" d="M 200.582031 130.007812 C 200.582031 130.007812 217.105469 123.628906 228.554688 130.007812 C 228.554688 130.007812 215.5625 110.644531 200.582031 130.007812 "></path><path style=" stroke:none;fill-rule:nonzero;fill:rgb(1.568604%,2.349854%,2.349854%);fill-opacity:1;" d="M 200.582031 130.007812 L 200.957031 130.980469 L 201.027344 130.953125 C 201.800781 130.660156 208.664062 128.207031 216.214844 128.214844 C 220.242188 128.210938 224.445312 128.910156 228.046875 130.917969 C 228.46875 131.152344 228.996094 131.070312 229.320312 130.714844 C 229.648438 130.363281 229.691406 129.832031 229.421875 129.433594 C 229.390625 129.382812 227.902344 127.164062 225.316406 124.917969 C 224.019531 123.800781 222.449219 122.664062 220.632812 121.808594 C 218.816406 120.949219 216.746094 120.363281 214.492188 120.363281 C 212.238281 120.359375 209.8125 120.957031 207.332031 122.386719 C 204.855469 123.8125 202.316406 126.066406 199.761719 129.375 C 199.472656 129.746094 199.46875 130.257812 199.75 130.628906 C 200.027344 131.007812 200.519531 131.144531 200.957031 130.980469 L 200.582031 130.007812 L 201.40625 130.648438 C 203.835938 127.5 206.183594 125.449219 208.375 124.183594 C 210.570312 122.925781 212.601562 122.441406 214.492188 122.441406 C 216.382812 122.441406 218.144531 122.929688 219.738281 123.683594 C 222.136719 124.816406 224.144531 126.550781 225.539062 128.007812 C 226.238281 128.734375 226.785156 129.386719 227.148438 129.855469 C 227.332031 130.089844 227.46875 130.277344 227.5625 130.402344 L 227.660156 130.550781 L 227.6875 130.582031 L 227.695312 130.589844 L 228.554688 130.007812 L 229.0625 129.101562 C 225.03125 126.855469 220.476562 126.132812 216.214844 126.132812 C 207.695312 126.140625 200.273438 129.019531 200.207031 129.042969 L 200.582031 130.007812 L 201.40625 130.648438 L 200.582031 130.007812 "></path><path style=" stroke:none;fill-rule:nonzero;fill:rgb(12.548828%,8.628845%,7.058716%);fill-opacity:1;" d="M 173.5625 141.679688 C 173.5625 144.996094 170.847656 147.710938 167.484375 147.710938 C 164.183594 147.710938 161.480469 144.996094 161.480469 141.679688 C 161.480469 138.324219 164.183594 135.613281 167.484375 135.613281 C 170.847656 135.613281 173.5625 138.324219 173.5625 141.679688 "></path><path style=" stroke:none;fill-rule:nonzero;fill:rgb(1.568604%,2.349854%,2.349854%);fill-opacity:1;" d="M 173.5625 141.679688 L 172.523438 141.679688 C 172.523438 143.050781 171.964844 144.292969 171.050781 145.203125 C 170.136719 146.109375 168.882812 146.671875 167.484375 146.671875 C 166.125 146.671875 164.886719 146.113281 163.980469 145.203125 C 163.078125 144.296875 162.523438 143.050781 162.523438 141.679688 C 162.523438 140.28125 163.082031 139.03125 163.984375 138.121094 C 164.886719 137.210938 166.125 136.652344 167.484375 136.652344 C 170.273438 136.652344 172.523438 138.894531 172.523438 141.679688 L 174.601562 141.679688 C 174.601562 139.714844 173.804688 137.933594 172.519531 136.648438 C 171.238281 135.371094 169.449219 134.574219 167.484375 134.574219 C 163.601562 134.578125 160.441406 137.75 160.441406 141.679688 C 160.445312 145.570312 163.601562 148.746094 167.484375 148.75 C 171.421875 148.75 174.597656 145.574219 174.601562 141.679688 L 173.5625 141.679688 "></path><path style=" stroke:none;fill-rule:nonzero;fill:rgb(12.548828%,8.628845%,7.058716%);fill-opacity:1;" d="M 214.425781 141.679688 C 214.425781 144.996094 211.71875 147.710938 208.363281 147.710938 C 205.054688 147.710938 202.34375 144.996094 202.34375 141.679688 C 202.34375 138.324219 205.054688 135.613281 208.363281 135.613281 C 211.71875 135.613281 214.425781 138.324219 214.425781 141.679688 "></path><path style=" stroke:none;fill-rule:nonzero;fill:rgb(1.568604%,2.349854%,2.349854%);fill-opacity:1;" d="M 214.425781 141.679688 L 213.386719 141.679688 C 213.386719 143.050781 212.828125 144.292969 211.917969 145.203125 C 211.007812 146.109375 209.757812 146.671875 208.363281 146.671875 C 206.996094 146.671875 205.757812 146.113281 204.851562 145.203125 C 203.945312 144.292969 203.386719 143.050781 203.386719 141.679688 C 203.386719 140.28125 203.945312 139.03125 204.855469 138.121094 C 205.761719 137.210938 206.996094 136.652344 208.363281 136.652344 C 211.144531 136.652344 213.386719 138.890625 213.386719 141.679688 L 215.46875 141.679688 C 215.472656 139.714844 214.675781 137.933594 213.390625 136.652344 C 212.105469 135.371094 210.324219 134.574219 208.363281 134.574219 C 204.472656 134.578125 201.304688 137.75 201.304688 141.679688 C 201.308594 145.574219 204.472656 148.746094 208.363281 148.75 C 212.292969 148.75 215.46875 145.574219 215.46875 141.679688 L 214.425781 141.679688 "></path><path style=" stroke:none;fill-rule:nonzero;fill:rgb(86.268616%,55.288696%,38.038635%);fill-opacity:1;" d="M 180.328125 158.085938 C 180.328125 158.085938 187.816406 163.277344 195.304688 158.085938 C 195.304688 158.085938 187.816406 169.429688 180.328125 158.085938 "></path><path style=" stroke:none;fill-rule:nonzero;fill:rgb(63.529968%,11.369324%,13.328552%);fill-opacity:1;" d="M 159.253906 169.859375 C 159.253906 169.859375 192.878906 166.996094 211.230469 169.859375 C 211.230469 169.859375 210.5 191.804688 186.125 194.15625 C 186.125 194.15625 162.484375 194.285156 159.253906 169.859375 "></path><path style=" stroke:none;fill-rule:nonzero;fill:rgb(1.568604%,2.349854%,2.349854%);fill-opacity:1;" d="M 159.253906 169.859375 L 159.34375 170.894531 C 159.34375 170.894531 159.570312 170.875 160.011719 170.839844 C 163.0625 170.597656 176.171875 169.625 189.597656 169.625 C 197.269531 169.621094 205.050781 169.941406 211.070312 170.886719 L 211.230469 169.859375 L 210.191406 169.824219 L 210.1875 169.871094 C 210.164062 170.417969 209.796875 175.757812 206.609375 181.140625 C 205.019531 183.832031 202.730469 186.539062 199.425781 188.71875 C 196.117188 190.902344 191.78125 192.5625 186.023438 193.117188 L 186.125 194.15625 L 186.222656 193.117188 L 186.117188 193.113281 C 185.960938 193.117188 180.179688 193.078125 174.15625 190.132812 C 171.144531 188.664062 168.070312 186.476562 165.554688 183.214844 C 163.042969 179.949219 161.066406 175.601562 160.285156 169.722656 L 159.253906 169.859375 L 159.34375 170.894531 L 159.253906 169.859375 L 158.222656 169.996094 C 159.039062 176.199219 161.160156 180.925781 163.910156 184.484375 C 168.027344 189.824219 173.496094 192.496094 177.945312 193.832031 C 182.398438 195.171875 185.867188 195.191406 186.117188 195.195312 L 186.117188 194.234375 L 186.027344 195.1875 L 186.117188 195.195312 L 186.117188 194.234375 L 186.027344 195.1875 L 186.222656 195.1875 C 192.472656 194.589844 197.273438 192.714844 200.917969 190.226562 C 206.394531 186.484375 209.230469 181.398438 210.695312 177.273438 C 212.160156 173.148438 212.269531 169.964844 212.269531 169.894531 C 212.289062 169.371094 211.910156 168.910156 211.390625 168.832031 C 205.179688 167.863281 197.328125 167.546875 189.597656 167.546875 C 174.144531 167.546875 159.179688 168.820312 159.164062 168.820312 C 158.878906 168.847656 158.625 168.984375 158.445312 169.207031 C 158.265625 169.429688 158.183594 169.710938 158.222656 169.996094 L 159.253906 169.859375 "></path><path style=" stroke:none;fill-rule:nonzero;fill:rgb(100%,100%,100%);fill-opacity:1;" d="M 208.402344 169.484375 C 191.964844 167.550781 166.617188 169.292969 160.589844 169.753906 C 166.554688 173.414062 186.796875 183.597656 208.402344 169.484375 "></path><path style=" stroke:none;fill-rule:nonzero;fill:rgb(1.568604%,2.349854%,2.349854%);fill-opacity:1;" d="M 208.402344 169.484375 L 208.523438 168.453125 C 202.839844 167.78125 196.152344 167.550781 189.554688 167.550781 C 176.847656 167.550781 164.492188 168.410156 160.511719 168.714844 C 160.058594 168.75 159.683594 169.066406 159.578125 169.507812 C 159.472656 169.945312 159.660156 170.402344 160.046875 170.636719 C 163.820312 172.949219 173.066406 177.773438 184.851562 177.78125 C 192.191406 177.78125 200.507812 175.886719 208.972656 170.351562 C 209.335938 170.117188 209.515625 169.671875 209.414062 169.246094 C 209.316406 168.820312 208.960938 168.5 208.523438 168.453125 L 208.402344 169.484375 L 207.832031 168.613281 C 199.707031 173.917969 191.839844 175.699219 184.851562 175.703125 C 173.648438 175.707031 164.714844 171.066406 161.136719 168.867188 L 160.589844 169.753906 L 160.667969 170.789062 C 164.621094 170.488281 176.941406 169.628906 189.554688 169.628906 C 196.097656 169.628906 202.726562 169.863281 208.28125 170.515625 L 208.402344 169.484375 L 207.832031 168.613281 L 208.402344 169.484375 "></path><path style=" stroke:none;fill-rule:nonzero;fill:rgb(95.289612%,54.508972%,60.389709%);fill-opacity:1;" d="M 186.125 194.15625 C 192.488281 193.542969 197.226562 191.585938 200.773438 189.035156 C 186.972656 178.671875 174.4375 186.71875 170.871094 189.46875 C 178.179688 194.179688 186.125 194.15625 186.125 194.15625 "></path><path style=" stroke:none;fill-rule:nonzero;fill:rgb(1.568604%,2.349854%,2.349854%);fill-opacity:1;" d="M 186.125 194.15625 L 186.222656 195.1875 C 192.75 194.566406 197.683594 192.542969 201.382812 189.882812 C 201.652344 189.691406 201.8125 189.378906 201.8125 189.050781 C 201.816406 188.71875 201.664062 188.40625 201.398438 188.207031 C 196.136719 184.253906 190.964844 182.847656 186.386719 182.855469 C 178.566406 182.863281 172.578125 186.84375 170.234375 188.644531 C 169.964844 188.851562 169.816406 189.175781 169.832031 189.511719 C 169.84375 189.847656 170.023438 190.15625 170.304688 190.339844 C 177.832031 195.179688 185.84375 195.1875 186.121094 195.195312 L 186.121094 194.167969 L 185.890625 195.164062 L 186.121094 195.195312 L 186.121094 194.167969 L 185.890625 195.164062 C 186.003906 195.191406 186.109375 195.199219 186.222656 195.1875 L 186.125 194.15625 L 186.363281 193.140625 L 186.121094 193.113281 C 186.046875 193.121094 178.367188 193.078125 171.433594 188.59375 L 170.871094 189.46875 L 171.503906 190.292969 C 173.660156 188.621094 179.304688 184.921875 186.386719 184.933594 C 190.542969 184.9375 195.214844 186.167969 200.152344 189.871094 L 200.773438 189.035156 L 200.167969 188.195312 C 196.773438 190.632812 192.226562 192.519531 186.023438 193.117188 L 186.125 194.15625 L 186.363281 193.140625 L 186.125 194.15625 "></path><path style=" stroke:none;fill-rule:nonzero;fill:rgb(86.268616%,55.288696%,38.038635%);fill-opacity:1;" d="M 177.605469 197.816406 C 177.605469 197.816406 184.800781 201.339844 195.304688 197.816406 C 195.304688 197.816406 184.65625 208.386719 177.605469 197.816406 "></path><path style=" stroke:none;fill-rule:nonzero;fill:rgb(14.509583%,10.198975%,8.628845%);fill-opacity:1;" d="M 122.847656 132.425781 C 122.847656 132.425781 125.03125 148.285156 127.382812 152.511719 C 127.382812 152.511719 131.507812 141.753906 132.671875 131.644531 C 132.671875 131.644531 154.992188 116.539062 159.253906 93.058594 C 159.253906 93.058594 186.417969 110.375 226.652344 105.09375 C 226.652344 105.09375 230.820312 122.960938 236.898438 129.761719 C 236.898438 129.761719 238.84375 148.136719 242.1875 153.292969 C 242.1875 153.292969 244.761719 136.273438 248.1875 132.425781 C 248.1875 132.425781 251.515625 119.769531 248.1875 104.214844 C 248.1875 104.214844 251.617188 103.332031 253.078125 100.984375 C 253.078125 100.984375 205.804688 49.042969 141.195312 85.136719 C 141.195312 85.136719 113.882812 95.410156 122.847656 132.425781 "></path><path style=" stroke:none;fill-rule:nonzero;fill:rgb(1.568604%,2.349854%,2.349854%);fill-opacity:1;" d="M 122.847656 132.425781 L 121.820312 132.566406 C 121.820312 132.582031 122.371094 136.554688 123.210938 141.074219 C 123.632812 143.335938 124.128906 145.730469 124.675781 147.847656 C 125.226562 149.972656 125.796875 151.789062 126.46875 153.019531 C 126.667969 153.367188 127.050781 153.578125 127.453125 153.550781 C 127.859375 153.523438 128.210938 153.261719 128.351562 152.882812 C 128.363281 152.839844 132.515625 142.054688 133.707031 131.765625 L 132.671875 131.644531 L 133.257812 132.507812 C 133.304688 132.472656 138.941406 128.65625 145.136719 121.855469 C 151.328125 115.058594 158.09375 105.265625 160.277344 93.246094 L 159.253906 93.058594 L 158.695312 93.9375 C 158.792969 94 179.410156 107.128906 211.398438 107.132812 C 216.277344 107.132812 221.417969 106.828125 226.792969 106.121094 L 226.652344 105.09375 L 225.640625 105.332031 C 225.644531 105.351562 226.695312 109.84375 228.511719 115.207031 C 229.421875 117.894531 230.523438 120.796875 231.792969 123.480469 C 233.0625 126.167969 234.496094 128.628906 236.121094 130.457031 L 236.898438 129.761719 L 235.859375 129.871094 C 235.859375 129.886719 236.351562 134.492188 237.261719 139.769531 C 237.71875 142.410156 238.277344 145.214844 238.945312 147.710938 C 239.617188 150.207031 240.359375 152.378906 241.3125 153.859375 C 241.546875 154.222656 241.980469 154.402344 242.40625 154.3125 C 242.828125 154.21875 243.148438 153.878906 243.214844 153.453125 C 243.214844 153.453125 243.253906 153.191406 243.332031 152.726562 C 243.597656 151.085938 244.316406 146.914062 245.335938 142.757812 C 245.84375 140.683594 246.429688 138.613281 247.058594 136.882812 C 247.679688 135.15625 248.382812 133.753906 248.964844 133.121094 C 249.074219 132.996094 249.152344 132.847656 249.199219 132.691406 C 249.210938 132.628906 250.707031 126.921875 250.710938 118.441406 C 250.710938 114.203125 250.332031 109.261719 249.207031 103.996094 L 248.1875 104.214844 L 248.449219 105.222656 C 248.496094 105.207031 249.410156 104.972656 250.546875 104.414062 C 251.675781 103.847656 253.058594 102.964844 253.960938 101.535156 C 254.210938 101.144531 254.160156 100.632812 253.847656 100.285156 C 253.804688 100.238281 247.234375 93.023438 235.628906 85.796875 C 224.03125 78.582031 207.375 71.339844 187.203125 71.339844 C 173.1875 71.335938 157.488281 74.839844 140.6875 84.230469 L 141.195312 85.136719 L 140.824219 84.164062 C 140.734375 84.203125 135.566406 86.148438 130.378906 91.394531 C 125.183594 96.632812 119.992188 105.238281 120 118.316406 C 120 122.609375 120.554688 127.378906 121.835938 132.667969 L 122.847656 132.425781 L 121.820312 132.566406 L 122.847656 132.425781 L 123.859375 132.183594 C 122.613281 127.03125 122.082031 122.425781 122.082031 118.316406 C 122.089844 105.792969 126.976562 97.808594 131.855469 92.855469 C 134.300781 90.386719 136.742188 88.691406 138.570312 87.617188 C 139.480469 87.082031 140.242188 86.699219 140.765625 86.457031 C 141.027344 86.335938 141.234375 86.246094 141.367188 86.1875 L 141.519531 86.128906 L 141.558594 86.109375 L 141.703125 86.046875 C 158.21875 76.820312 173.535156 73.417969 187.203125 73.417969 C 206.867188 73.417969 223.152344 80.480469 234.53125 87.566406 C 240.21875 91.105469 244.671875 94.648438 247.703125 97.296875 C 249.21875 98.625 250.375 99.726562 251.148438 100.496094 C 251.539062 100.878906 251.832031 101.179688 252.027344 101.382812 C 252.121094 101.484375 252.191406 101.5625 252.242188 101.613281 L 252.3125 101.6875 L 253.078125 100.984375 L 252.199219 100.4375 C 251.636719 101.351562 250.570312 102.085938 249.625 102.546875 C 249.152344 102.78125 248.71875 102.945312 248.40625 103.054688 C 248.25 103.109375 248.125 103.148438 248.042969 103.171875 L 247.949219 103.203125 L 247.929688 103.207031 C 247.386719 103.34375 247.054688 103.882812 247.171875 104.433594 C 248.261719 109.53125 248.628906 114.324219 248.628906 118.441406 C 248.628906 122.558594 248.261719 126.003906 247.902344 128.414062 C 247.71875 129.621094 247.539062 130.5625 247.402344 131.203125 C 247.335938 131.523438 247.277344 131.769531 247.242188 131.929688 L 247.199219 132.109375 L 247.179688 132.160156 L 248.1875 132.425781 L 247.414062 131.734375 C 246.878906 132.335938 246.433594 133.09375 246.007812 133.980469 C 245.265625 135.527344 244.613281 137.476562 244.027344 139.554688 C 242.269531 145.773438 241.160156 153.121094 241.15625 153.140625 L 242.1875 153.292969 L 243.058594 152.730469 C 242.339844 151.632812 241.589844 149.570312 240.957031 147.171875 C 239.996094 143.570312 239.234375 139.175781 238.71875 135.695312 C 238.460938 133.953125 238.261719 132.441406 238.132812 131.367188 C 238.0625 130.824219 238.015625 130.398438 237.976562 130.101562 C 237.945312 129.808594 237.929688 129.652344 237.929688 129.652344 C 237.90625 129.4375 237.816406 129.234375 237.671875 129.070312 C 236.257812 127.496094 234.894531 125.171875 233.671875 122.59375 C 231.839844 118.722656 230.332031 114.273438 229.292969 110.804688 C 228.765625 109.070312 228.359375 107.582031 228.089844 106.523438 C 227.949219 105.996094 227.84375 105.578125 227.777344 105.289062 C 227.703125 105.003906 227.667969 104.855469 227.667969 104.855469 C 227.546875 104.335938 227.046875 103.988281 226.519531 104.0625 C 221.238281 104.753906 216.191406 105.054688 211.398438 105.054688 C 195.695312 105.054688 182.777344 101.824219 173.792969 98.601562 C 169.300781 96.988281 165.792969 95.375 163.417969 94.167969 C 162.226562 93.566406 161.320312 93.070312 160.714844 92.71875 C 160.410156 92.542969 160.179688 92.410156 160.03125 92.316406 L 159.863281 92.214844 L 159.816406 92.183594 C 159.523438 91.996094 159.15625 91.96875 158.839844 92.105469 C 158.519531 92.246094 158.289062 92.53125 158.230469 92.875 C 156.15625 104.335938 149.632812 113.835938 143.597656 120.457031 C 140.582031 123.765625 137.695312 126.359375 135.566406 128.117188 C 134.503906 128.992188 133.628906 129.664062 133.023438 130.113281 C 132.71875 130.339844 132.484375 130.507812 132.324219 130.617188 L 132.144531 130.746094 L 132.09375 130.785156 C 131.839844 130.957031 131.671875 131.222656 131.640625 131.523438 C 131.066406 136.484375 129.757812 141.65625 128.59375 145.574219 C 128.011719 147.53125 127.460938 149.175781 127.058594 150.332031 C 126.859375 150.910156 126.699219 151.363281 126.585938 151.675781 C 126.46875 151.984375 126.410156 152.140625 126.410156 152.140625 L 127.382812 152.511719 L 128.292969 152.007812 C 127.792969 151.121094 127.210938 149.371094 126.691406 147.332031 C 125.902344 144.261719 125.195312 140.488281 124.691406 137.496094 C 124.4375 135.996094 124.234375 134.691406 124.097656 133.765625 C 123.953125 132.835938 123.882812 132.289062 123.882812 132.285156 L 123.859375 132.183594 L 122.847656 132.425781 "></path><path style=" stroke:none;fill-rule:nonzero;fill:rgb(16.859436%,36.468506%,16.468811%);fill-opacity:1;" d="M 174.304688 13.359375 C 174.230469 13.546875 174.148438 13.722656 174.074219 13.90625 C 168.964844 27.605469 161.746094 24.617188 161.746094 24.617188 C 158.117188 23.234375 155.214844 22.964844 152.882812 23.273438 C 168.890625 46.132812 174.28125 13.488281 174.304688 13.359375 "></path><path style=" stroke:none;fill-rule:nonzero;fill:rgb(1.568604%,2.349854%,2.349854%);fill-opacity:1;" d="M 174.304688 13.359375 L 173.347656 12.957031 C 173.28125 13.113281 173.191406 13.300781 173.105469 13.523438 L 173.097656 13.546875 C 171.363281 18.195312 169.417969 20.773438 167.703125 22.171875 C 165.988281 23.574219 164.503906 23.851562 163.480469 23.855469 C 163.035156 23.855469 162.675781 23.796875 162.445312 23.746094 C 162.328125 23.714844 162.238281 23.691406 162.1875 23.675781 L 162.136719 23.65625 L 162.132812 23.65625 L 161.921875 24.191406 L 162.140625 23.660156 L 162.132812 23.65625 L 161.921875 24.191406 L 162.140625 23.660156 L 162.117188 23.648438 C 159.261719 22.558594 156.792969 22.121094 154.664062 22.121094 C 153.988281 22.121094 153.351562 22.160156 152.746094 22.242188 C 152.386719 22.289062 152.074219 22.527344 151.933594 22.855469 C 151.785156 23.1875 151.824219 23.574219 152.03125 23.871094 C 154.148438 26.890625 156.109375 29.003906 157.960938 30.390625 C 159.8125 31.769531 161.59375 32.4375 163.28125 32.4375 C 164.484375 32.4375 165.601562 32.089844 166.582031 31.523438 C 168.308594 30.523438 169.652344 28.878906 170.757812 27.019531 C 172.410156 24.222656 173.535156 20.890625 174.265625 18.230469 C 174.632812 16.894531 174.894531 15.738281 175.070312 14.902344 C 175.15625 14.484375 175.222656 14.152344 175.265625 13.910156 C 175.285156 13.792969 175.300781 13.703125 175.3125 13.640625 L 175.332031 13.542969 L 175.195312 13.519531 L 175.332031 13.546875 L 175.332031 13.542969 L 175.195312 13.519531 L 175.332031 13.546875 C 175.425781 13.023438 175.109375 12.515625 174.597656 12.363281 C 174.089844 12.214844 173.550781 12.46875 173.347656 12.957031 L 174.304688 13.359375 L 173.28125 13.175781 L 173.269531 13.246094 C 173.179688 13.773438 172.378906 18.21875 170.671875 22.445312 C 169.824219 24.558594 168.742188 26.609375 167.476562 28.066406 C 166.84375 28.796875 166.171875 29.375 165.476562 29.757812 C 164.78125 30.148438 164.066406 30.351562 163.28125 30.351562 C 162.15625 30.351562 160.816406 29.917969 159.207031 28.722656 C 157.605469 27.53125 155.765625 25.582031 153.738281 22.675781 L 152.882812 23.273438 L 153.023438 24.304688 C 153.535156 24.234375 154.082031 24.199219 154.664062 24.199219 C 156.507812 24.199219 158.714844 24.578125 161.371094 25.59375 L 161.746094 24.617188 L 161.347656 25.582031 C 161.4375 25.617188 162.230469 25.933594 163.480469 25.933594 C 164.914062 25.941406 166.949219 25.492188 169.027344 23.78125 C 171.105469 22.074219 173.226562 19.160156 175.050781 14.269531 L 174.074219 13.90625 L 175.042969 14.289062 C 175.097656 14.144531 175.179688 13.972656 175.265625 13.765625 L 174.304688 13.359375 L 173.28125 13.175781 L 174.304688 13.359375 "></path><path style=" stroke:none;fill-rule:nonzero;fill:rgb(16.859436%,36.468506%,16.468811%);fill-opacity:1;" d="M 224.214844 24.90625 C 219.566406 23.644531 214.855469 24.292969 214.855469 24.292969 C 213.929688 24.292969 206.292969 27.339844 203.332031 18.085938 C 205.15625 25.640625 211.183594 43.636719 224.214844 24.90625 "></path><path style=" stroke:none;fill-rule:nonzero;fill:rgb(1.568604%,2.349854%,2.349854%);fill-opacity:1;" d="M 224.214844 24.90625 L 224.488281 23.902344 C 222.070312 23.25 219.683594 23.085938 217.871094 23.085938 C 216.003906 23.085938 214.75 23.261719 214.714844 23.265625 L 214.855469 24.292969 L 214.855469 23.253906 C 214.703125 23.257812 214.605469 23.273438 214.5 23.289062 C 214.144531 23.351562 213.726562 23.457031 213.179688 23.554688 C 212.632812 23.652344 211.988281 23.730469 211.292969 23.730469 C 210.085938 23.730469 208.777344 23.488281 207.5625 22.664062 C 206.347656 21.835938 205.171875 20.394531 204.324219 17.769531 C 204.15625 17.238281 203.59375 16.933594 203.058594 17.082031 C 202.515625 17.234375 202.191406 17.785156 202.324219 18.332031 C 202.957031 20.941406 204.066406 24.773438 205.835938 28.039062 C 206.722656 29.671875 207.777344 31.167969 209.070312 32.300781 C 210.351562 33.429688 211.933594 34.195312 213.730469 34.191406 C 215.425781 34.191406 217.226562 33.519531 219.089844 32.117188 C 220.960938 30.710938 222.933594 28.570312 225.066406 25.5 C 225.261719 25.222656 225.308594 24.867188 225.195312 24.546875 C 225.082031 24.230469 224.8125 23.992188 224.488281 23.902344 L 224.214844 24.90625 L 223.359375 24.3125 C 221.3125 27.261719 219.457031 29.238281 217.839844 30.453125 C 216.21875 31.667969 214.867188 32.113281 213.730469 32.113281 C 212.53125 32.105469 211.472656 31.628906 210.4375 30.734375 C 208.898438 29.402344 207.5625 27.125 206.542969 24.703125 C 205.523438 22.28125 204.800781 19.726562 204.34375 17.84375 L 203.332031 18.085938 L 202.339844 18.402344 C 203.285156 21.355469 204.738281 23.261719 206.386719 24.382812 C 208.035156 25.503906 209.808594 25.816406 211.292969 25.8125 C 212.273438 25.8125 213.136719 25.683594 213.796875 25.554688 C 214.125 25.492188 214.40625 25.429688 214.609375 25.386719 C 214.710938 25.363281 214.792969 25.347656 214.84375 25.339844 L 214.894531 25.332031 L 214.855469 25.015625 L 214.855469 25.332031 L 214.894531 25.332031 L 214.855469 25.015625 L 214.855469 25.332031 L 215 25.324219 L 215.042969 25.316406 C 215.269531 25.292969 216.347656 25.164062 217.871094 25.164062 C 219.554688 25.164062 221.78125 25.320312 223.941406 25.910156 L 224.214844 24.90625 L 223.359375 24.3125 L 224.214844 24.90625 "></path><path style=" stroke:none;fill-rule:nonzero;fill:rgb(96.859741%,65.098572%,16.859436%);fill-opacity:1;" d="M 197.6875 36.390625 L 188.941406 33.152344 L 180.199219 36.390625 C 177.371094 51.820312 188.941406 54.890625 188.941406 54.890625 C 188.941406 54.890625 200.507812 51.820312 197.6875 36.390625 "></path><path style=" stroke:none;fill-rule:nonzero;fill:rgb(1.568604%,2.349854%,2.349854%);fill-opacity:1;" d="M 197.6875 36.390625 L 198.050781 35.417969 L 189.300781 32.175781 C 189.070312 32.089844 188.8125 32.089844 188.578125 32.175781 L 179.839844 35.417969 C 179.492188 35.546875 179.242188 35.84375 179.175781 36.207031 C 178.859375 37.941406 178.710938 39.539062 178.710938 41.007812 C 178.710938 44.003906 179.316406 46.464844 180.25 48.441406 C 181.640625 51.417969 183.738281 53.28125 185.472656 54.390625 C 187.210938 55.5 188.601562 55.871094 188.675781 55.890625 C 188.851562 55.941406 189.035156 55.941406 189.207031 55.890625 C 189.300781 55.863281 191.746094 55.214844 194.226562 53.015625 C 195.46875 51.914062 196.707031 50.421875 197.636719 48.4375 C 198.566406 46.460938 199.171875 44 199.171875 41 C 199.171875 39.53125 199.027344 37.941406 198.710938 36.207031 C 198.648438 35.84375 198.394531 35.546875 198.050781 35.417969 L 197.6875 36.390625 L 196.664062 36.578125 C 196.960938 38.199219 197.089844 39.664062 197.089844 41 C 197.089844 43.722656 196.550781 45.859375 195.753906 47.558594 C 194.5625 50.105469 192.78125 51.679688 191.289062 52.636719 C 190.542969 53.113281 189.871094 53.429688 189.394531 53.625 C 189.15625 53.722656 188.96875 53.789062 188.84375 53.832031 L 188.703125 53.875 L 188.675781 53.882812 L 188.941406 54.890625 L 189.207031 53.882812 L 189.136719 54.152344 L 189.210938 53.882812 L 189.207031 53.882812 L 189.136719 54.152344 L 189.210938 53.882812 C 189.167969 53.875 187.015625 53.265625 184.941406 51.371094 C 183.898438 50.425781 182.871094 49.167969 182.09375 47.484375 C 181.320312 45.800781 180.792969 43.6875 180.792969 41.007812 C 180.792969 39.675781 180.921875 38.203125 181.222656 36.578125 L 180.199219 36.390625 L 180.5625 37.367188 L 188.941406 34.261719 L 197.324219 37.367188 L 197.6875 36.390625 L 196.664062 36.578125 L 197.6875 36.390625 "></path><path style=" stroke:none;fill-rule:nonzero;fill:rgb(81.959534%,49.409485%,9.799194%);fill-opacity:1;" d="M 195.476562 38.320312 L 188.941406 35.90625 L 182.414062 38.320312 C 180.300781 49.847656 188.941406 52.136719 188.941406 52.136719 C 188.941406 52.136719 197.585938 49.847656 195.476562 38.320312 "></path><path style=" stroke:none;fill-rule:nonzero;fill:rgb(1.568604%,2.349854%,2.349854%);fill-opacity:1;" d="M 195.476562 38.320312 L 195.832031 37.347656 L 189.300781 34.929688 C 189.070312 34.839844 188.8125 34.839844 188.578125 34.929688 L 182.054688 37.347656 C 181.707031 37.472656 181.457031 37.773438 181.390625 38.132812 C 181.152344 39.445312 181.042969 40.652344 181.042969 41.765625 C 181.042969 44.042969 181.5 45.921875 182.210938 47.4375 C 183.277344 49.710938 184.882812 51.140625 186.207031 51.984375 C 187.542969 52.832031 188.601562 53.117188 188.675781 53.136719 C 188.851562 53.1875 189.035156 53.1875 189.207031 53.136719 C 189.300781 53.113281 191.164062 52.617188 193.066406 50.933594 C 194.011719 50.09375 194.96875 48.949219 195.675781 47.4375 C 196.386719 45.921875 196.847656 44.039062 196.847656 41.765625 C 196.847656 40.652344 196.734375 39.445312 196.496094 38.132812 C 196.429688 37.773438 196.179688 37.472656 195.832031 37.347656 L 195.476562 38.320312 L 194.453125 38.507812 C 194.671875 39.707031 194.765625 40.785156 194.765625 41.765625 C 194.765625 43.765625 194.367188 45.320312 193.789062 46.554688 C 192.925781 48.398438 191.640625 49.539062 190.554688 50.234375 C 190.011719 50.578125 189.523438 50.808594 189.179688 50.949219 C 189.007812 51.019531 188.875 51.066406 188.785156 51.09375 L 188.691406 51.125 L 188.671875 51.132812 L 188.726562 51.332031 L 188.675781 51.128906 L 188.671875 51.132812 L 188.726562 51.332031 L 188.675781 51.128906 L 188.941406 52.136719 L 189.207031 51.128906 C 189.101562 51.105469 187.539062 50.628906 186.058594 49.25 C 184.582031 47.863281 183.136719 45.636719 183.121094 41.765625 C 183.121094 40.792969 183.214844 39.707031 183.4375 38.507812 L 182.414062 38.320312 L 182.777344 39.296875 L 188.941406 37.015625 L 195.109375 39.296875 L 195.476562 38.320312 L 194.453125 38.507812 L 195.476562 38.320312 "></path><path style=" stroke:none;fill-rule:nonzero;fill:rgb(96.859741%,65.098572%,16.859436%);fill-opacity:1;" d="M 194.351562 39.300781 L 188.941406 37.300781 L 183.535156 39.300781 C 181.789062 48.847656 188.941406 50.738281 188.941406 50.738281 C 188.941406 50.738281 196.09375 48.847656 194.351562 39.300781 "></path><path style=" stroke:none;fill-rule:nonzero;fill:rgb(1.568604%,2.349854%,2.349854%);fill-opacity:1;" d="M 194.351562 39.300781 L 194.710938 38.324219 L 189.300781 36.328125 C 189.070312 36.242188 188.8125 36.242188 188.582031 36.328125 L 183.171875 38.324219 C 182.824219 38.453125 182.574219 38.75 182.507812 39.113281 C 182.308594 40.207031 182.21875 41.214844 182.21875 42.148438 C 182.214844 44.054688 182.605469 45.640625 183.203125 46.921875 C 184.101562 48.839844 185.464844 50.050781 186.582031 50.765625 C 187.707031 51.480469 188.601562 51.726562 188.675781 51.742188 C 188.851562 51.789062 189.035156 51.789062 189.207031 51.742188 C 189.300781 51.71875 190.871094 51.296875 192.476562 49.878906 C 193.277344 49.167969 194.082031 48.199219 194.679688 46.921875 C 195.28125 45.644531 195.667969 44.054688 195.667969 42.148438 C 195.667969 41.214844 195.574219 40.207031 195.375 39.113281 C 195.308594 38.75 195.058594 38.453125 194.710938 38.324219 L 194.351562 39.300781 L 193.324219 39.488281 C 193.503906 40.464844 193.585938 41.351562 193.585938 42.148438 C 193.582031 43.78125 193.261719 45.042969 192.792969 46.039062 C 192.09375 47.53125 191.058594 48.453125 190.179688 49.011719 C 189.746094 49.292969 189.347656 49.480469 189.074219 49.589844 C 188.9375 49.644531 188.824219 49.6875 188.757812 49.707031 L 188.671875 49.734375 L 188.765625 50.070312 L 188.675781 49.734375 L 188.671875 49.734375 L 188.765625 50.070312 L 188.675781 49.734375 L 188.941406 50.738281 L 189.207031 49.734375 L 189.0625 50.28125 L 189.210938 49.734375 L 189.207031 49.734375 L 189.0625 50.28125 L 189.210938 49.734375 C 189.210938 49.734375 189.140625 49.714844 189 49.660156 C 188.515625 49.488281 187.320312 48.960938 186.28125 47.820312 C 185.242188 46.675781 184.308594 44.957031 184.300781 42.148438 C 184.300781 41.347656 184.378906 40.464844 184.558594 39.484375 L 183.535156 39.300781 L 183.894531 40.273438 L 188.941406 38.410156 L 193.992188 40.273438 L 194.351562 39.300781 L 193.324219 39.488281 L 194.351562 39.300781 "></path><path style=" stroke:none;fill-rule:nonzero;fill:rgb(96.859741%,65.098572%,16.859436%);fill-opacity:1;" d="M 235.066406 284.46875 L 222.488281 279.804688 L 209.890625 284.46875 C 205.820312 306.691406 222.488281 311.097656 222.488281 311.097656 C 222.488281 311.097656 239.144531 306.691406 235.066406 284.46875 "></path><path style=" stroke:none;fill-rule:nonzero;fill:rgb(1.568604%,2.349854%,2.349854%);fill-opacity:1;" d="M 235.066406 284.46875 L 235.429688 283.496094 L 222.84375 278.832031 C 222.613281 278.746094 222.355469 278.746094 222.121094 278.832031 L 209.527344 283.496094 C 209.183594 283.621094 208.933594 283.921875 208.867188 284.28125 C 208.414062 286.757812 208.207031 289.027344 208.207031 291.109375 C 208.207031 295.371094 209.070312 298.84375 210.375 301.628906 C 212.335938 305.816406 215.289062 308.4375 217.734375 309.996094 C 220.191406 311.558594 222.144531 312.085938 222.21875 312.105469 C 222.394531 312.148438 222.578125 312.148438 222.75 312.105469 C 222.84375 312.078125 226.300781 311.160156 229.789062 308.066406 C 231.53125 306.519531 233.285156 304.421875 234.589844 301.632812 C 235.894531 298.847656 236.753906 295.375 236.75 291.117188 C 236.75 289.035156 236.546875 286.761719 236.09375 284.28125 C 236.027344 283.921875 235.773438 283.625 235.429688 283.496094 L 235.066406 284.46875 L 234.042969 284.65625 C 234.480469 287.019531 234.667969 289.167969 234.667969 291.117188 C 234.667969 295.097656 233.875 298.246094 232.703125 300.753906 C 230.941406 304.503906 228.3125 306.835938 226.109375 308.246094 C 225.011719 308.949219 224.019531 309.414062 223.3125 309.703125 C 222.957031 309.851562 222.675781 309.949219 222.488281 310.007812 C 222.394531 310.042969 222.320312 310.066406 222.277344 310.078125 L 222.226562 310.089844 L 222.21875 310.09375 L 222.277344 310.316406 L 222.21875 310.09375 L 222.277344 310.316406 L 222.21875 310.09375 L 222.488281 311.097656 L 222.75 310.09375 C 222.644531 310.066406 219.488281 309.171875 216.414062 306.378906 C 214.875 304.980469 213.347656 303.117188 212.207031 300.628906 C 211.0625 298.144531 210.292969 295.03125 210.289062 291.109375 C 210.289062 289.164062 210.484375 287.019531 210.914062 284.65625 L 209.890625 284.46875 L 210.25 285.445312 L 222.488281 280.914062 L 234.707031 285.445312 L 235.066406 284.46875 L 234.042969 284.65625 L 235.066406 284.46875 "></path><path style=" stroke:none;fill-rule:nonzero;fill:rgb(81.959534%,49.409485%,9.799194%);fill-opacity:1;" d="M 231.886719 287.246094 L 222.488281 283.769531 L 213.074219 287.246094 C 210.035156 303.84375 222.488281 307.136719 222.488281 307.136719 C 222.488281 307.136719 234.921875 303.84375 231.886719 287.246094 "></path><path style=" stroke:none;fill-rule:nonzero;fill:rgb(1.568604%,2.349854%,2.349854%);fill-opacity:1;" d="M 231.886719 287.246094 L 232.246094 286.273438 L 222.84375 282.796875 C 222.613281 282.710938 222.355469 282.710938 222.125 282.796875 L 212.714844 286.273438 C 212.371094 286.398438 212.117188 286.699219 212.050781 287.0625 C 211.710938 288.921875 211.558594 290.628906 211.558594 292.203125 C 211.558594 295.421875 212.207031 298.054688 213.199219 300.175781 C 214.691406 303.355469 216.933594 305.351562 218.796875 306.539062 C 220.65625 307.726562 222.144531 308.125 222.21875 308.144531 C 222.394531 308.1875 222.578125 308.1875 222.75 308.144531 C 222.847656 308.117188 225.460938 307.421875 228.117188 305.070312 C 229.441406 303.890625 230.769531 302.296875 231.761719 300.175781 C 232.753906 298.054688 233.40625 295.417969 233.40625 292.203125 C 233.40625 290.628906 233.25 288.921875 232.910156 287.0625 C 232.84375 286.699219 232.59375 286.398438 232.246094 286.273438 L 231.886719 287.246094 L 230.859375 287.433594 C 231.183594 289.179688 231.324219 290.765625 231.324219 292.203125 C 231.320312 295.144531 230.734375 297.453125 229.878906 299.292969 C 228.589844 302.042969 226.664062 303.753906 225.046875 304.785156 C 224.242188 305.300781 223.519531 305.644531 223.003906 305.855469 C 222.742188 305.960938 222.539062 306.03125 222.402344 306.078125 L 222.25 306.125 L 222.21875 306.132812 L 222.488281 307.136719 L 222.75 306.132812 L 222.691406 306.359375 L 222.753906 306.132812 L 222.75 306.132812 L 222.691406 306.359375 L 222.753906 306.132812 C 222.699219 306.121094 220.375 305.464844 218.125 303.417969 C 216.996094 302.394531 215.882812 301.027344 215.042969 299.203125 C 214.207031 297.386719 213.636719 295.097656 213.636719 292.203125 C 213.636719 290.769531 213.777344 289.183594 214.097656 287.433594 L 213.074219 287.246094 L 213.433594 288.222656 L 222.488281 284.878906 L 231.523438 288.222656 L 231.886719 287.246094 L 230.859375 287.433594 L 231.886719 287.246094 "></path><path style=" stroke:none;fill-rule:nonzero;fill:rgb(96.859741%,65.098572%,16.859436%);fill-opacity:1;" d="M 230.265625 288.664062 L 222.488281 285.777344 L 214.691406 288.664062 C 212.175781 302.402344 222.488281 305.125 222.488281 305.125 C 222.488281 305.125 232.785156 302.402344 230.265625 288.664062 "></path><path style=" stroke:none;fill-rule:nonzero;fill:rgb(1.568604%,2.349854%,2.349854%);fill-opacity:1;" d="M 230.265625 288.664062 L 230.628906 287.6875 L 222.847656 284.800781 C 222.613281 284.71875 222.355469 284.71875 222.121094 284.800781 L 214.328125 287.6875 C 213.984375 287.816406 213.734375 288.113281 213.667969 288.476562 C 213.382812 290.027344 213.253906 291.453125 213.253906 292.761719 C 213.253906 295.453125 213.796875 297.660156 214.632812 299.441406 C 215.886719 302.109375 217.773438 303.785156 219.332031 304.78125 C 220.898438 305.777344 222.144531 306.113281 222.21875 306.128906 C 222.394531 306.179688 222.578125 306.179688 222.75 306.128906 C 222.84375 306.101562 225.035156 305.519531 227.265625 303.546875 C 228.378906 302.558594 229.496094 301.21875 230.328125 299.441406 C 231.160156 297.664062 231.707031 295.457031 231.707031 292.769531 C 231.707031 291.457031 231.578125 290.027344 231.292969 288.472656 C 231.226562 288.113281 230.976562 287.816406 230.628906 287.6875 L 230.265625 288.664062 L 229.246094 288.851562 C 229.507812 290.289062 229.625 291.59375 229.625 292.769531 C 229.621094 295.179688 229.144531 297.0625 228.441406 298.558594 C 227.394531 300.796875 225.828125 302.1875 224.511719 303.027344 C 223.855469 303.449219 223.261719 303.726562 222.84375 303.894531 C 222.636719 303.980469 222.472656 304.042969 222.359375 304.078125 L 222.21875 304.125 L 222.234375 304.175781 L 222.21875 304.125 L 222.234375 304.175781 L 222.21875 304.125 L 222.488281 305.125 L 222.75 304.125 L 222.65625 304.476562 L 222.753906 304.125 L 222.75 304.125 L 222.65625 304.476562 L 222.753906 304.125 C 222.726562 304.121094 220.824219 303.578125 218.996094 301.914062 C 218.078125 301.082031 217.171875 299.96875 216.484375 298.484375 C 215.800781 297 215.335938 295.136719 215.335938 292.761719 C 215.335938 291.585938 215.449219 290.285156 215.714844 288.847656 L 214.691406 288.664062 L 215.050781 289.636719 L 222.484375 286.886719 L 229.90625 289.636719 L 230.265625 288.664062 L 229.246094 288.851562 L 230.265625 288.664062 "></path><path style=" stroke:none;fill-rule:nonzero;fill:rgb(79.60968%,87.838745%,76.078796%);fill-opacity:1;" d="M 128.898438 237.808594 C 128.898438 237.808594 100.214844 265.390625 84.355469 322.613281 C 84.355469 322.613281 98.398438 331.0625 112.695312 327.457031 C 112.695312 327.457031 123.328125 292.671875 134.292969 272.871094 C 134.292969 272.871094 135.546875 252.03125 128.898438 237.808594 "></path><path style=" stroke:none;fill-rule:nonzero;fill:rgb(1.568604%,2.349854%,2.349854%);fill-opacity:1;" d="M 128.898438 237.808594 L 128.175781 237.0625 C 128.082031 237.148438 99.277344 264.878906 83.355469 322.335938 C 83.230469 322.785156 83.414062 323.261719 83.816406 323.5 C 83.902344 323.542969 93.546875 329.378906 105.246094 329.390625 C 107.746094 329.390625 110.339844 329.121094 112.949219 328.464844 C 113.304688 328.375 113.585938 328.113281 113.691406 327.757812 C 113.691406 327.757812 113.851562 327.222656 114.167969 326.234375 C 115.253906 322.78125 118.132812 313.867188 121.929688 303.660156 C 125.726562 293.453125 130.449219 281.949219 135.203125 273.371094 C 135.273438 273.242188 135.320312 273.085938 135.332031 272.933594 C 135.332031 272.917969 135.425781 271.328125 135.425781 268.738281 C 135.425781 265.304688 135.257812 260.113281 134.484375 254.453125 C 133.703125 248.796875 132.320312 242.675781 129.839844 237.371094 C 129.695312 237.0625 129.417969 236.847656 129.085938 236.785156 C 128.753906 236.726562 128.417969 236.828125 128.175781 237.0625 L 128.898438 237.808594 L 127.953125 238.246094 C 130.304688 243.269531 131.660156 249.210938 132.421875 254.738281 C 133.183594 260.265625 133.34375 265.371094 133.34375 268.738281 C 133.34375 270.003906 133.324219 271.027344 133.300781 271.730469 C 133.289062 272.085938 133.273438 272.351562 133.265625 272.535156 C 133.257812 272.71875 133.253906 272.808594 133.253906 272.808594 L 134.292969 272.871094 L 133.382812 272.371094 C 127.847656 282.367188 122.441406 296.039062 118.402344 307.238281 C 114.367188 318.433594 111.703125 327.140625 111.703125 327.152344 L 112.695312 327.457031 L 112.441406 326.445312 C 110.019531 327.058594 107.597656 327.3125 105.246094 327.3125 C 99.75 327.316406 94.632812 325.917969 90.910156 324.507812 C 89.050781 323.804688 87.535156 323.105469 86.488281 322.578125 C 85.96875 322.320312 85.566406 322.101562 85.292969 321.949219 C 85.15625 321.871094 85.054688 321.816406 84.988281 321.777344 L 84.910156 321.734375 L 84.890625 321.722656 L 84.355469 322.613281 L 85.359375 322.886719 C 93.257812 294.390625 104.339844 273.292969 113.445312 259.320312 C 117.996094 252.332031 122.050781 247.128906 124.960938 243.683594 C 126.417969 241.960938 127.589844 240.671875 128.390625 239.820312 C 128.792969 239.394531 129.101562 239.074219 129.308594 238.863281 C 129.414062 238.757812 129.492188 238.683594 129.542969 238.628906 L 129.617188 238.554688 L 128.898438 237.808594 L 127.953125 238.246094 L 128.898438 237.808594 "></path><path style=" stroke:none;fill-rule:nonzero;fill:rgb(37.649536%,57.649231%,32.159424%);fill-opacity:1;" d="M 86.78125 309.847656 L 80.617188 324.371094 C 80.617188 324.371094 97.355469 333.703125 113.429688 330.472656 L 116.734375 318.652344 C 116.734375 318.652344 95.367188 317.109375 86.78125 309.847656 "></path><path style=" stroke:none;fill-rule:nonzero;fill:rgb(1.568604%,2.349854%,2.349854%);fill-opacity:1;" d="M 86.78125 309.847656 L 85.824219 309.4375 L 79.660156 323.96875 C 79.453125 324.457031 79.648438 325.019531 80.109375 325.28125 C 80.148438 325.300781 83.234375 327.019531 88.042969 328.742188 C 92.847656 330.460938 99.375 332.191406 106.320312 332.191406 C 108.726562 332.191406 111.1875 331.980469 113.636719 331.492188 C 114.019531 331.410156 114.328125 331.125 114.433594 330.746094 L 117.738281 318.933594 C 117.820312 318.632812 117.769531 318.3125 117.585938 318.054688 C 117.40625 317.800781 117.121094 317.636719 116.8125 317.617188 C 116.8125 317.617188 116.734375 317.609375 116.582031 317.597656 C 115.417969 317.503906 110.035156 317.011719 103.984375 315.703125 C 100.960938 315.050781 97.765625 314.191406 94.855469 313.089844 C 91.949219 311.992188 89.324219 310.636719 87.457031 309.050781 C 87.203125 308.835938 86.863281 308.757812 86.542969 308.832031 C 86.21875 308.90625 85.953125 309.136719 85.824219 309.4375 L 86.78125 309.847656 L 86.109375 310.636719 C 88.40625 312.574219 91.449219 314.066406 94.726562 315.261719 C 104.558594 318.828125 116.613281 319.683594 116.664062 319.691406 L 116.734375 318.652344 L 115.734375 318.371094 L 112.429688 330.191406 L 113.429688 330.472656 L 113.226562 329.449219 C 110.925781 329.910156 108.609375 330.109375 106.320312 330.109375 C 99.71875 330.113281 93.398438 328.453125 88.742188 326.785156 C 86.410156 325.949219 84.5 325.113281 83.175781 324.492188 C 82.507812 324.179688 81.992188 323.921875 81.648438 323.742188 C 81.472656 323.652344 81.339844 323.578125 81.253906 323.535156 L 81.15625 323.480469 L 81.128906 323.464844 L 80.617188 324.371094 L 81.578125 324.777344 L 87.742188 310.25 L 86.78125 309.847656 L 86.109375 310.636719 L 86.78125 309.847656 "></path><path style=" stroke:none;fill-rule:nonzero;fill:rgb(79.60968%,87.838745%,76.078796%);fill-opacity:1;" d="M 243.359375 237.808594 C 243.359375 237.808594 272.035156 265.390625 287.890625 322.613281 C 287.890625 322.613281 273.84375 331.0625 259.554688 327.457031 C 259.554688 327.457031 248.917969 292.671875 237.953125 272.871094 C 237.953125 272.871094 236.703125 252.03125 243.359375 237.808594 "></path><path style=" stroke:none;fill-rule:nonzero;fill:rgb(1.568604%,2.349854%,2.349854%);fill-opacity:1;" d="M 243.359375 237.808594 L 242.640625 238.554688 L 242.714844 238.628906 C 244.320312 240.214844 271.589844 267.683594 286.886719 322.886719 L 287.890625 322.613281 L 287.355469 321.722656 L 287.335938 321.734375 C 286.847656 322.03125 277.65625 327.328125 266.996094 327.3125 C 264.648438 327.3125 262.230469 327.058594 259.8125 326.445312 L 259.554688 327.457031 L 260.550781 327.152344 C 260.546875 327.140625 257.882812 318.433594 253.84375 307.238281 C 249.804688 296.039062 244.398438 282.367188 238.863281 272.371094 L 237.953125 272.871094 L 238.992188 272.808594 C 238.992188 272.808594 238.988281 272.71875 238.976562 272.539062 C 238.953125 271.996094 238.902344 270.664062 238.902344 268.769531 C 238.902344 265.410156 239.0625 260.300781 239.828125 254.765625 C 240.582031 249.230469 241.949219 243.277344 244.304688 238.246094 L 243.359375 237.808594 L 242.640625 238.554688 L 243.359375 237.808594 L 242.417969 237.371094 C 239.933594 242.683594 238.542969 248.816406 237.761719 254.480469 C 236.988281 260.148438 236.820312 265.347656 236.820312 268.769531 C 236.820312 271.34375 236.914062 272.917969 236.914062 272.933594 C 236.921875 273.085938 236.96875 273.242188 237.039062 273.371094 C 242.472656 283.175781 247.867188 296.800781 251.882812 307.941406 C 253.894531 313.515625 255.566406 318.472656 256.734375 322.035156 C 257.316406 323.820312 257.773438 325.25 258.082031 326.234375 C 258.394531 327.222656 258.558594 327.757812 258.558594 327.757812 C 258.664062 328.113281 258.945312 328.375 259.296875 328.464844 C 261.910156 329.121094 264.496094 329.390625 266.996094 329.390625 C 278.699219 329.378906 288.347656 323.542969 288.425781 323.5 C 288.828125 323.261719 289.015625 322.785156 288.894531 322.335938 C 272.972656 264.878906 244.175781 237.148438 244.082031 237.0625 C 243.839844 236.828125 243.503906 236.726562 243.171875 236.785156 C 242.839844 236.847656 242.5625 237.0625 242.417969 237.371094 L 243.359375 237.808594 "></path><path style=" stroke:none;fill-rule:nonzero;fill:rgb(37.649536%,57.649231%,32.159424%);fill-opacity:1;" d="M 285.460938 309.847656 L 291.636719 324.371094 C 291.636719 324.371094 274.898438 333.703125 258.816406 330.472656 L 255.515625 318.652344 C 255.515625 318.652344 276.875 317.109375 285.460938 309.847656 "></path><path style=" stroke:none;fill-rule:nonzero;fill:rgb(1.568604%,2.349854%,2.349854%);fill-opacity:1;" d="M 285.460938 309.847656 L 284.5 310.25 L 290.675781 324.78125 L 291.636719 324.371094 L 291.125 323.464844 L 291.097656 323.480469 C 290.453125 323.847656 278.71875 330.125 265.929688 330.109375 C 263.640625 330.109375 261.320312 329.910156 259.023438 329.449219 L 258.816406 330.472656 L 259.820312 330.191406 L 256.519531 318.371094 L 255.515625 318.652344 L 255.585938 319.691406 C 255.617188 319.6875 260.988281 319.296875 267.472656 317.988281 C 270.71875 317.335938 274.238281 316.453125 277.515625 315.261719 C 280.792969 314.066406 283.839844 312.574219 286.136719 310.636719 L 285.460938 309.847656 L 284.5 310.25 L 285.460938 309.847656 L 284.789062 309.050781 C 282.792969 310.742188 279.945312 312.167969 276.804688 313.308594 C 272.09375 315.019531 266.734375 316.105469 262.566406 316.753906 C 260.480469 317.074219 258.691406 317.296875 257.433594 317.429688 C 256.796875 317.496094 256.296875 317.542969 255.957031 317.570312 C 255.617188 317.605469 255.441406 317.617188 255.4375 317.617188 C 255.128906 317.636719 254.84375 317.800781 254.664062 318.054688 C 254.480469 318.3125 254.429688 318.632812 254.511719 318.933594 L 257.816406 330.746094 C 257.921875 331.125 258.226562 331.414062 258.613281 331.492188 C 261.0625 331.980469 263.519531 332.191406 265.929688 332.191406 C 272.875 332.191406 279.402344 330.460938 284.210938 328.742188 C 289.019531 327.019531 292.105469 325.300781 292.144531 325.28125 C 292.605469 325.019531 292.796875 324.457031 292.59375 323.964844 L 286.417969 309.4375 C 286.289062 309.136719 286.019531 308.90625 285.699219 308.832031 C 285.378906 308.757812 285.039062 308.835938 284.789062 309.050781 L 285.460938 309.847656 "></path></g></svg>