<svg xmlns="http://www.w3.org/2000/svg" xmlns:xlink="http://www.w3.org/1999/xlink" width="375pt" height="374.999991pt" viewBox="0 0 375 374.999991"><defs><clipPath id="clip1"><path d="M 0 15.261719 L 375 15.261719 L 375 114.960938 L 0 114.960938 Z M 0 15.261719 "></path></clipPath><clipPath id="clip2"><path d="M 136.328125 359.128906 L 239 359.128906 L 239 375 L 136.328125 375 Z M 136.328125 359.128906 "></path></clipPath></defs><g id="surface1"><rect x="0" y="0" width="375" height="374.999991" style="fill:rgb(100%,100%,100%);fill-opacity:1;stroke:none;"></rect><rect x="0" y="0" width="375" height="374.999991" style="fill:rgb(100%,100%,100%);fill-opacity:1;stroke:none;"></rect><g clip-path="url(#clip1)" clip-rule="nonzero"><path style=" stroke:none;fill-rule:nonzero;fill:rgb(19.999695%,19.999695%,19.999695%);fill-opacity:1;" d="M 49.605469 15.625 L 325.4375 15.625 C 327.785156 15.625 329.890625 16.664062 331.328125 18.308594 L 372.6875 59.121094 L 367.226562 64.675781 L 372.714844 59.113281 C 375.785156 62.148438 375.820312 67.089844 372.789062 70.164062 C 372.648438 70.304688 372.503906 70.441406 372.359375 70.566406 L 330.988281 112.488281 L 325.4375 107.027344 L 330.996094 112.515625 C 329.464844 114.058594 327.453125 114.839844 325.4375 114.839844 L 49.605469 114.839844 C 47.230469 114.839844 45.101562 113.777344 43.671875 112.109375 L 2.292969 70.582031 L 2.277344 70.597656 C -0.765625 67.542969 -0.757812 62.59375 2.296875 59.546875 C 2.441406 59.410156 2.585938 59.273438 2.734375 59.144531 L 44.105469 17.921875 L 44.09375 17.90625 C 45.613281 16.386719 47.609375 15.625 49.605469 15.625 Z M 322.261719 31.253906 L 52.804688 31.253906 L 18.832031 65.101562 L 52.820312 99.210938 L 322.199219 99.210938 L 356.207031 64.75 L 322.261719 31.253906 "></path></g><path style=" stroke:none;fill-rule:nonzero;fill:rgb(19.999695%,19.999695%,19.999695%);fill-opacity:1;" d="M 80.855469 170.378906 L 187.519531 170.378906 C 191.835938 170.378906 195.332031 173.878906 195.332031 178.195312 L 195.332031 261.78125 C 195.332031 266.097656 191.835938 269.59375 187.519531 269.59375 L 80.855469 269.59375 C 78.484375 269.59375 76.359375 268.53125 74.921875 266.863281 L 33.550781 225.339844 L 33.535156 225.355469 C 30.484375 222.296875 30.492188 217.351562 33.554688 214.300781 C 33.691406 214.164062 33.839844 214.027344 33.992188 213.898438 L 75.359375 172.675781 L 75.34375 172.660156 C 76.867188 171.140625 78.867188 170.378906 80.855469 170.378906 Z M 179.707031 186.011719 L 84.054688 186.011719 L 50.085938 219.859375 L 84.070312 253.96875 L 179.707031 253.96875 L 179.707031 186.011719 "></path><path style=" stroke:none;fill-rule:nonzero;fill:rgb(19.999695%,19.999695%,19.999695%);fill-opacity:1;" d="M 290.984375 156.269531 L 195.332031 156.269531 L 195.332031 224.226562 L 290.96875 224.226562 L 324.957031 190.117188 Z M 187.519531 140.636719 L 294.179688 140.636719 C 296.175781 140.636719 298.171875 141.398438 299.695312 142.917969 L 299.679688 142.933594 L 341.050781 184.160156 C 341.203125 184.285156 341.34375 184.421875 341.488281 184.5625 C 344.542969 187.609375 344.550781 192.554688 341.507812 195.613281 L 341.492188 195.597656 L 300.113281 237.121094 C 298.683594 238.792969 296.554688 239.851562 294.179688 239.851562 L 187.519531 239.851562 C 183.203125 239.851562 179.707031 236.355469 179.707031 232.039062 L 179.707031 148.457031 C 179.707031 144.140625 183.203125 140.636719 187.519531 140.636719 "></path><path style=" stroke:none;fill-rule:nonzero;fill:rgb(19.999695%,19.999695%,19.999695%);fill-opacity:1;" d="M 195.332031 0 L 195.332031 367.226562 L 179.707031 367.226562 L 179.707031 0 L 195.332031 0 "></path><g clip-path="url(#clip2)" clip-rule="nonzero"><path style=" stroke:none;fill-rule:nonzero;fill:rgb(19.999695%,19.999695%,19.999695%);fill-opacity:1;" d="M 144.546875 359.414062 C 140.234375 359.414062 136.730469 362.914062 136.730469 367.226562 C 136.730469 371.542969 140.234375 375.042969 144.546875 375.042969 L 230.492188 375.042969 C 234.808594 375.042969 238.304688 371.542969 238.304688 367.226562 C 238.304688 362.914062 234.808594 359.414062 230.492188 359.414062 L 144.546875 359.414062 "></path></g><path style=" stroke:none;fill-rule:evenodd;fill:rgb(95.289612%,61.178589%,76.469421%);fill-opacity:1;" d="M 179.707031 31.253906 L 52.804688 31.253906 L 18.832031 65.101562 L 52.820312 99.210938 L 179.707031 99.210938 L 179.707031 31.253906 "></path><path style=" stroke:none;fill-rule:evenodd;fill:rgb(38.819885%,79.60968%,89.7995%);fill-opacity:1;" d="M 195.332031 31.253906 L 195.332031 99.210938 L 322.199219 99.210938 L 356.207031 64.75 L 322.261719 31.253906 L 195.332031 31.253906 "></path><path style=" stroke:none;fill-rule:evenodd;fill:rgb(61.569214%,83.529663%,75.289917%);fill-opacity:1;" d="M 179.707031 186.011719 L 84.054688 186.011719 L 50.085938 219.859375 L 84.070312 253.96875 L 179.707031 253.96875 L 179.707031 186.011719 "></path><path style=" stroke:none;fill-rule:evenodd;fill:rgb(94.509888%,60.389709%,48.239136%);fill-opacity:1;" d="M 195.332031 178.195312 L 195.332031 224.226562 L 290.96875 224.226562 L 324.957031 190.117188 L 290.984375 156.269531 L 195.332031 156.269531 L 195.332031 178.195312 "></path></g></svg>