<svg xmlns="http://www.w3.org/2000/svg" xmlns:xlink="http://www.w3.org/1999/xlink" width="375pt" height="374.999991pt" viewBox="0 0 375 374.999991"><g id="surface1"><path style=" stroke:none;fill-rule:nonzero;fill:rgb(49.798584%,79.60968%,15.289307%);fill-opacity:1;" d="M 0.0078125 231.835938 C -0.136719 231.214844 0.246094 230.59375 0.867188 230.46875 L 0.921875 230.449219 C 0.921875 230.449219 2.582031 230.066406 5.707031 229.355469 C 8.8125 228.664062 13.359375 227.695312 19.113281 226.621094 C 22 226.144531 25.140625 225.179688 28.554688 224.394531 C 31.988281 223.609375 35.660156 222.734375 39.605469 221.898438 C 43.496094 220.820312 47.640625 219.707031 51.988281 218.503906 C 54.160156 217.9375 56.390625 217.355469 58.671875 216.753906 C 60.9375 216.042969 63.238281 215.3125 65.578125 214.582031 C 75.039062 211.832031 85.046875 208.257812 95.585938 204.5 C 100.789062 202.382812 106.160156 200.359375 111.621094 198.207031 C 116.992188 195.820312 122.578125 193.628906 128.1875 191.222656 C 133.738281 188.707031 139.472656 186.28125 145.191406 183.671875 C 148.039062 182.304688 150.890625 180.9375 153.792969 179.605469 L 158.15625 177.582031 C 159.601562 176.90625 161.027344 176.125 162.46875 175.394531 C 168.183594 172.421875 174.046875 169.539062 179.65625 166.167969 C 182.503906 164.5625 185.335938 162.921875 188.167969 161.242188 L 196.496094 155.9375 C 207.636719 148.859375 218.285156 141.039062 228.675781 133.160156 C 238.847656 125.0625 248.894531 117.019531 258.136719 108.667969 C 267.507812 100.460938 276.109375 92 284.253906 83.976562 C 292.273438 75.808594 299.777344 67.964844 306.390625 60.433594 C 313.058594 52.976562 319.011719 45.972656 324.160156 39.644531 C 329.292969 33.316406 333.640625 27.699219 337.183594 23.015625 C 338.390625 21.425781 339.484375 19.949219 340.488281 18.582031 C 340.050781 18.765625 339.632812 18.949219 339.191406 19.128906 C 336.746094 20.167969 334.28125 21.171875 331.796875 22.136719 C 329.332031 23.140625 326.808594 24.035156 324.308594 24.984375 C 319.285156 26.789062 314.226562 28.503906 309.074219 30.035156 C 306.5 30.800781 303.925781 31.546875 301.277344 32.203125 C 298.664062 32.878906 296.015625 33.519531 293.3125 34.011719 C 295.414062 32.222656 297.570312 30.601562 299.742188 28.976562 C 301.914062 27.355469 304.144531 25.839844 306.355469 24.328125 C 310.8125 21.316406 315.339844 18.472656 319.925781 15.738281 C 322.226562 14.40625 324.507812 13.019531 326.847656 11.742188 C 329.167969 10.429688 331.503906 9.15625 333.859375 7.914062 C 336.199219 6.65625 338.570312 5.453125 340.945312 4.25 C 343.285156 3.027344 345.695312 1.898438 348.089844 0.726562 C 349.21875 0.171875 350.535156 -0.0625 351.886719 0.113281 C 355.484375 0.613281 358.003906 3.921875 357.511719 7.511719 L 357.476562 7.730469 C 357.09375 10.523438 356.5625 13.292969 356.125 16.085938 C 355.667969 18.855469 355.101562 21.628906 354.609375 24.398438 C 354.023438 27.152344 353.496094 29.925781 352.875 32.699219 C 352.253906 35.449219 351.632812 38.203125 350.9375 40.941406 C 349.566406 46.445312 348.089844 51.917969 346.371094 57.351562 C 345.496094 60.070312 344.617188 62.785156 343.613281 65.484375 C 342.644531 68.183594 341.640625 70.882812 340.453125 73.5625 C 340.125 70.648438 339.996094 67.765625 339.886719 64.902344 C 339.757812 62.039062 339.757812 59.175781 339.757812 56.332031 C 339.796875 50.625 340.050781 44.953125 340.433594 39.296875 C 340.617188 36.492188 340.875 33.664062 341.128906 30.855469 C 341.367188 28.191406 341.675781 25.566406 341.949219 22.921875 C 341.496094 23.6875 341.019531 24.472656 340.527344 25.292969 C 337.441406 30.328125 333.566406 36.382812 328.929688 43.183594 C 324.269531 49.984375 318.9375 57.609375 312.765625 65.667969 C 306.664062 73.800781 299.707031 82.316406 292.199219 91.253906 C 284.582031 100.078125 276.347656 109.253906 267.378906 118.332031 C 258.519531 127.523438 248.875 136.550781 238.792969 145.449219 C 228.546875 154.167969 218.011719 162.882812 206.867188 170.910156 L 198.558594 176.980469 C 195.710938 178.894531 192.878906 180.828125 190.066406 182.78125 C 184.496094 186.753906 178.652344 190.3125 172.914062 193.976562 C 171.472656 194.871094 170.066406 195.820312 168.605469 196.675781 L 164.222656 199.210938 C 161.300781 200.90625 158.359375 202.53125 155.457031 204.152344 C 152.570312 205.847656 149.539062 207.234375 146.578125 208.675781 C 143.601562 210.097656 140.660156 211.519531 137.71875 212.925781 C 131.765625 215.515625 125.777344 217.792969 119.929688 220.019531 C 114.011719 222.0625 108.113281 223.773438 102.414062 225.507812 C 99.585938 226.417969 96.664062 226.964844 93.867188 227.660156 C 91.039062 228.316406 88.261719 228.953125 85.539062 229.609375 C 84.167969 229.902344 82.816406 230.195312 81.464844 230.484375 C 80.113281 230.722656 78.765625 230.941406 77.429688 231.160156 C 74.746094 231.578125 72.132812 232 69.558594 232.417969 C 67 232.800781 64.5 233.167969 62.050781 233.550781 C 59.566406 233.75 57.15625 233.96875 54.78125 234.167969 C 50.070312 234.496094 45.613281 234.917969 41.429688 235.082031 C 32.992188 235.136719 25.707031 235.136719 19.714844 234.753906 C 13.707031 234.242188 9.03125 233.75 5.835938 233.347656 C 2.65625 232.984375 0.957031 232.730469 0.957031 232.730469 C 0.5 232.65625 0.117188 232.308594 0.0078125 231.835938 "></path><path style=" stroke:none;fill-rule:nonzero;fill:rgb(10.978699%,39.219666%,20.388794%);fill-opacity:1;" d="M 298.9375 394.757812 L 359.6875 394.757812 L 359.6875 119.867188 L 298.9375 119.867188 Z M 298.9375 394.757812 "></path><path style=" stroke:none;fill-rule:nonzero;fill:rgb(10.978699%,39.219666%,20.388794%);fill-opacity:1;" d="M 215.378906 394.757812 L 276.144531 394.757812 L 276.144531 182.5625 L 215.378906 182.5625 Z M 215.378906 394.757812 "></path><path style=" stroke:none;fill-rule:nonzero;fill:rgb(10.978699%,39.219666%,20.388794%);fill-opacity:1;" d="M 129.941406 394.757812 L 190.703125 394.757812 L 190.703125 226.164062 L 129.941406 226.164062 Z M 129.941406 394.757812 "></path><path style=" stroke:none;fill-rule:nonzero;fill:rgb(10.978699%,39.219666%,20.388794%);fill-opacity:1;" d="M 44.5 394.757812 L 105.265625 394.757812 L 105.265625 272.355469 L 44.5 272.355469 Z M 44.5 394.757812 "></path><path style=" stroke:none;fill-rule:nonzero;fill:rgb(16.468811%,44.709778%,23.139954%);fill-opacity:1;" d="M 352.070312 390.050781 L 318.574219 390.050781 C 318.574219 390.050781 333.457031 377.558594 339.757812 334.8125 C 348.929688 272.554688 352.070312 135.109375 352.070312 135.109375 L 352.070312 390.050781 "></path><path style=" stroke:none;fill-rule:nonzero;fill:rgb(16.468811%,44.709778%,23.139954%);fill-opacity:1;" d="M 266.335938 390.050781 L 232.820312 390.050781 C 232.820312 390.050781 247.726562 380.367188 254.027344 347.269531 C 263.195312 299.035156 266.335938 192.574219 266.335938 192.574219 L 266.335938 390.050781 "></path><path style=" stroke:none;fill-rule:nonzero;fill:rgb(16.468811%,44.709778%,23.139954%);fill-opacity:1;" d="M 183.050781 390.050781 L 149.539062 390.050781 C 149.539062 390.050781 164.421875 382.335938 170.722656 356.003906 C 179.910156 317.636719 183.050781 232.929688 183.050781 232.929688 L 183.050781 390.050781 "></path><path style=" stroke:none;fill-rule:nonzero;fill:rgb(16.468811%,44.709778%,23.139954%);fill-opacity:1;" d="M 97.320312 390.050781 L 63.804688 390.050781 C 63.804688 390.050781 78.691406 384.652344 84.992188 366.179688 C 94.179688 339.265625 97.320312 279.832031 97.320312 279.832031 L 97.320312 390.050781 "></path></g></svg>