<svg xmlns="http://www.w3.org/2000/svg" xmlns:xlink="http://www.w3.org/1999/xlink" width="375pt" height="374.999991pt" viewBox="0 0 375 374.999991"><defs><clipPath id="clip1"><path d="M 3.195312 216 L 105 216 L 105 368.625 L 3.195312 368.625 Z M 3.195312 216 "></path></clipPath><clipPath id="clip2"><path d="M 9 6.546875 L 365 6.546875 L 365 172 L 9 172 Z M 9 6.546875 "></path></clipPath><clipPath id="clip3"><path d="M 269 152 L 371.09375 152 L 371.09375 368.625 L 269 368.625 Z M 269 152 "></path></clipPath><clipPath id="clip4"><path d="M 136 184 L 238 184 L 238 368.625 L 136 368.625 Z M 136 184 "></path></clipPath></defs><g id="surface1"><g clip-path="url(#clip1)" clip-rule="nonzero"><path style=" stroke:none;fill-rule:nonzero;fill:rgb(0%,90.589905%,94.119263%);fill-opacity:1;" d="M 15.882812 216.097656 L 92 216.097656 C 92.832031 216.097656 93.65625 216.179688 94.472656 216.339844 C 95.289062 216.503906 96.085938 216.746094 96.855469 217.0625 C 97.625 217.382812 98.355469 217.773438 99.046875 218.238281 C 99.738281 218.703125 100.378906 219.230469 100.96875 219.820312 C 101.558594 220.410156 102.085938 221.050781 102.546875 221.746094 C 103.011719 222.441406 103.402344 223.171875 103.71875 223.941406 C 104.039062 224.714844 104.277344 225.507812 104.441406 226.328125 C 104.605469 227.144531 104.683594 227.972656 104.683594 228.808594 L 104.683594 355.910156 C 104.683594 356.746094 104.605469 357.574219 104.441406 358.390625 C 104.277344 359.210938 104.039062 360.003906 103.71875 360.773438 C 103.402344 361.546875 103.011719 362.277344 102.546875 362.972656 C 102.085938 363.667969 101.558594 364.308594 100.96875 364.898438 C 100.378906 365.488281 99.738281 366.015625 99.046875 366.480469 C 98.355469 366.941406 97.625 367.335938 96.855469 367.652344 C 96.085938 367.972656 95.289062 368.214844 94.472656 368.378906 C 93.65625 368.539062 92.832031 368.621094 92 368.621094 L 15.882812 368.621094 C 15.050781 368.621094 14.222656 368.539062 13.40625 368.378906 C 12.589844 368.214844 11.796875 367.972656 11.027344 367.652344 C 10.257812 367.335938 9.527344 366.941406 8.835938 366.480469 C 8.140625 366.015625 7.5 365.488281 6.910156 364.898438 C 6.324219 364.308594 5.796875 363.667969 5.332031 362.972656 C 4.871094 362.277344 4.480469 361.546875 4.160156 360.773438 C 3.84375 360.003906 3.601562 359.210938 3.441406 358.390625 C 3.277344 357.574219 3.195312 356.746094 3.195312 355.910156 L 3.195312 228.808594 C 3.195312 227.972656 3.277344 227.144531 3.441406 226.328125 C 3.601562 225.507812 3.84375 224.714844 4.160156 223.941406 C 4.480469 223.171875 4.871094 222.441406 5.332031 221.746094 C 5.796875 221.050781 6.324219 220.410156 6.910156 219.820312 C 7.5 219.230469 8.140625 218.703125 8.835938 218.238281 C 9.527344 217.773438 10.257812 217.382812 11.027344 217.0625 C 11.796875 216.746094 12.589844 216.503906 13.40625 216.339844 C 14.222656 216.179688 15.050781 216.097656 15.882812 216.097656 Z M 15.882812 216.097656 "></path></g><path style=" stroke:none;fill-rule:nonzero;fill:rgb(27.449036%,97.24884%,100%);fill-opacity:1;" d="M 15.882812 216.097656 L 92 216.097656 C 92.414062 216.097656 92.828125 216.136719 93.238281 216.21875 C 93.644531 216.300781 94.042969 216.421875 94.425781 216.582031 C 94.8125 216.742188 95.175781 216.9375 95.523438 217.167969 C 95.871094 217.398438 96.191406 217.664062 96.484375 217.957031 C 96.777344 218.253906 97.042969 218.574219 97.273438 218.921875 C 97.503906 219.269531 97.699219 219.632812 97.859375 220.019531 C 98.019531 220.40625 98.140625 220.804688 98.21875 221.210938 C 98.300781 221.621094 98.34375 222.035156 98.34375 222.453125 L 98.34375 349.554688 C 98.34375 349.972656 98.300781 350.386719 98.21875 350.796875 C 98.140625 351.207031 98.019531 351.601562 97.859375 351.988281 C 97.699219 352.375 97.503906 352.738281 97.273438 353.085938 C 97.042969 353.433594 96.777344 353.753906 96.484375 354.050781 C 96.191406 354.34375 95.871094 354.609375 95.523438 354.839844 C 95.175781 355.070312 94.8125 355.269531 94.425781 355.425781 C 94.042969 355.585938 93.644531 355.707031 93.238281 355.789062 C 92.828125 355.871094 92.414062 355.910156 92 355.910156 L 15.882812 355.910156 C 15.464844 355.910156 15.054688 355.871094 14.644531 355.789062 C 14.234375 355.707031 13.839844 355.585938 13.453125 355.425781 C 13.070312 355.269531 12.703125 355.070312 12.359375 354.839844 C 12.011719 354.609375 11.691406 354.34375 11.398438 354.050781 C 11.101562 353.753906 10.839844 353.433594 10.609375 353.085938 C 10.375 352.738281 10.179688 352.375 10.023438 351.988281 C 9.863281 351.601562 9.742188 351.207031 9.660156 350.796875 C 9.578125 350.386719 9.539062 349.972656 9.539062 349.554688 L 9.539062 222.453125 C 9.539062 222.035156 9.578125 221.621094 9.660156 221.210938 C 9.742188 220.804688 9.863281 220.40625 10.023438 220.019531 C 10.179688 219.632812 10.375 219.269531 10.609375 218.921875 C 10.839844 218.574219 11.101562 218.253906 11.398438 217.957031 C 11.691406 217.664062 12.011719 217.398438 12.359375 217.167969 C 12.703125 216.9375 13.070312 216.742188 13.453125 216.582031 C 13.839844 216.421875 14.234375 216.300781 14.644531 216.21875 C 15.054688 216.136719 15.464844 216.097656 15.882812 216.097656 Z M 15.882812 216.097656 "></path><path style=" stroke:none;fill-rule:nonzero;fill:rgb(60.778809%,98.429871%,100%);fill-opacity:1;" d="M 22.300781 310.5625 L 20.863281 235.371094 C 20.851562 234.945312 20.886719 234.523438 20.964844 234.101562 C 21.042969 233.683594 21.160156 233.277344 21.316406 232.878906 C 21.476562 232.484375 21.671875 232.109375 21.90625 231.753906 C 22.140625 231.398438 22.410156 231.066406 22.710938 230.765625 C 23.007812 230.464844 23.335938 230.195312 23.691406 229.957031 C 24.046875 229.722656 24.421875 229.523438 24.816406 229.363281 C 25.210938 229.203125 25.617188 229.082031 26.035156 229.003906 C 26.453125 228.925781 26.875 228.890625 27.300781 228.894531 L 74.613281 229.53125 C 75.207031 229.539062 75.792969 229.628906 76.359375 229.804688 C 76.929688 229.976562 77.464844 230.222656 77.96875 230.546875 C 78.46875 230.871094 78.914062 231.257812 79.304688 231.707031 C 79.695312 232.15625 80.019531 232.652344 80.273438 233.191406 C 80.523438 233.734375 80.699219 234.296875 80.792969 234.886719 C 80.882812 235.476562 80.894531 236.066406 80.824219 236.660156 C 80.75 237.25 80.597656 237.824219 80.363281 238.371094 C 80.132812 238.921875 79.828125 239.425781 79.453125 239.890625 L 48.582031 277.972656 C 48.171875 278.480469 47.84375 279.039062 47.597656 279.648438 L 34.542969 312.773438 C 34.273438 313.457031 33.898438 314.074219 33.414062 314.625 C 32.933594 315.179688 32.371094 315.632812 31.730469 315.992188 C 31.089844 316.347656 30.40625 316.585938 29.683594 316.707031 C 28.960938 316.828125 28.238281 316.824219 27.519531 316.695312 C 26.796875 316.5625 26.117188 316.316406 25.480469 315.949219 C 24.847656 315.582031 24.289062 315.121094 23.816406 314.5625 C 23.339844 314.003906 22.972656 313.378906 22.710938 312.691406 C 22.453125 312.003906 22.316406 311.296875 22.300781 310.5625 Z M 22.300781 310.5625 "></path><g clip-path="url(#clip2)" clip-rule="nonzero"><path style=" stroke:none;fill-rule:nonzero;fill:rgb(77.648926%,77.249146%,79.219055%);fill-opacity:1;" d="M 364.308594 10.511719 C 364.222656 10.296875 364.125 10.082031 364.015625 9.878906 C 363.773438 9.398438 363.480469 8.957031 363.128906 8.554688 C 362.554688 7.84375 361.847656 7.304688 361.007812 6.941406 C 360.953125 6.941406 360.90625 6.863281 360.851562 6.84375 C 360.140625 6.566406 359.40625 6.417969 358.644531 6.40625 C 358.546875 6.417969 358.484375 6.375 358.410156 6.375 L 333.035156 6.375 C 332.621094 6.375 332.207031 6.417969 331.796875 6.496094 C 331.390625 6.578125 330.992188 6.699219 330.609375 6.859375 C 330.222656 7.019531 329.859375 7.214844 329.511719 7.445312 C 329.164062 7.679688 328.84375 7.941406 328.550781 8.238281 C 328.257812 8.53125 327.992188 8.851562 327.761719 9.199219 C 327.53125 9.546875 327.335938 9.914062 327.175781 10.296875 C 327.015625 10.683594 326.894531 11.082031 326.816406 11.492188 C 326.734375 11.898438 326.691406 12.3125 326.691406 12.730469 C 326.691406 13.148438 326.734375 13.5625 326.816406 13.96875 C 326.894531 14.378906 327.015625 14.777344 327.175781 15.164062 C 327.335938 15.546875 327.53125 15.914062 327.761719 16.261719 C 327.992188 16.609375 328.257812 16.929688 328.550781 17.222656 C 328.84375 17.519531 329.164062 17.78125 329.511719 18.015625 C 329.859375 18.246094 330.222656 18.441406 330.609375 18.601562 C 330.992188 18.761719 331.390625 18.882812 331.796875 18.964844 C 332.207031 19.046875 332.621094 19.085938 333.035156 19.085938 L 343.097656 19.085938 L 237.890625 124.492188 L 182.113281 68.613281 C 181.820312 68.316406 181.5 68.054688 181.152344 67.820312 C 180.808594 67.589844 180.441406 67.394531 180.058594 67.234375 C 179.671875 67.074219 179.277344 66.953125 178.867188 66.875 C 178.460938 66.792969 178.046875 66.75 177.628906 66.75 C 177.214844 66.75 176.800781 66.792969 176.394531 66.875 C 175.984375 66.953125 175.589844 67.074219 175.203125 67.234375 C 174.820312 67.394531 174.453125 67.589844 174.105469 67.820312 C 173.761719 68.054688 173.441406 68.316406 173.144531 68.613281 L 107.855469 134.027344 L 77.453125 103.566406 C 77.160156 103.269531 76.839844 103.007812 76.492188 102.773438 C 76.148438 102.542969 75.78125 102.347656 75.398438 102.1875 C 75.011719 102.027344 74.617188 101.90625 74.207031 101.828125 C 73.796875 101.746094 73.386719 101.703125 72.96875 101.703125 C 72.554688 101.703125 72.140625 101.746094 71.734375 101.828125 C 71.324219 101.90625 70.925781 102.027344 70.542969 102.1875 C 70.15625 102.347656 69.792969 102.542969 69.445312 102.773438 C 69.101562 103.007812 68.78125 103.269531 68.484375 103.566406 L 11.398438 160.761719 C 11.09375 161.054688 10.824219 161.375 10.585938 161.722656 C 10.34375 162.070312 10.140625 162.4375 9.976562 162.824219 C 9.808594 163.210938 9.683594 163.613281 9.597656 164.027344 C 9.511719 164.4375 9.464844 164.855469 9.460938 165.277344 C 9.457031 165.699219 9.496094 166.117188 9.574219 166.53125 C 9.65625 166.945312 9.773438 167.347656 9.933594 167.738281 C 10.09375 168.128906 10.289062 168.5 10.523438 168.851562 C 10.753906 169.203125 11.019531 169.527344 11.320312 169.828125 C 11.617188 170.125 11.941406 170.390625 12.292969 170.625 C 12.640625 170.859375 13.011719 171.054688 13.402344 171.214844 C 13.792969 171.375 14.195312 171.496094 14.605469 171.574219 C 15.019531 171.652344 15.4375 171.691406 15.859375 171.6875 C 16.28125 171.683594 16.695312 171.640625 17.109375 171.554688 C 17.519531 171.464844 17.921875 171.339844 18.308594 171.171875 C 18.695312 171.007812 19.0625 170.804688 19.40625 170.5625 C 19.753906 170.324219 20.074219 170.050781 20.367188 169.75 L 72.96875 117.042969 L 103.371094 147.503906 C 103.667969 147.800781 103.988281 148.0625 104.332031 148.296875 C 104.679688 148.527344 105.046875 148.722656 105.429688 148.882812 C 105.816406 149.042969 106.210938 149.164062 106.621094 149.242188 C 107.027344 149.324219 107.441406 149.367188 107.855469 149.367188 C 108.273438 149.367188 108.683594 149.324219 109.09375 149.242188 C 109.503906 149.164062 109.898438 149.042969 110.285156 148.882812 C 110.667969 148.722656 111.035156 148.527344 111.378906 148.296875 C 111.726562 148.0625 112.046875 147.800781 112.339844 147.503906 L 177.628906 82.089844 L 233.40625 137.972656 C 233.699219 138.265625 234.019531 138.53125 234.367188 138.761719 C 234.710938 138.996094 235.078125 139.191406 235.464844 139.351562 C 235.847656 139.507812 236.246094 139.628906 236.652344 139.710938 C 237.0625 139.792969 237.472656 139.832031 237.890625 139.832031 C 238.304688 139.832031 238.71875 139.792969 239.128906 139.710938 C 239.535156 139.628906 239.933594 139.507812 240.316406 139.351562 C 240.703125 139.191406 241.066406 138.996094 241.414062 138.761719 C 241.757812 138.53125 242.078125 138.265625 242.375 137.972656 L 352.066406 28.070312 L 352.066406 38.152344 C 352.066406 38.570312 352.105469 38.980469 352.1875 39.390625 C 352.269531 39.800781 352.390625 40.199219 352.546875 40.582031 C 352.707031 40.96875 352.902344 41.335938 353.132812 41.683594 C 353.367188 42.027344 353.628906 42.351562 353.921875 42.644531 C 354.21875 42.941406 354.539062 43.203125 354.882812 43.433594 C 355.230469 43.667969 355.597656 43.863281 355.980469 44.023438 C 356.367188 44.183594 356.761719 44.304688 357.171875 44.382812 C 357.578125 44.464844 357.992188 44.507812 358.410156 44.507812 C 358.824219 44.507812 359.238281 44.464844 359.644531 44.382812 C 360.054688 44.304688 360.449219 44.183594 360.835938 44.023438 C 361.21875 43.863281 361.585938 43.667969 361.933594 43.433594 C 362.277344 43.203125 362.597656 42.941406 362.894531 42.644531 C 363.1875 42.351562 363.449219 42.027344 363.683594 41.683594 C 363.914062 41.335938 364.109375 40.96875 364.269531 40.582031 C 364.429688 40.199219 364.546875 39.800781 364.628906 39.390625 C 364.710938 38.980469 364.75 38.570312 364.75 38.152344 L 364.75 12.730469 C 364.738281 11.964844 364.589844 11.226562 364.308594 10.511719 Z M 364.308594 10.511719 "></path></g><g clip-path="url(#clip3)" clip-rule="nonzero"><path style=" stroke:none;fill-rule:nonzero;fill:rgb(100%,47.44873%,33.729553%);fill-opacity:1;" d="M 282.292969 152.546875 L 358.410156 152.546875 C 359.242188 152.546875 360.066406 152.625 360.882812 152.789062 C 361.699219 152.953125 362.492188 153.191406 363.261719 153.511719 C 364.03125 153.832031 364.765625 154.222656 365.457031 154.6875 C 366.148438 155.152344 366.789062 155.675781 367.378906 156.269531 C 367.96875 156.859375 368.492188 157.5 368.957031 158.195312 C 369.417969 158.886719 369.808594 159.621094 370.128906 160.390625 C 370.449219 161.164062 370.6875 161.957031 370.851562 162.777344 C 371.011719 163.59375 371.09375 164.421875 371.09375 165.253906 L 371.09375 355.910156 C 371.09375 356.746094 371.011719 357.574219 370.851562 358.390625 C 370.6875 359.210938 370.449219 360.003906 370.128906 360.773438 C 369.808594 361.546875 369.417969 362.277344 368.957031 362.972656 C 368.492188 363.667969 367.96875 364.308594 367.378906 364.898438 C 366.789062 365.488281 366.148438 366.015625 365.457031 366.480469 C 364.765625 366.941406 364.03125 367.335938 363.261719 367.652344 C 362.492188 367.972656 361.699219 368.214844 360.882812 368.378906 C 360.066406 368.539062 359.242188 368.621094 358.410156 368.621094 L 282.292969 368.621094 C 281.457031 368.621094 280.632812 368.539062 279.816406 368.378906 C 279 368.214844 278.207031 367.972656 277.4375 367.652344 C 276.667969 367.335938 275.9375 366.941406 275.242188 366.480469 C 274.550781 366.015625 273.910156 365.488281 273.320312 364.898438 C 272.730469 364.308594 272.207031 363.667969 271.742188 362.972656 C 271.28125 362.277344 270.890625 361.546875 270.570312 360.773438 C 270.253906 360.003906 270.011719 359.210938 269.847656 358.390625 C 269.6875 357.574219 269.605469 356.746094 269.605469 355.910156 L 269.605469 165.253906 C 269.605469 164.421875 269.6875 163.59375 269.847656 162.777344 C 270.011719 161.957031 270.253906 161.164062 270.570312 160.390625 C 270.890625 159.621094 271.28125 158.886719 271.742188 158.195312 C 272.207031 157.5 272.730469 156.859375 273.320312 156.269531 C 273.910156 155.675781 274.550781 155.152344 275.242188 154.6875 C 275.9375 154.222656 276.667969 153.832031 277.4375 153.511719 C 278.207031 153.191406 279 152.953125 279.816406 152.789062 C 280.632812 152.625 281.457031 152.546875 282.292969 152.546875 Z M 282.292969 152.546875 "></path></g><path style=" stroke:none;fill-rule:nonzero;fill:rgb(100%,58.039856%,47.059631%);fill-opacity:1;" d="M 282.292969 152.546875 L 358.410156 152.546875 C 358.824219 152.546875 359.238281 152.585938 359.644531 152.667969 C 360.054688 152.75 360.449219 152.867188 360.835938 153.027344 C 361.21875 153.1875 361.585938 153.382812 361.933594 153.617188 C 362.277344 153.847656 362.597656 154.109375 362.894531 154.40625 C 363.1875 154.703125 363.449219 155.023438 363.683594 155.371094 C 363.914062 155.714844 364.109375 156.082031 364.269531 156.46875 C 364.429688 156.855469 364.546875 157.25 364.628906 157.660156 C 364.710938 158.070312 364.75 158.484375 364.75 158.898438 L 364.75 349.554688 C 364.75 349.972656 364.710938 350.386719 364.628906 350.796875 C 364.546875 351.207031 364.429688 351.601562 364.269531 351.988281 C 364.109375 352.375 363.914062 352.738281 363.683594 353.085938 C 363.449219 353.433594 363.1875 353.753906 362.894531 354.050781 C 362.597656 354.34375 362.277344 354.609375 361.933594 354.839844 C 361.585938 355.070312 361.21875 355.269531 360.835938 355.425781 C 360.449219 355.585938 360.054688 355.707031 359.644531 355.789062 C 359.238281 355.871094 358.824219 355.910156 358.410156 355.910156 L 282.292969 355.910156 C 281.875 355.910156 281.460938 355.871094 281.054688 355.789062 C 280.644531 355.707031 280.25 355.585938 279.863281 355.425781 C 279.480469 355.269531 279.113281 355.070312 278.765625 354.839844 C 278.421875 354.609375 278.101562 354.34375 277.804688 354.050781 C 277.511719 353.753906 277.25 353.433594 277.015625 353.085938 C 276.785156 352.738281 276.589844 352.375 276.429688 351.988281 C 276.273438 351.601562 276.152344 351.207031 276.070312 350.796875 C 275.988281 350.386719 275.949219 349.972656 275.949219 349.554688 L 275.949219 158.898438 C 275.949219 158.484375 275.988281 158.070312 276.070312 157.660156 C 276.152344 157.25 276.273438 156.855469 276.429688 156.46875 C 276.589844 156.082031 276.785156 155.714844 277.015625 155.371094 C 277.25 155.023438 277.511719 154.703125 277.804688 154.40625 C 278.101562 154.109375 278.421875 153.847656 278.765625 153.617188 C 279.113281 153.382812 279.480469 153.1875 279.863281 153.027344 C 280.25 152.867188 280.644531 152.75 281.054688 152.667969 C 281.460938 152.585938 281.875 152.546875 282.292969 152.546875 Z M 282.292969 152.546875 "></path><path style=" stroke:none;fill-rule:nonzero;fill:rgb(100%,73.728943%,67.059326%);fill-opacity:1;" d="M 288.722656 291.90625 L 287.226562 174.972656 C 287.222656 174.546875 287.257812 174.125 287.335938 173.707031 C 287.414062 173.285156 287.535156 172.878906 287.695312 172.484375 C 287.859375 172.089844 288.054688 171.714844 288.292969 171.363281 C 288.527344 171.007812 288.796875 170.679688 289.097656 170.378906 C 289.402344 170.078125 289.730469 169.8125 290.085938 169.578125 C 290.441406 169.34375 290.816406 169.148438 291.210938 168.988281 C 291.605469 168.832031 292.011719 168.714844 292.429688 168.636719 C 292.847656 168.558594 293.269531 168.527344 293.695312 168.535156 L 343.699219 169.550781 C 343.96875 169.558594 344.238281 169.578125 344.507812 169.621094 C 344.773438 169.660156 345.039062 169.71875 345.300781 169.789062 C 345.558594 169.863281 345.816406 169.957031 346.0625 170.0625 C 346.3125 170.167969 346.554688 170.289062 346.789062 170.429688 C 347.019531 170.566406 347.246094 170.71875 347.457031 170.882812 C 347.671875 171.050781 347.875 171.230469 348.066406 171.421875 C 348.257812 171.613281 348.433594 171.820312 348.601562 172.035156 C 348.765625 172.25 348.914062 172.472656 349.050781 172.707031 C 349.1875 172.941406 349.308594 173.183594 349.414062 173.4375 C 349.519531 173.6875 349.609375 173.941406 349.679688 174.203125 C 349.753906 174.464844 349.808594 174.730469 349.847656 174.996094 C 349.886719 175.265625 349.90625 175.535156 349.914062 175.808594 C 349.917969 176.078125 349.902344 176.347656 349.871094 176.621094 C 349.84375 176.890625 349.792969 177.15625 349.730469 177.417969 C 349.664062 177.683594 349.585938 177.941406 349.488281 178.195312 C 349.390625 178.445312 349.277344 178.691406 349.148438 178.933594 L 314.722656 242.660156 C 314.484375 243.109375 314.296875 243.582031 314.164062 244.074219 L 301.199219 293.441406 C 301.101562 293.808594 300.972656 294.164062 300.8125 294.511719 C 300.652344 294.855469 300.460938 295.183594 300.242188 295.496094 C 300.023438 295.804688 299.777344 296.09375 299.503906 296.363281 C 299.234375 296.628906 298.941406 296.867188 298.625 297.082031 C 298.3125 297.296875 297.980469 297.480469 297.632812 297.636719 C 297.285156 297.789062 296.925781 297.910156 296.554688 298 C 296.183594 298.089844 295.808594 298.144531 295.429688 298.167969 C 295.050781 298.1875 294.671875 298.175781 294.292969 298.128906 C 293.917969 298.085938 293.546875 298.003906 293.183594 297.890625 C 292.820312 297.777344 292.46875 297.632812 292.132812 297.457031 C 291.796875 297.28125 291.476562 297.078125 291.175781 296.84375 C 290.875 296.609375 290.597656 296.351562 290.34375 296.066406 C 290.089844 295.78125 289.863281 295.476562 289.664062 295.152344 C 289.464844 294.828125 289.296875 294.488281 289.15625 294.132812 C 289.019531 293.78125 288.914062 293.414062 288.839844 293.039062 C 288.765625 292.667969 288.726562 292.289062 288.722656 291.90625 Z M 288.722656 291.90625 "></path><g clip-path="url(#clip4)" clip-rule="nonzero"><path style=" stroke:none;fill-rule:nonzero;fill:rgb(100%,83.139038%,13.328552%);fill-opacity:1;" d="M 149.085938 184.320312 L 225.203125 184.320312 C 226.035156 184.320312 226.863281 184.402344 227.679688 184.566406 C 228.496094 184.726562 229.289062 184.96875 230.058594 185.289062 C 230.828125 185.609375 231.558594 186 232.25 186.464844 C 232.945312 186.925781 233.585938 187.453125 234.175781 188.042969 C 234.761719 188.632812 235.289062 189.277344 235.75 189.96875 C 236.214844 190.664062 236.605469 191.394531 236.925781 192.167969 C 237.242188 192.9375 237.484375 193.734375 237.644531 194.550781 C 237.808594 195.371094 237.890625 196.195312 237.890625 197.03125 L 237.890625 355.910156 C 237.890625 356.746094 237.808594 357.574219 237.644531 358.390625 C 237.484375 359.210938 237.242188 360.003906 236.925781 360.773438 C 236.605469 361.546875 236.214844 362.277344 235.75 362.972656 C 235.289062 363.667969 234.761719 364.308594 234.175781 364.898438 C 233.585938 365.488281 232.945312 366.015625 232.25 366.480469 C 231.558594 366.941406 230.828125 367.335938 230.058594 367.652344 C 229.289062 367.972656 228.496094 368.214844 227.679688 368.378906 C 226.863281 368.539062 226.035156 368.621094 225.203125 368.621094 L 149.085938 368.621094 C 148.253906 368.621094 147.429688 368.539062 146.613281 368.378906 C 145.792969 368.214844 145 367.972656 144.230469 367.652344 C 143.460938 367.335938 142.730469 366.941406 142.039062 366.480469 C 141.347656 366.015625 140.707031 365.488281 140.117188 364.898438 C 139.527344 364.308594 139 363.667969 138.539062 362.972656 C 138.074219 362.277344 137.683594 361.546875 137.367188 360.773438 C 137.046875 360.003906 136.808594 359.210938 136.644531 358.390625 C 136.480469 357.574219 136.402344 356.746094 136.402344 355.910156 L 136.402344 197.03125 C 136.402344 196.195312 136.480469 195.371094 136.644531 194.550781 C 136.808594 193.734375 137.046875 192.9375 137.367188 192.167969 C 137.683594 191.394531 138.074219 190.664062 138.539062 189.96875 C 139 189.277344 139.527344 188.632812 140.117188 188.042969 C 140.707031 187.453125 141.347656 186.925781 142.039062 186.464844 C 142.730469 186 143.460938 185.609375 144.230469 185.289062 C 145 184.96875 145.792969 184.726562 146.613281 184.566406 C 147.429688 184.402344 148.253906 184.320312 149.085938 184.320312 Z M 149.085938 184.320312 "></path></g><path style=" stroke:none;fill-rule:nonzero;fill:rgb(100%,87.059021%,33.329773%);fill-opacity:1;" d="M 149.085938 184.320312 L 225.203125 184.320312 C 225.621094 184.320312 226.03125 184.363281 226.441406 184.441406 C 226.851562 184.523438 227.246094 184.644531 227.632812 184.804688 C 228.015625 184.964844 228.382812 185.160156 228.726562 185.390625 C 229.074219 185.625 229.394531 185.886719 229.6875 186.183594 C 229.984375 186.476562 230.246094 186.796875 230.476562 187.144531 C 230.710938 187.492188 230.90625 187.859375 231.0625 188.242188 C 231.222656 188.628906 231.34375 189.027344 231.425781 189.4375 C 231.507812 189.84375 231.546875 190.257812 231.546875 190.675781 L 231.546875 349.554688 C 231.546875 349.972656 231.507812 350.386719 231.425781 350.796875 C 231.34375 351.207031 231.222656 351.601562 231.0625 351.988281 C 230.90625 352.375 230.710938 352.738281 230.476562 353.085938 C 230.246094 353.433594 229.984375 353.753906 229.6875 354.050781 C 229.394531 354.34375 229.074219 354.609375 228.726562 354.839844 C 228.382812 355.070312 228.015625 355.269531 227.632812 355.425781 C 227.246094 355.585938 226.851562 355.707031 226.441406 355.789062 C 226.03125 355.871094 225.621094 355.910156 225.203125 355.910156 L 149.085938 355.910156 C 148.671875 355.910156 148.257812 355.871094 147.847656 355.789062 C 147.441406 355.707031 147.042969 355.585938 146.660156 355.425781 C 146.273438 355.269531 145.910156 355.070312 145.5625 354.839844 C 145.214844 354.609375 144.894531 354.34375 144.601562 354.050781 C 144.308594 353.753906 144.042969 353.433594 143.8125 353.085938 C 143.582031 352.738281 143.386719 352.375 143.226562 351.988281 C 143.066406 351.601562 142.945312 351.207031 142.867188 350.796875 C 142.785156 350.386719 142.742188 349.972656 142.742188 349.554688 L 142.742188 190.675781 C 142.742188 190.257812 142.785156 189.84375 142.867188 189.4375 C 142.945312 189.027344 143.066406 188.628906 143.226562 188.242188 C 143.386719 187.859375 143.582031 187.492188 143.8125 187.144531 C 144.042969 186.796875 144.308594 186.476562 144.601562 186.183594 C 144.894531 185.886719 145.214844 185.625 145.5625 185.390625 C 145.910156 185.160156 146.273438 184.964844 146.660156 184.804688 C 147.042969 184.644531 147.441406 184.523438 147.847656 184.441406 C 148.257812 184.363281 148.671875 184.320312 149.085938 184.320312 Z M 149.085938 184.320312 "></path><path style=" stroke:none;fill-rule:nonzero;fill:rgb(100%,92.158508%,59.999084%);fill-opacity:1;" d="M 155.511719 301.257812 L 154.039062 205.179688 C 154.035156 204.753906 154.070312 204.328125 154.148438 203.910156 C 154.226562 203.492188 154.347656 203.085938 154.507812 202.6875 C 154.667969 202.292969 154.863281 201.917969 155.101562 201.5625 C 155.335938 201.207031 155.605469 200.878906 155.90625 200.578125 C 156.207031 200.277344 156.535156 200.011719 156.890625 199.777344 C 157.246094 199.542969 157.621094 199.34375 158.019531 199.183594 C 158.414062 199.027344 158.820312 198.910156 159.238281 198.832031 C 159.65625 198.753906 160.078125 198.71875 160.503906 198.726562 L 209.464844 199.5625 C 210.03125 199.570312 210.585938 199.65625 211.132812 199.8125 C 211.675781 199.972656 212.1875 200.199219 212.671875 200.496094 C 213.152344 200.792969 213.589844 201.148438 213.976562 201.5625 C 214.367188 201.972656 214.691406 202.433594 214.957031 202.933594 C 215.222656 203.433594 215.417969 203.960938 215.542969 204.515625 C 215.667969 205.066406 215.71875 205.628906 215.695312 206.195312 C 215.667969 206.761719 215.570312 207.316406 215.398438 207.855469 C 215.222656 208.394531 214.984375 208.902344 214.675781 209.378906 L 181.625 260.308594 C 181.3125 260.792969 181.070312 261.3125 180.898438 261.859375 L 167.90625 303.082031 C 167.679688 303.800781 167.335938 304.460938 166.875 305.058594 C 166.414062 305.660156 165.867188 306.160156 165.226562 306.558594 C 164.585938 306.960938 163.898438 307.242188 163.160156 307.394531 C 162.421875 307.550781 161.679688 307.574219 160.933594 307.464844 C 160.1875 307.355469 159.480469 307.117188 158.820312 306.757812 C 158.15625 306.394531 157.578125 305.929688 157.082031 305.363281 C 156.585938 304.792969 156.199219 304.15625 155.929688 303.449219 C 155.660156 302.742188 155.523438 302.011719 155.511719 301.257812 Z M 155.511719 301.257812 "></path></g></svg>