<svg xmlns="http://www.w3.org/2000/svg" xmlns:xlink="http://www.w3.org/1999/xlink" width="375pt" height="374.999991pt" viewBox="0 0 375 374.999991"><defs><clipPath id="clip1"><path d="M 89 67 L 286 67 L 286 374.8125 L 89 374.8125 Z M 89 67 "></path></clipPath></defs><g id="surface1"><path style=" stroke:none;fill-rule:nonzero;fill:rgb(23.919678%,32.939148%,12.939453%);fill-opacity:1;" d="M 221.902344 70.15625 C 225.285156 63.722656 208.660156 53.695312 204.496094 62.101562 C 199.984375 59.453125 192.246094 54.605469 187.269531 56.199219 C 181.285156 58.121094 175.984375 67.617188 182.40625 71.546875 C 176.800781 66.832031 169.960938 74.085938 169.335938 79.917969 C 168.886719 84.171875 173.777344 93.277344 177.835938 94.417969 C 178.070312 97.46875 180.039062 101.59375 181.796875 103.382812 C 186.671875 108.347656 196.253906 106.234375 197.40625 99.523438 C 197.695312 105.308594 203.835938 108.242188 209.296875 107.6875 C 219.285156 106.683594 215.90625 102.652344 219.527344 96.300781 C 222.230469 91.558594 223.988281 92.691406 227.804688 88.402344 C 232.660156 82.941406 229.859375 69.042969 221.902344 70.15625 "></path><path style=" stroke:none;fill-rule:nonzero;fill:rgb(23.919678%,32.939148%,12.939453%);fill-opacity:1;" d="M 258.09375 76.46875 C 261.46875 70.035156 244.847656 60.007812 240.6875 68.414062 C 236.171875 65.765625 228.433594 60.914062 223.453125 62.511719 C 217.46875 64.4375 212.167969 73.933594 218.59375 77.859375 C 212.988281 73.144531 206.148438 80.40625 205.523438 86.226562 C 205.074219 90.480469 209.957031 99.59375 214.019531 100.730469 C 214.257812 103.78125 216.230469 107.902344 217.984375 109.699219 C 222.855469 114.664062 232.441406 112.550781 233.589844 105.839844 C 233.886719 111.621094 240.027344 114.554688 245.484375 114.003906 C 255.472656 112.996094 252.09375 108.964844 255.710938 102.617188 C 258.417969 97.875 260.175781 99.003906 263.988281 94.71875 C 268.847656 89.253906 266.046875 75.355469 258.09375 76.46875 "></path><path style=" stroke:none;fill-rule:nonzero;fill:rgb(23.919678%,32.939148%,12.939453%);fill-opacity:1;" d="M 292.914062 114.699219 C 296.285156 108.265625 279.667969 98.242188 275.503906 106.652344 C 270.992188 103.996094 263.253906 99.148438 258.28125 100.746094 C 252.289062 102.667969 246.988281 112.167969 253.410156 116.09375 C 247.816406 111.371094 240.964844 118.632812 240.347656 124.460938 C 239.898438 128.710938 244.785156 137.824219 248.839844 138.964844 C 249.082031 142.011719 251.050781 146.140625 252.804688 147.929688 C 257.675781 152.894531 267.257812 150.785156 268.417969 144.074219 C 268.703125 149.851562 274.847656 152.785156 280.300781 152.234375 C 290.292969 151.222656 286.914062 147.195312 290.53125 140.847656 C 293.238281 136.105469 294.996094 137.242188 298.8125 132.949219 C 303.667969 127.488281 300.871094 113.585938 292.914062 114.699219 "></path><path style=" stroke:none;fill-rule:nonzero;fill:rgb(23.919678%,32.939148%,12.939453%);fill-opacity:1;" d="M 166.113281 81.117188 C 169.488281 74.6875 152.863281 64.660156 148.707031 73.066406 C 144.195312 70.417969 136.449219 65.566406 131.476562 67.164062 C 125.492188 69.089844 120.1875 78.585938 126.613281 82.507812 C 121.007812 77.792969 114.164062 85.054688 113.542969 90.882812 C 113.097656 95.132812 117.976562 104.238281 122.039062 105.382812 C 122.277344 108.433594 124.25 112.554688 126.003906 114.34375 C 130.875 119.3125 140.457031 117.203125 141.609375 110.488281 C 141.902344 116.269531 148.046875 119.203125 153.503906 118.65625 C 163.492188 117.648438 160.113281 113.613281 163.730469 107.265625 C 166.4375 102.523438 168.195312 103.65625 172.011719 99.371094 C 176.867188 93.902344 174.0625 80.003906 166.113281 81.117188 "></path><path style=" stroke:none;fill-rule:nonzero;fill:rgb(23.919678%,32.939148%,12.939453%);fill-opacity:1;" d="M 109.675781 107.054688 C 113.054688 100.621094 96.4375 90.597656 92.273438 99.003906 C 87.757812 96.347656 80.019531 91.5 75.042969 93.097656 C 69.054688 95.023438 63.757812 104.519531 70.175781 108.445312 C 64.574219 103.730469 57.734375 110.988281 57.109375 116.8125 C 56.664062 121.066406 61.546875 130.183594 65.609375 131.320312 C 65.84375 134.367188 67.8125 138.492188 69.566406 140.28125 C 74.445312 145.253906 84.019531 143.136719 85.179688 136.421875 C 85.46875 142.203125 91.609375 145.136719 97.070312 144.582031 C 107.054688 143.582031 103.683594 139.550781 107.296875 133.203125 C 110 128.457031 111.761719 129.589844 115.574219 125.304688 C 120.433594 119.839844 117.632812 105.9375 109.675781 107.054688 "></path><g clip-path="url(#clip1)" clip-rule="nonzero"><path style=" stroke:none;fill-rule:nonzero;fill:rgb(60.778809%,40.388489%,21.179199%);fill-opacity:1;" d="M 266.449219 143.929688 C 269.996094 142.480469 273.738281 141.605469 277.199219 139.933594 C 278.507812 139.300781 285.132812 133.839844 285.769531 133.964844 C 285.074219 133.828125 282.859375 132.890625 282.292969 132.578125 C 277.980469 137.71875 273.238281 136.1875 267.929688 138.460938 C 261.367188 141.277344 256.949219 146.539062 251.246094 149.15625 C 242.300781 153.261719 226.152344 153.824219 215.746094 155.046875 C 223.929688 145.8125 234.210938 139.820312 243.804688 132.738281 C 249.234375 128.734375 252.8125 123.574219 257.921875 119.535156 C 262.546875 115.875 267.464844 116.898438 271.929688 113.171875 C 267.558594 109.886719 257.007812 115.070312 251.34375 119.410156 C 255.542969 115.035156 258.113281 108.574219 254.816406 102.972656 C 248.441406 109.441406 245.484375 119.695312 238.320312 127.023438 C 230.417969 135.109375 220.5625 141.789062 211.566406 148.605469 C 218.636719 138.773438 229.382812 124.460938 234.214844 113.132812 C 237.183594 106.164062 236.347656 101.253906 236.820312 93.847656 C 237.367188 85.339844 238.871094 83.097656 243.042969 74.722656 C 225.503906 76.308594 230.753906 95.878906 226.773438 106.3125 L 226.839844 107.558594 C 226.824219 107.527344 226.050781 105.609375 225.953125 104.976562 C 225.488281 101.914062 225.984375 98.425781 225.535156 95.132812 C 224.980469 91.066406 223.535156 87.996094 221.796875 84.40625 C 220.339844 81.402344 218.234375 78.234375 217.324219 74.996094 C 216.769531 73.019531 217.640625 65.78125 214.09375 67.457031 C 209.160156 69.796875 218.199219 85.300781 219.144531 88.703125 C 220.351562 93.074219 221.296875 96.191406 220.4375 100.800781 C 217.230469 117.972656 202.917969 132.292969 202.460938 150.023438 C 202.71875 138.925781 197.945312 129.726562 198.617188 118.273438 C 199.203125 108.296875 208.285156 96.628906 206.335938 87.867188 C 201.902344 91.898438 198.207031 96.199219 193.417969 99.828125 C 187.09375 93.960938 182.75 65.960938 172.730469 73.21875 C 183.683594 98.484375 202.683594 139.03125 183.472656 165.425781 C 182.464844 149.179688 167.792969 136.253906 166.398438 120.914062 C 164.804688 103.359375 176.144531 92.820312 164.996094 75.039062 C 164.011719 75.21875 160.921875 76.136719 160.339844 76.359375 C 161.34375 87.585938 156.5 102.945312 159.96875 112.738281 C 154.484375 102.082031 149.6875 87.003906 143.78125 77.554688 C 142.226562 78.160156 137.289062 81.289062 135.902344 82.558594 C 138.976562 94.03125 142.871094 105.382812 147.5625 116.730469 C 151.546875 126.367188 157.851562 134.972656 161.019531 144.957031 C 162.742188 150.375 162.171875 151.808594 156.5625 153.714844 C 151.53125 155.421875 146.582031 154.984375 141.722656 152.890625 C 133.613281 149.394531 127.621094 143.355469 123.871094 135.855469 C 120.351562 128.824219 120.089844 121.582031 117.773438 114.417969 C 116.605469 110.789062 115.871094 108.472656 116.0625 104.558594 C 116.1875 102.089844 117.199219 95.824219 115.648438 93.847656 C 115.535156 93.707031 115.480469 92.765625 115.441406 92.519531 C 111.445312 94.027344 112.753906 105.007812 112.402344 108.84375 C 111.996094 113.308594 117.609375 121.40625 116.09375 124.554688 C 107.867188 121.859375 101.988281 102.71875 102.304688 95.277344 C 96.195312 97.703125 101.855469 111.6875 103.652344 116.132812 C 106.429688 123.019531 112.855469 128.6875 116.917969 134.988281 C 120.765625 140.960938 123.691406 147.722656 127.917969 153.53125 C 132.628906 159.992188 139.503906 159.488281 145.578125 163.789062 C 155.445312 170.765625 156.070312 188.519531 157.316406 199.292969 C 159.09375 214.632812 159.652344 230.128906 158.835938 245.558594 C 158.074219 260.015625 159.15625 274.675781 156.804688 289.023438 C 153.996094 306.144531 147.011719 305.542969 137.46875 317.5 C 131.6875 324.742188 127.367188 329.890625 118.703125 334.488281 C 110.773438 338.695312 74.015625 348.324219 96.679688 352.296875 C 107.039062 354.105469 121.835938 348.441406 130.195312 342.351562 C 138.46875 336.335938 147.273438 320.800781 160.480469 323.371094 C 162.804688 338.324219 149.414062 337.917969 156.382812 352.019531 C 159.929688 359.195312 165.257812 369.859375 170.347656 375.84375 C 172.640625 364.320312 166.695312 356.230469 166.671875 344.828125 C 166.640625 333.328125 174.707031 325.488281 174.003906 314.183594 C 189.382812 319.714844 185.191406 325.933594 192.015625 336.578125 C 198.761719 347.117188 215.441406 344.414062 226.839844 343.621094 C 223.804688 337.476562 207.917969 340.878906 202.910156 336.503906 C 197.144531 331.484375 197.660156 321.007812 194.453125 314.488281 C 193.621094 312.8125 192.621094 311.339844 191.527344 309.984375 C 191.695312 309.984375 191.867188 309.976562 192.03125 309.976562 C 191.339844 306.445312 191.007812 302.8125 190.769531 299.28125 C 189.976562 287.378906 190.992188 275.390625 192.203125 263.558594 C 194.105469 244.898438 190.460938 224.128906 195.050781 204.414062 C 199.445312 185.554688 212.46875 167.835938 230.625 159.378906 C 235.527344 157.097656 252.46875 152.753906 257.640625 153.28125 C 263.871094 153.921875 279.890625 172.644531 284.445312 163.789062 C 278.898438 162.671875 276.277344 157.507812 271.339844 155.238281 C 266.070312 152.8125 257.523438 147.574219 266.449219 143.929688 "></path></g><path style=" stroke:none;fill-rule:nonzero;fill:rgb(50.19989%,79.998779%,15.689087%);fill-opacity:1;" d="M 76.140625 59.082031 C 69.789062 53.675781 59.214844 52.96875 53.675781 61.066406 C 48.523438 68.59375 55.691406 72.285156 55.296875 79.050781 C 53.761719 82.457031 51.6875 85.492188 49.074219 88.144531 C 48.332031 91.160156 49.5 94.636719 49.921875 97.640625 C 51.433594 108.332031 57.800781 123.785156 69.992188 111.554688 C 73.992188 121.386719 81.910156 130.550781 91.898438 124.339844 C 97.488281 120.863281 100.929688 116.21875 96.714844 110.019531 C 97.90625 121.996094 111.679688 118.957031 117.429688 111.738281 C 120.980469 107.289062 123.695312 87.292969 115.609375 91.8125 C 126.625 89.730469 128.234375 76.421875 124.210938 67.539062 C 120.136719 58.550781 107.878906 54.921875 105.175781 67.253906 C 110.359375 57.199219 109.234375 39.394531 94.921875 37.394531 C 81.566406 35.527344 65.386719 55.578125 79.894531 64.71875 "></path><path style=" stroke:none;fill-rule:nonzero;fill:rgb(50.19989%,79.998779%,15.689087%);fill-opacity:1;" d="M 256.886719 46.171875 C 263.191406 33.664062 241.488281 10.261719 232.335938 27.835938 C 225.988281 21.128906 215.441406 18.441406 207.554688 25.421875 C 202.390625 29.988281 201.628906 42.628906 206.5625 48.726562 C 200.695312 48.5 196.710938 59.503906 197.03125 65.332031 C 197.710938 77.789062 208.761719 88.539062 218.066406 77.273438 C 213.898438 84.199219 226.5 89.277344 232.648438 87.910156 C 239.453125 86.394531 245.46875 80.839844 247.339844 74.382812 C 248.773438 76.371094 250.550781 77.976562 252.34375 78.578125 C 258.324219 80.589844 270.359375 71.972656 273.039062 67.234375 C 279.566406 55.703125 267.363281 43.214844 256.886719 46.171875 "></path><path style=" stroke:none;fill-rule:nonzero;fill:rgb(50.19989%,79.998779%,15.689087%);fill-opacity:1;" d="M 285.777344 88.734375 C 288.882812 79.660156 283.910156 68.601562 276.96875 61.9375 C 264.125 63.261719 261.0625 75.753906 266.972656 85.996094 C 263.964844 79.925781 256.238281 72.734375 248.828125 75.683594 C 243.355469 77.867188 242.425781 85.097656 244.445312 90.660156 C 244.078125 90.800781 243.710938 90.960938 243.355469 91.160156 C 238.414062 94.003906 240.125 97.4375 240.804688 102.515625 C 241.945312 111.074219 248.140625 119.214844 255.960938 117.195312 C 254.257812 121.507812 263.886719 129.488281 269.695312 129.503906 C 276.351562 129.535156 290.828125 119.917969 285.753906 113.28125 C 292.777344 115.441406 301.375 103.335938 301.558594 97.347656 C 301.847656 87.855469 290.777344 82.699219 285.777344 88.734375 "></path><path style=" stroke:none;fill-rule:nonzero;fill:rgb(50.19989%,79.998779%,15.689087%);fill-opacity:1;" d="M 282.707031 155.507812 C 282.808594 155.285156 282.875 155.03125 282.917969 154.734375 L 286.671875 154.734375 C 285.121094 154.800781 283.816406 155.078125 282.707031 155.507812 Z M 346.695312 144.394531 C 346.367188 138.84375 342.714844 132.507812 338.101562 131.648438 C 344.460938 126.25 346.25 115.609375 340.832031 108.710938 C 334.71875 100.929688 315.449219 103.289062 319.359375 116.132812 C 314.996094 107.808594 308.113281 98.894531 296.960938 102.972656 C 283.367188 107.945312 284.773438 119.945312 291.285156 129.082031 C 286.945312 124.101562 273.585938 131.101562 271.382812 136.855469 C 268.648438 143.992188 275.527344 152.289062 280.90625 156.480469 C 274.121094 161.367188 279.320312 175.144531 284.847656 180.105469 C 290.828125 185.472656 308.234375 187.75 306.292969 174.78125 C 321.546875 201.167969 338.125 168.113281 329.636719 161.359375 C 338.003906 163.800781 347.175781 152.5625 346.695312 144.394531 "></path><path style=" stroke:none;fill-rule:nonzero;fill:rgb(39.608765%,58.81958%,17.248535%);fill-opacity:1;" d="M 155.179688 67.359375 C 159.371094 59.378906 138.757812 46.945312 133.59375 57.367188 C 128 54.085938 118.40625 48.074219 112.238281 50.050781 C 104.8125 52.433594 98.238281 64.214844 106.199219 69.078125 C 99.257812 63.234375 90.769531 72.234375 90 79.460938 C 89.441406 84.730469 95.503906 96.027344 100.53125 97.441406 C 100.828125 101.222656 103.277344 106.339844 105.453125 108.558594 C 111.492188 114.714844 123.371094 112.097656 124.800781 103.773438 C 125.164062 110.945312 132.78125 114.582031 139.550781 113.898438 C 151.929688 112.644531 147.742188 107.648438 152.230469 99.78125 C 155.585938 93.898438 157.761719 95.304688 162.496094 89.980469 C 168.519531 83.210938 165.042969 65.972656 155.179688 67.359375 "></path><path style=" stroke:none;fill-rule:nonzero;fill:rgb(39.608765%,58.81958%,17.248535%);fill-opacity:1;" d="M 240.039062 40.261719 C 244.226562 32.289062 223.617188 19.851562 218.453125 30.28125 C 212.859375 26.992188 203.261719 20.976562 197.09375 22.957031 C 189.667969 25.34375 183.09375 37.125 191.058594 41.988281 C 184.113281 36.140625 175.628906 45.140625 174.859375 52.367188 C 174.300781 57.640625 180.355469 68.9375 185.390625 70.351562 C 185.683594 74.128906 188.128906 79.25 190.308594 81.46875 C 196.347656 87.628906 208.226562 85.003906 209.660156 76.683594 C 210.023438 83.855469 217.636719 87.488281 224.410156 86.804688 C 236.789062 85.554688 232.597656 80.558594 237.089844 72.691406 C 240.445312 66.804688 242.621094 68.214844 247.351562 62.890625 C 253.375 56.117188 249.902344 38.882812 240.039062 40.261719 "></path><path style=" stroke:none;fill-rule:nonzero;fill:rgb(39.608765%,58.81958%,17.248535%);fill-opacity:1;" d="M 289.703125 67.359375 C 293.890625 59.382812 273.277344 46.945312 268.113281 57.367188 C 262.515625 54.085938 252.921875 48.074219 246.753906 50.050781 C 239.332031 52.433594 232.757812 64.214844 240.722656 69.082031 C 233.773438 63.234375 225.289062 72.238281 224.519531 79.460938 C 223.960938 84.730469 230.023438 96.03125 235.054688 97.441406 C 235.34375 101.222656 237.792969 106.339844 239.96875 108.558594 C 246.011719 114.71875 257.890625 112.097656 259.324219 103.773438 C 259.6875 110.945312 267.296875 114.582031 274.074219 113.898438 C 286.449219 112.648438 282.265625 107.648438 286.753906 99.78125 C 290.105469 93.898438 292.285156 95.304688 297.011719 89.980469 C 303.042969 83.210938 299.566406 65.972656 289.703125 67.359375 "></path><path style=" stroke:none;fill-rule:nonzero;fill:rgb(39.608765%,58.81958%,17.248535%);fill-opacity:1;" d="M 342.757812 104.257812 C 346.941406 96.28125 326.332031 83.84375 321.167969 94.273438 C 315.570312 90.980469 305.976562 84.96875 299.808594 86.949219 C 292.386719 89.332031 285.8125 101.113281 293.777344 105.980469 C 286.828125 100.132812 278.34375 109.132812 277.574219 116.355469 C 277.015625 121.632812 283.078125 132.929688 288.105469 134.339844 C 288.402344 138.125 290.84375 143.238281 293.023438 145.453125 C 299.066406 151.613281 310.945312 148.996094 312.378906 140.667969 C 312.738281 147.839844 320.351562 151.476562 327.117188 150.796875 C 339.503906 149.546875 335.316406 144.550781 339.804688 136.675781 C 343.160156 130.792969 345.335938 132.199219 350.074219 126.882812 C 356.09375 120.105469 352.621094 102.871094 342.757812 104.257812 "></path><path style=" stroke:none;fill-rule:nonzero;fill:rgb(39.608765%,58.81958%,17.248535%);fill-opacity:1;" d="M 84.550781 87.492188 C 88.742188 79.515625 68.125 67.078125 62.960938 77.503906 C 57.363281 74.214844 47.769531 68.207031 41.601562 70.183594 C 34.175781 72.566406 27.605469 84.347656 35.566406 89.214844 C 28.621094 83.367188 20.136719 92.367188 19.367188 99.589844 C 18.808594 104.867188 24.871094 116.160156 29.894531 117.574219 C 30.195312 121.359375 32.636719 126.472656 34.816406 128.691406 C 40.855469 134.851562 52.738281 132.230469 54.167969 123.90625 C 54.53125 131.074219 62.144531 134.714844 68.914062 134.027344 C 81.296875 132.78125 77.109375 127.78125 81.597656 119.914062 C 84.953125 114.027344 87.125 115.4375 91.859375 110.117188 C 97.886719 103.34375 94.414062 86.101562 84.550781 87.492188 "></path><path style=" stroke:none;fill-rule:nonzero;fill:rgb(50.19989%,79.998779%,15.689087%);fill-opacity:1;" d="M 160.4375 43.875 C 162.1875 38.898438 155.558594 28.441406 151.949219 25.753906 C 146.644531 21.8125 139.308594 22.703125 136.289062 27.507812 C 133.460938 22.566406 123.667969 22.246094 120.277344 29.859375 C 116.503906 27.8125 106.78125 32.34375 104.136719 35.671875 C 97.917969 43.476562 104.417969 54.160156 110.441406 60.285156 C 97.730469 61.722656 101.644531 84.886719 108.777344 90.515625 C 114.691406 95.179688 123.558594 92.222656 126.441406 85.535156 C 128.144531 91.8125 140.199219 92.324219 145.664062 89.839844 C 152.074219 86.921875 155.394531 81.242188 155.300781 75.269531 C 156.558594 76.507812 158.011719 77.367188 159.457031 77.496094 C 163.996094 77.890625 174.527344 67.050781 175.9375 63.261719 C 180.4375 51.167969 170.796875 42.027344 160.4375 43.875 "></path><path style=" stroke:none;fill-rule:nonzero;fill:rgb(50.19989%,79.998779%,15.689087%);fill-opacity:1;" d="M 207.714844 56.144531 C 211.960938 51.390625 213.457031 42.867188 211.769531 37.292969 C 208.183594 25.433594 196.28125 24.386719 190.871094 31.871094 C 190.96875 18.484375 161.773438 11.984375 163.546875 26.683594 C 157.1875 25.964844 148.320312 27.414062 146.007812 32.546875 C 143.652344 37.769531 150.023438 46.703125 153.035156 50.265625 C 142.449219 50.21875 136.71875 61.78125 139.488281 71.332031 C 141.226562 77.328125 146.332031 82.699219 151.722656 82.582031 C 154.808594 82.515625 158.710938 80.515625 160.582031 77.824219 C 161.226562 97.203125 190.03125 93.902344 190.277344 77.847656 C 194.976562 83.503906 209.796875 79 213.957031 72.042969 C 217.78125 65.652344 213.113281 57.53125 207.714844 56.144531 "></path><path style=" stroke:none;fill-rule:nonzero;fill:rgb(50.19989%,79.998779%,15.689087%);fill-opacity:1;" d="M 322.507812 73.261719 C 328.816406 60.753906 307.109375 37.351562 297.960938 54.925781 C 291.613281 48.222656 281.066406 45.53125 273.179688 52.511719 C 268.015625 57.078125 267.253906 69.71875 272.1875 75.816406 C 266.316406 75.589844 262.332031 86.601562 262.652344 92.421875 C 263.339844 104.878906 274.386719 115.628906 283.691406 104.363281 C 279.527344 111.285156 292.121094 116.367188 298.269531 115 C 305.070312 113.488281 311.089844 107.933594 312.964844 101.472656 C 314.394531 103.464844 316.175781 105.066406 317.964844 105.667969 C 323.949219 107.679688 335.976562 99.066406 338.660156 94.324219 C 345.191406 82.792969 332.988281 70.308594 322.507812 73.261719 "></path></g></svg>