<svg xmlns="http://www.w3.org/2000/svg" xmlns:xlink="http://www.w3.org/1999/xlink" width="375pt" height="374.999991pt" viewBox="0 0 375 374.999991"><defs><clipPath id="clip1"><path d="M 12.273438 207 L 272 207 L 272 375 L 12.273438 375 Z M 12.273438 207 "></path></clipPath></defs><g id="surface1"><path style=" stroke:none;fill-rule:nonzero;fill:rgb(100%,83.139038%,69.018555%);fill-opacity:1;" d="M 174.453125 174.609375 L 174.453125 239.40625 L 122.554688 239.40625 L 122.554688 174.609375 L 174.453125 174.609375 "></path><path style=" stroke:none;fill-rule:nonzero;fill:rgb(94.898987%,76.469421%,66.668701%);fill-opacity:1;" d="M 174.453125 174.609375 L 174.453125 194.046875 C 160.109375 208.375 136.898438 208.375 122.554688 194.046875 L 122.554688 174.609375 L 174.453125 174.609375 "></path><path style=" stroke:none;fill-rule:nonzero;fill:rgb(100%,83.139038%,69.018555%);fill-opacity:1;" d="M 25.246094 278.28125 L 25.246094 375.476562 L 64.171875 375.476562 L 64.171875 278.28125 L 25.246094 278.28125 "></path><path style=" stroke:none;fill-rule:nonzero;fill:rgb(12.159729%,57.649231%,25.878906%);fill-opacity:1;" d="M 375.554688 -0.335938 L 375.554688 12.621094 C 375.554688 34.085938 358.121094 51.5 336.632812 51.5 L 336.632812 38.539062 C 336.632812 17.078125 354.066406 -0.335938 375.554688 -0.335938 "></path><path style=" stroke:none;fill-rule:nonzero;fill:rgb(1.568604%,36.468506%,19.60907%);fill-opacity:1;" d="M 336.632812 103.335938 C 333.058594 103.335938 330.144531 100.425781 330.144531 96.855469 L 330.144531 51.5 C 330.144531 47.929688 333.058594 45.019531 336.632812 45.019531 C 340.203125 45.019531 343.117188 47.929688 343.117188 51.5 L 343.117188 96.855469 C 343.117188 100.425781 340.203125 103.335938 336.632812 103.335938 "></path><path style=" stroke:none;fill-rule:nonzero;fill:rgb(100%,83.139038%,69.018555%);fill-opacity:1;" d="M 265.273438 219.96875 L 265.273438 258.84375 L 317.167969 258.84375 C 338.660156 258.84375 356.09375 241.429688 356.09375 219.96875 L 356.09375 116.292969 C 356.09375 105.5625 347.375 96.855469 336.632812 96.855469 C 325.886719 96.855469 317.167969 105.5625 317.167969 116.292969 L 317.167969 207.007812 C 317.167969 214.171875 311.367188 219.96875 304.195312 219.96875 L 265.273438 219.96875 "></path><g clip-path="url(#clip1)" clip-rule="nonzero"><path style=" stroke:none;fill-rule:nonzero;fill:rgb(100%,88.62915%,61.959839%);fill-opacity:1;" d="M 174.453125 207.007812 L 271.757812 207.007812 L 271.757812 271.804688 L 232.835938 271.804688 L 232.835938 375.476562 L 64.171875 375.476562 L 64.171875 284.761719 L 12.273438 284.761719 L 12.273438 245.886719 C 12.273438 224.421875 29.707031 207.007812 51.195312 207.007812 L 122.554688 207.007812 L 148.503906 232.925781 L 174.453125 207.007812 "></path></g><path style=" stroke:none;fill-rule:nonzero;fill:rgb(17.649841%,70.199585%,34.118652%);fill-opacity:1;" d="M 219.863281 64.457031 L 219.863281 25.582031 C 219.863281 11.253906 208.257812 -0.335938 193.914062 -0.335938 L 103.09375 -0.335938 C 88.75 -0.335938 77.144531 11.253906 77.144531 25.582031 L 77.144531 64.457031 L 219.863281 64.457031 "></path><path style=" stroke:none;fill-rule:nonzero;fill:rgb(94.898987%,76.469421%,66.668701%);fill-opacity:1;" d="M 213.375 90.375 L 232.835938 90.375 C 240.007812 90.375 245.8125 96.171875 245.8125 103.335938 C 245.8125 110.5 240.007812 116.292969 232.835938 116.292969 L 213.375 116.292969 L 213.375 90.375 "></path><path style=" stroke:none;fill-rule:nonzero;fill:rgb(94.898987%,76.469421%,66.668701%);fill-opacity:1;" d="M 83.632812 90.375 L 64.171875 90.375 C 57 90.375 51.195312 96.171875 51.195312 103.335938 C 51.195312 110.5 57 116.292969 64.171875 116.292969 L 83.632812 116.292969 L 83.632812 90.375 "></path><path style=" stroke:none;fill-rule:nonzero;fill:rgb(100%,64.709473%,6.669617%);fill-opacity:1;" d="M 148.503906 232.925781 L 129.042969 252.363281 L 83.632812 207.007812 L 122.554688 207.007812 L 148.503906 232.925781 "></path><path style=" stroke:none;fill-rule:nonzero;fill:rgb(83.918762%,69.799805%,45.489502%);fill-opacity:1;" d="M 129.042969 375.476562 L 129.042969 252.363281 L 148.503906 232.925781 L 167.964844 252.363281 L 167.964844 375.476562 L 129.042969 375.476562 "></path><path style=" stroke:none;fill-rule:nonzero;fill:rgb(83.918762%,69.799805%,45.489502%);fill-opacity:1;" d="M 70.65625 284.761719 L 57.683594 284.761719 L 57.683594 258.84375 L 70.65625 258.84375 L 70.65625 284.761719 "></path><path style=" stroke:none;fill-rule:nonzero;fill:rgb(100%,64.709473%,6.669617%);fill-opacity:1;" d="M 148.503906 232.925781 L 167.964844 252.363281 L 213.375 207.007812 L 174.453125 207.007812 L 148.503906 232.925781 "></path><path style=" stroke:none;fill-rule:nonzero;fill:rgb(100%,83.139038%,69.018555%);fill-opacity:1;" d="M 77.144531 109.816406 L 77.144531 64.457031 L 219.863281 64.457031 L 219.863281 109.816406 C 219.863281 149.171875 187.90625 181.089844 148.503906 181.089844 C 109.097656 181.089844 77.144531 149.171875 77.144531 109.816406 "></path><path style=" stroke:none;fill-rule:nonzero;fill:rgb(93.728638%,14.898682%,28.239441%);fill-opacity:1;" d="M 129.042969 129.253906 L 129.042969 135.734375 C 129.042969 146.464844 137.757812 155.171875 148.503906 155.171875 C 159.246094 155.171875 167.964844 146.464844 167.964844 135.734375 L 167.964844 129.253906 L 129.042969 129.253906 "></path><path style=" stroke:none;fill-rule:nonzero;fill:rgb(13.729858%,31.369019%,52.938843%);fill-opacity:1;" d="M 200.402344 109.816406 L 187.425781 109.816406 L 187.425781 103.335938 C 187.425781 99.765625 184.511719 96.855469 180.9375 96.855469 C 177.367188 96.855469 174.453125 99.765625 174.453125 103.335938 L 174.453125 109.816406 L 161.476562 109.816406 L 161.476562 103.335938 C 161.476562 92.601562 170.195312 83.898438 180.9375 83.898438 C 191.683594 83.898438 200.402344 92.601562 200.402344 103.335938 L 200.402344 109.816406 "></path><path style=" stroke:none;fill-rule:nonzero;fill:rgb(13.729858%,31.369019%,52.938843%);fill-opacity:1;" d="M 135.527344 109.816406 L 122.554688 109.816406 L 122.554688 103.335938 C 122.554688 99.765625 119.640625 96.855469 116.066406 96.855469 C 112.496094 96.855469 109.582031 99.765625 109.582031 103.335938 L 109.582031 109.816406 L 96.605469 109.816406 L 96.605469 103.335938 C 96.605469 92.601562 105.324219 83.898438 116.066406 83.898438 C 126.8125 83.898438 135.527344 92.601562 135.527344 103.335938 L 135.527344 109.816406 "></path><path style=" stroke:none;fill-rule:nonzero;fill:rgb(1.568604%,36.468506%,19.60907%);fill-opacity:1;" d="M 271.757812 70.9375 L 25.246094 70.9375 C 21.675781 70.9375 18.761719 68.027344 18.761719 64.457031 C 18.761719 60.890625 21.675781 57.976562 25.246094 57.976562 L 271.757812 57.976562 C 275.332031 57.976562 278.246094 60.890625 278.246094 64.457031 C 278.246094 68.027344 275.332031 70.9375 271.757812 70.9375 "></path><path style=" stroke:none;fill-rule:nonzero;fill:rgb(12.159729%,57.649231%,25.878906%);fill-opacity:1;" d="M 116.066406 -0.335938 L 103.09375 -0.335938 C 88.75 -0.335938 77.144531 11.253906 77.144531 25.582031 L 77.144531 38.539062 C 98.632812 38.539062 116.066406 21.125 116.066406 -0.335938 "></path><path style=" stroke:none;fill-rule:nonzero;fill:rgb(12.159729%,57.649231%,25.878906%);fill-opacity:1;" d="M 193.914062 -0.335938 L 180.9375 -0.335938 C 180.9375 21.125 198.375 38.539062 219.863281 38.539062 L 219.863281 25.582031 C 219.863281 11.253906 208.257812 -0.335938 193.914062 -0.335938 "></path><path style=" stroke:none;fill-rule:nonzero;fill:rgb(13.729858%,31.369019%,52.938843%);fill-opacity:1;" d="M 148.503906 278.28125 C 148.125 278.28125 147.667969 278.207031 147.210938 278.15625 C 146.804688 278.082031 146.425781 277.953125 146.046875 277.75 C 145.640625 277.625 145.257812 277.449219 144.878906 277.167969 C 144.550781 276.992188 144.222656 276.664062 143.890625 276.410156 C 143.308594 275.75 142.851562 275.117188 142.546875 274.257812 C 142.144531 273.5 142.015625 272.636719 142.015625 271.804688 C 142.015625 270.109375 142.726562 268.4375 143.890625 267.195312 C 144.222656 266.945312 144.550781 266.691406 144.878906 266.414062 C 145.257812 266.160156 145.640625 265.957031 146.046875 265.828125 C 146.425781 265.652344 146.804688 265.527344 147.210938 265.449219 C 148.046875 265.246094 148.882812 265.246094 149.746094 265.449219 C 150.199219 265.527344 150.582031 265.652344 150.960938 265.828125 C 151.367188 265.957031 151.746094 266.160156 152.125 266.414062 C 152.457031 266.691406 152.785156 266.945312 153.113281 267.195312 C 154.28125 268.4375 154.992188 270.109375 154.992188 271.804688 C 154.992188 273.5 154.28125 275.167969 153.113281 276.410156 C 152.785156 276.664062 152.457031 276.992188 152.125 277.167969 C 151.746094 277.449219 151.367188 277.625 150.960938 277.75 C 150.582031 277.953125 150.199219 278.082031 149.746094 278.15625 C 149.339844 278.207031 148.882812 278.28125 148.503906 278.28125 "></path><path style=" stroke:none;fill-rule:nonzero;fill:rgb(13.729858%,31.369019%,52.938843%);fill-opacity:1;" d="M 148.503906 304.199219 C 148.125 304.199219 147.667969 304.125 147.210938 304.074219 C 146.804688 304 146.425781 303.871094 146.046875 303.667969 C 145.640625 303.542969 145.257812 303.367188 144.878906 303.085938 C 144.550781 302.835938 144.222656 302.582031 143.890625 302.328125 C 142.726562 301.085938 142.015625 299.417969 142.015625 297.722656 C 142.015625 296.886719 142.144531 296.027344 142.546875 295.265625 C 142.851562 294.40625 143.308594 293.773438 143.890625 293.113281 C 144.222656 292.863281 144.550781 292.53125 144.878906 292.332031 C 145.257812 292.078125 145.640625 291.875 146.046875 291.75 C 146.425781 291.570312 146.804688 291.445312 147.210938 291.367188 C 148.046875 291.167969 148.882812 291.167969 149.746094 291.367188 C 150.199219 291.445312 150.582031 291.570312 150.960938 291.75 C 151.367188 291.875 151.746094 292.078125 152.125 292.332031 C 152.457031 292.609375 152.785156 292.863281 153.113281 293.113281 C 154.28125 294.355469 154.992188 296.027344 154.992188 297.722656 C 154.992188 299.417969 154.28125 301.085938 153.113281 302.328125 C 152.785156 302.582031 152.457031 302.835938 152.125 303.085938 C 151.746094 303.367188 151.367188 303.542969 150.960938 303.667969 C 150.582031 303.871094 150.199219 304 149.746094 304.074219 C 149.339844 304.125 148.882812 304.199219 148.503906 304.199219 "></path><path style=" stroke:none;fill-rule:nonzero;fill:rgb(13.729858%,31.369019%,52.938843%);fill-opacity:1;" d="M 148.503906 330.121094 C 148.125 330.121094 147.667969 330.042969 147.210938 329.992188 C 146.804688 329.917969 146.425781 329.789062 146.046875 329.585938 C 145.640625 329.460938 145.257812 329.285156 144.878906 329.003906 C 144.550781 328.828125 144.222656 328.5 143.890625 328.246094 C 142.726562 327.007812 142.015625 325.335938 142.015625 323.640625 C 142.015625 322.804688 142.144531 321.945312 142.546875 321.183594 C 142.851562 320.398438 143.308594 319.691406 143.890625 319.03125 C 144.222656 318.78125 144.550781 318.527344 144.878906 318.25 C 145.257812 317.996094 145.640625 317.792969 146.046875 317.667969 C 146.425781 317.488281 146.804688 317.363281 147.210938 317.285156 C 148.046875 317.160156 148.882812 317.160156 149.746094 317.285156 C 150.199219 317.363281 150.582031 317.488281 150.960938 317.667969 C 151.367188 317.792969 151.746094 317.996094 152.125 318.25 C 152.457031 318.527344 152.785156 318.78125 153.113281 319.03125 C 154.28125 320.273438 154.992188 321.945312 154.992188 323.640625 C 154.992188 325.335938 154.28125 327.007812 153.113281 328.246094 C 152.785156 328.5 152.457031 328.753906 152.125 329.003906 C 151.746094 329.285156 151.367188 329.460938 150.960938 329.585938 C 150.582031 329.789062 150.199219 329.917969 149.746094 329.992188 C 149.339844 330.042969 148.882812 330.121094 148.503906 330.121094 "></path><path style=" stroke:none;fill-rule:nonzero;fill:rgb(13.729858%,31.369019%,52.938843%);fill-opacity:1;" d="M 148.503906 356.039062 C 148.125 356.039062 147.667969 355.960938 147.210938 355.910156 C 146.804688 355.835938 146.425781 355.707031 146.046875 355.507812 C 145.640625 355.378906 145.257812 355.203125 144.878906 354.921875 C 144.550781 354.746094 144.222656 354.417969 143.890625 354.164062 C 143.636719 353.835938 143.308594 353.507812 143.105469 353.175781 C 142.851562 352.796875 142.648438 352.417969 142.546875 352.011719 C 142.34375 351.632812 142.21875 351.253906 142.144531 350.847656 C 142.09375 350.394531 142.015625 350.011719 142.015625 349.558594 C 142.015625 348.722656 142.144531 347.863281 142.546875 347.101562 C 142.851562 346.242188 143.308594 345.535156 143.890625 344.953125 C 144.222656 344.699219 144.550781 344.371094 144.878906 344.167969 C 145.257812 343.914062 145.640625 343.738281 146.046875 343.585938 C 146.425781 343.40625 146.804688 343.28125 147.210938 343.203125 C 148.046875 343.003906 148.882812 343.003906 149.746094 343.203125 C 150.199219 343.28125 150.582031 343.40625 150.960938 343.585938 C 151.367188 343.738281 151.746094 343.914062 152.125 344.167969 C 152.457031 344.371094 152.785156 344.699219 153.113281 344.953125 C 153.699219 345.535156 154.152344 346.242188 154.457031 347.101562 C 154.789062 347.863281 154.992188 348.722656 154.992188 349.558594 C 154.992188 350.011719 154.914062 350.394531 154.863281 350.847656 C 154.789062 351.253906 154.660156 351.632812 154.457031 352.011719 C 154.332031 352.417969 154.152344 352.796875 153.902344 353.175781 C 153.621094 353.507812 153.367188 353.835938 153.113281 354.164062 C 152.785156 354.417969 152.457031 354.746094 152.125 354.921875 C 151.746094 355.203125 151.367188 355.378906 150.960938 355.507812 C 150.582031 355.707031 150.199219 355.835938 149.746094 355.910156 C 149.339844 355.960938 148.882812 356.039062 148.503906 356.039062 "></path><path style=" stroke:none;fill-rule:nonzero;fill:rgb(17.649841%,70.199585%,34.118652%);fill-opacity:1;" d="M 336.632812 51.5 L 336.632812 64.457031 C 315.140625 64.457031 297.707031 47.042969 297.707031 25.582031 L 297.707031 12.621094 C 319.195312 12.621094 336.632812 30.035156 336.632812 51.5 "></path></g></svg>