<svg xmlns="http://www.w3.org/2000/svg" xmlns:xlink="http://www.w3.org/1999/xlink" width="150pt" height="149.999998pt" viewBox="0 0 150 149.999998"><defs><clipPath id="clip1"><path d="M 88 67 L 122.699219 67 L 122.699219 89 L 88 89 Z M 88 67 "></path></clipPath><clipPath id="clip2"><path d="M 33 85 L 122.699219 85 L 122.699219 99 L 33 99 Z M 33 85 "></path></clipPath><clipPath id="clip3"><path d="M 66 85 L 122.699219 85 L 122.699219 150 L 66 150 Z M 66 85 "></path></clipPath></defs><g id="surface1"><g clip-path="url(#clip1)" clip-rule="nonzero"><path style=" stroke:none;fill-rule:nonzero;fill:rgb(32.548523%,48.239136%,24.308777%);fill-opacity:1;" d="M 94.589844 76.878906 C 94.589844 76.878906 104.496094 66.367188 121.796875 67.867188 C 122.351562 67.914062 122.710938 68.472656 122.527344 69 C 121.160156 72.878906 115.6875 86.519531 105.695312 88.136719 C 94.03125 90.023438 88.476562 86.425781 88.476562 86.425781 L 94.589844 76.878906 "></path></g><path style=" stroke:none;fill-rule:nonzero;fill:rgb(49.409485%,65.879822%,39.99939%);fill-opacity:1;" d="M 97.578125 51.882812 C 97.578125 51.882812 110.253906 45.191406 117.761719 39.363281 C 118.339844 38.914062 119.179688 39.375 119.113281 40.109375 C 118.519531 46.835938 115.292969 69.171875 98.4375 76.855469 L 89.003906 61.84375 L 97.578125 51.882812 "></path><path style=" stroke:none;fill-rule:nonzero;fill:rgb(32.548523%,48.239136%,24.308777%);fill-opacity:1;" d="M 109.675781 44.894531 C 103.519531 48.746094 97.578125 51.882812 97.578125 51.882812 L 89.003906 61.84375 L 91.722656 66.167969 L 91.921875 66.484375 L 94.710938 70.921875 L 98.4375 76.855469 C 101.472656 75.472656 104.0625 73.613281 106.277344 71.457031 C 107.976562 65.640625 107.457031 60.496094 106.554688 56.871094 C 106.273438 55.746094 106.339844 54.558594 106.796875 53.492188 C 108.371094 49.816406 109.242188 46.714844 109.675781 44.894531 "></path><path style=" stroke:none;fill-rule:nonzero;fill:rgb(49.409485%,65.879822%,39.99939%);fill-opacity:1;" d="M 105.074219 2.457031 C 103.304688 10.648438 97.390625 33.675781 84.507812 47.238281 L 73.824219 81.195312 L 93.738281 66.464844 C 93.738281 66.464844 118.902344 39.582031 106.699219 2.375 C 106.433594 1.554688 105.253906 1.613281 105.074219 2.457031 "></path><path style=" stroke:none;fill-rule:nonzero;fill:rgb(49.409485%,65.879822%,39.99939%);fill-opacity:1;" d="M 73.742188 78.347656 C 73.742188 78.347656 79.984375 71.25 89.5 67.269531 C 96.15625 64.488281 100.570312 60.828125 102.625 58.875 C 103.160156 58.367188 104.035156 58.738281 104.046875 59.480469 C 104.121094 64.933594 103.101562 80.292969 89.988281 87.167969 L 72.902344 84.976562 L 73.742188 78.347656 "></path><path style=" stroke:none;fill-rule:nonzero;fill:rgb(32.548523%,48.239136%,24.308777%);fill-opacity:1;" d="M 65.949219 0.847656 C 68.433594 5.722656 76.019531 23.019531 73.210938 48.042969 L 68.027344 66.539062 L 56.332031 51.910156 C 56.332031 51.910156 57.425781 15.308594 64.4375 0.867188 C 64.746094 0.238281 65.628906 0.226562 65.949219 0.847656 "></path><path style=" stroke:none;fill-rule:nonzero;fill:rgb(32.548523%,48.239136%,24.308777%);fill-opacity:1;" d="M 48.980469 86.210938 C 48.980469 86.210938 33 82.617188 33.292969 59.5 C 33.300781 58.953125 33.800781 58.546875 34.328125 58.675781 C 38.363281 59.644531 53.566406 64.636719 63.347656 86.210938 L 48.980469 86.210938 "></path><path style=" stroke:none;fill-rule:nonzero;fill:rgb(49.409485%,65.879822%,39.99939%);fill-opacity:1;" d="M 54.160156 86.210938 C 54.160156 86.210938 53.347656 83.636719 53.214844 78.5625 C 53 70.546875 50.859375 62.707031 47.121094 55.628906 C 42.019531 45.96875 36.886719 29.792969 42.324219 8.460938 C 42.503906 7.75 43.4375 7.578125 43.839844 8.191406 C 48.078125 14.558594 64.0625 40.917969 70.703125 85.050781 L 70.703125 86.210938 L 54.160156 86.210938 "></path><path style=" stroke:none;fill-rule:nonzero;fill:rgb(32.548523%,48.239136%,24.308777%);fill-opacity:1;" d="M 97.546875 69.472656 C 97.863281 68.960938 97.214844 68.40625 96.765625 68.804688 C 93.851562 71.371094 90.144531 74.039062 87.828125 75.644531 C 86.886719 73.503906 86.703125 71.027344 87.367188 68.6875 C 87.417969 68.511719 87.46875 68.339844 87.519531 68.167969 C 85.898438 68.949219 84.390625 69.8125 83.015625 70.691406 C 83.011719 70.691406 83.011719 70.691406 83.007812 70.691406 C 82.90625 70.753906 82.808594 70.820312 82.707031 70.886719 C 82.550781 70.988281 82.394531 71.09375 82.238281 71.195312 C 82.082031 71.296875 81.929688 71.402344 81.777344 71.503906 C 81.5625 71.652344 81.347656 71.800781 81.140625 71.949219 C 81 72.046875 80.863281 72.144531 80.726562 72.242188 C 80.578125 72.347656 80.4375 72.449219 80.296875 72.554688 C 80.101562 72.695312 79.914062 72.839844 79.726562 72.980469 C 79.597656 73.078125 79.46875 73.175781 79.34375 73.273438 C 79.21875 73.367188 79.097656 73.464844 78.976562 73.558594 C 78.789062 73.707031 78.601562 73.855469 78.421875 74 C 78.308594 74.09375 78.195312 74.1875 78.085938 74.277344 C 77.976562 74.367188 77.867188 74.457031 77.761719 74.546875 C 77.621094 74.667969 77.480469 74.785156 77.339844 74.902344 C 77.21875 75.007812 77.097656 75.109375 76.984375 75.210938 C 76.886719 75.296875 76.792969 75.378906 76.703125 75.460938 C 76.589844 75.558594 76.484375 75.652344 76.378906 75.75 C 76.261719 75.855469 76.152344 75.953125 76.042969 76.054688 C 75.953125 76.136719 75.867188 76.21875 75.78125 76.296875 C 75.710938 76.363281 75.640625 76.429688 75.574219 76.492188 C 75.449219 76.609375 75.332031 76.722656 75.222656 76.828125 C 75.160156 76.886719 75.105469 76.941406 75.050781 76.996094 C 74.972656 77.074219 74.894531 77.148438 74.824219 77.21875 C 74.765625 77.277344 74.710938 77.332031 74.65625 77.386719 C 74.578125 77.464844 74.503906 77.539062 74.433594 77.609375 C 74.398438 77.648438 74.363281 77.683594 74.328125 77.71875 C 74.253906 77.800781 74.179688 77.871094 74.117188 77.9375 C 74.097656 77.960938 74.078125 77.980469 74.058594 78 C 74.011719 78.054688 73.96875 78.097656 73.929688 78.136719 C 73.917969 78.15625 73.902344 78.171875 73.886719 78.183594 C 73.84375 78.230469 73.816406 78.265625 73.789062 78.292969 C 73.777344 78.304688 73.773438 78.308594 73.765625 78.316406 C 73.753906 78.335938 73.742188 78.347656 73.742188 78.347656 L 72.902344 84.976562 L 87.453125 86.839844 L 89.988281 87.167969 C 92.917969 85.628906 95.242188 83.667969 97.085938 81.492188 C 94.292969 81.40625 92.207031 80.527344 90.65625 79.308594 C 90.449219 79.148438 90.253906 78.980469 90.066406 78.804688 C 93.273438 75.953125 95.917969 72.136719 97.546875 69.472656 "></path><path style=" stroke:none;fill-rule:nonzero;fill:rgb(32.548523%,48.239136%,24.308777%);fill-opacity:1;" d="M 100.9375 32.597656 C 99.230469 35.828125 96.839844 40.039062 94.34375 43.488281 C 94.417969 39.777344 94.140625 36.429688 93.839844 33.988281 C 91.246094 38.796875 88.15625 43.398438 84.507812 47.238281 L 73.824219 81.195312 L 86.832031 71.570312 C 87.324219 68.226562 88.320312 64.800781 90.117188 61.609375 C 90.476562 60.96875 90.804688 60.3125 91.109375 59.644531 L 91.109375 59.648438 C 91.109375 59.648438 98.503906 47.492188 102.25 33.121094 C 102.464844 32.296875 101.332031 31.84375 100.9375 32.597656 "></path><path style=" stroke:none;fill-rule:nonzero;fill:rgb(32.548523%,48.239136%,24.308777%);fill-opacity:1;" d="M 70.222656 82.003906 C 70.207031 81.902344 70.191406 81.800781 70.175781 81.703125 C 70.144531 81.539062 70.121094 81.371094 70.089844 81.203125 C 69.921875 80.179688 69.746094 79.164062 69.566406 78.164062 C 69.550781 78.082031 69.539062 78.003906 69.523438 77.925781 C 69.351562 76.96875 69.175781 76.027344 68.992188 75.09375 C 68.957031 74.898438 68.921875 74.703125 68.882812 74.507812 C 68.6875 73.527344 68.492188 72.550781 68.292969 71.589844 C 68.285156 71.550781 68.277344 71.511719 68.269531 71.472656 C 68.269531 71.472656 68.269531 71.472656 68.269531 71.46875 C 66.835938 64.597656 65.195312 58.246094 63.453125 52.433594 C 62.8125 54.152344 61.847656 56.964844 61.011719 60.363281 C 61.011719 60.363281 61.011719 60.371094 61.007812 60.375 C 61 60.40625 60.992188 60.4375 60.984375 60.472656 C 60.960938 60.570312 60.914062 60.738281 60.847656 60.960938 C 58.585938 51.785156 53.40625 39.941406 49.792969 32.265625 C 49.335938 31.296875 47.882812 31.835938 48.148438 32.871094 C 52.597656 50.136719 55.542969 62.503906 56.914062 68.390625 C 55.785156 69.769531 54.375 71.09375 52.625 72.144531 C 52.757812 73 52.863281 73.855469 52.953125 74.714844 C 53.003906 75.1875 53.046875 75.664062 53.082031 76.140625 C 53.09375 76.308594 53.109375 76.476562 53.121094 76.644531 C 53.164062 77.28125 53.195312 77.921875 53.214844 78.5625 C 53.347656 83.636719 54.160156 86.210938 54.160156 86.210938 L 70.703125 86.210938 L 70.703125 85.050781 C 70.546875 84.023438 70.386719 83.011719 70.222656 82.003906 "></path><path style=" stroke:none;fill-rule:nonzero;fill:rgb(49.409485%,65.879822%,39.99939%);fill-opacity:1;" d="M 65.019531 86.210938 C 65.019531 86.210938 57.496094 64.117188 71.910156 46.074219 C 73.851562 43.648438 75.714844 41.160156 77.367188 38.527344 C 79.636719 34.902344 82.238281 30.136719 83.332031 25.863281 C 83.519531 25.128906 84.511719 25.003906 84.878906 25.667969 C 87.53125 30.445312 93.195312 44.160156 83.785156 62.1875 C 81.882812 65.835938 80.582031 69.785156 80.101562 73.878906 C 79.625 77.929688 79.855469 82.585938 82.230469 86.210938 L 65.019531 86.210938 "></path><path style=" stroke:none;fill-rule:nonzero;fill:rgb(32.548523%,48.239136%,24.308777%);fill-opacity:1;" d="M 80.109375 80.265625 C 77.972656 80.15625 76.082031 79.828125 74.398438 79.347656 C 73.664062 74.828125 73.480469 67.605469 76.195312 57.585938 C 76.636719 55.964844 74.367188 55.109375 73.636719 56.625 C 71.046875 62.015625 68.769531 69.183594 69.34375 77.085938 C 66.21875 75.078125 64.292969 72.433594 63.113281 70.046875 C 62.667969 79.296875 65.019531 86.210938 65.019531 86.210938 L 82.230469 86.210938 C 81.054688 84.414062 80.40625 82.367188 80.109375 80.265625 "></path><path style=" stroke:none;fill-rule:nonzero;fill:rgb(32.548523%,48.239136%,24.308777%);fill-opacity:1;" d="M 76.988281 48.722656 C 77.035156 48.390625 77.191406 48.078125 77.4375 47.84375 L 77.492188 47.789062 C 78.503906 46.816406 80.175781 47.636719 80.035156 49.039062 C 80 49.402344 79.835938 49.738281 79.574219 49.988281 L 79.519531 50.039062 C 78.484375 51.03125 76.785156 50.148438 76.988281 48.722656 "></path><path style=" stroke:none;fill-rule:nonzero;fill:rgb(98.039246%,70.979309%,49.409485%);fill-opacity:1;" d="M 78.078125 94.367188 L 40.449219 94.367188 L 41.054688 98.140625 L 48.316406 149.757812 L 107.839844 149.757812 L 115.101562 98.140625 L 115.710938 94.367188 L 78.078125 94.367188 "></path><g clip-path="url(#clip2)" clip-rule="nonzero"><path style=" stroke:none;fill-rule:nonzero;fill:rgb(98.039246%,70.979309%,49.409485%);fill-opacity:1;" d="M 33.820312 85.050781 L 35.03125 92.6875 C 35.527344 95.835938 38.074219 98.140625 41.054688 98.140625 L 115.101562 98.140625 C 118.082031 98.140625 120.628906 95.835938 121.128906 92.6875 L 122.335938 85.050781 L 33.820312 85.050781 "></path></g><g clip-path="url(#clip3)" clip-rule="nonzero"><path style=" stroke:none;fill-rule:nonzero;fill:rgb(92.158508%,51.759338%,33.329773%);fill-opacity:1;" d="M 109.515625 85.050781 L 107.375 93.253906 C 107.375 93.253906 107.28125 93.722656 107.039062 94.367188 C 107.007812 94.453125 106.972656 94.542969 106.933594 94.632812 C 106.929688 94.648438 106.921875 94.664062 106.914062 94.679688 C 106.882812 94.753906 106.851562 94.828125 106.816406 94.90625 C 106.808594 94.925781 106.796875 94.945312 106.789062 94.96875 C 106.746094 95.058594 106.699219 95.152344 106.652344 95.25 C 106.648438 95.253906 106.644531 95.261719 106.644531 95.265625 C 106.597656 95.351562 106.550781 95.441406 106.5 95.527344 C 106.488281 95.554688 106.472656 95.582031 106.457031 95.609375 C 106.414062 95.683594 106.367188 95.757812 106.320312 95.835938 C 106.304688 95.859375 106.292969 95.878906 106.28125 95.898438 C 106.222656 95.992188 106.160156 96.085938 106.089844 96.179688 C 106.078125 96.199219 106.0625 96.21875 106.046875 96.242188 C 105.992188 96.3125 105.9375 96.382812 105.882812 96.457031 C 105.859375 96.484375 105.835938 96.507812 105.816406 96.535156 C 105.746094 96.617188 105.679688 96.695312 105.605469 96.773438 C 105.597656 96.78125 105.589844 96.789062 105.582031 96.800781 C 105.5 96.882812 105.417969 96.964844 105.332031 97.042969 C 105.304688 97.066406 105.28125 97.089844 105.253906 97.113281 C 105.183594 97.171875 105.113281 97.230469 105.042969 97.285156 C 105.015625 97.304688 104.988281 97.328125 104.964844 97.34375 C 104.867188 97.417969 104.769531 97.484375 104.664062 97.550781 C 104.648438 97.558594 104.628906 97.570312 104.613281 97.578125 C 104.523438 97.632812 104.429688 97.683594 104.335938 97.726562 C 104.304688 97.746094 104.269531 97.761719 104.234375 97.777344 C 104.140625 97.816406 104.046875 97.859375 103.949219 97.894531 C 103.925781 97.902344 103.902344 97.914062 103.875 97.921875 C 103.757812 97.964844 103.628906 98 103.5 98.03125 C 103.46875 98.039062 103.433594 98.042969 103.402344 98.050781 C 103.300781 98.070312 103.195312 98.089844 103.085938 98.101562 C 103.046875 98.109375 103.007812 98.113281 102.964844 98.117188 C 102.824219 98.128906 102.679688 98.140625 102.53125 98.140625 L 68.117188 98.140625 C 66.335938 98.140625 66.121094 100.746094 67.878906 101.039062 L 89.382812 104.636719 C 95.972656 105.738281 100.460938 111.957031 99.46875 118.601562 L 94.808594 149.757812 L 107.839844 149.757812 L 115.101562 98.140625 C 118.082031 98.140625 120.628906 95.835938 121.128906 92.6875 L 122.335938 85.050781 L 109.515625 85.050781 "></path></g></g></svg>